<?xml version="1.0" standalone="no"?>
<!DOCTYPE svg PUBLIC "-//W3C//DTD SVG 1.1//EN" "http://www.w3.org/Graphics/SVG/1.1/DTD/svg11.dtd" >
<svg xmlns="http://www.w3.org/2000/svg" xmlns:xlink="http://www.w3.org/1999/xlink" version="1.1">
<metadata>
Created by FontForge 20160407 at Mon Oct 10 04:10:18 2016
 By Jimmy Warting
Brought to you by The Institute for Applied Piracy.  For personal / evaluation use only.  Never use pirated fonts in commercial works.  Please buy a license if you like this typeface and/or if you plan to use it commercially.
</metadata>
<defs>
<font id="AcuminProExtraCond-Semibold" horiz-adv-x="400" >
  <font-face 
    font-family="Acumin Pro ExtraCondensed"
    font-weight="600"
    font-stretch="extra-condensed"
    units-per-em="1000"
    panose-1="2 11 7 8 2 2 2 2 2 4"
    ascent="735"
    descent="-265"
    x-height="514"
    cap-height="668"
    bbox="-127 -261 733 946"
    underline-thickness="50"
    underline-position="-100"
    stemh="77"
    stemv="90"
    unicode-range="U+0020-FB02"
  />
<missing-glyph horiz-adv-x="500" 
d="M0 0v700h500v-700h-500zM250 395l170 255h-340zM280 350l170 -255v510zM80 50h340l-170 255zM50 605v-510l170 255z" />
    <glyph glyph-name="f_f" unicode="ff" horiz-adv-x="402" 
d="M143 0h-89v435h-52v79h52v60c0 70 22 128 112 128c14 0 27 -2 36 -4v-80c-7 1 -12 2 -19 2c-35 0 -40 -21 -40 -54v-52h105v56c0 69 23 132 113 132c13 0 27 -1 35 -4v-80c-7 1 -11 2 -18 2c-32 0 -40 -24 -40 -57v-49h64v-79h-64v-435h-90v435h-105v-435z" />
    <glyph glyph-name=".notdef" horiz-adv-x="500" 
d="M0 0v700h500v-700h-500zM250 395l170 255h-340zM280 350l170 -255v510zM80 50h340l-170 255zM50 605v-510l170 255z" />
    <glyph glyph-name="space" unicode=" " horiz-adv-x="133" 
 />
    <glyph glyph-name="A" unicode="A" horiz-adv-x="366" 
d="M233 193h-107l-27 -193h-91l109 668h127l113 -668h-94zM138 276h84c-18 127 -34 238 -41 308h-3c-3 -54 -25 -200 -40 -308z" />
    <glyph glyph-name="B" unicode="B" horiz-adv-x="366" 
d="M47 0v668h128c111 0 153 -54 153 -149v-27c0 -94 -31 -122 -62 -135c33 -11 75 -39 75 -134v-50c0 -114 -44 -173 -159 -173h-135zM134 392h33c59 0 76 20 76 91v28c0 57 -20 82 -73 82h-36v-201zM134 318v-244h38c64 0 81 30 81 101v46c0 68 -21 97 -86 97h-33z" />
    <glyph glyph-name="C" unicode="C" horiz-adv-x="340" 
d="M232 196h91v-24c0 -80 -14 -181 -147 -181c-120 0 -144 79 -144 179v338c0 105 47 169 146 169c119 0 142 -81 142 -172v-28h-90v38c0 48 -10 81 -53 81c-41 0 -53 -31 -53 -82v-351c0 -53 11 -91 55 -91c43 0 53 36 53 91v33z" />
    <glyph glyph-name="D" unicode="D" horiz-adv-x="384" 
d="M47 0v668h134c143 0 170 -80 170 -196v-260c0 -102 -17 -212 -172 -212h-132zM137 591v-514h36c73 0 87 44 87 121v282c0 68 -12 111 -87 111h-36z" />
    <glyph glyph-name="E" unicode="E" horiz-adv-x="314" 
d="M284 395v-82h-148v-231h169l-11 -82h-248v668h246v-83h-156v-190h148z" />
    <glyph glyph-name="F" unicode="F" horiz-adv-x="306" 
d="M47 0v668h249v-83h-159v-193h150v-83h-150v-309h-90z" />
    <glyph glyph-name="G" unicode="G" horiz-adv-x="374" 
d="M334 370v-370h-70c-2 11 -4 39 -5 53c-18 -46 -56 -62 -100 -62c-95 0 -127 70 -127 180v322c0 110 44 184 152 184c131 0 148 -94 148 -171v-20h-89v23c0 41 -6 87 -59 87c-41 0 -60 -28 -60 -90v-343c0 -59 16 -93 58 -93c52 0 62 46 62 121v102h-65v77h155z" />
    <glyph glyph-name="H" unicode="H" horiz-adv-x="396" 
d="M47 0v668h90v-269h122v269h90v-668h-90v316h-122v-316h-90z" />
    <glyph glyph-name="I" unicode="I" horiz-adv-x="184" 
d="M47 668h90v-668h-90v668z" />
    <glyph glyph-name="J" unicode="J" horiz-adv-x="213" 
d="M170 668v-523c0 -83 -10 -153 -121 -153c-14 0 -35 2 -49 4v77c8 -1 18 -2 32 -2c36 0 49 10 49 63v534h89z" />
    <glyph glyph-name="K" unicode="K" horiz-adv-x="359" 
d="M47 0v668h88v-310h1c27 64 90 215 130 310h99l-124 -262l133 -406h-98l-96 313l-45 -92v-221h-88z" />
    <glyph glyph-name="L" unicode="L" horiz-adv-x="303" 
d="M47 0v668h90v-588h168l-9 -80h-249z" />
    <glyph glyph-name="M" unicode="M" horiz-adv-x="515" 
d="M382 0v261c0 118 2 255 4 329h-1c-16 -114 -59 -394 -91 -590h-85c-24 173 -68 470 -83 591h-2c2 -78 5 -229 5 -344v-247h-82v668h133c31 -181 65 -395 74 -485h1c10 90 53 314 84 485h129v-668h-86z" />
    <glyph glyph-name="N" unicode="N" horiz-adv-x="403" 
d="M131 0h-84v668h105l98 -370c14 -50 21 -90 26 -119h2c-5 86 -5 180 -5 289v200h83v-668h-101l-110 422c-9 35 -14 63 -18 83h-1c4 -81 5 -178 5 -299v-206z" />
    <glyph glyph-name="O" unicode="O" horiz-adv-x="375" 
d="M189 677c100 0 153 -62 153 -181v-322c0 -124 -52 -183 -159 -183c-106 0 -151 63 -151 182v324c0 122 59 180 157 180zM187 596c-42 0 -63 -29 -63 -92v-341c0 -64 23 -91 63 -91c43 0 64 26 64 93v339c0 61 -20 92 -64 92z" />
    <glyph glyph-name="P" unicode="P" horiz-adv-x="358" 
d="M47 0v668h137c104 0 155 -51 155 -165v-40c0 -106 -36 -180 -160 -180h-42v-283h-90zM137 593v-236h33c69 0 80 41 80 108v34c0 51 -10 94 -72 94h-41z" />
    <glyph glyph-name="Q" unicode="Q" horiz-adv-x="376" 
d="M189 677c100 0 153 -62 153 -181v-322c0 -55 -10 -98 -31 -127l78 -62l-54 -63l-95 76c-17 -5 -36 -7 -57 -7c-106 0 -151 63 -151 182v324c0 122 59 180 157 180zM187 596c-42 0 -63 -29 -63 -92v-341c0 -64 23 -91 63 -91c43 0 64 26 64 93v339c0 61 -20 92 -64 92z
" />
    <glyph glyph-name="R" unicode="R" horiz-adv-x="363" 
d="M47 0v668h132c101 0 156 -42 156 -158v-27c0 -98 -37 -129 -68 -140c41 -18 62 -47 62 -137c0 -57 -1 -165 6 -206h-86c-9 41 -7 152 -7 200c0 83 -12 104 -74 104h-31v-304h-90zM137 593v-214h32c58 0 77 27 77 99v26c0 56 -14 89 -76 89h-33z" />
    <glyph glyph-name="S" unicode="S" horiz-adv-x="332" 
d="M14 193h89v-40c0 -55 18 -86 60 -86c44 0 58 37 58 93c0 74 -16 100 -88 156c-71 56 -109 92 -109 190c0 87 26 172 140 172c113 0 136 -79 136 -157v-33h-89v31c0 50 -9 82 -48 82s-49 -34 -49 -82c0 -53 10 -77 70 -121c97 -72 127 -114 127 -225
c0 -94 -31 -182 -150 -182c-117 0 -147 75 -147 163v39z" />
    <glyph glyph-name="T" unicode="T" horiz-adv-x="303" 
d="M107 0v585h-108v83h305v-83h-108v-585h-89z" />
    <glyph glyph-name="U" unicode="U" horiz-adv-x="388" 
d="M43 668h90v-513c0 -51 17 -83 61 -83c46 0 61 33 61 83v513h89v-511c0 -104 -47 -166 -151 -166c-101 0 -150 55 -150 165v512z" />
    <glyph glyph-name="V" unicode="V" horiz-adv-x="357" 
d="M7 668h97l39 -283c13 -92 30 -195 36 -268h1c6 70 24 173 35 265l39 286h95l-115 -668h-110z" />
    <glyph glyph-name="W" unicode="W" horiz-adv-x="538" 
d="M196 0h-92l-92 668h95c18 -152 44 -399 49 -516h2c12 127 48 365 68 516h89c21 -155 56 -376 67 -512h2c8 124 35 356 52 512h91l-100 -668h-93c-20 153 -53 367 -66 493h-2c-14 -132 -48 -344 -70 -493z" />
    <glyph glyph-name="X" unicode="X" horiz-adv-x="323" 
d="M333 0h-99l-73 256h-1l-77 -256h-93l119 343l-113 325h99l68 -232h1l68 232h94l-113 -313z" />
    <glyph glyph-name="Y" unicode="Y" horiz-adv-x="332" 
d="M210 0h-89v242c0 8 -1 13 -3 21l-124 405h99c29 -114 64 -246 74 -314h1c14 72 48 204 75 314h95l-126 -412c-1 -5 -2 -11 -2 -23v-233z" />
    <glyph glyph-name="Z" unicode="Z" horiz-adv-x="311" 
d="M11 0v59l192 526h-176v83h274v-69l-187 -517h192l-12 -82h-283z" />
    <glyph glyph-name="a" unicode="a" horiz-adv-x="348" 
d="M302 387v-289c0 -33 0 -80 2 -98h-82c-2 11 -6 32 -6 39c-17 -34 -47 -47 -85 -47c-76 0 -106 69 -106 148v9c0 122 80 159 172 159h16v72c0 43 -6 68 -41 68c-34 0 -43 -26 -43 -62v-10h-88v9c0 73 28 137 134 137c95 0 127 -55 127 -135zM215 173v66h-21
c-51 0 -84 -21 -84 -89v-8c0 -41 14 -71 49 -71c40 0 56 29 56 102z" />
    <glyph glyph-name="b" unicode="b" horiz-adv-x="362" 
d="M45 134v563h89v-228c16 32 47 53 92 53c75 0 106 -62 106 -153v-186c0 -112 -21 -190 -118 -190c-50 0 -73 24 -86 54c0 -20 -1 -33 -3 -47h-81c1 33 1 78 1 134zM242 167v188c0 53 -10 86 -50 86c-48 0 -58 -42 -58 -106v-165c0 -66 16 -97 55 -97c35 0 53 29 53 94z
" />
    <glyph glyph-name="c" unicode="c" horiz-adv-x="321" 
d="M212 167h89v-7c0 -91 -23 -168 -137 -168c-111 0 -134 75 -134 181v186c0 85 30 163 139 163c117 0 132 -85 132 -151v-20h-89v20c0 43 -6 75 -45 75c-34 0 -47 -26 -47 -77v-222c0 -40 8 -79 47 -79c36 0 45 27 45 78v21z" />
    <glyph glyph-name="d" unicode="d" horiz-adv-x="362" 
d="M228 697h90v-559c0 -71 0 -110 1 -138h-86c-1 12 -3 40 -3 50c-15 -33 -39 -58 -90 -58c-90 0 -110 72 -110 171v205c0 90 35 154 117 154c39 0 68 -13 81 -37v212zM120 362v-205c0 -55 14 -84 51 -84c47 0 57 43 57 107v163c0 56 -5 98 -55 98c-38 0 -53 -30 -53 -79z
" />
    <glyph glyph-name="e" unicode="e" horiz-adv-x="338" 
d="M311 235h-193v-79c0 -45 9 -88 53 -88s51 38 51 80v3h87v-3c0 -56 -12 -156 -136 -156c-121 0 -143 77 -143 181v178c0 73 25 171 143 171c105 0 138 -74 138 -171v-116zM119 306h106v58c0 47 -9 82 -52 82c-40 0 -54 -30 -54 -83v-57z" />
    <glyph glyph-name="f" unicode="f" horiz-adv-x="207" 
d="M143 0h-89v435h-52v79h52v60c0 67 26 128 115 128c14 0 28 -1 37 -4v-80c-8 1 -13 2 -20 2c-35 0 -43 -21 -43 -57v-49h64v-79h-64v-435z" />
    <glyph glyph-name="g" unicode="g" horiz-adv-x="362" 
d="M317 383v-362c0 -110 -11 -202 -150 -202c-116 0 -136 75 -136 131v3h90v-3c0 -19 7 -56 51 -56c47 0 56 35 56 104v60c-13 -31 -41 -50 -86 -50c-87 0 -112 67 -112 160v199c0 79 32 155 123 155c54 0 76 -26 85 -53c0 15 2 36 4 45h77c-1 -30 -2 -74 -2 -131zM120 362
v-187c0 -58 15 -87 50 -87c50 0 58 44 58 110v151c0 50 -5 92 -52 92c-37 0 -56 -26 -56 -79z" />
    <glyph glyph-name="h" unicode="h" horiz-adv-x="376" 
d="M45 0v697h89v-227c15 30 44 52 95 52c78 0 102 -58 102 -132v-390h-90v366c0 40 -6 75 -49 75c-46 0 -58 -33 -58 -98v-343h-89z" />
    <glyph glyph-name="i" unicode="i" horiz-adv-x="180" 
d="M45 0v514h89v-514h-89zM45 590v107h90v-107h-90z" />
    <glyph glyph-name="j" unicode="j" horiz-adv-x="181" 
d="M47 590v107h90v-107h-90zM46 514h90v-547c0 -77 -10 -145 -107 -145c-9 0 -21 0 -41 2v80c10 -1 17 -1 23 -1c26 0 35 7 35 51v560z" />
    <glyph glyph-name="k" unicode="k" horiz-adv-x="327" 
d="M134 697v-412h1c24 57 73 165 101 229h94c-34 -70 -65 -130 -96 -189l107 -325h-98l-70 238c-10 -19 -30 -59 -39 -76v-162h-89v697h89z" />
    <glyph glyph-name="l" unicode="l" horiz-adv-x="179" 
d="M134 0h-89v697h89v-697z" />
    <glyph glyph-name="m" unicode="m" horiz-adv-x="544" 
d="M45 0v365c0 99 0 125 -1 149h85c3 -15 3 -29 4 -46c16 34 46 54 89 54c41 0 69 -17 81 -57c17 30 44 57 97 57c54 0 100 -26 100 -126v-396h-90v379c0 38 -9 62 -42 62c-41 0 -51 -34 -51 -87v-354h-90v376c0 51 -14 65 -43 65c-41 0 -50 -35 -50 -88v-353h-89z" />
    <glyph glyph-name="n" unicode="n" horiz-adv-x="376" 
d="M45 0v356c0 104 0 134 -1 158h85c2 -12 4 -31 4 -49c15 33 43 57 94 57c60 0 104 -35 104 -131v-391h-90v373c0 48 -16 68 -48 68c-39 0 -59 -20 -59 -101v-340h-89z" />
    <glyph glyph-name="o" unicode="o" horiz-adv-x="348" 
d="M176 522c90 0 142 -57 142 -161v-205c0 -110 -54 -164 -145 -164c-93 0 -143 54 -143 163v209c0 107 59 158 146 158zM174 443c-37 0 -54 -28 -54 -77v-214c0 -48 15 -80 55 -80c36 0 53 26 53 81v213c0 44 -13 77 -54 77z" />
    <glyph glyph-name="p" unicode="p" horiz-adv-x="363" 
d="M45 -173v539c0 70 0 116 -1 148h85c2 -10 4 -32 4 -52c14 33 42 60 93 60c72 0 106 -49 106 -150v-214c0 -116 -41 -166 -115 -166c-47 0 -71 23 -83 47v-212h-89zM134 348v-174c0 -56 9 -101 55 -101c40 0 53 31 53 84v209c0 53 -18 75 -49 75c-42 0 -59 -31 -59 -93z
" />
    <glyph glyph-name="q" unicode="q" horiz-adv-x="365" 
d="M228 -173v219c-15 -35 -44 -54 -90 -54c-93 0 -108 87 -108 174v187c0 92 32 169 120 169c51 0 72 -23 81 -46c0 13 1 25 3 38h85c-1 -33 -1 -84 -1 -161v-526h-90zM120 361v-202c0 -47 12 -86 51 -86c48 0 58 45 58 111v160c0 50 -2 97 -54 97c-43 0 -55 -34 -55 -80z
" />
    <glyph glyph-name="r" unicode="r" horiz-adv-x="248" 
d="M243 521v-110c-61 0 -109 -24 -109 -124v-287h-89v340c0 84 0 124 -1 174h85c1 -11 2 -51 2 -82c20 67 65 89 112 89z" />
    <glyph glyph-name="s" unicode="s" horiz-adv-x="313" 
d="M16 158h91v-24c0 -39 13 -66 48 -66c32 0 46 20 46 60s-12 63 -73 103c-70 45 -103 82 -103 155c0 82 43 136 130 136c94 0 129 -55 129 -142v-22h-87v30c0 39 -12 58 -42 58c-29 0 -41 -21 -41 -53c0 -33 11 -48 60 -80c84 -54 117 -90 117 -175
c0 -96 -46 -146 -139 -146c-110 0 -136 70 -136 143v23z" />
    <glyph glyph-name="t" unicode="t" horiz-adv-x="217" 
d="M-3 435v79h57v125h89v-125h68v-79h-68v-321c0 -25 4 -47 36 -47c9 0 23 1 29 3v-68c-16 -8 -41 -9 -59 -9c-59 0 -95 20 -95 105v337h-57z" />
    <glyph glyph-name="u" unicode="u" horiz-adv-x="373" 
d="M328 514v-369c0 -71 0 -119 1 -145h-85c-2 10 -4 35 -4 51c-17 -46 -51 -59 -94 -59c-46 0 -102 20 -102 133v389h90v-366c0 -53 15 -75 49 -75s55 21 55 101v340h90z" />
    <glyph glyph-name="v" unicode="v" horiz-adv-x="328" 
d="M4 514h96c16 -95 52 -307 65 -414h1c9 101 51 313 68 414h89l-110 -514h-101z" />
    <glyph glyph-name="w" unicode="w" horiz-adv-x="503" 
d="M6 514h95c35 -255 43 -327 48 -389h1c6 65 23 148 62 389h85c39 -246 55 -325 61 -389h1c5 56 9 111 48 389h90l-96 -514h-89c-25 157 -51 289 -60 367h-1c-6 -72 -32 -195 -63 -367h-91z" />
    <glyph glyph-name="x" unicode="x" horiz-adv-x="303" 
d="M-3 514h98c31 -87 50 -142 58 -169h1c11 36 34 92 60 169h93l-104 -238l106 -276h-97c-36 101 -53 164 -61 189h-1c-9 -28 -31 -97 -61 -189h-95l105 265z" />
    <glyph glyph-name="y" unicode="y" horiz-adv-x="327" 
d="M4 514h96c31 -176 59 -342 63 -405h3c9 86 36 215 68 405h89l-115 -540c-31 -146 -80 -154 -138 -154c-16 0 -31 2 -43 4l1 81c2 -1 18 -3 30 -3c34 0 50 13 62 78z" />
    <glyph glyph-name="z" unicode="z" horiz-adv-x="280" 
d="M7 0v61c19 41 110 251 164 371h-149v82h248v-63c-11 -28 -118 -278 -159 -369h161l-8 -82h-257z" />
    <glyph glyph-name="Agrave" unicode="&#xc0;" horiz-adv-x="366" 
d="M233 193h-107l-27 -193h-91l109 668h127l113 -668h-94zM138 276h84c-18 127 -34 238 -41 308h-3c-3 -54 -25 -200 -40 -308zM14 810h115l97 -101h-88z" />
    <glyph glyph-name="Aacute" unicode="&#xc1;" horiz-adv-x="366" 
d="M233 193h-107l-27 -193h-91l109 668h127l113 -668h-94zM138 276h84c-18 127 -34 238 -41 308h-3c-3 -54 -25 -200 -40 -308zM232 813h111l-123 -101h-85z" />
    <glyph glyph-name="Acircumflex" unicode="&#xc2;" horiz-adv-x="366" 
d="M233 193h-107l-27 -193h-91l109 668h127l113 -668h-94zM138 276h84c-18 127 -34 238 -41 308h-3c-3 -54 -25 -200 -40 -308zM131 801h100l85 -93h-92l-43 46l-42 -46h-92z" />
    <glyph glyph-name="Atilde" unicode="&#xc3;" horiz-adv-x="366" 
d="M233 193h-107l-27 -193h-91l109 668h127l113 -668h-94zM138 276h84c-18 127 -34 238 -41 308h-3c-3 -54 -25 -200 -40 -308zM114 715h-56v16c0 62 31 80 66 80c44 0 82 -30 105 -30c10 0 20 3 20 22v9h55v-10c0 -66 -22 -88 -65 -88c-42 0 -79 28 -105 28
c-12 0 -20 -6 -20 -21v-6z" />
    <glyph glyph-name="Adieresis" unicode="&#xc4;" horiz-adv-x="366" 
d="M233 193h-107l-27 -193h-91l109 668h127l113 -668h-94zM138 276h84c-18 127 -34 238 -41 308h-3c-3 -54 -25 -200 -40 -308zM154 714h-79v101h79v-101zM290 714h-79v101h79v-101z" />
    <glyph glyph-name="Amacron" unicode="&#x100;" horiz-adv-x="366" 
d="M233 193h-107l-27 -193h-91l109 668h127l113 -668h-94zM138 276h84c-18 127 -34 238 -41 308h-3c-3 -54 -25 -200 -40 -308zM76 792h214v-68h-214v68z" />
    <glyph glyph-name="Abreve" unicode="&#x102;" horiz-adv-x="366" 
d="M233 193h-107l-27 -193h-91l109 668h127l113 -668h-94zM138 276h84c-18 127 -34 238 -41 308h-3c-3 -54 -25 -200 -40 -308zM64 813h65c6 -22 21 -41 53 -41c35 0 47 20 53 41h64c-11 -57 -45 -103 -118 -103c-77 0 -111 49 -117 103z" />
    <glyph glyph-name="Aring" unicode="&#xc5;" horiz-adv-x="366" 
d="M233 193h-107l-27 -193h-91l109 668h127l113 -668h-94zM138 276h84c-18 127 -34 238 -41 308h-3c-3 -54 -25 -200 -40 -308zM182 702c-50 0 -81 37 -81 80c0 46 29 82 80 82c49 0 80 -35 80 -80c0 -48 -32 -82 -79 -82zM182 745c23 0 34 19 34 38s-11 39 -35 39
s-35 -17 -35 -38c0 -20 11 -39 36 -39z" />
    <glyph glyph-name="uni01CD" unicode="&#x1cd;" horiz-adv-x="366" 
d="M233 193h-107l-27 -193h-91l109 668h127l113 -668h-94zM138 276h84c-18 127 -34 238 -41 308h-3c-3 -54 -25 -200 -40 -308zM231 712h-99l-86 94h93l43 -50l41 50h92z" />
    <glyph glyph-name="uni1EA0" unicode="&#x1ea0;" horiz-adv-x="366" 
d="M233 193h-107l-27 -193h-91l109 668h127l113 -668h-94zM138 276h84c-18 127 -34 238 -41 308h-3c-3 -54 -25 -200 -40 -308zM227 -155h-90v97h90v-97z" />
    <glyph glyph-name="uni1EA2" unicode="&#x1ea2;" horiz-adv-x="366" 
d="M233 193h-107l-27 -193h-91l109 668h127l113 -668h-94zM138 276h84c-18 127 -34 238 -41 308h-3c-3 -54 -25 -200 -40 -308zM211 709h-73c31 29 40 42 40 63c0 12 -7 24 -28 24c-17 0 -31 -7 -42 -13l-19 47c17 13 47 27 87 27c57 0 80 -31 80 -67s-24 -64 -45 -81z" />
    <glyph glyph-name="uni1EA4" unicode="&#x1ea4;" horiz-adv-x="366" 
d="M233 193h-107l-27 -193h-91l109 668h127l113 -668h-94zM138 276h84c-18 127 -34 238 -41 308h-3c-3 -54 -25 -200 -40 -308zM134 801h93l86 -89h-87l-45 47l-45 -47h-88zM350 874h99l-94 -84h-76z" />
    <glyph glyph-name="uni1EA6" unicode="&#x1ea6;" horiz-adv-x="366" 
d="M233 193h-107l-27 -193h-91l109 668h127l113 -668h-94zM138 276h84c-18 127 -34 238 -41 308h-3c-3 -54 -25 -200 -40 -308zM134 801h93l86 -89h-87l-45 47l-45 -47h-88zM221 875h97l73 -88h-72z" />
    <glyph glyph-name="uni1EA8" unicode="&#x1ea8;" horiz-adv-x="366" 
d="M233 193h-107l-27 -193h-91l109 668h127l113 -668h-94zM138 276h84c-18 127 -34 238 -41 308h-3c-3 -54 -25 -200 -40 -308zM343 792h-66c28 27 39 40 39 58c0 11 -7 20 -26 20c-15 0 -28 -5 -41 -14l-20 43c15 11 43 28 83 28c49 0 73 -28 73 -62s-22 -58 -42 -73z
M134 801h93l86 -89h-87l-45 47l-45 -47h-88z" />
    <glyph glyph-name="uni1EAA" unicode="&#x1eaa;" horiz-adv-x="366" 
d="M233 193h-107l-27 -193h-91l109 668h127l113 -668h-94zM138 276h84c-18 127 -34 238 -41 308h-3c-3 -54 -25 -200 -40 -308zM120 814h-54v11c0 53 27 69 61 69c44 0 77 -27 100 -27c10 0 16 5 16 19v9h54v-12c0 -54 -26 -70 -60 -70c-40 0 -76 26 -100 26
c-12 0 -17 -8 -17 -18v-7zM140 786h83l92 -76h-87l-48 36l-46 -36h-85z" />
    <glyph glyph-name="uni1EAC" unicode="&#x1eac;" horiz-adv-x="366" 
d="M233 193h-107l-27 -193h-91l109 668h127l113 -668h-94zM138 276h84c-18 127 -34 238 -41 308h-3c-3 -54 -25 -200 -40 -308zM227 -155h-90v97h90v-97zM131 805h100l85 -93h-92l-43 46l-42 -46h-92z" />
    <glyph glyph-name="uni1EAE" unicode="&#x1eae;" horiz-adv-x="366" 
d="M233 193h-107l-27 -193h-91l109 668h127l113 -668h-94zM138 276h84c-18 127 -34 238 -41 308h-3c-3 -54 -25 -200 -40 -308zM216 892h103l-102 -75h-80zM58 794h70c9 -19 25 -32 55 -32c34 0 47 16 55 32h70c-12 -44 -48 -89 -126 -89c-79 0 -116 48 -124 89z" />
    <glyph glyph-name="uni1EB0" unicode="&#x1eb0;" horiz-adv-x="366" 
d="M233 193h-107l-27 -193h-91l109 668h127l113 -668h-94zM138 276h84c-18 127 -34 238 -41 308h-3c-3 -54 -25 -200 -40 -308zM51 892h105l77 -75h-81zM58 794h70c9 -19 25 -32 55 -32c34 0 47 16 55 32h70c-12 -44 -48 -89 -126 -89c-79 0 -116 48 -124 89z" />
    <glyph glyph-name="uni1EB2" unicode="&#x1eb2;" horiz-adv-x="366" 
d="M233 193h-107l-27 -193h-91l109 668h127l113 -668h-94zM138 276h84c-18 127 -34 238 -41 308h-3c-3 -54 -25 -200 -40 -308zM212 815h-66c26 24 37 37 37 53c0 11 -8 20 -25 20c-16 0 -31 -5 -43 -13l-18 40c17 12 45 26 83 26c50 0 74 -27 74 -60c0 -31 -23 -52 -42 -66
zM58 794h70c9 -19 25 -32 55 -32c35 0 47 16 55 32h70c-12 -44 -48 -89 -126 -89c-79 0 -116 48 -124 89z" />
    <glyph glyph-name="uni1EB4" unicode="&#x1eb4;" horiz-adv-x="366" 
d="M233 193h-107l-27 -193h-91l109 668h127l113 -668h-94zM138 276h84c-18 127 -34 238 -41 308h-3c-3 -54 -25 -200 -40 -308zM109 822h-55v11c0 53 27 72 62 72c44 0 99 -27 122 -27c10 0 16 5 16 19v9h54v-12c0 -54 -26 -73 -60 -73c-40 0 -98 26 -123 26
c-11 0 -16 -7 -16 -18v-7zM54 790h73c7 -15 20 -31 55 -31c34 0 47 16 55 32l72 -1c-12 -40 -44 -84 -128 -84c-86 0 -116 48 -127 84z" />
    <glyph glyph-name="uni1EB6" unicode="&#x1eb6;" horiz-adv-x="366" 
d="M233 193h-107l-27 -193h-91l109 668h127l113 -668h-94zM138 276h84c-18 127 -34 238 -41 308h-3c-3 -54 -25 -200 -40 -308zM227 -145h-90v97h90v-97zM64 814h65c6 -22 21 -41 53 -41c35 0 47 20 53 41h64c-11 -57 -45 -103 -118 -103c-77 0 -111 49 -117 103z" />
    <glyph glyph-name="Aogonek" unicode="&#x104;" horiz-adv-x="366" 
d="M233 193h-107l-27 -193h-91l109 668h127l113 -668h-1c-34 -30 -44 -53 -44 -74s15 -33 37 -33c12 0 21 2 31 5l8 -62c-20 -14 -50 -15 -71 -15c-54 0 -91 30 -91 82c0 41 25 75 51 97h-14zM138 276h84c-18 127 -34 238 -41 308h-3c-3 -54 -25 -200 -40 -308z" />
    <glyph glyph-name="AE" unicode="&#xc6;" horiz-adv-x="501" 
d="M173 668h306v-83h-155v-193h147v-83h-147v-226h168l-11 -83h-247v226h-95l-61 -226h-89zM160 306h74v296h-2c-9 -45 -30 -141 -72 -296z" />
    <glyph glyph-name="Ccedilla" unicode="&#xc7;" horiz-adv-x="340" 
d="M232 196h91v-24c0 -73 -12 -163 -114 -179l-14 -23c29 -9 64 -27 64 -73c0 -42 -31 -78 -91 -78c-29 0 -53 5 -71 14l13 53c13 -6 32 -10 45 -10c19 0 28 8 28 21c0 18 -22 29 -58 34v23l21 39c-94 13 -114 86 -114 177v338c0 105 47 169 146 169c119 0 142 -81 142 -172
v-28h-90v38c0 48 -10 81 -53 81c-41 0 -53 -31 -53 -82v-351c0 -53 11 -91 55 -91c43 0 53 36 53 91v33z" />
    <glyph glyph-name="Cacute" unicode="&#x106;" horiz-adv-x="340" 
d="M232 196h91v-24c0 -80 -14 -181 -147 -181c-120 0 -144 79 -144 179v338c0 105 47 169 146 169c119 0 142 -81 142 -172v-28h-90v38c0 48 -10 81 -53 81c-41 0 -53 -31 -53 -82v-351c0 -53 11 -91 55 -91c43 0 53 36 53 91v33zM217 818h111l-123 -101h-85z" />
    <glyph glyph-name="Ccircumflex" unicode="&#x108;" horiz-adv-x="340" 
d="M232 196h91v-24c0 -80 -14 -181 -147 -181c-120 0 -144 79 -144 179v338c0 105 47 169 146 169c119 0 142 -81 142 -172v-28h-90v38c0 48 -10 81 -53 81c-41 0 -53 -31 -53 -82v-351c0 -53 11 -91 55 -91c43 0 53 36 53 91v33zM128 808h100l85 -93h-92l-43 46l-42 -46
h-92z" />
    <glyph glyph-name="Ccaron" unicode="&#x10c;" horiz-adv-x="340" 
d="M232 196h91v-24c0 -80 -14 -181 -147 -181c-120 0 -144 79 -144 179v338c0 105 47 169 146 169c119 0 142 -81 142 -172v-28h-90v38c0 48 -10 81 -53 81c-41 0 -53 -31 -53 -82v-351c0 -53 11 -91 55 -91c43 0 53 36 53 91v33zM228 716h-99l-86 94h93l43 -50l41 50h92z
" />
    <glyph glyph-name="Cdotaccent" unicode="&#x10a;" horiz-adv-x="340" 
d="M232 196h91v-24c0 -80 -14 -181 -147 -181c-120 0 -144 79 -144 179v338c0 105 47 169 146 169c119 0 142 -81 142 -172v-28h-90v38c0 48 -10 81 -53 81c-41 0 -53 -31 -53 -82v-351c0 -53 11 -91 55 -91c43 0 53 36 53 91v33zM224 718h-89v105h89v-105z" />
    <glyph glyph-name="Dcaron" unicode="&#x10e;" horiz-adv-x="384" 
d="M47 0v668h134c143 0 170 -80 170 -196v-260c0 -102 -17 -212 -172 -212h-132zM137 591v-514h36c73 0 87 44 87 121v282c0 68 -12 111 -87 111h-36zM232 714h-99l-86 94h93l43 -50l41 50h92z" />
    <glyph glyph-name="uni1E0C" unicode="&#x1e0c;" horiz-adv-x="384" 
d="M47 0v668h134c143 0 170 -80 170 -196v-260c0 -102 -17 -212 -172 -212h-132zM137 591v-514h36c73 0 87 44 87 121v282c0 68 -12 111 -87 111h-36zM229 -155h-90v97h90v-97z" />
    <glyph glyph-name="uni1E0E" unicode="&#x1e0e;" horiz-adv-x="384" 
d="M47 0v668h134c143 0 170 -80 170 -196v-260c0 -102 -17 -212 -172 -212h-132zM137 591v-514h36c73 0 87 44 87 121v282c0 68 -12 111 -87 111h-36zM78 -62h197v-69h-197v69z" />
    <glyph glyph-name="Dcroat" unicode="&#x110;" horiz-adv-x="394" 
d="M12 397h45v271h134c143 0 170 -80 170 -196v-260c0 -102 -17 -212 -172 -212h-132v321h-45v76zM147 591v-194h66v-76h-66v-244h36c73 0 87 44 87 121v282c0 68 -12 111 -87 111h-36z" />
    <glyph glyph-name="Egrave" unicode="&#xc8;" horiz-adv-x="314" 
d="M284 395v-82h-148v-231h169l-11 -82h-248v668h246v-83h-156v-190h148zM10 814h115l97 -101h-88z" />
    <glyph glyph-name="Eacute" unicode="&#xc9;" horiz-adv-x="314" 
d="M284 395v-82h-148v-231h169l-11 -82h-248v668h246v-83h-156v-190h148zM218 811h111l-123 -101h-85z" />
    <glyph glyph-name="Ecircumflex" unicode="&#xca;" horiz-adv-x="314" 
d="M284 395v-82h-148v-231h169l-11 -82h-248v668h246v-83h-156v-190h148zM118 807h100l85 -93h-92l-43 46l-42 -46h-92z" />
    <glyph glyph-name="Ecaron" unicode="&#x11a;" horiz-adv-x="314" 
d="M284 395v-82h-148v-231h169l-11 -82h-248v668h246v-83h-156v-190h148zM220 714h-99l-86 94h93l43 -50l41 50h92z" />
    <glyph glyph-name="Edieresis" unicode="&#xcb;" horiz-adv-x="314" 
d="M284 395v-82h-148v-231h169l-11 -82h-248v668h246v-83h-156v-190h148zM141 719h-79v101h79v-101zM277 719h-79v101h79v-101z" />
    <glyph glyph-name="Emacron" unicode="&#x112;" horiz-adv-x="314" 
d="M284 395v-82h-148v-231h169l-11 -82h-248v668h246v-83h-156v-190h148zM62 796h214v-68h-214v68z" />
    <glyph glyph-name="Ebreve" unicode="&#x114;" horiz-adv-x="314" 
d="M284 395v-82h-148v-231h169l-11 -82h-248v668h246v-83h-156v-190h148zM50 816h65c6 -22 21 -41 53 -41c35 0 47 20 53 41h64c-11 -57 -45 -103 -118 -103c-77 0 -111 49 -117 103z" />
    <glyph glyph-name="Edotaccent" unicode="&#x116;" horiz-adv-x="314" 
d="M284 395v-82h-148v-231h169l-11 -82h-248v668h246v-83h-156v-190h148zM214 716h-89v105h89v-105z" />
    <glyph glyph-name="uni1EB8" unicode="&#x1eb8;" horiz-adv-x="314" 
d="M284 395v-82h-148v-231h169l-11 -82h-248v668h246v-83h-156v-190h148zM218 -155h-90v97h90v-97z" />
    <glyph glyph-name="uni1EBA" unicode="&#x1eba;" horiz-adv-x="314" 
d="M284 395v-82h-148v-231h169l-11 -82h-248v668h246v-83h-156v-190h148zM203 710h-73c31 29 40 42 40 63c0 12 -7 24 -28 24c-17 0 -31 -7 -42 -13l-19 47c17 13 47 27 87 27c57 0 80 -31 80 -67s-24 -64 -45 -81z" />
    <glyph glyph-name="uni1EBC" unicode="&#x1ebc;" horiz-adv-x="314" 
d="M284 395v-82h-148v-231h169l-11 -82h-248v668h246v-83h-156v-190h148zM100 721h-56v16c0 62 31 80 66 80c44 0 82 -30 105 -30c10 0 20 3 20 22v9h55v-10c0 -66 -22 -88 -65 -88c-42 0 -79 28 -105 28c-12 0 -20 -6 -20 -21v-6z" />
    <glyph glyph-name="uni1EBE" unicode="&#x1ebe;" horiz-adv-x="314" 
d="M284 395v-82h-148v-231h169l-11 -82h-248v668h246v-83h-156v-190h148zM121 801h93l86 -89h-87l-45 47l-45 -47h-88zM337 874h99l-94 -84h-76z" />
    <glyph glyph-name="uni1EC0" unicode="&#x1ec0;" horiz-adv-x="314" 
d="M284 395v-82h-148v-231h169l-11 -82h-248v668h246v-83h-156v-190h148zM121 801h93l86 -89h-87l-45 47l-45 -47h-88zM208 875h97l73 -88h-72z" />
    <glyph glyph-name="uni1EC2" unicode="&#x1ec2;" horiz-adv-x="314" 
d="M284 395v-82h-148v-231h169l-11 -82h-248v668h246v-83h-156v-190h148zM330 792h-66c28 27 39 40 39 58c0 11 -7 20 -26 20c-15 0 -28 -5 -41 -14l-20 43c15 11 43 28 83 28c49 0 73 -28 73 -62s-22 -58 -42 -73zM121 801h93l86 -89h-87l-45 47l-45 -47h-88z" />
    <glyph glyph-name="uni1EC4" unicode="&#x1ec4;" horiz-adv-x="314" 
d="M284 395v-82h-148v-231h169l-11 -82h-248v668h246v-83h-156v-190h148zM106 814h-54v11c0 53 27 69 61 69c44 0 77 -27 100 -27c10 0 16 5 16 19v9h54v-12c0 -54 -26 -70 -60 -70c-40 0 -76 26 -100 26c-12 0 -17 -8 -17 -18v-7zM126 786h83l92 -76h-87l-48 36l-46 -36
h-85z" />
    <glyph glyph-name="uni1EC6" unicode="&#x1ec6;" horiz-adv-x="314" 
d="M284 395v-82h-148v-231h169l-11 -82h-248v668h246v-83h-156v-190h148zM220 -152h-90v97h90v-97zM117 808h100l85 -93h-92l-43 46l-42 -46h-92z" />
    <glyph glyph-name="Eogonek" unicode="&#x118;" horiz-adv-x="314" 
d="M284 395v-82h-148v-231h169l-11 -82h-15c-34 -30 -44 -53 -44 -74s15 -33 37 -33c12 0 21 2 31 5l8 -62c-20 -14 -50 -15 -71 -15c-54 0 -91 30 -91 82c0 41 25 75 51 97h-154v668h246v-83h-156v-190h148z" />
    <glyph glyph-name="Gcircumflex" unicode="&#x11c;" horiz-adv-x="374" 
d="M334 370v-370h-70c-2 11 -4 39 -5 53c-18 -46 -56 -62 -100 -62c-95 0 -127 70 -127 180v322c0 110 44 184 152 184c131 0 148 -94 148 -171v-20h-89v23c0 41 -6 87 -59 87c-41 0 -60 -28 -60 -90v-343c0 -59 16 -93 58 -93c52 0 62 46 62 121v102h-65v77h155zM132 808
h100l85 -93h-92l-43 46l-42 -46h-92z" />
    <glyph glyph-name="Gbreve" unicode="&#x11e;" horiz-adv-x="374" 
d="M334 370v-370h-70c-2 11 -4 39 -5 53c-18 -46 -56 -62 -100 -62c-95 0 -127 70 -127 180v322c0 110 44 184 152 184c131 0 148 -94 148 -171v-20h-89v23c0 41 -6 87 -59 87c-41 0 -60 -28 -60 -90v-343c0 -59 16 -93 58 -93c52 0 62 46 62 121v102h-65v77h155zM61 816h65
c6 -22 21 -41 53 -41c35 0 47 20 53 41h64c-11 -57 -45 -103 -118 -103c-77 0 -111 49 -117 103z" />
    <glyph glyph-name="Gdotaccent" unicode="&#x120;" horiz-adv-x="374" 
d="M334 370v-370h-70c-2 11 -4 39 -5 53c-18 -46 -56 -62 -100 -62c-95 0 -127 70 -127 180v322c0 110 44 184 152 184c131 0 148 -94 148 -171v-20h-89v23c0 41 -6 87 -59 87c-41 0 -60 -28 -60 -90v-343c0 -59 16 -93 58 -93c52 0 62 46 62 121v102h-65v77h155zM231 716
h-89v105h89v-105z" />
    <glyph glyph-name="uni0122" unicode="&#x122;" horiz-adv-x="374" 
d="M334 370v-370h-70c-2 11 -4 39 -5 53c-18 -46 -56 -62 -100 -62c-95 0 -127 70 -127 180v322c0 110 44 184 152 184c131 0 148 -94 148 -171v-20h-89v23c0 41 -6 87 -59 87c-41 0 -60 -28 -60 -90v-343c0 -59 16 -93 58 -93c52 0 62 46 62 121v102h-65v77h155zM186 -192
h-69c19 44 33 101 34 147h86c-4 -65 -27 -119 -51 -147z" />
    <glyph glyph-name="Gcaron" unicode="&#x1e6;" horiz-adv-x="374" 
d="M334 370v-370h-70c-2 11 -4 39 -5 53c-18 -46 -56 -62 -100 -62c-95 0 -127 70 -127 180v322c0 110 44 184 152 184c131 0 148 -94 148 -171v-20h-89v23c0 41 -6 87 -59 87c-41 0 -60 -28 -60 -90v-343c0 -59 16 -93 58 -93c52 0 62 46 62 121v102h-65v77h155zM237 714
h-99l-86 94h93l43 -50l41 50h92z" />
    <glyph glyph-name="uni1E20" unicode="&#x1e20;" horiz-adv-x="374" 
d="M334 370v-370h-70c-2 11 -4 39 -5 53c-18 -46 -56 -62 -100 -62c-95 0 -127 70 -127 180v322c0 110 44 184 152 184c131 0 148 -94 148 -171v-20h-89v23c0 41 -6 87 -59 87c-41 0 -60 -28 -60 -90v-343c0 -59 16 -93 58 -93c52 0 62 46 62 121v102h-65v77h155zM81 795
h214v-68h-214v68z" />
    <glyph glyph-name="uni00470303" horiz-adv-x="374" 
d="M334 370v-370h-70c-2 11 -4 39 -5 53c-18 -46 -56 -62 -100 -62c-95 0 -127 70 -127 180v322c0 110 44 184 152 184c131 0 148 -94 148 -171v-20h-89v23c0 41 -6 87 -59 87c-41 0 -60 -28 -60 -90v-343c0 -59 16 -93 58 -93c52 0 62 46 62 121v102h-65v77h155zM119 721
h-56v16c0 62 31 80 66 80c44 0 82 -30 105 -30c10 0 20 3 20 22v9h55v-10c0 -66 -22 -88 -65 -88c-42 0 -79 28 -105 28c-12 0 -20 -6 -20 -21v-6z" />
    <glyph glyph-name="Hcircumflex" unicode="&#x124;" horiz-adv-x="396" 
d="M47 0v668h90v-269h122v269h90v-668h-90v316h-122v-316h-90zM146 808h100l85 -93h-92l-43 46l-42 -46h-92z" />
    <glyph glyph-name="uni1E24" unicode="&#x1e24;" horiz-adv-x="396" 
d="M47 0v668h90v-269h122v269h90v-668h-90v316h-122v-316h-90zM242 -152h-90v97h90v-97z" />
    <glyph glyph-name="uni1E2A" unicode="&#x1e2a;" horiz-adv-x="396" 
d="M47 0v668h90v-269h122v269h90v-668h-90v316h-122v-316h-90zM81 -41h68c4 -24 18 -45 49 -45c32 0 43 22 47 45h67c-5 -58 -39 -108 -116 -108c-78 0 -111 57 -115 108z" />
    <glyph glyph-name="Hbar" unicode="&#x126;" horiz-adv-x="396" 
d="M11 557h36v111h90v-111h122v111h90v-111h36v-68h-36v-489h-90v316h-122v-316h-90v489h-36v68zM137 399h122v90h-122v-90z" />
    <glyph glyph-name="Igrave" unicode="&#xcc;" horiz-adv-x="184" 
d="M47 668h90v-668h-90v668zM-73 818h115l97 -101h-88z" />
    <glyph glyph-name="Iacute" unicode="&#xcd;" horiz-adv-x="184" 
d="M47 668h90v-668h-90v668zM143 818h111l-123 -101h-85z" />
    <glyph glyph-name="Icircumflex" unicode="&#xce;" horiz-adv-x="184" 
d="M47 668h90v-668h-90v668zM41 808h100l85 -93h-92l-43 46l-42 -46h-92z" />
    <glyph glyph-name="Itilde" unicode="&#x128;" horiz-adv-x="184" 
d="M47 668h90v-668h-90v668zM24 721h-56v16c0 62 31 80 66 80c44 0 82 -30 105 -30c10 0 20 3 20 22v9h55v-10c0 -66 -22 -88 -65 -88c-42 0 -79 28 -105 28c-12 0 -20 -6 -20 -21v-6z" />
    <glyph glyph-name="Idieresis" unicode="&#xcf;" horiz-adv-x="184" 
d="M47 668h90v-668h-90v668zM64 718h-79v101h79v-101zM200 718h-79v101h79v-101z" />
    <glyph glyph-name="Imacron" unicode="&#x12a;" horiz-adv-x="184" 
d="M47 668h90v-668h-90v668zM-14 795h214v-68h-214v68z" />
    <glyph glyph-name="Idotaccent" unicode="&#x130;" horiz-adv-x="184" 
d="M47 668h90v-668h-90v668zM136 716h-89v105h89v-105z" />
    <glyph glyph-name="uni01CF" unicode="&#x1cf;" horiz-adv-x="184" 
d="M47 668h90v-668h-90v668zM142 714h-99l-86 94h93l43 -50l41 50h92z" />
    <glyph glyph-name="uni1EC8" unicode="&#x1ec8;" horiz-adv-x="184" 
d="M47 668h90v-668h-90v668zM125 709h-73c31 29 40 42 40 63c0 12 -7 24 -28 24c-17 0 -31 -7 -42 -13l-19 47c17 13 47 27 87 27c57 0 80 -31 80 -67s-24 -64 -45 -81z" />
    <glyph glyph-name="uni1ECA" unicode="&#x1eca;" horiz-adv-x="184" 
d="M47 668h90v-668h-90v668zM137 -155h-90v97h90v-97z" />
    <glyph glyph-name="Iogonek" unicode="&#x12e;" horiz-adv-x="184" 
d="M47 668h90v-668h-1c-34 -30 -44 -53 -44 -74s15 -33 37 -33c12 0 21 2 31 5l8 -62c-20 -14 -50 -15 -71 -15c-54 0 -91 30 -91 82c0 41 25 75 51 97h-10v668z" />
    <glyph glyph-name="Jcircumflex" unicode="&#x134;" horiz-adv-x="213" 
d="M170 668v-523c0 -83 -10 -153 -121 -153c-14 0 -35 2 -49 4v77c8 -1 18 -2 32 -2c36 0 49 10 49 63v534h89zM76 807h100l85 -93h-92l-43 46l-42 -46h-92z" />
    <glyph glyph-name="uni0136" unicode="&#x136;" horiz-adv-x="359" 
d="M47 0v668h88v-310h1c27 64 90 215 130 310h99l-124 -262l133 -406h-98l-96 313l-45 -92v-221h-88zM191 -182h-69c19 44 33 101 34 147h86c-4 -65 -27 -119 -51 -147z" />
    <glyph glyph-name="Lacute" unicode="&#x139;" horiz-adv-x="303" 
d="M47 0v668h90v-588h168l-9 -80h-249zM144 818h111l-123 -101h-85z" />
    <glyph glyph-name="Lcaron" unicode="&#x13d;" horiz-adv-x="303" 
d="M47 0v668h90v-588h168l-9 -80h-249zM205 668h63l-4 -222h-57z" />
    <glyph glyph-name="uni013B" unicode="&#x13b;" horiz-adv-x="303" 
d="M47 0v668h90v-588h168l-9 -80h-249zM165 -192h-69c19 44 33 101 34 147h86c-4 -65 -27 -119 -51 -147z" />
    <glyph glyph-name="Ldot" unicode="&#x13f;" horiz-adv-x="303" 
d="M276 306h-81v130h81v-130zM47 0v668h90v-588h168l-9 -80h-249z" />
    <glyph glyph-name="uni1E36" unicode="&#x1e36;" horiz-adv-x="303" 
d="M47 0v668h90v-588h168l-9 -80h-249zM219 -152h-90v97h90v-97z" />
    <glyph glyph-name="uni1E38" unicode="&#x1e38;" horiz-adv-x="303" 
d="M47 0v668h90v-588h168l-9 -80h-249zM219 -152h-90v97h90v-97zM-14 792h214v-68h-214v68z" />
    <glyph glyph-name="uni1E3A" unicode="&#x1e3a;" horiz-adv-x="303" 
d="M47 0v668h90v-588h168l-9 -80h-249zM73 -64h197v-69h-197v69z" />
    <glyph glyph-name="Lslash" unicode="&#x141;" horiz-adv-x="313" 
d="M2 267v69l55 30v302h90v-252l86 48v-70l-86 -47v-267h168l-9 -80h-249v297z" />
    <glyph glyph-name="uni1E42" unicode="&#x1e42;" horiz-adv-x="515" 
d="M382 0v261c0 118 2 255 4 329h-1c-16 -114 -59 -394 -91 -590h-85c-24 173 -68 470 -83 591h-2c2 -78 5 -229 5 -344v-247h-82v668h133c31 -181 65 -395 74 -485h1c10 90 53 314 84 485h129v-668h-86zM297 -152h-90v97h90v-97z" />
    <glyph glyph-name="Nacute" unicode="&#x143;" horiz-adv-x="403" 
d="M131 0h-84v668h105l98 -370c14 -50 21 -90 26 -119h2c-5 86 -5 180 -5 289v200h83v-668h-101l-110 422c-9 35 -14 63 -18 83h-1c4 -81 5 -178 5 -299v-206zM249 815h111l-123 -101h-85z" />
    <glyph glyph-name="Ncaron" unicode="&#x147;" horiz-adv-x="403" 
d="M131 0h-84v668h105l98 -370c14 -50 21 -90 26 -119h2c-5 86 -5 180 -5 289v200h83v-668h-101l-110 422c-9 35 -14 63 -18 83h-1c4 -81 5 -178 5 -299v-206zM251 712h-99l-86 94h93l43 -50l41 50h92z" />
    <glyph glyph-name="Ntilde" unicode="&#xd1;" horiz-adv-x="403" 
d="M131 0h-84v668h105l98 -370c14 -50 21 -90 26 -119h2c-5 86 -5 180 -5 289v200h83v-668h-101l-110 422c-9 35 -14 63 -18 83h-1c4 -81 5 -178 5 -299v-206zM133 721h-56v16c0 62 31 80 66 80c44 0 82 -30 105 -30c10 0 20 3 20 22v9h55v-10c0 -66 -22 -88 -65 -88
c-42 0 -79 28 -105 28c-12 0 -20 -6 -20 -21v-6z" />
    <glyph glyph-name="uni0145" unicode="&#x145;" horiz-adv-x="403" 
d="M131 0h-84v668h105l98 -370c14 -50 21 -90 26 -119h2c-5 86 -5 180 -5 289v200h83v-668h-101l-110 422c-9 35 -14 63 -18 83h-1c4 -81 5 -178 5 -299v-206zM199 -185h-69c19 44 33 101 34 147h86c-4 -65 -27 -119 -51 -147z" />
    <glyph glyph-name="uni1E44" unicode="&#x1e44;" horiz-adv-x="403" 
d="M131 0h-84v668h105l98 -370c14 -50 21 -90 26 -119h2c-5 86 -5 180 -5 289v200h83v-668h-101l-110 422c-9 35 -14 63 -18 83h-1c4 -81 5 -178 5 -299v-206zM245 716h-89v105h89v-105z" />
    <glyph glyph-name="uni1E46" unicode="&#x1e46;" horiz-adv-x="403" 
d="M131 0h-84v668h105l98 -370c14 -50 21 -90 26 -119h2c-5 86 -5 180 -5 289v200h83v-668h-101l-110 422c-9 35 -14 63 -18 83h-1c4 -81 5 -178 5 -299v-206zM246 -145h-90v97h90v-97z" />
    <glyph glyph-name="uni1E48" unicode="&#x1e48;" horiz-adv-x="403" 
d="M131 0h-84v668h105l98 -370c14 -50 21 -90 26 -119h2c-5 86 -5 180 -5 289v200h83v-668h-101l-110 422c-9 35 -14 63 -18 83h-1c4 -81 5 -178 5 -299v-206zM102 -64h197v-69h-197v69z" />
    <glyph glyph-name="Ograve" unicode="&#xd2;" horiz-adv-x="375" 
d="M189 677c100 0 153 -62 153 -181v-322c0 -124 -52 -183 -159 -183c-106 0 -151 63 -151 182v324c0 122 59 180 157 180zM187 596c-42 0 -63 -29 -63 -92v-341c0 -64 23 -91 63 -91c43 0 64 26 64 93v339c0 61 -20 92 -64 92zM29 818h115l97 -101h-88z" />
    <glyph glyph-name="Oacute" unicode="&#xd3;" horiz-adv-x="375" 
d="M189 677c100 0 153 -62 153 -181v-322c0 -124 -52 -183 -159 -183c-106 0 -151 63 -151 182v324c0 122 59 180 157 180zM187 596c-42 0 -63 -29 -63 -92v-341c0 -64 23 -91 63 -91c43 0 64 26 64 93v339c0 61 -20 92 -64 92zM235 818h111l-123 -101h-85z" />
    <glyph glyph-name="Ocircumflex" unicode="&#xd4;" horiz-adv-x="375" 
d="M189 677c100 0 153 -62 153 -181v-322c0 -124 -52 -183 -159 -183c-106 0 -151 63 -151 182v324c0 122 59 180 157 180zM187 596c-42 0 -63 -29 -63 -92v-341c0 -64 23 -91 63 -91c43 0 64 26 64 93v339c0 61 -20 92 -64 92zM136 808h100l85 -93h-92l-43 46l-42 -46h-92z
" />
    <glyph glyph-name="Otilde" unicode="&#xd5;" horiz-adv-x="375" 
d="M189 677c100 0 153 -62 153 -181v-322c0 -124 -52 -183 -159 -183c-106 0 -151 63 -151 182v324c0 122 59 180 157 180zM187 596c-42 0 -63 -29 -63 -92v-341c0 -64 23 -91 63 -91c43 0 64 26 64 93v339c0 61 -20 92 -64 92zM119 721h-56v16c0 62 31 80 66 80
c44 0 82 -30 105 -30c10 0 20 3 20 22v9h55v-10c0 -66 -22 -88 -65 -88c-42 0 -79 28 -105 28c-12 0 -20 -6 -20 -21v-6z" />
    <glyph glyph-name="Odieresis" unicode="&#xd6;" horiz-adv-x="375" 
d="M189 677c100 0 153 -62 153 -181v-322c0 -124 -52 -183 -159 -183c-106 0 -151 63 -151 182v324c0 122 59 180 157 180zM187 596c-42 0 -63 -29 -63 -92v-341c0 -64 23 -91 63 -91c43 0 64 26 64 93v339c0 61 -20 92 -64 92zM159 718h-79v101h79v-101zM295 718h-79v101
h79v-101z" />
    <glyph glyph-name="Omacron" unicode="&#x14c;" horiz-adv-x="375" 
d="M189 677c100 0 153 -62 153 -181v-322c0 -124 -52 -183 -159 -183c-106 0 -151 63 -151 182v324c0 122 59 180 157 180zM187 596c-42 0 -63 -29 -63 -92v-341c0 -64 23 -91 63 -91c43 0 64 26 64 93v339c0 61 -20 92 -64 92zM81 795h214v-68h-214v68z" />
    <glyph glyph-name="Ohungarumlaut" unicode="&#x150;" horiz-adv-x="375" 
d="M189 677c100 0 153 -62 153 -181v-322c0 -124 -52 -183 -159 -183c-106 0 -151 63 -151 182v324c0 122 59 180 157 180zM187 596c-42 0 -63 -29 -63 -92v-341c0 -64 23 -91 63 -91c43 0 64 26 64 93v339c0 61 -20 92 -64 92zM134 821h90l-78 -102h-81zM274 821h90
l-79 -102h-80z" />
    <glyph glyph-name="uni01D1" unicode="&#x1d1;" horiz-adv-x="375" 
d="M189 677c100 0 153 -62 153 -181v-322c0 -124 -52 -183 -159 -183c-106 0 -151 63 -151 182v324c0 122 59 180 157 180zM187 596c-42 0 -63 -29 -63 -92v-341c0 -64 23 -91 63 -91c43 0 64 26 64 93v339c0 61 -20 92 -64 92zM237 714h-99l-86 94h93l43 -50l41 50h92z" />
    <glyph glyph-name="uni1ECC" unicode="&#x1ecc;" horiz-adv-x="375" 
d="M189 677c100 0 153 -62 153 -181v-322c0 -124 -52 -183 -159 -183c-106 0 -151 63 -151 182v324c0 122 59 180 157 180zM187 596c-42 0 -63 -29 -63 -92v-341c0 -64 23 -91 63 -91c43 0 64 26 64 93v339c0 61 -20 92 -64 92zM232 -155h-90v97h90v-97z" />
    <glyph glyph-name="uni1ECE" unicode="&#x1ece;" horiz-adv-x="375" 
d="M189 677c100 0 153 -62 153 -181v-322c0 -124 -52 -183 -159 -183c-106 0 -151 63 -151 182v324c0 122 59 180 157 180zM187 596c-42 0 -63 -29 -63 -92v-341c0 -64 23 -91 63 -91c43 0 64 26 64 93v339c0 61 -20 92 -64 92zM221 709h-73c31 29 40 42 40 63
c0 12 -7 24 -28 24c-17 0 -31 -7 -42 -13l-19 47c17 13 47 27 87 27c57 0 80 -31 80 -67s-24 -64 -45 -81z" />
    <glyph glyph-name="uni1ED0" unicode="&#x1ed0;" horiz-adv-x="375" 
d="M189 677c100 0 153 -62 153 -181v-322c0 -124 -52 -183 -159 -183c-106 0 -151 63 -151 182v324c0 122 59 180 157 180zM187 596c-42 0 -63 -29 -63 -92v-341c0 -64 23 -91 63 -91c43 0 64 26 64 93v339c0 61 -20 92 -64 92zM139 801h93l86 -89h-87l-45 47l-45 -47h-88z
M355 874h99l-94 -84h-76z" />
    <glyph glyph-name="uni1ED2" unicode="&#x1ed2;" horiz-adv-x="375" 
d="M189 677c100 0 153 -62 153 -181v-322c0 -124 -52 -183 -159 -183c-106 0 -151 63 -151 182v324c0 122 59 180 157 180zM187 596c-42 0 -63 -29 -63 -92v-341c0 -64 23 -91 63 -91c43 0 64 26 64 93v339c0 61 -20 92 -64 92zM139 801h93l86 -89h-87l-45 47l-45 -47h-88z
M226 875h97l73 -88h-72z" />
    <glyph glyph-name="uni1ED4" unicode="&#x1ed4;" horiz-adv-x="375" 
d="M189 677c100 0 153 -62 153 -181v-322c0 -124 -52 -183 -159 -183c-106 0 -151 63 -151 182v324c0 122 59 180 157 180zM187 596c-42 0 -63 -29 -63 -92v-341c0 -64 23 -91 63 -91c43 0 64 26 64 93v339c0 61 -20 92 -64 92zM348 792h-66c28 27 39 40 39 58
c0 11 -7 20 -26 20c-15 0 -28 -5 -41 -14l-20 43c15 11 43 28 83 28c49 0 73 -28 73 -62s-22 -58 -42 -73zM139 801h93l86 -89h-87l-45 47l-45 -47h-88z" />
    <glyph glyph-name="uni1ED6" unicode="&#x1ed6;" horiz-adv-x="375" 
d="M189 677c100 0 153 -62 153 -181v-322c0 -124 -52 -183 -159 -183c-106 0 -151 63 -151 182v324c0 122 59 180 157 180zM187 596c-42 0 -63 -29 -63 -92v-341c0 -64 23 -91 63 -91c43 0 64 26 64 93v339c0 61 -20 92 -64 92zM125 814h-54v11c0 53 27 69 61 69
c44 0 77 -27 100 -27c10 0 16 5 16 19v9h54v-12c0 -54 -26 -70 -60 -70c-40 0 -76 26 -100 26c-12 0 -17 -8 -17 -18v-7zM145 786h83l92 -76h-87l-48 36l-46 -36h-85z" />
    <glyph glyph-name="uni1ED8" unicode="&#x1ed8;" horiz-adv-x="375" 
d="M189 677c100 0 153 -62 153 -181v-322c0 -124 -52 -183 -159 -183c-106 0 -151 63 -151 182v324c0 122 59 180 157 180zM187 596c-42 0 -63 -29 -63 -92v-341c0 -64 23 -91 63 -91c43 0 64 26 64 93v339c0 61 -20 92 -64 92zM232 -155h-90v97h90v-97zM136 808h100l85 -93
h-92l-43 46l-42 -46h-92z" />
    <glyph glyph-name="Oslash" unicode="&#xd8;" horiz-adv-x="375" 
d="M79 0h-40l19 51c-18 29 -26 70 -26 121v327c0 122 61 178 157 178c36 0 65 -8 89 -23l5 14h42l-16 -43c22 -30 33 -72 33 -126v-325c0 -124 -50 -183 -159 -183c-42 0 -74 9 -97 27zM187 599c-40 0 -66 -26 -66 -89v-286l124 340c-11 24 -30 35 -58 35zM186 69
c44 0 68 27 68 94v312l-129 -351c8 -39 32 -55 61 -55z" />
    <glyph glyph-name="OE" unicode="&#x152;" horiz-adv-x="515" 
d="M493 668v-83h-154v-193h146v-83h-146v-226h167l-11 -83h-222c-11 0 -39 -3 -71 -3c-156 0 -170 97 -170 196v287c0 100 30 190 182 190c25 0 65 -2 71 -2h208zM249 80v509c-6 1 -18 2 -32 2c-66 0 -93 -25 -93 -118v-287c0 -72 16 -109 88 -109c8 0 26 1 37 3z" />
    <glyph glyph-name="Ohorn" unicode="&#x1a0;" horiz-adv-x="375" 
d="M189 677c42 0 76 -11 101 -32c12 8 16 22 16 42c0 19 -4 30 -8 45h84c4 -14 7 -31 7 -50c0 -48 -18 -85 -58 -104c7 -23 11 -50 11 -82v-322c0 -124 -52 -183 -159 -183c-106 0 -151 63 -151 182v324c0 122 59 180 157 180zM187 596c-42 0 -63 -29 -63 -92v-341
c0 -64 23 -91 63 -91c43 0 64 26 64 93v339c0 61 -20 92 -64 92z" />
    <glyph glyph-name="uni1EDA" unicode="&#x1eda;" horiz-adv-x="375" 
d="M189 677c42 0 76 -11 101 -32c12 8 16 22 16 42c0 19 -4 30 -8 45h84c4 -14 7 -31 7 -50c0 -48 -18 -85 -58 -104c7 -23 11 -50 11 -82v-322c0 -124 -52 -183 -159 -183c-106 0 -151 63 -151 182v324c0 122 59 180 157 180zM187 596c-42 0 -63 -29 -63 -92v-341
c0 -64 23 -91 63 -91c43 0 64 26 64 93v339c0 61 -20 92 -64 92zM235 818h111l-123 -101h-85z" />
    <glyph glyph-name="uni1EDC" unicode="&#x1edc;" horiz-adv-x="375" 
d="M189 677c42 0 76 -11 101 -32c12 8 16 22 16 42c0 19 -4 30 -8 45h84c4 -14 7 -31 7 -50c0 -48 -18 -85 -58 -104c7 -23 11 -50 11 -82v-322c0 -124 -52 -183 -159 -183c-106 0 -151 63 -151 182v324c0 122 59 180 157 180zM187 596c-42 0 -63 -29 -63 -92v-341
c0 -64 23 -91 63 -91c43 0 64 26 64 93v339c0 61 -20 92 -64 92zM29 818h115l97 -101h-88z" />
    <glyph glyph-name="uni1EDE" unicode="&#x1ede;" horiz-adv-x="375" 
d="M189 677c42 0 76 -11 101 -32c12 8 16 22 16 42c0 19 -4 30 -8 45h84c4 -14 7 -31 7 -50c0 -48 -18 -85 -58 -104c7 -23 11 -50 11 -82v-322c0 -124 -52 -183 -159 -183c-106 0 -151 63 -151 182v324c0 122 59 180 157 180zM187 596c-42 0 -63 -29 -63 -92v-341
c0 -64 23 -91 63 -91c43 0 64 26 64 93v339c0 61 -20 92 -64 92zM218 712h-73c31 29 40 42 40 63c0 12 -7 24 -28 24c-17 0 -31 -7 -42 -13l-19 47c17 13 47 27 87 27c57 0 80 -31 80 -67s-24 -64 -45 -81z" />
    <glyph glyph-name="uni1EE0" unicode="&#x1ee0;" horiz-adv-x="375" 
d="M189 677c42 0 76 -11 101 -32c12 8 16 22 16 42c0 19 -4 30 -8 45h84c4 -14 7 -31 7 -50c0 -48 -18 -85 -58 -104c7 -23 11 -50 11 -82v-322c0 -124 -52 -183 -159 -183c-106 0 -151 63 -151 182v324c0 122 59 180 157 180zM187 596c-42 0 -63 -29 -63 -92v-341
c0 -64 23 -91 63 -91c43 0 64 26 64 93v339c0 61 -20 92 -64 92zM120 731h-56v16c0 62 31 80 66 80c44 0 82 -30 105 -30c10 0 20 3 20 22v9h55v-10c0 -66 -22 -88 -65 -88c-42 0 -79 28 -105 28c-12 0 -20 -6 -20 -21v-6z" />
    <glyph glyph-name="uni1EE2" unicode="&#x1ee2;" horiz-adv-x="375" 
d="M189 677c42 0 76 -11 101 -32c12 8 16 22 16 42c0 19 -4 30 -8 45h84c4 -14 7 -31 7 -50c0 -48 -18 -85 -58 -104c7 -23 11 -50 11 -82v-322c0 -124 -52 -183 -159 -183c-106 0 -151 63 -151 182v324c0 122 59 180 157 180zM187 596c-42 0 -63 -29 -63 -92v-341
c0 -64 23 -91 63 -91c43 0 64 26 64 93v339c0 61 -20 92 -64 92zM232 -155h-90v97h90v-97z" />
    <glyph glyph-name="Racute" unicode="&#x154;" horiz-adv-x="363" 
d="M47 0v668h132c101 0 156 -42 156 -158v-27c0 -98 -37 -129 -68 -140c41 -18 62 -47 62 -137c0 -57 -1 -165 6 -206h-86c-9 41 -7 152 -7 200c0 83 -12 104 -74 104h-31v-304h-90zM137 593v-214h32c58 0 77 27 77 99v26c0 56 -14 89 -76 89h-33zM225 818h111l-123 -101
h-85z" />
    <glyph glyph-name="Rcaron" unicode="&#x158;" horiz-adv-x="363" 
d="M47 0v668h132c101 0 156 -42 156 -158v-27c0 -98 -37 -129 -68 -140c41 -18 62 -47 62 -137c0 -57 -1 -165 6 -206h-86c-9 41 -7 152 -7 200c0 83 -12 104 -74 104h-31v-304h-90zM137 593v-214h32c58 0 77 27 77 99v26c0 56 -14 89 -76 89h-33zM230 714h-99l-86 94h93
l43 -50l41 50h92z" />
    <glyph glyph-name="uni0156" unicode="&#x156;" horiz-adv-x="363" 
d="M47 0v668h132c101 0 156 -42 156 -158v-27c0 -98 -37 -129 -68 -140c41 -18 62 -47 62 -137c0 -57 -1 -165 6 -206h-86c-9 41 -7 152 -7 200c0 83 -12 104 -74 104h-31v-304h-90zM137 593v-214h32c58 0 77 27 77 99v26c0 56 -14 89 -76 89h-33zM186 -183h-69
c19 44 33 101 34 147h86c-4 -65 -27 -119 -51 -147z" />
    <glyph glyph-name="uni1E5A" unicode="&#x1e5a;" horiz-adv-x="363" 
d="M47 0v668h132c101 0 156 -42 156 -158v-27c0 -98 -37 -129 -68 -140c41 -18 62 -47 62 -137c0 -57 -1 -165 6 -206h-86c-9 41 -7 152 -7 200c0 83 -12 104 -74 104h-31v-304h-90zM137 593v-214h32c58 0 77 27 77 99v26c0 56 -14 89 -76 89h-33zM236 -145h-90v97h90v-97z
" />
    <glyph glyph-name="uni1E5C" unicode="&#x1e5c;" horiz-adv-x="363" 
d="M47 0v668h132c101 0 156 -42 156 -158v-27c0 -98 -37 -129 -68 -140c41 -18 62 -47 62 -137c0 -57 -1 -165 6 -206h-86c-9 41 -7 152 -7 200c0 83 -12 104 -74 104h-31v-304h-90zM137 593v-214h32c58 0 77 27 77 99v26c0 56 -14 89 -76 89h-33zM233 -145h-90v97h90v-97z
M75 795h214v-68h-214v68z" />
    <glyph glyph-name="uni1E5E" unicode="&#x1e5e;" horiz-adv-x="363" 
d="M47 0v668h132c101 0 156 -42 156 -158v-27c0 -98 -37 -129 -68 -140c41 -18 62 -47 62 -137c0 -57 -1 -165 6 -206h-86c-9 41 -7 152 -7 200c0 83 -12 104 -74 104h-31v-304h-90zM137 593v-214h32c58 0 77 27 77 99v26c0 56 -14 89 -76 89h-33zM85 -64h197v-69h-197v69z
" />
    <glyph glyph-name="Sacute" unicode="&#x15a;" horiz-adv-x="332" 
d="M14 193h89v-40c0 -55 18 -86 60 -86c44 0 58 37 58 93c0 74 -16 100 -88 156c-71 56 -109 92 -109 190c0 87 26 172 140 172c113 0 136 -79 136 -157v-33h-89v31c0 50 -9 82 -48 82s-49 -34 -49 -82c0 -53 10 -77 70 -121c97 -72 127 -114 127 -225
c0 -94 -31 -182 -150 -182c-117 0 -147 75 -147 163v39zM210 818h111l-123 -101h-85z" />
    <glyph glyph-name="Scircumflex" unicode="&#x15c;" horiz-adv-x="332" 
d="M14 193h89v-40c0 -55 18 -86 60 -86c44 0 58 37 58 93c0 74 -16 100 -88 156c-71 56 -109 92 -109 190c0 87 26 172 140 172c113 0 136 -79 136 -157v-33h-89v31c0 50 -9 82 -48 82s-49 -34 -49 -82c0 -53 10 -77 70 -121c97 -72 127 -114 127 -225
c0 -94 -31 -182 -150 -182c-117 0 -147 75 -147 163v39zM114 809h100l85 -93h-92l-43 46l-42 -46h-92z" />
    <glyph glyph-name="Scaron" unicode="&#x160;" horiz-adv-x="332" 
d="M14 193h89v-40c0 -55 18 -86 60 -86c44 0 58 37 58 93c0 74 -16 100 -88 156c-71 56 -109 92 -109 190c0 87 26 172 140 172c113 0 136 -79 136 -157v-33h-89v31c0 50 -9 82 -48 82s-49 -34 -49 -82c0 -53 10 -77 70 -121c97 -72 127 -114 127 -225
c0 -94 -31 -182 -150 -182c-117 0 -147 75 -147 163v39zM215 714h-99l-86 94h93l43 -50l41 50h92z" />
    <glyph glyph-name="uni015E" unicode="&#x15e;" horiz-adv-x="332" 
d="M14 193h89v-40c0 -55 18 -86 60 -86c44 0 58 37 58 93c0 74 -16 100 -88 156c-71 56 -109 92 -109 190c0 87 26 172 140 172c113 0 136 -79 136 -157v-33h-89v31c0 50 -9 82 -48 82s-49 -34 -49 -82c0 -53 10 -77 70 -121c97 -72 127 -114 127 -225
c0 -83 -24 -162 -112 -179l-15 -24c29 -9 64 -27 64 -73c0 -42 -31 -78 -91 -78c-29 0 -53 5 -71 14l13 53c13 -6 32 -10 45 -10c19 0 28 8 28 21c0 18 -22 29 -58 34v23l20 38c-95 11 -120 81 -120 162v39z" />
    <glyph glyph-name="uni0218" unicode="&#x218;" horiz-adv-x="332" 
d="M14 193h89v-40c0 -55 18 -86 60 -86c44 0 58 37 58 93c0 74 -16 100 -88 156c-71 56 -109 92 -109 190c0 87 26 172 140 172c113 0 136 -79 136 -157v-33h-89v31c0 50 -9 82 -48 82s-49 -34 -49 -82c0 -53 10 -77 70 -121c97 -72 127 -114 127 -225
c0 -94 -31 -182 -150 -182c-117 0 -147 75 -147 163v39zM156 -192h-69c19 44 33 101 34 147h86c-4 -65 -27 -119 -51 -147z" />
    <glyph glyph-name="uni1E60" unicode="&#x1e60;" horiz-adv-x="332" 
d="M14 193h89v-40c0 -55 18 -86 60 -86c44 0 58 37 58 93c0 74 -16 100 -88 156c-71 56 -109 92 -109 190c0 87 26 172 140 172c113 0 136 -79 136 -157v-33h-89v31c0 50 -9 82 -48 82s-49 -34 -49 -82c0 -53 10 -77 70 -121c97 -72 127 -114 127 -225
c0 -94 -31 -182 -150 -182c-117 0 -147 75 -147 163v39zM209 716h-89v105h89v-105z" />
    <glyph glyph-name="uni1E62" unicode="&#x1e62;" horiz-adv-x="332" 
d="M14 193h89v-40c0 -55 18 -86 60 -86c44 0 58 37 58 93c0 74 -16 100 -88 156c-71 56 -109 92 -109 190c0 87 26 172 140 172c113 0 136 -79 136 -157v-33h-89v31c0 50 -9 82 -48 82s-49 -34 -49 -82c0 -53 10 -77 70 -121c97 -72 127 -114 127 -225
c0 -94 -31 -182 -150 -182c-117 0 -147 75 -147 163v39zM211 -155h-90v97h90v-97z" />
    <glyph glyph-name="uni1E9E" unicode="&#x1e9e;" horiz-adv-x="409" 
d="M138 514v-514h-90v515c0 124 70 162 161 162c101 0 157 -52 157 -160v-38l-95 -106v-1l38 -45c59 -71 78 -111 78 -177c0 -101 -45 -158 -136 -158c-35 0 -67 10 -85 21v82c22 -17 49 -28 73 -28c36 0 59 21 59 76c0 39 -11 68 -52 114l-57 65c-22 25 -21 52 0 75l91 104
v17c0 48 -15 84 -70 84c-47 0 -72 -28 -72 -88z" />
    <glyph glyph-name="Tcaron" unicode="&#x164;" horiz-adv-x="303" 
d="M107 0v585h-108v83h305v-83h-108v-585h-89zM201 707h-99l-86 94h93l43 -50l41 50h92z" />
    <glyph glyph-name="uni0162" unicode="&#x162;" horiz-adv-x="303" 
d="M107 0v585h-108v83h305v-83h-108v-585h-9l-18 -30c29 -9 64 -27 64 -73c0 -42 -31 -78 -91 -78c-29 0 -53 5 -71 14l13 53c13 -6 32 -10 45 -10c19 0 28 8 28 21c0 18 -22 29 -58 34v23l24 46h-16z" />
    <glyph glyph-name="uni021A" unicode="&#x21a;" horiz-adv-x="303" 
d="M107 0v585h-108v83h305v-83h-108v-585h-89zM143 -191h-69c19 44 33 101 34 147h86c-4 -65 -27 -119 -51 -147z" />
    <glyph glyph-name="uni1E6C" unicode="&#x1e6c;" horiz-adv-x="303" 
d="M107 0v585h-108v83h305v-83h-108v-585h-89zM196 -155h-90v97h90v-97z" />
    <glyph glyph-name="uni1E6E" unicode="&#x1e6e;" horiz-adv-x="303" 
d="M107 0v585h-108v83h305v-83h-108v-585h-89zM52 -64h197v-69h-197v69z" />
    <glyph glyph-name="Ugrave" unicode="&#xd9;" horiz-adv-x="388" 
d="M43 668h90v-513c0 -51 17 -83 61 -83c46 0 61 33 61 83v513h89v-511c0 -104 -47 -166 -151 -166c-101 0 -150 55 -150 165v512zM33 814h115l97 -101h-88z" />
    <glyph glyph-name="Uacute" unicode="&#xda;" horiz-adv-x="388" 
d="M43 668h90v-513c0 -51 17 -83 61 -83c46 0 61 33 61 83v513h89v-511c0 -104 -47 -166 -151 -166c-101 0 -150 55 -150 165v512zM239 814h111l-123 -101h-85z" />
    <glyph glyph-name="Ucircumflex" unicode="&#xdb;" horiz-adv-x="388" 
d="M43 668h90v-513c0 -51 17 -83 61 -83c46 0 61 33 61 83v513h89v-511c0 -104 -47 -166 -151 -166c-101 0 -150 55 -150 165v512zM143 808h100l85 -93h-92l-43 46l-42 -46h-92z" />
    <glyph glyph-name="Utilde" unicode="&#x168;" horiz-adv-x="388" 
d="M43 668h90v-513c0 -51 17 -83 61 -83c46 0 61 33 61 83v513h89v-511c0 -104 -47 -166 -151 -166c-101 0 -150 55 -150 165v512zM126 724h-56v16c0 62 31 80 66 80c44 0 82 -30 105 -30c10 0 20 3 20 22v9h55v-10c0 -66 -22 -88 -65 -88c-42 0 -79 28 -105 28
c-12 0 -20 -6 -20 -21v-6z" />
    <glyph glyph-name="Udieresis" unicode="&#xdc;" horiz-adv-x="388" 
d="M43 668h90v-513c0 -51 17 -83 61 -83c46 0 61 33 61 83v513h89v-511c0 -104 -47 -166 -151 -166c-101 0 -150 55 -150 165v512zM166 719h-79v101h79v-101zM302 719h-79v101h79v-101z" />
    <glyph glyph-name="Umacron" unicode="&#x16a;" horiz-adv-x="388" 
d="M43 668h90v-513c0 -51 17 -83 61 -83c46 0 61 33 61 83v513h89v-511c0 -104 -47 -166 -151 -166c-101 0 -150 55 -150 165v512zM87 795h214v-68h-214v68z" />
    <glyph glyph-name="Ubreve" unicode="&#x16c;" horiz-adv-x="388" 
d="M43 668h90v-513c0 -51 17 -83 61 -83c46 0 61 33 61 83v513h89v-511c0 -104 -47 -166 -151 -166c-101 0 -150 55 -150 165v512zM75 810h65c6 -22 21 -41 53 -41c35 0 47 20 53 41h64c-11 -57 -45 -103 -118 -103c-77 0 -111 49 -117 103z" />
    <glyph glyph-name="Uring" unicode="&#x16e;" horiz-adv-x="388" 
d="M43 668h90v-513c0 -51 17 -83 61 -83c46 0 61 33 61 83v513h89v-511c0 -104 -47 -166 -151 -166c-101 0 -150 55 -150 165v512zM193 703c-50 0 -81 37 -81 80c0 46 29 82 80 82c49 0 80 -35 80 -80c0 -48 -32 -82 -79 -82zM193 746c23 0 34 19 34 38s-11 39 -35 39
s-35 -17 -35 -38c0 -20 11 -39 36 -39z" />
    <glyph glyph-name="Uhungarumlaut" unicode="&#x170;" horiz-adv-x="388" 
d="M43 668h90v-513c0 -51 17 -83 61 -83c46 0 61 33 61 83v513h89v-511c0 -104 -47 -166 -151 -166c-101 0 -150 55 -150 165v512zM149 819h90l-78 -102h-81zM289 819h90l-79 -102h-80z" />
    <glyph glyph-name="uni01D3" unicode="&#x1d3;" horiz-adv-x="388" 
d="M43 668h90v-513c0 -51 17 -83 61 -83c46 0 61 33 61 83v513h89v-511c0 -104 -47 -166 -151 -166c-101 0 -150 55 -150 165v512zM244 715h-99l-86 94h93l43 -50l41 50h92z" />
    <glyph glyph-name="uni01D5" unicode="&#x1d5;" horiz-adv-x="388" 
d="M43 668h90v-513c0 -51 17 -83 61 -83c46 0 61 33 61 83v513h89v-511c0 -104 -47 -166 -151 -166c-101 0 -150 55 -150 165v512zM295 830h-202v55h202v-55zM162 710h-69v81h69v-81zM295 710h-70v81h70v-81z" />
    <glyph glyph-name="uni01D7" unicode="&#x1d7;" horiz-adv-x="388" 
d="M43 668h90v-513c0 -51 17 -83 61 -83c46 0 61 33 61 83v513h89v-511c0 -104 -47 -166 -151 -166c-101 0 -150 55 -150 165v512zM236 821h-96l77 76h107zM85 791h78v-82h-78v82zM303 709h-78v82h78v-82z" />
    <glyph glyph-name="uni01D9" unicode="&#x1d9;" horiz-adv-x="388" 
d="M43 668h90v-513c0 -51 17 -83 61 -83c46 0 61 33 61 83v513h89v-511c0 -104 -47 -166 -151 -166c-101 0 -150 55 -150 165v512zM226 819h-76l-82 84h80l41 -42l38 42h81zM163 709h-78v82h78v-82zM303 709h-78v82h78v-82z" />
    <glyph glyph-name="uni01DB" unicode="&#x1db;" horiz-adv-x="388" 
d="M43 668h90v-513c0 -51 17 -83 61 -83c46 0 61 33 61 83v513h89v-511c0 -104 -47 -166 -151 -166c-101 0 -150 55 -150 165v512zM246 821h-94l-89 76h107zM85 791h78v-82h-78v82zM303 709h-78v82h78v-82z" />
    <glyph glyph-name="uni1EE4" unicode="&#x1ee4;" horiz-adv-x="388" 
d="M43 668h90v-513c0 -51 17 -83 61 -83c46 0 61 33 61 83v513h89v-511c0 -104 -47 -166 -151 -166c-101 0 -150 55 -150 165v512zM239 -155h-90v97h90v-97z" />
    <glyph glyph-name="uni1EE6" unicode="&#x1ee6;" horiz-adv-x="388" 
d="M43 668h90v-513c0 -51 17 -83 61 -83c46 0 61 33 61 83v513h89v-511c0 -104 -47 -166 -151 -166c-101 0 -150 55 -150 165v512zM227 709h-73c31 29 40 42 40 63c0 12 -7 24 -28 24c-17 0 -31 -7 -42 -13l-19 47c17 13 47 27 87 27c57 0 80 -31 80 -67s-24 -64 -45 -81z
" />
    <glyph glyph-name="Uogonek" unicode="&#x172;" horiz-adv-x="388" 
d="M43 668h90v-513c0 -51 17 -83 61 -83c46 0 61 33 61 83v513h89v-511c0 -76 -25 -129 -79 -153c-32 -29 -42 -51 -42 -72s15 -33 37 -33c12 0 21 2 31 5l8 -62c-20 -14 -50 -15 -71 -15c-54 0 -91 30 -91 82c0 33 16 62 36 83c-88 7 -130 62 -130 164v512z" />
    <glyph glyph-name="Uhorn" unicode="&#x1af;" horiz-adv-x="388" 
d="M43 668h90v-513c0 -51 17 -83 61 -83c46 0 61 33 61 83v513h35c24 5 31 22 31 48c0 19 -4 30 -8 45h84c4 -14 7 -31 7 -50c0 -49 -19 -86 -60 -104v-450c0 -104 -47 -166 -151 -166c-101 0 -150 55 -150 165v512z" />
    <glyph glyph-name="uni1EE8" unicode="&#x1ee8;" horiz-adv-x="388" 
d="M43 668h90v-513c0 -51 17 -83 61 -83c46 0 61 33 61 83v513h35c24 5 31 22 31 48c0 19 -4 30 -8 45h84c4 -14 7 -31 7 -50c0 -49 -19 -86 -60 -104v-450c0 -104 -47 -166 -151 -166c-101 0 -150 55 -150 165v512zM242 818h111l-123 -101h-85z" />
    <glyph glyph-name="uni1EEA" unicode="&#x1eea;" horiz-adv-x="388" 
d="M43 668h90v-513c0 -51 17 -83 61 -83c46 0 61 33 61 83v513h35c24 5 31 22 31 48c0 19 -4 30 -8 45h84c4 -14 7 -31 7 -50c0 -49 -19 -86 -60 -104v-450c0 -104 -47 -166 -151 -166c-101 0 -150 55 -150 165v512zM36 818h115l97 -101h-88z" />
    <glyph glyph-name="uni1EEC" unicode="&#x1eec;" horiz-adv-x="388" 
d="M43 668h90v-513c0 -51 17 -83 61 -83c46 0 61 33 61 83v513h35c24 5 31 22 31 48c0 19 -4 30 -8 45h84c4 -14 7 -31 7 -50c0 -49 -19 -86 -60 -104v-450c0 -104 -47 -166 -151 -166c-101 0 -150 55 -150 165v512zM227 709h-73c31 29 40 42 40 63c0 12 -7 24 -28 24
c-17 0 -31 -7 -42 -13l-19 47c17 13 47 27 87 27c57 0 80 -31 80 -67s-24 -64 -45 -81z" />
    <glyph glyph-name="uni1EEE" unicode="&#x1eee;" horiz-adv-x="388" 
d="M43 668h90v-513c0 -51 17 -83 61 -83c46 0 61 33 61 83v513h35c24 5 31 22 31 48c0 19 -4 30 -8 45h84c4 -14 7 -31 7 -50c0 -49 -19 -86 -60 -104v-450c0 -104 -47 -166 -151 -166c-101 0 -150 55 -150 165v512zM126 725h-56v16c0 62 31 80 66 80c44 0 82 -30 105 -30
c10 0 20 3 20 22v9h55v-10c0 -66 -22 -88 -65 -88c-42 0 -79 28 -105 28c-12 0 -20 -6 -20 -21v-6z" />
    <glyph glyph-name="uni1EF0" unicode="&#x1ef0;" horiz-adv-x="388" 
d="M43 668h90v-513c0 -51 17 -83 61 -83c46 0 61 33 61 83v513h35c24 5 31 22 31 48c0 19 -4 30 -8 45h84c4 -14 7 -31 7 -50c0 -49 -19 -86 -60 -104v-450c0 -104 -47 -166 -151 -166c-101 0 -150 55 -150 165v512zM239 -155h-90v97h90v-97z" />
    <glyph glyph-name="Wgrave" unicode="&#x1e80;" horiz-adv-x="538" 
d="M196 0h-92l-92 668h95c18 -152 44 -399 49 -516h2c12 127 48 365 68 516h89c21 -155 56 -376 67 -512h2c8 124 35 356 52 512h91l-100 -668h-93c-20 153 -53 367 -66 493h-2c-14 -132 -48 -344 -70 -493zM105 818h115l97 -101h-88z" />
    <glyph glyph-name="Wacute" unicode="&#x1e82;" horiz-adv-x="538" 
d="M196 0h-92l-92 668h95c18 -152 44 -399 49 -516h2c12 127 48 365 68 516h89c21 -155 56 -376 67 -512h2c8 124 35 356 52 512h91l-100 -668h-93c-20 153 -53 367 -66 493h-2c-14 -132 -48 -344 -70 -493zM322 818h111l-123 -101h-85z" />
    <glyph glyph-name="Wcircumflex" unicode="&#x174;" horiz-adv-x="538" 
d="M196 0h-92l-92 668h95c18 -152 44 -399 49 -516h2c12 127 48 365 68 516h89c21 -155 56 -376 67 -512h2c8 124 35 356 52 512h91l-100 -668h-93c-20 153 -53 367 -66 493h-2c-14 -132 -48 -344 -70 -493zM218 808h100l85 -93h-92l-43 46l-42 -46h-92z" />
    <glyph glyph-name="Wdieresis" unicode="&#x1e84;" horiz-adv-x="538" 
d="M196 0h-92l-92 668h95c18 -152 44 -399 49 -516h2c12 127 48 365 68 516h89c21 -155 56 -376 67 -512h2c8 124 35 356 52 512h91l-100 -668h-93c-20 153 -53 367 -66 493h-2c-14 -132 -48 -344 -70 -493zM241 718h-79v101h79v-101zM377 718h-79v101h79v-101z" />
    <glyph glyph-name="Ygrave" unicode="&#x1ef2;" horiz-adv-x="332" 
d="M210 0h-89v242c0 8 -1 13 -3 21l-124 405h99c29 -114 64 -246 74 -314h1c14 72 48 204 75 314h95l-126 -412c-1 -5 -2 -11 -2 -23v-233zM6 811h115l97 -101h-88z" />
    <glyph glyph-name="Yacute" unicode="&#xdd;" horiz-adv-x="332" 
d="M210 0h-89v242c0 8 -1 13 -3 21l-124 405h99c29 -114 64 -246 74 -314h1c14 72 48 204 75 314h95l-126 -412c-1 -5 -2 -11 -2 -23v-233zM213 816h111l-123 -101h-85z" />
    <glyph glyph-name="Ycircumflex" unicode="&#x176;" horiz-adv-x="332" 
d="M210 0h-89v242c0 8 -1 13 -3 21l-124 405h99c29 -114 64 -246 74 -314h1c14 72 48 204 75 314h95l-126 -412c-1 -5 -2 -11 -2 -23v-233zM114 808h100l85 -93h-92l-43 46l-42 -46h-92z" />
    <glyph glyph-name="Ydieresis" unicode="&#x178;" horiz-adv-x="332" 
d="M210 0h-89v242c0 8 -1 13 -3 21l-124 405h99c29 -114 64 -246 74 -314h1c14 72 48 204 75 314h95l-126 -412c-1 -5 -2 -11 -2 -23v-233zM137 718h-79v101h79v-101zM273 718h-79v101h79v-101z" />
    <glyph glyph-name="uni1E8E" unicode="&#x1e8e;" horiz-adv-x="332" 
d="M210 0h-89v242c0 8 -1 13 -3 21l-124 405h99c29 -114 64 -246 74 -314h1c14 72 48 204 75 314h95l-126 -412c-1 -5 -2 -11 -2 -23v-233zM209 716h-89v105h89v-105z" />
    <glyph glyph-name="uni1EF4" unicode="&#x1ef4;" horiz-adv-x="332" 
d="M210 0h-89v242c0 8 -1 13 -3 21l-124 405h99c29 -114 64 -246 74 -314h1c14 72 48 204 75 314h95l-126 -412c-1 -5 -2 -11 -2 -23v-233zM211 -155h-90v97h90v-97z" />
    <glyph glyph-name="uni1EF6" unicode="&#x1ef6;" horiz-adv-x="332" 
d="M210 0h-89v242c0 8 -1 13 -3 21l-124 405h99c29 -114 64 -246 74 -314h1c14 72 48 204 75 314h95l-126 -412c-1 -5 -2 -11 -2 -23v-233zM197 699h-73c31 29 40 42 40 63c0 12 -7 24 -28 24c-17 0 -31 -7 -42 -13l-19 47c17 13 47 27 87 27c57 0 80 -31 80 -67
s-24 -64 -45 -81z" />
    <glyph glyph-name="uni1EF8" unicode="&#x1ef8;" horiz-adv-x="332" 
d="M210 0h-89v242c0 8 -1 13 -3 21l-124 405h99c29 -114 64 -246 74 -314h1c14 72 48 204 75 314h95l-126 -412c-1 -5 -2 -11 -2 -23v-233zM97 721h-56v16c0 62 31 80 66 80c44 0 82 -30 105 -30c10 0 20 3 20 22v9h55v-10c0 -66 -22 -88 -65 -88c-42 0 -79 28 -105 28
c-12 0 -20 -6 -20 -21v-6z" />
    <glyph glyph-name="Zacute" unicode="&#x179;" horiz-adv-x="311" 
d="M11 0v59l192 526h-176v83h274v-69l-187 -517h192l-12 -82h-283zM212 816h111l-123 -101h-85z" />
    <glyph glyph-name="Zcaron" unicode="&#x17d;" horiz-adv-x="311" 
d="M11 0v59l192 526h-176v83h274v-69l-187 -517h192l-12 -82h-283zM214 713h-99l-86 94h93l43 -50l41 50h92z" />
    <glyph glyph-name="Zdotaccent" unicode="&#x17b;" horiz-adv-x="311" 
d="M11 0v59l192 526h-176v83h274v-69l-187 -517h192l-12 -82h-283zM209 716h-89v105h89v-105z" />
    <glyph glyph-name="uni1E92" unicode="&#x1e92;" horiz-adv-x="311" 
d="M11 0v59l192 526h-176v83h274v-69l-187 -517h192l-12 -82h-283zM200 -155h-90v97h90v-97z" />
    <glyph glyph-name="Eth" unicode="&#xd0;" horiz-adv-x="394" 
d="M12 397h45v271h134c143 0 170 -80 170 -196v-260c0 -102 -17 -212 -172 -212h-132v321h-45v76zM147 591v-194h66v-76h-66v-244h36c73 0 87 44 87 121v282c0 68 -12 111 -87 111h-36z" />
    <glyph glyph-name="Thorn" unicode="&#xde;" horiz-adv-x="357" 
d="M48 0v668h89v-125h46c94 0 152 -28 152 -155v-65c0 -122 -40 -175 -167 -175h-31v-148h-89zM137 465v-238h26c69 0 83 27 83 92v68c0 61 -22 78 -77 78h-32z" />
    <glyph glyph-name="uni018F" unicode="&#x18f;" horiz-adv-x="374" 
d="M125 486h-93v13c0 102 40 178 156 178c108 0 152 -65 152 -186v-323c0 -82 -26 -177 -160 -177c-114 0 -148 81 -148 172v195h216v145c0 67 -21 93 -61 93c-46 0 -62 -30 -62 -91v-19zM248 279h-125v-120c0 -63 22 -88 62 -88c44 0 63 27 63 88v120z" />
    <glyph glyph-name="agrave" unicode="&#xe0;" horiz-adv-x="348" 
d="M302 387v-289c0 -33 0 -80 2 -98h-82c-2 11 -6 32 -6 39c-17 -34 -47 -47 -85 -47c-76 0 -106 69 -106 148v9c0 122 80 159 172 159h16v72c0 43 -6 68 -41 68c-34 0 -43 -26 -43 -62v-10h-88v9c0 73 28 137 134 137c95 0 127 -55 127 -135zM215 173v66h-21
c-51 0 -84 -21 -84 -89v-8c0 -41 14 -71 49 -71c40 0 56 29 56 102zM27 706h104l85 -133h-73z" />
    <glyph glyph-name="aacute" unicode="&#xe1;" horiz-adv-x="348" 
d="M302 387v-289c0 -33 0 -80 2 -98h-82c-2 11 -6 32 -6 39c-17 -34 -47 -47 -85 -47c-76 0 -106 69 -106 148v9c0 122 80 159 172 159h16v72c0 43 -6 68 -41 68c-34 0 -43 -26 -43 -62v-10h-88v9c0 73 28 137 134 137c95 0 127 -55 127 -135zM215 173v66h-21
c-51 0 -84 -21 -84 -89v-8c0 -41 14 -71 49 -71c40 0 56 29 56 102zM206 706h101l-116 -133h-77z" />
    <glyph glyph-name="acircumflex" unicode="&#xe2;" horiz-adv-x="348" 
d="M302 387v-289c0 -33 0 -80 2 -98h-82c-2 11 -6 32 -6 39c-17 -34 -47 -47 -85 -47c-76 0 -106 69 -106 148v9c0 122 80 159 172 159h16v72c0 43 -6 68 -41 68c-34 0 -43 -26 -43 -62v-10h-88v9c0 73 28 137 134 137c95 0 127 -55 127 -135zM215 173v66h-21
c-51 0 -84 -21 -84 -89v-8c0 -41 14 -71 49 -71c40 0 56 29 56 102zM127 697h91l78 -114h-81l-42 64l-43 -64h-80z" />
    <glyph glyph-name="atilde" unicode="&#xe3;" horiz-adv-x="348" 
d="M302 387v-289c0 -33 0 -80 2 -98h-82c-2 11 -6 32 -6 39c-17 -34 -47 -47 -85 -47c-76 0 -106 69 -106 148v9c0 122 80 159 172 159h16v72c0 43 -6 68 -41 68c-34 0 -43 -26 -43 -62v-10h-88v9c0 73 28 137 134 137c95 0 127 -55 127 -135zM215 173v66h-21
c-51 0 -84 -21 -84 -89v-8c0 -41 14 -71 49 -71c40 0 56 29 56 102zM115 585h-58v27c0 49 22 72 60 72c44 0 79 -32 103 -32c8 0 12 3 12 26v5h56v-24c0 -60 -25 -76 -60 -76c-39 0 -76 32 -101 32c-8 0 -12 -3 -12 -23v-7z" />
    <glyph glyph-name="adieresis" unicode="&#xe4;" horiz-adv-x="348" 
d="M302 387v-289c0 -33 0 -80 2 -98h-82c-2 11 -6 32 -6 39c-17 -34 -47 -47 -85 -47c-76 0 -106 69 -106 148v9c0 122 80 159 172 159h16v72c0 43 -6 68 -41 68c-34 0 -43 -26 -43 -62v-10h-88v9c0 73 28 137 134 137c95 0 127 -55 127 -135zM215 173v66h-21
c-51 0 -84 -21 -84 -89v-8c0 -41 14 -71 49 -71c40 0 56 29 56 102zM144 590h-78v107h78v-107zM280 590h-79v107h79v-107z" />
    <glyph glyph-name="amacron" unicode="&#x101;" horiz-adv-x="348" 
d="M302 387v-289c0 -33 0 -80 2 -98h-82c-2 11 -6 32 -6 39c-17 -34 -47 -47 -85 -47c-76 0 -106 69 -106 148v9c0 122 80 159 172 159h16v72c0 43 -6 68 -41 68c-34 0 -43 -26 -43 -62v-10h-88v9c0 73 28 137 134 137c95 0 127 -55 127 -135zM215 173v66h-21
c-51 0 -84 -21 -84 -89v-8c0 -41 14 -71 49 -71c40 0 56 29 56 102zM74 672h197v-69h-197v69z" />
    <glyph glyph-name="abreve" unicode="&#x103;" horiz-adv-x="348" 
d="M302 387v-289c0 -33 0 -80 2 -98h-82c-2 11 -6 32 -6 39c-17 -34 -47 -47 -85 -47c-76 0 -106 69 -106 148v9c0 122 80 159 172 159h16v72c0 43 -6 68 -41 68c-34 0 -43 -26 -43 -62v-10h-88v9c0 73 28 137 134 137c95 0 127 -55 127 -135zM215 173v66h-21
c-51 0 -84 -21 -84 -89v-8c0 -41 14 -71 49 -71c40 0 56 29 56 102zM57 696h68c4 -24 18 -45 49 -45c32 0 43 22 47 45h67c-5 -58 -39 -108 -116 -108c-78 0 -111 57 -115 108z" />
    <glyph glyph-name="aring" unicode="&#xe5;" horiz-adv-x="348" 
d="M302 387v-289c0 -33 0 -80 2 -98h-82c-2 11 -6 32 -6 39c-17 -34 -47 -47 -85 -47c-76 0 -106 69 -106 148v9c0 122 80 159 172 159h16v72c0 43 -6 68 -41 68c-34 0 -43 -26 -43 -62v-10h-88v9c0 73 28 137 134 137c95 0 127 -55 127 -135zM215 173v66h-21
c-51 0 -84 -21 -84 -89v-8c0 -41 14 -71 49 -71c40 0 56 29 56 102zM174 568c-50 0 -81 37 -81 80c0 46 29 82 80 82c49 0 80 -35 80 -80c0 -48 -32 -82 -79 -82zM174 611c23 0 34 19 34 38s-11 39 -35 39s-35 -17 -35 -38c0 -20 11 -39 36 -39z" />
    <glyph glyph-name="uni01CE" unicode="&#x1ce;" horiz-adv-x="348" 
d="M302 387v-289c0 -33 0 -80 2 -98h-82c-2 11 -6 32 -6 39c-17 -34 -47 -47 -85 -47c-76 0 -106 69 -106 148v9c0 122 80 159 172 159h16v72c0 43 -6 68 -41 68c-34 0 -43 -26 -43 -62v-10h-88v9c0 73 28 137 134 137c95 0 127 -55 127 -135zM215 173v66h-21
c-51 0 -84 -21 -84 -89v-8c0 -41 14 -71 49 -71c40 0 56 29 56 102zM219 580h-91l-78 113h80l43 -63l43 63h80z" />
    <glyph glyph-name="uni1EA1" unicode="&#x1ea1;" horiz-adv-x="348" 
d="M302 387v-289c0 -33 0 -80 2 -98h-82c-2 11 -6 32 -6 39c-17 -34 -47 -47 -85 -47c-76 0 -106 69 -106 148v9c0 122 80 159 172 159h16v72c0 43 -6 68 -41 68c-34 0 -43 -26 -43 -62v-10h-88v9c0 73 28 137 134 137c95 0 127 -55 127 -135zM215 173v66h-21
c-51 0 -84 -21 -84 -89v-8c0 -41 14 -71 49 -71c40 0 56 29 56 102zM219 -155h-90v97h90v-97z" />
    <glyph glyph-name="uni1EA3" unicode="&#x1ea3;" horiz-adv-x="348" 
d="M302 387v-289c0 -33 0 -80 2 -98h-82c-2 11 -6 32 -6 39c-17 -34 -47 -47 -85 -47c-76 0 -106 69 -106 148v9c0 122 80 159 172 159h16v72c0 43 -6 68 -41 68c-34 0 -43 -26 -43 -62v-10h-88v9c0 73 28 137 134 137c95 0 127 -55 127 -135zM215 173v66h-21
c-51 0 -84 -21 -84 -89v-8c0 -41 14 -71 49 -71c40 0 56 29 56 102zM207 574h-73c31 29 40 42 40 63c0 12 -7 24 -28 24c-17 0 -31 -7 -42 -13l-19 47c17 13 47 27 87 27c57 0 80 -31 80 -67s-24 -64 -45 -81z" />
    <glyph glyph-name="uni1EA5" unicode="&#x1ea5;" horiz-adv-x="348" 
d="M302 387v-289c0 -33 0 -80 2 -98h-82c-2 11 -6 32 -6 39c-17 -34 -47 -47 -85 -47c-76 0 -106 69 -106 148v9c0 122 80 159 172 159h16v72c0 43 -6 68 -41 68c-34 0 -43 -26 -43 -62v-10h-88v9c0 73 28 137 134 137c95 0 127 -55 127 -135zM215 173v66h-21
c-51 0 -84 -21 -84 -89v-8c0 -41 14 -71 49 -71c40 0 56 29 56 102zM132 695h84l84 -117h-79l-48 69l-47 -69h-78zM337 768h88l-93 -103h-66z" />
    <glyph glyph-name="uni1EA7" unicode="&#x1ea7;" horiz-adv-x="348" 
d="M302 387v-289c0 -33 0 -80 2 -98h-82c-2 11 -6 32 -6 39c-17 -34 -47 -47 -85 -47c-76 0 -106 69 -106 148v9c0 122 80 159 172 159h16v72c0 43 -6 68 -41 68c-34 0 -43 -26 -43 -62v-10h-88v9c0 73 28 137 134 137c95 0 127 -55 127 -135zM215 173v66h-21
c-51 0 -84 -21 -84 -89v-8c0 -41 14 -71 49 -71c40 0 56 29 56 102zM132 694h84l84 -116h-79l-48 68l-47 -68h-78zM216 771h91l68 -107h-62z" />
    <glyph glyph-name="uni1EA9" unicode="&#x1ea9;" horiz-adv-x="348" 
d="M302 387v-289c0 -33 0 -80 2 -98h-82c-2 11 -6 32 -6 39c-17 -34 -47 -47 -85 -47c-76 0 -106 69 -106 148v9c0 122 80 159 172 159h16v72c0 43 -6 68 -41 68c-34 0 -43 -26 -43 -62v-10h-88v9c0 73 28 137 134 137c95 0 127 -55 127 -135zM215 173v66h-21
c-51 0 -84 -21 -84 -89v-8c0 -41 14 -71 49 -71c40 0 56 29 56 102zM132 694h84l84 -117h-79l-48 69l-47 -69h-78zM335 675h-66c26 26 38 41 38 58c0 11 -7 21 -26 21c-15 0 -28 -5 -41 -14l-20 43c15 11 43 28 83 28c49 0 73 -28 73 -62s-21 -58 -41 -74z" />
    <glyph glyph-name="uni1EAB" unicode="&#x1eab;" horiz-adv-x="348" 
d="M302 387v-289c0 -33 0 -80 2 -98h-82c-2 11 -6 32 -6 39c-17 -34 -47 -47 -85 -47c-76 0 -106 69 -106 148v9c0 122 80 159 172 159h16v72c0 43 -6 68 -41 68c-34 0 -43 -26 -43 -62v-10h-88v9c0 73 28 137 134 137c95 0 127 -55 127 -135zM215 173v66h-21
c-51 0 -84 -21 -84 -89v-8c0 -41 14 -71 49 -71c40 0 56 29 56 102zM112 688h-55v11c0 53 27 72 62 72c44 0 77 -26 100 -26c10 0 16 4 16 19v9h54v-13c0 -54 -26 -72 -60 -72c-40 0 -76 26 -101 26c-11 0 -16 -8 -16 -19v-7zM126 656h92l90 -86h-87l-51 46l-48 -46h-85z
" />
    <glyph glyph-name="uni1EAD" unicode="&#x1ead;" horiz-adv-x="348" 
d="M302 387v-289c0 -33 0 -80 2 -98h-82c-2 11 -6 32 -6 39c-17 -34 -47 -47 -85 -47c-76 0 -106 69 -106 148v9c0 122 80 159 172 159h16v72c0 43 -6 68 -41 68c-34 0 -43 -26 -43 -62v-10h-88v9c0 73 28 137 134 137c95 0 127 -55 127 -135zM215 173v66h-21
c-51 0 -84 -21 -84 -89v-8c0 -41 14 -71 49 -71c40 0 56 29 56 102zM219 -155h-90v97h90v-97zM127 697h91l78 -114h-81l-42 64l-43 -64h-80z" />
    <glyph glyph-name="uni1EAF" unicode="&#x1eaf;" horiz-adv-x="348" 
d="M302 387v-289c0 -33 0 -80 2 -98h-82c-2 11 -6 32 -6 39c-17 -34 -47 -47 -85 -47c-76 0 -106 69 -106 148v9c0 122 80 159 172 159h16v72c0 43 -6 68 -41 68c-34 0 -43 -26 -43 -62v-10h-88v9c0 73 28 137 134 137c95 0 127 -55 127 -135zM215 173v66h-21
c-51 0 -84 -21 -84 -89v-8c0 -41 14 -71 49 -71c40 0 56 29 56 102zM213 768h98l-107 -87h-72zM53 661h68c7 -23 23 -39 53 -39c37 0 48 18 55 39h67c-10 -56 -48 -97 -122 -97c-77 0 -113 47 -121 97z" />
    <glyph glyph-name="uni1EB1" unicode="&#x1eb1;" horiz-adv-x="348" 
d="M302 387v-289c0 -33 0 -80 2 -98h-82c-2 11 -6 32 -6 39c-17 -34 -47 -47 -85 -47c-76 0 -106 69 -106 148v9c0 122 80 159 172 159h16v72c0 43 -6 68 -41 68c-34 0 -43 -26 -43 -62v-10h-88v9c0 73 28 137 134 137c95 0 127 -55 127 -135zM215 173v66h-21
c-51 0 -84 -21 -84 -89v-8c0 -41 14 -71 49 -71c40 0 56 29 56 102zM42 767h98l78 -86h-70zM53 661h68c7 -23 23 -39 53 -39c37 0 48 18 55 39h67c-10 -56 -48 -97 -122 -97c-77 0 -113 47 -121 97z" />
    <glyph glyph-name="uni1EB3" unicode="&#x1eb3;" horiz-adv-x="348" 
d="M302 387v-289c0 -33 0 -80 2 -98h-82c-2 11 -6 32 -6 39c-17 -34 -47 -47 -85 -47c-76 0 -106 69 -106 148v9c0 122 80 159 172 159h16v72c0 43 -6 68 -41 68c-34 0 -43 -26 -43 -62v-10h-88v9c0 73 28 137 134 137c95 0 127 -55 127 -135zM215 173v66h-21
c-51 0 -84 -21 -84 -89v-8c0 -41 14 -71 49 -71c40 0 56 29 56 102zM201 676h-65c26 24 42 38 42 59c0 10 -8 20 -26 20c-13 0 -25 -5 -36 -12l-18 41c15 11 40 22 75 22c48 0 70 -25 70 -59c0 -31 -20 -55 -42 -71zM53 659h68c7 -23 23 -39 53 -39c37 0 48 18 55 39h67
c-10 -56 -48 -97 -122 -97c-77 0 -113 48 -121 97z" />
    <glyph glyph-name="uni1EB5" unicode="&#x1eb5;" horiz-adv-x="348" 
d="M302 387v-289c0 -33 0 -80 2 -98h-82c-2 11 -6 32 -6 39c-17 -34 -47 -47 -85 -47c-76 0 -106 69 -106 148v9c0 122 80 159 172 159h16v72c0 43 -6 68 -41 68c-34 0 -43 -26 -43 -62v-10h-88v9c0 73 28 137 134 137c95 0 127 -55 127 -135zM215 173v66h-21
c-51 0 -84 -21 -84 -89v-8c0 -41 14 -71 49 -71c40 0 56 29 56 102zM112 688h-55v11c0 53 27 72 62 72c44 0 77 -27 100 -27c10 0 16 5 16 19v9h54v-12c0 -54 -26 -73 -60 -73c-40 0 -76 26 -101 26c-11 0 -16 -7 -16 -18v-7zM56 652h66c6 -21 21 -36 51 -36
c34 0 45 19 50 36h66c-8 -50 -45 -91 -117 -91c-75 0 -110 47 -116 91z" />
    <glyph glyph-name="uni1EB7" unicode="&#x1eb7;" horiz-adv-x="348" 
d="M302 387v-289c0 -33 0 -80 2 -98h-82c-2 11 -6 32 -6 39c-17 -34 -47 -47 -85 -47c-76 0 -106 69 -106 148v9c0 122 80 159 172 159h16v72c0 43 -6 68 -41 68c-34 0 -43 -26 -43 -62v-10h-88v9c0 73 28 137 134 137c95 0 127 -55 127 -135zM215 173v66h-21
c-51 0 -84 -21 -84 -89v-8c0 -41 14 -71 49 -71c40 0 56 29 56 102zM57 696h68c4 -24 18 -45 49 -45c32 0 43 22 47 45h67c-5 -58 -39 -108 -116 -108c-78 0 -111 57 -115 108zM219 -155h-90v97h90v-97z" />
    <glyph glyph-name="aogonek" unicode="&#x105;" horiz-adv-x="348" 
d="M302 387v-289c0 -33 0 -80 2 -98h-1c-34 -30 -44 -53 -44 -74s15 -33 37 -33c12 0 21 2 31 5l8 -62c-20 -14 -50 -15 -71 -15c-54 0 -91 30 -91 82c0 41 25 75 51 97h-2c-2 11 -6 32 -6 39c-17 -34 -47 -47 -85 -47c-76 0 -106 69 -106 148v9c0 122 80 159 172 159h16v72
c0 43 -6 68 -41 68c-34 0 -43 -26 -43 -62v-10h-88v9c0 73 28 137 134 137c95 0 127 -55 127 -135zM215 173v66h-21c-51 0 -84 -21 -84 -89v-8c0 -41 14 -71 49 -71c40 0 56 29 56 102z" />
    <glyph glyph-name="ae" unicode="&#xe6;" horiz-adv-x="516" 
d="M139 -8c-85 0 -114 74 -114 151v4c0 117 73 158 163 158h25v78c0 38 -7 65 -44 65s-42 -33 -42 -65v-18h-88v8c0 80 21 149 130 149c42 0 81 -11 97 -41c18 23 47 41 95 41c98 0 128 -74 128 -160v-126h-192v-77c0 -56 12 -90 52 -90s47 37 47 81l1 8h90v-5
c0 -80 -20 -161 -135 -161c-61 0 -90 19 -110 55c-17 -27 -40 -55 -103 -55zM215 185v51h-25c-49 0 -80 -21 -80 -86v-4c0 -44 16 -75 51 -75c39 0 54 35 54 114zM298 305h102v69c0 49 -13 74 -49 74c-41 0 -53 -31 -53 -79v-64z" />
    <glyph glyph-name="ccedilla" unicode="&#xe7;" horiz-adv-x="321" 
d="M212 167h89v-7c0 -80 -18 -150 -101 -165l-14 -23c29 -9 64 -27 64 -73c0 -42 -31 -78 -91 -78c-29 0 -53 5 -71 14l13 53c13 -6 32 -10 45 -10c19 0 28 8 28 21c0 18 -22 29 -58 34v23l20 38c-87 12 -106 83 -106 179v186c0 85 30 163 139 163c117 0 132 -85 132 -151
v-20h-89v20c0 43 -6 75 -45 75c-34 0 -47 -26 -47 -77v-222c0 -40 8 -79 47 -79c36 0 45 27 45 78v21z" />
    <glyph glyph-name="cacute" unicode="&#x107;" horiz-adv-x="321" 
d="M212 167h89v-7c0 -91 -23 -168 -137 -168c-111 0 -134 75 -134 181v186c0 85 30 163 139 163c117 0 132 -85 132 -151v-20h-89v20c0 43 -6 75 -45 75c-34 0 -47 -26 -47 -77v-222c0 -40 8 -79 47 -79c36 0 45 27 45 78v21zM206 706h101l-116 -133h-77z" />
    <glyph glyph-name="ccircumflex" unicode="&#x109;" horiz-adv-x="321" 
d="M212 167h89v-7c0 -91 -23 -168 -137 -168c-111 0 -134 75 -134 181v186c0 85 30 163 139 163c117 0 132 -85 132 -151v-20h-89v20c0 43 -6 75 -45 75c-34 0 -47 -26 -47 -77v-222c0 -40 8 -79 47 -79c36 0 45 27 45 78v21zM124 697h91l78 -114h-81l-42 64l-43 -64h-80z
" />
    <glyph glyph-name="ccaron" unicode="&#x10d;" horiz-adv-x="321" 
d="M212 167h89v-7c0 -91 -23 -168 -137 -168c-111 0 -134 75 -134 181v186c0 85 30 163 139 163c117 0 132 -85 132 -151v-20h-89v20c0 43 -6 75 -45 75c-34 0 -47 -26 -47 -77v-222c0 -40 8 -79 47 -79c36 0 45 27 45 78v21zM213 580h-91l-78 113h80l43 -63l43 63h80z" />
    <glyph glyph-name="cdotaccent" unicode="&#x10b;" horiz-adv-x="321" 
d="M212 167h89v-7c0 -91 -23 -168 -137 -168c-111 0 -134 75 -134 181v186c0 85 30 163 139 163c117 0 132 -85 132 -151v-20h-89v20c0 43 -6 75 -45 75c-34 0 -47 -26 -47 -77v-222c0 -40 8 -79 47 -79c36 0 45 27 45 78v21zM214 590h-90v107h90v-107z" />
    <glyph glyph-name="dcaron" unicode="&#x10f;" horiz-adv-x="393" 
d="M228 697h90v-559c0 -71 0 -110 1 -138h-86c-1 12 -3 40 -3 50c-15 -33 -39 -58 -90 -58c-90 0 -110 72 -110 171v205c0 90 35 154 117 154c39 0 68 -13 81 -37v212zM120 362v-205c0 -55 14 -84 51 -84c47 0 57 43 57 107v163c0 56 -5 98 -55 98c-38 0 -53 -30 -53 -79z
M351 697h63l-4 -222h-57z" />
    <glyph glyph-name="uni1E0D" unicode="&#x1e0d;" horiz-adv-x="362" 
d="M228 697h90v-559c0 -71 0 -110 1 -138h-86c-1 12 -3 40 -3 50c-15 -33 -39 -58 -90 -58c-90 0 -110 72 -110 171v205c0 90 35 154 117 154c39 0 68 -13 81 -37v212zM120 362v-205c0 -55 14 -84 51 -84c47 0 57 43 57 107v163c0 56 -5 98 -55 98c-38 0 -53 -30 -53 -79z
M226 -155h-90v97h90v-97z" />
    <glyph glyph-name="uni1E0F" unicode="&#x1e0f;" horiz-adv-x="362" 
d="M228 697h90v-559c0 -71 0 -110 1 -138h-86c-1 12 -3 40 -3 50c-15 -33 -39 -58 -90 -58c-90 0 -110 72 -110 171v205c0 90 35 154 117 154c39 0 68 -13 81 -37v212zM120 362v-205c0 -55 14 -84 51 -84c47 0 57 43 57 107v163c0 56 -5 98 -55 98c-38 0 -53 -30 -53 -79z
M82 -64h197v-69h-197v69z" />
    <glyph glyph-name="dcroat" unicode="&#x111;" horiz-adv-x="362" 
d="M100 632h128v65h90v-65h52v-62h-52v-432c0 -71 0 -110 1 -138h-86c-1 12 -3 40 -3 50c-14 -32 -39 -58 -90 -58c-90 0 -110 72 -110 176v195c0 91 35 159 117 159c39 0 68 -13 81 -37v85h-128v62zM120 364v-209c0 -54 14 -82 52 -82c47 0 56 46 56 110v160
c0 53 -4 98 -54 98c-38 0 -54 -29 -54 -77z" />
    <glyph glyph-name="egrave" unicode="&#xe8;" horiz-adv-x="338" 
d="M311 235h-193v-79c0 -45 9 -88 53 -88s51 38 51 80v3h87v-3c0 -56 -12 -156 -136 -156c-121 0 -143 77 -143 181v178c0 73 25 171 143 171c105 0 138 -74 138 -171v-116zM119 306h106v58c0 47 -9 82 -52 82c-40 0 -54 -30 -54 -83v-57zM27 706h104l85 -133h-73z" />
    <glyph glyph-name="eacute" unicode="&#xe9;" horiz-adv-x="338" 
d="M311 235h-193v-79c0 -45 9 -88 53 -88s51 38 51 80v3h87v-3c0 -56 -12 -156 -136 -156c-121 0 -143 77 -143 181v178c0 73 25 171 143 171c105 0 138 -74 138 -171v-116zM119 306h106v58c0 47 -9 82 -52 82c-40 0 -54 -30 -54 -83v-57zM213 706h101l-116 -133h-77z" />
    <glyph glyph-name="ecircumflex" unicode="&#xea;" horiz-adv-x="338" 
d="M311 235h-193v-79c0 -45 9 -88 53 -88s51 38 51 80v3h87v-3c0 -56 -12 -156 -136 -156c-121 0 -143 77 -143 181v178c0 73 25 171 143 171c105 0 138 -74 138 -171v-116zM119 306h106v58c0 47 -9 82 -52 82c-40 0 -54 -30 -54 -83v-57zM128 697h91l78 -114h-81l-42 64
l-43 -64h-80z" />
    <glyph glyph-name="ecaron" unicode="&#x11b;" horiz-adv-x="338" 
d="M311 235h-193v-79c0 -45 9 -88 53 -88s51 38 51 80v3h87v-3c0 -56 -12 -156 -136 -156c-121 0 -143 77 -143 181v178c0 73 25 171 143 171c105 0 138 -74 138 -171v-116zM119 306h106v58c0 47 -9 82 -52 82c-40 0 -54 -30 -54 -83v-57zM220 580h-91l-78 113h80l43 -63
l43 63h80z" />
    <glyph glyph-name="edieresis" unicode="&#xeb;" horiz-adv-x="338" 
d="M311 235h-193v-79c0 -45 9 -88 53 -88s51 38 51 80v3h87v-3c0 -56 -12 -156 -136 -156c-121 0 -143 77 -143 181v178c0 73 25 171 143 171c105 0 138 -74 138 -171v-116zM119 306h106v58c0 47 -9 82 -52 82c-40 0 -54 -30 -54 -83v-57zM140 590h-78v107h78v-107zM276 590
h-79v107h79v-107z" />
    <glyph glyph-name="emacron" unicode="&#x113;" horiz-adv-x="338" 
d="M311 235h-193v-79c0 -45 9 -88 53 -88s51 38 51 80v3h87v-3c0 -56 -12 -156 -136 -156c-121 0 -143 77 -143 181v178c0 73 25 171 143 171c105 0 138 -74 138 -171v-116zM119 306h106v58c0 47 -9 82 -52 82c-40 0 -54 -30 -54 -83v-57zM70 672h197v-69h-197v69z" />
    <glyph glyph-name="ebreve" unicode="&#x115;" horiz-adv-x="338" 
d="M311 235h-193v-79c0 -45 9 -88 53 -88s51 38 51 80v3h87v-3c0 -56 -12 -156 -136 -156c-121 0 -143 77 -143 181v178c0 73 25 171 143 171c105 0 138 -74 138 -171v-116zM119 306h106v58c0 47 -9 82 -52 82c-40 0 -54 -30 -54 -83v-57zM53 691h68c4 -24 18 -45 49 -45
c32 0 43 22 47 45h67c-5 -58 -39 -108 -116 -108c-78 0 -111 57 -115 108z" />
    <glyph glyph-name="edotaccent" unicode="&#x117;" horiz-adv-x="338" 
d="M311 235h-193v-79c0 -45 9 -88 53 -88s51 38 51 80v3h87v-3c0 -56 -12 -156 -136 -156c-121 0 -143 77 -143 181v178c0 73 25 171 143 171c105 0 138 -74 138 -171v-116zM119 306h106v58c0 47 -9 82 -52 82c-40 0 -54 -30 -54 -83v-57zM214 590h-90v107h90v-107z" />
    <glyph glyph-name="uni1EB9" unicode="&#x1eb9;" horiz-adv-x="338" 
d="M311 235h-193v-79c0 -45 9 -88 53 -88s51 38 51 80v3h87v-3c0 -56 -12 -156 -136 -156c-121 0 -143 77 -143 181v178c0 73 25 171 143 171c105 0 138 -74 138 -171v-116zM119 306h106v58c0 47 -9 82 -52 82c-40 0 -54 -30 -54 -83v-57zM214 -155h-90v97h90v-97z" />
    <glyph glyph-name="uni1EBB" unicode="&#x1ebb;" horiz-adv-x="338" 
d="M311 235h-193v-79c0 -45 9 -88 53 -88s51 38 51 80v3h87v-3c0 -56 -12 -156 -136 -156c-121 0 -143 77 -143 181v178c0 73 25 171 143 171c105 0 138 -74 138 -171v-116zM119 306h106v58c0 47 -9 82 -52 82c-40 0 -54 -30 -54 -83v-57zM202 574h-73c31 29 40 42 40 63
c0 12 -7 24 -28 24c-17 0 -31 -7 -42 -13l-19 47c17 13 47 27 87 27c57 0 80 -31 80 -67s-24 -64 -45 -81z" />
    <glyph glyph-name="uni1EBD" unicode="&#x1ebd;" horiz-adv-x="338" 
d="M311 235h-193v-79c0 -45 9 -88 53 -88s51 38 51 80v3h87v-3c0 -56 -12 -156 -136 -156c-121 0 -143 77 -143 181v178c0 73 25 171 143 171c105 0 138 -74 138 -171v-116zM119 306h106v58c0 47 -9 82 -52 82c-40 0 -54 -30 -54 -83v-57zM111 585h-58v27c0 49 22 72 60 72
c44 0 79 -32 103 -32c8 0 12 3 12 26v5h56v-24c0 -60 -25 -76 -60 -76c-39 0 -76 32 -101 32c-8 0 -12 -3 -12 -23v-7z" />
    <glyph glyph-name="uni1EBF" unicode="&#x1ebf;" horiz-adv-x="338" 
d="M311 235h-193v-79c0 -45 9 -88 53 -88s51 38 51 80v3h87v-3c0 -56 -12 -156 -136 -156c-121 0 -143 77 -143 181v178c0 73 25 171 143 171c105 0 138 -74 138 -171v-116zM119 306h106v58c0 47 -9 82 -52 82c-40 0 -54 -30 -54 -83v-57zM128 695h84l84 -117h-79l-48 69
l-47 -69h-78zM333 768h88l-93 -103h-66z" />
    <glyph glyph-name="uni1EC1" unicode="&#x1ec1;" horiz-adv-x="338" 
d="M311 235h-193v-79c0 -45 9 -88 53 -88s51 38 51 80v3h87v-3c0 -56 -12 -156 -136 -156c-121 0 -143 77 -143 181v178c0 73 25 171 143 171c105 0 138 -74 138 -171v-116zM119 306h106v58c0 47 -9 82 -52 82c-40 0 -54 -30 -54 -83v-57zM128 694h84l84 -116h-79l-48 68
l-47 -68h-78zM212 771h91l68 -107h-62z" />
    <glyph glyph-name="uni1EC3" unicode="&#x1ec3;" horiz-adv-x="338" 
d="M311 235h-193v-79c0 -45 9 -88 53 -88s51 38 51 80v3h87v-3c0 -56 -12 -156 -136 -156c-121 0 -143 77 -143 181v178c0 73 25 171 143 171c105 0 138 -74 138 -171v-116zM119 306h106v58c0 47 -9 82 -52 82c-40 0 -54 -30 -54 -83v-57zM128 694h84l84 -117h-79l-48 69
l-47 -69h-78zM331 675h-66c26 26 38 41 38 58c0 11 -7 21 -26 21c-15 0 -28 -5 -41 -14l-20 43c15 11 43 28 83 28c49 0 73 -28 73 -62s-21 -58 -41 -74z" />
    <glyph glyph-name="uni1EC5" unicode="&#x1ec5;" horiz-adv-x="338" 
d="M311 235h-193v-79c0 -45 9 -88 53 -88s51 38 51 80v3h87v-3c0 -56 -12 -156 -136 -156c-121 0 -143 77 -143 181v178c0 73 25 171 143 171c105 0 138 -74 138 -171v-116zM119 306h106v58c0 47 -9 82 -52 82c-40 0 -54 -30 -54 -83v-57zM108 685h-55v11c0 53 27 72 62 72
c44 0 77 -26 100 -26c10 0 16 4 16 19v9h54v-13c0 -54 -26 -72 -60 -72c-40 0 -76 26 -101 26c-11 0 -16 -8 -16 -19v-7zM122 653h92l90 -86h-87l-51 46l-48 -46h-85z" />
    <glyph glyph-name="uni1EC7" unicode="&#x1ec7;" horiz-adv-x="338" 
d="M311 235h-193v-79c0 -45 9 -88 53 -88s51 38 51 80v3h87v-3c0 -56 -12 -156 -136 -156c-121 0 -143 77 -143 181v178c0 73 25 171 143 171c105 0 138 -74 138 -171v-116zM119 306h106v58c0 47 -9 82 -52 82c-40 0 -54 -30 -54 -83v-57zM214 -155h-90v97h90v-97zM123 697
h91l78 -114h-81l-42 64l-43 -64h-80z" />
    <glyph glyph-name="eogonek" unicode="&#x119;" horiz-adv-x="338" 
d="M311 235h-193v-79c0 -45 9 -88 53 -88s51 38 51 80v3h87v-3c0 -46 -8 -121 -78 -147c-29 -27 -38 -48 -38 -68c0 -21 15 -33 37 -33c12 0 21 2 31 5l8 -62c-20 -14 -50 -15 -71 -15c-54 0 -91 30 -91 82c0 34 16 62 37 84c-96 12 -114 84 -114 179v178
c0 73 25 171 143 171c105 0 138 -74 138 -171v-116zM119 306h106v58c0 47 -9 82 -52 82c-40 0 -54 -30 -54 -83v-57z" />
    <glyph glyph-name="gcircumflex" unicode="&#x11d;" horiz-adv-x="362" 
d="M317 383v-362c0 -110 -11 -202 -150 -202c-116 0 -136 75 -136 131v3h90v-3c0 -19 7 -56 51 -56c47 0 56 35 56 104v60c-13 -31 -41 -50 -86 -50c-87 0 -112 67 -112 160v199c0 79 32 155 123 155c54 0 76 -26 85 -53c0 15 2 36 4 45h77c-1 -30 -2 -74 -2 -131zM120 362
v-187c0 -58 15 -87 50 -87c50 0 58 44 58 110v151c0 50 -5 92 -52 92c-37 0 -56 -26 -56 -79zM135 697h91l78 -114h-81l-42 64l-43 -64h-80z" />
    <glyph glyph-name="gbreve" unicode="&#x11f;" horiz-adv-x="362" 
d="M317 383v-362c0 -110 -11 -202 -150 -202c-116 0 -136 75 -136 131v3h90v-3c0 -19 7 -56 51 -56c47 0 56 35 56 104v60c-13 -31 -41 -50 -86 -50c-87 0 -112 67 -112 160v199c0 79 32 155 123 155c54 0 76 -26 85 -53c0 15 2 36 4 45h77c-1 -30 -2 -74 -2 -131zM120 362
v-187c0 -58 15 -87 50 -87c50 0 58 44 58 110v151c0 50 -5 92 -52 92c-37 0 -56 -26 -56 -79zM65 696h68c4 -24 18 -45 49 -45c32 0 43 22 47 45h67c-5 -58 -39 -108 -116 -108c-78 0 -111 57 -115 108z" />
    <glyph glyph-name="gdotaccent" unicode="&#x121;" horiz-adv-x="362" 
d="M317 383v-362c0 -110 -11 -202 -150 -202c-116 0 -136 75 -136 131v3h90v-3c0 -19 7 -56 51 -56c47 0 56 35 56 104v60c-13 -31 -41 -50 -86 -50c-87 0 -112 67 -112 160v199c0 79 32 155 123 155c54 0 76 -26 85 -53c0 15 2 36 4 45h77c-1 -30 -2 -74 -2 -131zM120 362
v-187c0 -58 15 -87 50 -87c50 0 58 44 58 110v151c0 50 -5 92 -52 92c-37 0 -56 -26 -56 -79zM226 590h-90v107h90v-107z" />
    <glyph glyph-name="uni0123" unicode="&#x123;" horiz-adv-x="362" 
d="M213 730h73c-30 -40 -58 -113 -67 -159h-81c13 62 48 133 75 159zM317 383v-362c0 -110 -11 -202 -150 -202c-116 0 -136 75 -136 131v3h90v-3c0 -19 7 -56 51 -56c47 0 56 35 56 104v60c-13 -31 -41 -50 -86 -50c-87 0 -112 67 -112 160v199c0 79 32 155 123 155
c54 0 76 -26 85 -53c0 15 2 36 4 45h77c-1 -30 -2 -74 -2 -131zM120 362v-187c0 -58 15 -87 50 -87c50 0 58 44 58 110v151c0 50 -5 92 -52 92c-37 0 -56 -26 -56 -79z" />
    <glyph glyph-name="gcaron" unicode="&#x1e7;" horiz-adv-x="362" 
d="M317 383v-362c0 -110 -11 -202 -150 -202c-116 0 -136 75 -136 131v3h90v-3c0 -19 7 -56 51 -56c47 0 56 35 56 104v60c-13 -31 -41 -50 -86 -50c-87 0 -112 67 -112 160v199c0 79 32 155 123 155c54 0 76 -26 85 -53c0 15 2 36 4 45h77c-1 -30 -2 -74 -2 -131zM120 362
v-187c0 -58 15 -87 50 -87c50 0 58 44 58 110v151c0 50 -5 92 -52 92c-37 0 -56 -26 -56 -79zM227 580h-91l-78 113h80l43 -63l43 63h80z" />
    <glyph glyph-name="uni1E21" unicode="&#x1e21;" horiz-adv-x="362" 
d="M317 383v-362c0 -110 -11 -202 -150 -202c-116 0 -136 75 -136 131v3h90v-3c0 -19 7 -56 51 -56c47 0 56 35 56 104v60c-13 -31 -41 -50 -86 -50c-87 0 -112 67 -112 160v199c0 79 32 155 123 155c54 0 76 -26 85 -53c0 15 2 36 4 45h77c-1 -30 -2 -74 -2 -131zM120 362
v-187c0 -58 15 -87 50 -87c50 0 58 44 58 110v151c0 50 -5 92 -52 92c-37 0 -56 -26 -56 -79zM82 672h197v-69h-197v69z" />
    <glyph glyph-name="uni00670303" horiz-adv-x="362" 
d="M317 383v-362c0 -110 -11 -202 -150 -202c-116 0 -136 75 -136 131v3h90v-3c0 -19 7 -56 51 -56c47 0 56 35 56 104v60c-13 -31 -41 -50 -86 -50c-87 0 -112 67 -112 160v199c0 79 32 155 123 155c54 0 76 -26 85 -53c0 15 2 36 4 45h77c-1 -30 -2 -74 -2 -131zM120 362
v-187c0 -58 15 -87 50 -87c50 0 58 44 58 110v151c0 50 -5 92 -52 92c-37 0 -56 -26 -56 -79zM123 585h-58v27c0 49 22 72 60 72c44 0 79 -32 103 -32c8 0 12 3 12 26v5h56v-24c0 -60 -25 -76 -60 -76c-39 0 -76 32 -101 32c-8 0 -12 -3 -12 -23v-7z" />
    <glyph glyph-name="hcircumflex" unicode="&#x125;" horiz-adv-x="376" 
d="M41 816h98l88 -82h-89l-48 41l-48 -41h-90zM45 0v697h89v-227c15 30 44 52 95 52c78 0 102 -58 102 -132v-390h-90v366c0 40 -6 75 -49 75c-46 0 -58 -33 -58 -98v-343h-89z" />
    <glyph glyph-name="uni1E25" unicode="&#x1e25;" horiz-adv-x="376" 
d="M45 0v697h89v-227c15 30 44 52 95 52c78 0 102 -58 102 -132v-390h-90v366c0 40 -6 75 -49 75c-46 0 -58 -33 -58 -98v-343h-89zM233 -155h-90v97h90v-97z" />
    <glyph glyph-name="uni1E2B" unicode="&#x1e2b;" horiz-adv-x="376" 
d="M45 0v697h89v-227c15 30 44 52 95 52c78 0 102 -58 102 -132v-390h-90v366c0 40 -6 75 -49 75c-46 0 -58 -33 -58 -98v-343h-89zM72 -44h68c4 -24 18 -45 49 -45c32 0 43 22 47 45h67c-5 -58 -39 -108 -116 -108c-78 0 -111 57 -115 108z" />
    <glyph glyph-name="hbar" unicode="&#x127;" horiz-adv-x="376" 
d="M45 0v570h-58v62h58v65h89v-65h123v-62h-123v-100c15 30 44 52 95 52c78 0 102 -58 102 -132v-390h-90v366c0 40 -6 75 -49 75c-46 0 -58 -33 -58 -98v-343h-89z" />
    <glyph glyph-name="igrave" unicode="&#xec;" horiz-adv-x="180" 
d="M45 0v514h89v-514h-89zM-60 706h104l85 -133h-73z" />
    <glyph glyph-name="iacute" unicode="&#xed;" horiz-adv-x="180" 
d="M45 0v514h89v-514h-89zM141 706h101l-116 -133h-77z" />
    <glyph glyph-name="icircumflex" unicode="&#xee;" horiz-adv-x="180" 
d="M45 0v514h89v-514h-89zM43 697h91l78 -114h-81l-42 64l-43 -64h-80z" />
    <glyph glyph-name="itilde" unicode="&#x129;" horiz-adv-x="180" 
d="M45 0v514h89v-514h-89zM31 585h-58v27c0 49 22 72 60 72c44 0 79 -32 103 -32c8 0 12 3 12 26v5h56v-24c0 -60 -25 -76 -60 -76c-39 0 -76 32 -101 32c-8 0 -12 -3 -12 -23v-7z" />
    <glyph glyph-name="idieresis" unicode="&#xef;" horiz-adv-x="180" 
d="M45 0v514h89v-514h-89zM60 590h-78v107h78v-107zM196 590h-79v107h79v-107z" />
    <glyph glyph-name="imacron" unicode="&#x12b;" horiz-adv-x="180" 
d="M45 0v514h89v-514h-89zM-10 672h197v-69h-197v69z" />
    <glyph glyph-name="uni01D0" unicode="&#x1d0;" horiz-adv-x="180" 
d="M45 0v514h89v-514h-89zM135 580h-91l-78 113h80l43 -63l43 63h80z" />
    <glyph glyph-name="uni1EC9" unicode="&#x1ec9;" horiz-adv-x="180" 
d="M45 0v514h89v-514h-89zM122 574h-73c31 29 40 42 40 63c0 12 -7 24 -28 24c-17 0 -31 -7 -42 -13l-19 47c17 13 47 27 87 27c57 0 80 -31 80 -67s-24 -64 -45 -81z" />
    <glyph glyph-name="uni1ECB" unicode="&#x1ecb;" horiz-adv-x="180" 
d="M45 0v514h89v-514h-89zM45 590v107h90v-107h-90zM134 -155h-90v97h90v-97z" />
    <glyph glyph-name="iogonek" unicode="&#x12f;" horiz-adv-x="180" 
d="M45 0v514h89v-514c-34 -30 -44 -53 -44 -74s15 -33 37 -33c12 0 21 2 31 5l8 -62c-20 -14 -50 -15 -71 -15c-54 0 -91 30 -91 82c0 41 25 75 51 97h-10zM45 590v107h90v-107h-90z" />
    <glyph glyph-name="dotlessi" unicode="&#x131;" horiz-adv-x="180" 
d="M45 0v514h89v-514h-89z" />
    <glyph glyph-name="jcircumflex" unicode="&#x135;" horiz-adv-x="181" 
d="M46 514h90v-547c0 -77 -10 -145 -107 -145c-9 0 -21 0 -41 2v80c10 -1 17 -1 23 -1c26 0 35 7 35 51v560zM44 697h91l78 -114h-81l-42 64l-43 -64h-80z" />
    <glyph glyph-name="uni0137" unicode="&#x137;" horiz-adv-x="327" 
d="M134 697v-412h1c24 57 73 165 101 229h94c-34 -70 -65 -130 -96 -189l107 -325h-98l-70 238c-10 -19 -30 -59 -39 -76v-162h-89v697h89zM175 -191h-69c19 44 33 101 34 147h86c-4 -65 -27 -119 -51 -147z" />
    <glyph glyph-name="kgreenlandic" unicode="&#x138;" horiz-adv-x="327" 
d="M134 514v-232h1c23 52 74 170 101 232h94c-34 -66 -66 -134 -98 -197c38 -111 71 -207 109 -317h-99c-24 80 -46 154 -70 233c-10 -18 -28 -50 -38 -68v-165h-89v514h89z" />
    <glyph glyph-name="lacute" unicode="&#x13a;" horiz-adv-x="179" 
d="M135 825h110l-117 -90h-82zM134 0h-89v697h89v-697z" />
    <glyph glyph-name="lcaron" unicode="&#x13e;" horiz-adv-x="218" 
d="M134 0h-89v697h89v-697zM169 697h63l-4 -222h-57z" />
    <glyph glyph-name="ldot" unicode="&#x140;" horiz-adv-x="239" 
d="M250 377h-82v137h82v-137zM134 0h-89v697h89v-697z" />
    <glyph glyph-name="uni013C" unicode="&#x13c;" horiz-adv-x="179" 
d="M134 0h-89v697h89v-697zM81 -192h-69c19 44 33 101 34 147h86c-4 -65 -27 -119 -51 -147z" />
    <glyph glyph-name="uni1E37" unicode="&#x1e37;" horiz-adv-x="179" 
d="M134 0h-89v697h89v-697zM134 -155h-90v97h90v-97z" />
    <glyph glyph-name="uni1E39" unicode="&#x1e39;" horiz-adv-x="179" 
d="M134 0h-89v697h89v-697zM-10 819h197v-69h-197v69zM134 -155h-90v97h90v-97z" />
    <glyph glyph-name="uni1E3B" unicode="&#x1e3b;" horiz-adv-x="179" 
d="M134 0h-89v697h89v-697zM-10 -64h197v-69h-197v69z" />
    <glyph glyph-name="lslash" unicode="&#x142;" horiz-adv-x="189" 
d="M144 0h-89v359l-48 -32v76l48 31v263h89v-205l55 36v-75l-55 -36v-417z" />
    <glyph glyph-name="uni1E43" unicode="&#x1e43;" horiz-adv-x="544" 
d="M45 0v365c0 99 0 125 -1 149h85c3 -15 3 -29 4 -46c16 34 46 54 89 54c41 0 69 -17 81 -57c17 30 44 57 97 57c54 0 100 -26 100 -126v-396h-90v379c0 38 -9 62 -42 62c-41 0 -51 -34 -51 -87v-354h-90v376c0 51 -14 65 -43 65c-41 0 -50 -35 -50 -88v-353h-89zM317 -155
h-90v97h90v-97z" />
    <glyph glyph-name="nacute" unicode="&#x144;" horiz-adv-x="376" 
d="M45 0v356c0 104 0 134 -1 158h85c2 -12 4 -31 4 -49c15 33 43 57 94 57c60 0 104 -35 104 -131v-391h-90v373c0 48 -16 68 -48 68c-39 0 -59 -20 -59 -101v-340h-89zM230 706h101l-116 -133h-77z" />
    <glyph glyph-name="ncaron" unicode="&#x148;" horiz-adv-x="376" 
d="M45 0v356c0 104 0 134 -1 158h85c2 -12 4 -31 4 -49c15 33 43 57 94 57c60 0 104 -35 104 -131v-391h-90v373c0 48 -16 68 -48 68c-39 0 -59 -20 -59 -101v-340h-89zM234 580h-91l-78 113h80l43 -63l43 63h80z" />
    <glyph glyph-name="ntilde" unicode="&#xf1;" horiz-adv-x="376" 
d="M45 0v356c0 104 0 134 -1 158h85c2 -12 4 -31 4 -49c15 33 43 57 94 57c60 0 104 -35 104 -131v-391h-90v373c0 48 -16 68 -48 68c-39 0 -59 -20 -59 -101v-340h-89zM130 585h-58v27c0 49 22 72 60 72c44 0 79 -32 103 -32c8 0 12 3 12 26v5h56v-24
c0 -60 -25 -76 -60 -76c-39 0 -76 32 -101 32c-8 0 -12 -3 -12 -23v-7z" />
    <glyph glyph-name="uni0146" unicode="&#x146;" horiz-adv-x="376" 
d="M45 0v356c0 104 0 134 -1 158h85c2 -12 4 -31 4 -49c15 33 43 57 94 57c60 0 104 -35 104 -131v-391h-90v373c0 48 -16 68 -48 68c-39 0 -59 -20 -59 -101v-340h-89zM184 -192h-69c19 44 33 101 34 147h86c-4 -65 -27 -119 -51 -147z" />
    <glyph glyph-name="uni1E45" unicode="&#x1e45;" horiz-adv-x="376" 
d="M45 0v356c0 104 0 134 -1 158h85c2 -12 4 -31 4 -49c15 33 43 57 94 57c60 0 104 -35 104 -131v-391h-90v373c0 48 -16 68 -48 68c-39 0 -59 -20 -59 -101v-340h-89zM233 590h-90v107h90v-107z" />
    <glyph glyph-name="uni1E47" unicode="&#x1e47;" horiz-adv-x="376" 
d="M45 0v356c0 104 0 134 -1 158h85c2 -12 4 -31 4 -49c15 33 43 57 94 57c60 0 104 -35 104 -131v-391h-90v373c0 48 -16 68 -48 68c-39 0 -59 -20 -59 -101v-340h-89zM233 -155h-90v97h90v-97z" />
    <glyph glyph-name="uni1E49" unicode="&#x1e49;" horiz-adv-x="376" 
d="M45 0v356c0 104 0 134 -1 158h85c2 -12 4 -31 4 -49c15 33 43 57 94 57c60 0 104 -35 104 -131v-391h-90v373c0 48 -16 68 -48 68c-39 0 -59 -20 -59 -101v-340h-89zM89 -64h197v-69h-197v69z" />
    <glyph glyph-name="napostrophe" unicode="&#x149;" horiz-adv-x="376" 
d="M76 569h-64c20 51 36 117 42 163h82c-10 -59 -34 -123 -60 -163zM45 0v356c0 104 0 134 -1 158h85c2 -12 4 -31 4 -49c15 33 43 57 94 57c60 0 104 -35 104 -131v-391h-90v373c0 48 -16 68 -48 68c-39 0 -59 -20 -59 -101v-340h-89z" />
    <glyph glyph-name="ograve" unicode="&#xf2;" horiz-adv-x="348" 
d="M176 522c90 0 142 -57 142 -161v-205c0 -110 -54 -164 -145 -164c-93 0 -143 54 -143 163v209c0 107 59 158 146 158zM174 443c-37 0 -54 -28 -54 -77v-214c0 -48 15 -80 55 -80c36 0 53 26 53 81v213c0 44 -13 77 -54 77zM29 706h104l85 -133h-73z" />
    <glyph glyph-name="oacute" unicode="&#xf3;" horiz-adv-x="348" 
d="M176 522c90 0 142 -57 142 -161v-205c0 -110 -54 -164 -145 -164c-93 0 -143 54 -143 163v209c0 107 59 158 146 158zM174 443c-37 0 -54 -28 -54 -77v-214c0 -48 15 -80 55 -80c36 0 53 26 53 81v213c0 44 -13 77 -54 77zM212 706h101l-116 -133h-77z" />
    <glyph glyph-name="ocircumflex" unicode="&#xf4;" horiz-adv-x="348" 
d="M176 522c90 0 142 -57 142 -161v-205c0 -110 -54 -164 -145 -164c-93 0 -143 54 -143 163v209c0 107 59 158 146 158zM174 443c-37 0 -54 -28 -54 -77v-214c0 -48 15 -80 55 -80c36 0 53 26 53 81v213c0 44 -13 77 -54 77zM128 697h91l78 -114h-81l-42 64l-43 -64h-80z
" />
    <glyph glyph-name="otilde" unicode="&#xf5;" horiz-adv-x="348" 
d="M176 522c90 0 142 -57 142 -161v-205c0 -110 -54 -164 -145 -164c-93 0 -143 54 -143 163v209c0 107 59 158 146 158zM174 443c-37 0 -54 -28 -54 -77v-214c0 -48 15 -80 55 -80c36 0 53 26 53 81v213c0 44 -13 77 -54 77zM116 585h-58v27c0 49 22 72 60 72
c44 0 79 -32 103 -32c8 0 12 3 12 26v5h56v-24c0 -60 -25 -76 -60 -76c-39 0 -76 32 -101 32c-8 0 -12 -3 -12 -23v-7z" />
    <glyph glyph-name="odieresis" unicode="&#xf6;" horiz-adv-x="348" 
d="M176 522c90 0 142 -57 142 -161v-205c0 -110 -54 -164 -145 -164c-93 0 -143 54 -143 163v209c0 107 59 158 146 158zM174 443c-37 0 -54 -28 -54 -77v-214c0 -48 15 -80 55 -80c36 0 53 26 53 81v213c0 44 -13 77 -54 77zM145 590h-78v107h78v-107zM281 590h-79v107h79
v-107z" />
    <glyph glyph-name="omacron" unicode="&#x14d;" horiz-adv-x="348" 
d="M176 522c90 0 142 -57 142 -161v-205c0 -110 -54 -164 -145 -164c-93 0 -143 54 -143 163v209c0 107 59 158 146 158zM174 443c-37 0 -54 -28 -54 -77v-214c0 -48 15 -80 55 -80c36 0 53 26 53 81v213c0 44 -13 77 -54 77zM75 672h197v-69h-197v69z" />
    <glyph glyph-name="ohungarumlaut" unicode="&#x151;" horiz-adv-x="348" 
d="M176 522c90 0 142 -57 142 -161v-205c0 -110 -54 -164 -145 -164c-93 0 -143 54 -143 163v209c0 107 59 158 146 158zM174 443c-37 0 -54 -28 -54 -77v-214c0 -48 15 -80 55 -80c36 0 53 26 53 81v213c0 44 -13 77 -54 77zM211 696l-81 -126h-63l62 126h82zM343 696
l-82 -126h-63l62 126h83z" />
    <glyph glyph-name="uni01D2" unicode="&#x1d2;" horiz-adv-x="348" 
d="M176 522c90 0 142 -57 142 -161v-205c0 -110 -54 -164 -145 -164c-93 0 -143 54 -143 163v209c0 107 59 158 146 158zM174 443c-37 0 -54 -28 -54 -77v-214c0 -48 15 -80 55 -80c36 0 53 26 53 81v213c0 44 -13 77 -54 77zM220 580h-91l-78 113h80l43 -63l43 63h80z" />
    <glyph glyph-name="uni1ECD" unicode="&#x1ecd;" horiz-adv-x="348" 
d="M176 522c90 0 142 -57 142 -161v-205c0 -110 -54 -164 -145 -164c-93 0 -143 54 -143 163v209c0 107 59 158 146 158zM174 443c-37 0 -54 -28 -54 -77v-214c0 -48 15 -80 55 -80c36 0 53 26 53 81v213c0 44 -13 77 -54 77zM219 -155h-90v97h90v-97z" />
    <glyph glyph-name="uni1ECF" unicode="&#x1ecf;" horiz-adv-x="348" 
d="M176 522c90 0 142 -57 142 -161v-205c0 -110 -54 -164 -145 -164c-93 0 -143 54 -143 163v209c0 107 59 158 146 158zM174 443c-37 0 -54 -28 -54 -77v-214c0 -48 15 -80 55 -80c36 0 53 26 53 81v213c0 44 -13 77 -54 77zM207 574h-73c31 29 40 42 40 63
c0 12 -7 24 -28 24c-17 0 -31 -7 -42 -13l-19 47c17 13 47 27 87 27c57 0 80 -31 80 -67s-24 -64 -45 -81z" />
    <glyph glyph-name="uni1ED1" unicode="&#x1ed1;" horiz-adv-x="348" 
d="M176 522c90 0 142 -57 142 -161v-205c0 -110 -54 -164 -145 -164c-93 0 -143 54 -143 163v209c0 107 59 158 146 158zM174 443c-37 0 -54 -28 -54 -77v-214c0 -48 15 -80 55 -80c36 0 53 26 53 81v213c0 44 -13 77 -54 77zM133 693h84l84 -117h-79l-48 69l-47 -69h-78z
M338 766h88l-93 -103h-66z" />
    <glyph glyph-name="uni1ED3" unicode="&#x1ed3;" horiz-adv-x="348" 
d="M176 522c90 0 142 -57 142 -161v-205c0 -110 -54 -164 -145 -164c-93 0 -143 54 -143 163v209c0 107 59 158 146 158zM174 443c-37 0 -54 -28 -54 -77v-214c0 -48 15 -80 55 -80c36 0 53 26 53 81v213c0 44 -13 77 -54 77zM133 692h84l84 -116h-79l-48 68l-47 -68h-78z
M217 769h91l68 -107h-62z" />
    <glyph glyph-name="uni1ED5" unicode="&#x1ed5;" horiz-adv-x="348" 
d="M176 522c90 0 142 -57 142 -161v-205c0 -110 -54 -164 -145 -164c-93 0 -143 54 -143 163v209c0 107 59 158 146 158zM174 443c-37 0 -54 -28 -54 -77v-214c0 -48 15 -80 55 -80c36 0 53 26 53 81v213c0 44 -13 77 -54 77zM133 692h84l84 -117h-79l-48 69l-47 -69h-78z
M336 673h-66c26 26 38 41 38 58c0 11 -7 21 -26 21c-15 0 -28 -5 -41 -14l-20 43c15 11 43 28 83 28c49 0 73 -28 73 -62s-21 -58 -41 -74z" />
    <glyph glyph-name="uni1ED7" unicode="&#x1ed7;" horiz-adv-x="348" 
d="M176 522c90 0 142 -57 142 -161v-205c0 -110 -54 -164 -145 -164c-93 0 -143 54 -143 163v209c0 107 59 158 146 158zM174 443c-37 0 -54 -28 -54 -77v-214c0 -48 15 -80 55 -80c36 0 53 26 53 81v213c0 44 -13 77 -54 77zM113 685h-55v11c0 53 27 72 62 72
c44 0 77 -26 100 -26c10 0 16 4 16 19v9h54v-13c0 -54 -26 -72 -60 -72c-40 0 -76 26 -101 26c-11 0 -16 -8 -16 -19v-7zM127 653h92l90 -86h-87l-51 46l-48 -46h-85z" />
    <glyph glyph-name="uni1ED9" unicode="&#x1ed9;" horiz-adv-x="348" 
d="M176 522c90 0 142 -57 142 -161v-205c0 -110 -54 -164 -145 -164c-93 0 -143 54 -143 163v209c0 107 59 158 146 158zM174 443c-37 0 -54 -28 -54 -77v-214c0 -48 15 -80 55 -80c36 0 53 26 53 81v213c0 44 -13 77 -54 77zM219 -155h-90v97h90v-97zM128 697h91l78 -114
h-81l-42 64l-43 -64h-80z" />
    <glyph glyph-name="oslash" unicode="&#xf8;" horiz-adv-x="348" 
d="M177 522c32 0 58 -7 79 -20l6 14h39l-17 -39c23 -29 34 -70 34 -122v-195c0 -114 -56 -168 -145 -168c-34 0 -62 8 -84 23l-7 -17h-40l19 44c-20 28 -31 67 -31 116v201c0 106 60 163 147 163zM174 445c-36 0 -56 -32 -56 -81v-187l102 240c-9 18 -23 28 -46 28zM175 69
c37 0 55 29 55 87v192l-104 -246c9 -21 25 -33 49 -33z" />
    <glyph glyph-name="oe" unicode="&#x153;" horiz-adv-x="530" 
d="M362 -8c-48 0 -79 17 -98 44c-22 -29 -55 -44 -97 -44c-91 0 -137 53 -137 161v211c0 106 56 158 142 158c45 0 76 -18 97 -45c20 26 51 45 99 45c102 0 135 -69 135 -164v-123h-190v-88c0 -46 10 -79 50 -79c43 0 51 34 51 78v20h88v-14c0 -84 -18 -160 -140 -160z
M173 443c-36 0 -53 -28 -53 -77v-214c0 -52 14 -80 53 -80c38 0 52 22 52 81v214c0 46 -11 76 -52 76zM314 306h103v58c0 48 -10 82 -52 82c-39 0 -51 -30 -51 -82v-58z" />
    <glyph glyph-name="ohorn" unicode="&#x1a1;" horiz-adv-x="348" 
d="M176 522c32 0 59 -7 81 -21c14 8 19 23 19 44c0 19 -4 30 -8 45h84c4 -14 7 -31 7 -50c0 -46 -17 -82 -54 -101c9 -22 13 -48 13 -78v-205c0 -110 -54 -164 -145 -164c-93 0 -143 54 -143 163v209c0 107 59 158 146 158zM174 443c-37 0 -54 -28 -54 -77v-214
c0 -48 15 -80 55 -80c36 0 53 26 53 81v213c0 44 -13 77 -54 77z" />
    <glyph glyph-name="uni1EDB" unicode="&#x1edb;" horiz-adv-x="348" 
d="M176 522c32 0 59 -7 81 -21c14 8 19 23 19 44c0 19 -4 30 -8 45h84c4 -14 7 -31 7 -50c0 -46 -17 -82 -54 -101c9 -22 13 -48 13 -78v-205c0 -110 -54 -164 -145 -164c-93 0 -143 54 -143 163v209c0 107 59 158 146 158zM174 443c-37 0 -54 -28 -54 -77v-214
c0 -48 15 -80 55 -80c36 0 53 26 53 81v213c0 44 -13 77 -54 77zM204 706h101l-116 -133h-77z" />
    <glyph glyph-name="uni1EDD" unicode="&#x1edd;" horiz-adv-x="348" 
d="M176 522c32 0 59 -7 81 -21c14 8 19 23 19 44c0 19 -4 30 -8 45h84c4 -14 7 -31 7 -50c0 -46 -17 -82 -54 -101c9 -22 13 -48 13 -78v-205c0 -110 -54 -164 -145 -164c-93 0 -143 54 -143 163v209c0 107 59 158 146 158zM174 443c-37 0 -54 -28 -54 -77v-214
c0 -48 15 -80 55 -80c36 0 53 26 53 81v213c0 44 -13 77 -54 77zM31 706h104l85 -133h-73z" />
    <glyph glyph-name="uni1EDF" unicode="&#x1edf;" horiz-adv-x="348" 
d="M176 522c32 0 59 -7 81 -21c14 8 19 23 19 44c0 19 -4 30 -8 45h84c4 -14 7 -31 7 -50c0 -46 -17 -82 -54 -101c9 -22 13 -48 13 -78v-205c0 -110 -54 -164 -145 -164c-93 0 -143 54 -143 163v209c0 107 59 158 146 158zM174 443c-37 0 -54 -28 -54 -77v-214
c0 -48 15 -80 55 -80c36 0 53 26 53 81v213c0 44 -13 77 -54 77zM207 574h-73c31 29 40 42 40 63c0 12 -7 24 -28 24c-17 0 -31 -7 -42 -13l-19 47c17 13 47 27 87 27c57 0 80 -31 80 -67s-24 -64 -45 -81z" />
    <glyph glyph-name="uni1EE1" unicode="&#x1ee1;" horiz-adv-x="348" 
d="M176 522c32 0 59 -7 81 -21c14 8 19 23 19 44c0 19 -4 30 -8 45h84c4 -14 7 -31 7 -50c0 -46 -17 -82 -54 -101c9 -22 13 -48 13 -78v-205c0 -110 -54 -164 -145 -164c-93 0 -143 54 -143 163v209c0 107 59 158 146 158zM174 443c-37 0 -54 -28 -54 -77v-214
c0 -48 15 -80 55 -80c36 0 53 26 53 81v213c0 44 -13 77 -54 77zM116 585h-58v27c0 49 22 72 60 72c44 0 79 -32 103 -32c8 0 12 3 12 26v5h56v-24c0 -60 -25 -76 -60 -76c-39 0 -76 32 -101 32c-8 0 -12 -3 -12 -23v-7z" />
    <glyph glyph-name="uni1EE3" unicode="&#x1ee3;" horiz-adv-x="348" 
d="M176 522c32 0 59 -7 81 -21c14 8 19 23 19 44c0 19 -4 30 -8 45h84c4 -14 7 -31 7 -50c0 -46 -17 -82 -54 -101c9 -22 13 -48 13 -78v-205c0 -110 -54 -164 -145 -164c-93 0 -143 54 -143 163v209c0 107 59 158 146 158zM174 443c-37 0 -54 -28 -54 -77v-214
c0 -48 15 -80 55 -80c36 0 53 26 53 81v213c0 44 -13 77 -54 77zM219 -155h-90v97h90v-97z" />
    <glyph glyph-name="racute" unicode="&#x155;" horiz-adv-x="248" 
d="M243 521v-110c-61 0 -109 -24 -109 -124v-287h-89v340c0 84 0 124 -1 174h85c1 -11 2 -51 2 -82c20 67 65 89 112 89zM176 706h101l-116 -133h-77z" />
    <glyph glyph-name="uni0157" unicode="&#x157;" horiz-adv-x="248" 
d="M243 521v-110c-61 0 -109 -24 -109 -124v-287h-89v340c0 84 0 124 -1 174h85c1 -11 2 -51 2 -82c20 67 65 89 112 89zM81 -192h-69c19 44 33 101 34 147h86c-4 -65 -27 -119 -51 -147z" />
    <glyph glyph-name="rcaron" unicode="&#x159;" horiz-adv-x="248" 
d="M243 521v-110c-61 0 -109 -24 -109 -124v-287h-89v340c0 84 0 124 -1 174h85c1 -11 2 -51 2 -82c20 67 65 89 112 89zM183 580h-91l-78 113h80l43 -63l43 63h80z" />
    <glyph glyph-name="uni1E5B" unicode="&#x1e5b;" horiz-adv-x="248" 
d="M243 521v-110c-61 0 -109 -24 -109 -124v-287h-89v340c0 84 0 124 -1 174h85c1 -11 2 -51 2 -82c20 67 65 89 112 89zM135 -155h-90v97h90v-97z" />
    <glyph glyph-name="uni1E5D" unicode="&#x1e5d;" horiz-adv-x="248" 
d="M243 521v-110c-61 0 -109 -24 -109 -124v-287h-89v340c0 84 0 124 -1 174h85c1 -11 2 -51 2 -82c20 67 65 89 112 89zM40 672h197v-69h-197v69zM135 -155h-90v97h90v-97z" />
    <glyph glyph-name="uni1E5F" unicode="&#x1e5f;" horiz-adv-x="248" 
d="M243 521v-110c-61 0 -109 -24 -109 -124v-287h-89v340c0 84 0 124 -1 174h85c1 -11 2 -51 2 -82c20 67 65 89 112 89zM-8 -64h197v-69h-197v69z" />
    <glyph glyph-name="sacute" unicode="&#x15b;" horiz-adv-x="313" 
d="M16 158h91v-24c0 -39 13 -66 48 -66c32 0 46 20 46 60s-12 63 -73 103c-70 45 -103 82 -103 155c0 82 43 136 130 136c94 0 129 -55 129 -142v-22h-87v30c0 39 -12 58 -42 58c-29 0 -41 -21 -41 -53c0 -33 11 -48 60 -80c84 -54 117 -90 117 -175
c0 -96 -46 -146 -139 -146c-110 0 -136 70 -136 143v23zM194 706h101l-116 -133h-77z" />
    <glyph glyph-name="scircumflex" unicode="&#x15d;" horiz-adv-x="313" 
d="M16 158h91v-24c0 -39 13 -66 48 -66c32 0 46 20 46 60s-12 63 -73 103c-70 45 -103 82 -103 155c0 82 43 136 130 136c94 0 129 -55 129 -142v-22h-87v30c0 39 -12 58 -42 58c-29 0 -41 -21 -41 -53c0 -33 11 -48 60 -80c84 -54 117 -90 117 -175
c0 -96 -46 -146 -139 -146c-110 0 -136 70 -136 143v23zM111 697h91l78 -114h-81l-42 64l-43 -64h-80z" />
    <glyph glyph-name="scaron" unicode="&#x161;" horiz-adv-x="313" 
d="M16 158h91v-24c0 -39 13 -66 48 -66c32 0 46 20 46 60s-12 63 -73 103c-70 45 -103 82 -103 155c0 82 43 136 130 136c94 0 129 -55 129 -142v-22h-87v30c0 39 -12 58 -42 58c-29 0 -41 -21 -41 -53c0 -33 11 -48 60 -80c84 -54 117 -90 117 -175
c0 -96 -46 -146 -139 -146c-110 0 -136 70 -136 143v23zM203 580h-91l-78 113h80l43 -63l43 63h80z" />
    <glyph glyph-name="uni015F" unicode="&#x15f;" horiz-adv-x="313" 
d="M16 158h91v-24c0 -39 13 -66 48 -66c32 0 46 20 46 60s-12 63 -73 103c-70 45 -103 82 -103 155c0 82 43 136 130 136c94 0 129 -55 129 -142v-22h-87v30c0 39 -12 58 -42 58c-29 0 -41 -21 -41 -53c0 -33 11 -48 60 -80c84 -54 117 -90 117 -175
c0 -83 -34 -131 -103 -143l-15 -25c29 -9 64 -27 64 -73c0 -42 -31 -78 -91 -78c-29 0 -53 5 -71 14l13 53c13 -6 32 -10 45 -10c19 0 28 8 28 21c0 18 -22 29 -58 34v23l21 40c-87 11 -108 75 -108 141v23z" />
    <glyph glyph-name="uni0219" unicode="&#x219;" horiz-adv-x="313" 
d="M16 158h91v-24c0 -39 13 -66 48 -66c32 0 46 20 46 60s-12 63 -73 103c-70 45 -103 82 -103 155c0 82 43 136 130 136c94 0 129 -55 129 -142v-22h-87v30c0 39 -12 58 -42 58c-29 0 -41 -21 -41 -53c0 -33 11 -48 60 -80c84 -54 117 -90 117 -175
c0 -96 -46 -146 -139 -146c-110 0 -136 70 -136 143v23zM156 -192h-69c19 44 33 101 34 147h86c-4 -65 -27 -119 -51 -147z" />
    <glyph glyph-name="uni1E61" unicode="&#x1e61;" horiz-adv-x="313" 
d="M16 158h91v-24c0 -39 13 -66 48 -66c32 0 46 20 46 60s-12 63 -73 103c-70 45 -103 82 -103 155c0 82 43 136 130 136c94 0 129 -55 129 -142v-22h-87v30c0 39 -12 58 -42 58c-29 0 -41 -21 -41 -53c0 -33 11 -48 60 -80c84 -54 117 -90 117 -175
c0 -96 -46 -146 -139 -146c-110 0 -136 70 -136 143v23zM202 590h-90v107h90v-107z" />
    <glyph glyph-name="uni1E63" unicode="&#x1e63;" horiz-adv-x="313" 
d="M16 158h91v-24c0 -39 13 -66 48 -66c32 0 46 20 46 60s-12 63 -73 103c-70 45 -103 82 -103 155c0 82 43 136 130 136c94 0 129 -55 129 -142v-22h-87v30c0 39 -12 58 -42 58c-29 0 -41 -21 -41 -53c0 -33 11 -48 60 -80c84 -54 117 -90 117 -175
c0 -96 -46 -146 -139 -146c-110 0 -136 70 -136 143v23zM202 -155h-90v97h90v-97z" />
    <glyph glyph-name="germandbls" unicode="&#xdf;" horiz-adv-x="382" 
d="M134 538v-538h-90v537c0 130 75 165 153 165c101 0 146 -60 146 -162v-50l-86 -105v-2l28 -38c53 -77 76 -120 76 -189c0 -78 -25 -164 -129 -164c-36 0 -61 9 -78 19v81c20 -15 40 -23 62 -23c34 0 55 24 55 75c0 44 -17 81 -51 125l-30 39c-38 51 -36 73 3 123l63 81
v24c0 42 -7 87 -60 87c-43 0 -62 -26 -62 -85z" />
    <glyph glyph-name="tcaron" unicode="&#x165;" horiz-adv-x="217" 
d="M190 762h69l-4 -182h-62zM-3 435v79h57v125h89v-125h68v-79h-68v-321c0 -25 4 -47 36 -47c9 0 23 1 29 3v-68c-16 -8 -41 -9 -59 -9c-59 0 -95 20 -95 105v337h-57z" />
    <glyph glyph-name="uni0163" unicode="&#x163;" horiz-adv-x="217" 
d="M-3 435v79h57v125h89v-125h68v-79h-68v-321c0 -25 4 -47 36 -47c9 0 23 1 29 3v-68c-14 -7 -36 -9 -53 -9l-14 -23c29 -9 64 -27 64 -73c0 -42 -31 -78 -91 -78c-29 0 -53 5 -71 14l13 53c13 -6 32 -10 45 -10c19 0 28 8 28 21c0 18 -22 29 -58 34v23l26 48
c-28 13 -43 40 -43 96v337h-57z" />
    <glyph glyph-name="uni021B" unicode="&#x21b;" horiz-adv-x="217" 
d="M-3 435v79h57v125h89v-125h68v-79h-68v-321c0 -25 4 -47 36 -47c9 0 23 1 29 3v-68c-16 -8 -41 -9 -59 -9c-59 0 -95 20 -95 105v337h-57zM126 -192h-69c19 44 33 101 34 147h86c-4 -65 -27 -119 -51 -147z" />
    <glyph glyph-name="uni1E6D" unicode="&#x1e6d;" horiz-adv-x="217" 
d="M-3 435v79h57v125h89v-125h68v-79h-68v-321c0 -25 4 -47 36 -47c9 0 23 1 29 3v-68c-16 -8 -41 -9 -59 -9c-59 0 -95 20 -95 105v337h-57zM166 -155h-90v97h90v-97z" />
    <glyph glyph-name="uni1E6F" unicode="&#x1e6f;" horiz-adv-x="217" 
d="M-3 435v79h57v125h89v-125h68v-79h-68v-321c0 -25 4 -47 36 -47c9 0 23 1 29 3v-68c-16 -8 -41 -9 -59 -9c-59 0 -95 20 -95 105v337h-57zM30 -64h197v-69h-197v69z" />
    <glyph glyph-name="uni1E97" unicode="&#x1e97;" horiz-adv-x="217" 
d="M-3 435v79h57v125h89v-125h68v-79h-68v-321c0 -25 4 -47 36 -47c9 0 23 1 29 3v-68c-16 -8 -41 -9 -59 -9c-59 0 -95 20 -95 105v337h-57zM70 676h-78v107h78v-107zM206 676h-79v107h79v-107z" />
    <glyph glyph-name="ugrave" unicode="&#xf9;" horiz-adv-x="373" 
d="M328 514v-369c0 -71 0 -119 1 -145h-85c-2 10 -4 35 -4 51c-17 -46 -51 -59 -94 -59c-46 0 -102 20 -102 133v389h90v-366c0 -53 15 -75 49 -75s55 21 55 101v340h90zM39 706h104l85 -133h-73z" />
    <glyph glyph-name="uacute" unicode="&#xfa;" horiz-adv-x="373" 
d="M328 514v-369c0 -71 0 -119 1 -145h-85c-2 10 -4 35 -4 51c-17 -46 -51 -59 -94 -59c-46 0 -102 20 -102 133v389h90v-366c0 -53 15 -75 49 -75s55 21 55 101v340h90zM226 706h101l-116 -133h-77z" />
    <glyph glyph-name="ucircumflex" unicode="&#xfb;" horiz-adv-x="373" 
d="M328 514v-369c0 -71 0 -119 1 -145h-85c-2 10 -4 35 -4 51c-17 -46 -51 -59 -94 -59c-46 0 -102 20 -102 133v389h90v-366c0 -53 15 -75 49 -75s55 21 55 101v340h90zM140 697h91l78 -114h-81l-42 64l-43 -64h-80z" />
    <glyph glyph-name="utilde" unicode="&#x169;" horiz-adv-x="373" 
d="M328 514v-369c0 -71 0 -119 1 -145h-85c-2 10 -4 35 -4 51c-17 -46 -51 -59 -94 -59c-46 0 -102 20 -102 133v389h90v-366c0 -53 15 -75 49 -75s55 21 55 101v340h90zM128 585h-58v27c0 49 22 72 60 72c44 0 79 -32 103 -32c8 0 12 3 12 26v5h56v-24
c0 -60 -25 -76 -60 -76c-39 0 -76 32 -101 32c-8 0 -12 -3 -12 -23v-7z" />
    <glyph glyph-name="udieresis" unicode="&#xfc;" horiz-adv-x="373" 
d="M328 514v-369c0 -71 0 -119 1 -145h-85c-2 10 -4 35 -4 51c-17 -46 -51 -59 -94 -59c-46 0 -102 20 -102 133v389h90v-366c0 -53 15 -75 49 -75s55 21 55 101v340h90zM157 590h-78v107h78v-107zM293 590h-79v107h79v-107z" />
    <glyph glyph-name="umacron" unicode="&#x16b;" horiz-adv-x="373" 
d="M328 514v-369c0 -71 0 -119 1 -145h-85c-2 10 -4 35 -4 51c-17 -46 -51 -59 -94 -59c-46 0 -102 20 -102 133v389h90v-366c0 -53 15 -75 49 -75s55 21 55 101v340h90zM87 672h197v-69h-197v69z" />
    <glyph glyph-name="ubreve" unicode="&#x16d;" horiz-adv-x="373" 
d="M328 514v-369c0 -71 0 -119 1 -145h-85c-2 10 -4 35 -4 51c-17 -46 -51 -59 -94 -59c-46 0 -102 20 -102 133v389h90v-366c0 -53 15 -75 49 -75s55 21 55 101v340h90zM70 696h68c4 -24 18 -45 49 -45c32 0 43 22 47 45h67c-5 -58 -39 -108 -116 -108
c-78 0 -111 57 -115 108z" />
    <glyph glyph-name="uring" unicode="&#x16f;" horiz-adv-x="373" 
d="M328 514v-369c0 -71 0 -119 1 -145h-85c-2 10 -4 35 -4 51c-17 -46 -51 -59 -94 -59c-46 0 -102 20 -102 133v389h90v-366c0 -53 15 -75 49 -75s55 21 55 101v340h90zM187 568c-50 0 -81 37 -81 80c0 46 29 82 80 82c49 0 80 -35 80 -80c0 -48 -32 -82 -79 -82zM187 611
c23 0 34 19 34 38s-11 39 -35 39s-35 -17 -35 -38c0 -20 11 -39 36 -39z" />
    <glyph glyph-name="uhungarumlaut" unicode="&#x171;" horiz-adv-x="373" 
d="M328 514v-369c0 -71 0 -119 1 -145h-85c-2 10 -4 35 -4 51c-17 -46 -51 -59 -94 -59c-46 0 -102 20 -102 133v389h90v-366c0 -53 15 -75 49 -75s55 21 55 101v340h90zM230 696l-81 -126h-63l62 126h82zM362 696l-82 -126h-63l62 126h83z" />
    <glyph glyph-name="uni01D4" unicode="&#x1d4;" horiz-adv-x="373" 
d="M328 514v-369c0 -71 0 -119 1 -145h-85c-2 10 -4 35 -4 51c-17 -46 -51 -59 -94 -59c-46 0 -102 20 -102 133v389h90v-366c0 -53 15 -75 49 -75s55 21 55 101v340h90zM232 580h-91l-78 113h80l43 -63l43 63h80z" />
    <glyph glyph-name="uni01D6" unicode="&#x1d6;" horiz-adv-x="373" 
d="M328 514v-369c0 -71 0 -119 1 -145h-85c-2 10 -4 35 -4 51c-17 -46 -51 -59 -94 -59c-46 0 -102 20 -102 133v389h90v-366c0 -53 15 -75 49 -75s55 21 55 101v340h90zM291 690h-208v63h208v-63zM156 564h-74v84h74v-84zM293 564h-75v84h75v-84z" />
    <glyph glyph-name="uni01D8" unicode="&#x1d8;" horiz-adv-x="373" 
d="M328 514v-369c0 -71 0 -119 1 -145h-85c-2 10 -4 35 -4 51c-17 -46 -51 -59 -94 -59c-46 0 -102 20 -102 133v389h90v-366c0 -53 15 -75 49 -75s55 21 55 101v340h90zM218 683h-88l64 85h109zM155 568h-74v84h74v-84zM292 568h-75v84h75v-84z" />
    <glyph glyph-name="uni01DA" unicode="&#x1da;" horiz-adv-x="373" 
d="M328 514v-369c0 -71 0 -119 1 -145h-85c-2 10 -4 35 -4 51c-17 -46 -51 -59 -94 -59c-46 0 -102 20 -102 133v389h90v-366c0 -53 15 -75 49 -75s55 21 55 101v340h90zM223 677h-76l-82 88h80l41 -46l38 46h81zM155 566h-74v84h74v-84zM292 566h-75v84h75v-84z" />
    <glyph glyph-name="uni01DC" unicode="&#x1dc;" horiz-adv-x="373" 
d="M328 514v-369c0 -71 0 -119 1 -145h-85c-2 10 -4 35 -4 51c-17 -46 -51 -59 -94 -59c-46 0 -102 20 -102 133v389h90v-366c0 -53 15 -75 49 -75s55 21 55 101v340h90zM233 684h-88l-85 85h109zM154 569h-74v84h74v-84zM291 569h-75v84h75v-84z" />
    <glyph glyph-name="uni1EE5" unicode="&#x1ee5;" horiz-adv-x="373" 
d="M328 514v-369c0 -71 0 -119 1 -145h-85c-2 10 -4 35 -4 51c-17 -46 -51 -59 -94 -59c-46 0 -102 20 -102 133v389h90v-366c0 -53 15 -75 49 -75s55 21 55 101v340h90zM231 -155h-90v97h90v-97z" />
    <glyph glyph-name="uni1EE7" unicode="&#x1ee7;" horiz-adv-x="373" 
d="M328 514v-369c0 -71 0 -119 1 -145h-85c-2 10 -4 35 -4 51c-17 -46 -51 -59 -94 -59c-46 0 -102 20 -102 133v389h90v-366c0 -53 15 -75 49 -75s55 21 55 101v340h90zM219 574h-73c31 29 40 42 40 63c0 12 -7 24 -28 24c-17 0 -31 -7 -42 -13l-19 47c17 13 47 27 87 27
c57 0 80 -31 80 -67s-24 -64 -45 -81z" />
    <glyph glyph-name="uogonek" unicode="&#x173;" horiz-adv-x="373" 
d="M328 514v-369c0 -71 0 -119 1 -145c-34 -30 -44 -53 -44 -74s15 -33 37 -33c12 0 21 2 31 5l8 -62c-20 -14 -50 -15 -71 -15c-54 0 -91 30 -91 82c0 41 25 75 51 97h-6c-2 10 -4 35 -4 51c-17 -46 -51 -59 -94 -59c-46 0 -102 20 -102 133v389h90v-366
c0 -53 15 -75 49 -75s55 21 55 101v340h90z" />
    <glyph glyph-name="uhorn" unicode="&#x1b0;" horiz-adv-x="373" 
d="M240 51c-17 -46 -51 -59 -94 -59c-46 0 -102 20 -102 133v389h90v-366c0 -53 15 -75 49 -75s55 21 55 101v340h39c24 5 31 22 31 48c0 19 -4 30 -8 45h84c4 -14 7 -31 7 -50c0 -50 -20 -88 -63 -106v-306c0 -71 0 -119 1 -145h-85c-2 10 -4 35 -4 51z" />
    <glyph glyph-name="uni1EE9" unicode="&#x1ee9;" horiz-adv-x="373" 
d="M240 51c-17 -46 -51 -59 -94 -59c-46 0 -102 20 -102 133v389h90v-366c0 -53 15 -75 49 -75s55 21 55 101v340h39c24 5 31 22 31 48c0 19 -4 30 -8 45h84c4 -14 7 -31 7 -50c0 -50 -20 -88 -63 -106v-306c0 -71 0 -119 1 -145h-85c-2 10 -4 35 -4 51zM230 706h101
l-116 -133h-77z" />
    <glyph glyph-name="uni1EEB" unicode="&#x1eeb;" horiz-adv-x="373" 
d="M240 51c-17 -46 -51 -59 -94 -59c-46 0 -102 20 -102 133v389h90v-366c0 -53 15 -75 49 -75s55 21 55 101v340h39c24 5 31 22 31 48c0 19 -4 30 -8 45h84c4 -14 7 -31 7 -50c0 -50 -20 -88 -63 -106v-306c0 -71 0 -119 1 -145h-85c-2 10 -4 35 -4 51zM41 706h104l85 -133
h-73z" />
    <glyph glyph-name="uni1EED" unicode="&#x1eed;" horiz-adv-x="373" 
d="M240 51c-17 -46 -51 -59 -94 -59c-46 0 -102 20 -102 133v389h90v-366c0 -53 15 -75 49 -75s55 21 55 101v340h39c24 5 31 22 31 48c0 19 -4 30 -8 45h84c4 -14 7 -31 7 -50c0 -50 -20 -88 -63 -106v-306c0 -71 0 -119 1 -145h-85c-2 10 -4 35 -4 51zM219 574h-73
c31 29 40 42 40 63c0 12 -7 24 -28 24c-17 0 -31 -7 -42 -13l-19 47c17 13 47 27 87 27c57 0 80 -31 80 -67s-24 -64 -45 -81z" />
    <glyph glyph-name="uni1EEF" unicode="&#x1eef;" horiz-adv-x="373" 
d="M240 51c-17 -46 -51 -59 -94 -59c-46 0 -102 20 -102 133v389h90v-366c0 -53 15 -75 49 -75s55 21 55 101v340h39c24 5 31 22 31 48c0 19 -4 30 -8 45h84c4 -14 7 -31 7 -50c0 -50 -20 -88 -63 -106v-306c0 -71 0 -119 1 -145h-85c-2 10 -4 35 -4 51zM128 585h-58v27
c0 49 22 72 60 72c44 0 79 -32 103 -32c8 0 12 3 12 26v5h56v-24c0 -60 -25 -76 -60 -76c-39 0 -76 32 -101 32c-8 0 -12 -3 -12 -23v-7z" />
    <glyph glyph-name="uni1EF1" unicode="&#x1ef1;" horiz-adv-x="373" 
d="M240 51c-17 -46 -51 -59 -94 -59c-46 0 -102 20 -102 133v389h90v-366c0 -53 15 -75 49 -75s55 21 55 101v340h39c24 5 31 22 31 48c0 19 -4 30 -8 45h84c4 -14 7 -31 7 -50c0 -50 -20 -88 -63 -106v-306c0 -71 0 -119 1 -145h-85c-2 10 -4 35 -4 51zM231 -155h-90v97h90
v-97z" />
    <glyph glyph-name="wgrave" unicode="&#x1e81;" horiz-adv-x="503" 
d="M6 514h95c35 -255 43 -327 48 -389h1c6 65 23 148 62 389h85c39 -246 55 -325 61 -389h1c5 56 9 111 48 389h90l-96 -514h-89c-25 157 -51 289 -60 367h-1c-6 -72 -32 -195 -63 -367h-91zM104 706h104l85 -133h-73z" />
    <glyph glyph-name="wacute" unicode="&#x1e83;" horiz-adv-x="503" 
d="M6 514h95c35 -255 43 -327 48 -389h1c6 65 23 148 62 389h85c39 -246 55 -325 61 -389h1c5 56 9 111 48 389h90l-96 -514h-89c-25 157 -51 289 -60 367h-1c-6 -72 -32 -195 -63 -367h-91zM305 706h101l-116 -133h-77z" />
    <glyph glyph-name="wcircumflex" unicode="&#x175;" horiz-adv-x="503" 
d="M6 514h95c35 -255 43 -327 48 -389h1c6 65 23 148 62 389h85c39 -246 55 -325 61 -389h1c5 56 9 111 48 389h90l-96 -514h-89c-25 157 -51 289 -60 367h-1c-6 -72 -32 -195 -63 -367h-91zM205 697h91l78 -114h-81l-42 64l-43 -64h-80z" />
    <glyph glyph-name="wdieresis" unicode="&#x1e85;" horiz-adv-x="503" 
d="M6 514h95c35 -255 43 -327 48 -389h1c6 65 23 148 62 389h85c39 -246 55 -325 61 -389h1c5 56 9 111 48 389h90l-96 -514h-89c-25 157 -51 289 -60 367h-1c-6 -72 -32 -195 -63 -367h-91zM222 590h-78v107h78v-107zM358 590h-79v107h79v-107z" />
    <glyph glyph-name="ygrave" unicode="&#x1ef3;" horiz-adv-x="327" 
d="M4 514h96c31 -176 59 -342 63 -405h3c9 86 36 215 68 405h89l-115 -540c-31 -146 -80 -154 -138 -154c-16 0 -31 2 -43 4l1 81c2 -1 18 -3 30 -3c34 0 50 13 62 78zM18 706h104l85 -133h-73z" />
    <glyph glyph-name="yacute" unicode="&#xfd;" horiz-adv-x="327" 
d="M4 514h96c31 -176 59 -342 63 -405h3c9 86 36 215 68 405h89l-115 -540c-31 -146 -80 -154 -138 -154c-16 0 -31 2 -43 4l1 81c2 -1 18 -3 30 -3c34 0 50 13 62 78zM209 706h101l-116 -133h-77z" />
    <glyph glyph-name="ycircumflex" unicode="&#x177;" horiz-adv-x="327" 
d="M4 514h96c31 -176 59 -342 63 -405h3c9 86 36 215 68 405h89l-115 -540c-31 -146 -80 -154 -138 -154c-16 0 -31 2 -43 4l1 81c2 -1 18 -3 30 -3c34 0 50 13 62 78zM118 697h91l78 -114h-81l-42 64l-43 -64h-80z" />
    <glyph glyph-name="ydieresis" unicode="&#xff;" horiz-adv-x="327" 
d="M4 514h96c31 -176 59 -342 63 -405h3c9 86 36 215 68 405h89l-115 -540c-31 -146 -80 -154 -138 -154c-16 0 -31 2 -43 4l1 81c2 -1 18 -3 30 -3c34 0 50 13 62 78zM135 590h-78v107h78v-107zM271 590h-79v107h79v-107z" />
    <glyph glyph-name="uni1E8F" unicode="&#x1e8f;" horiz-adv-x="327" 
d="M4 514h96c31 -176 59 -342 63 -405h3c9 86 36 215 68 405h89l-115 -540c-31 -146 -80 -154 -138 -154c-16 0 -31 2 -43 4l1 81c2 -1 18 -3 30 -3c34 0 50 13 62 78zM209 590h-90v107h90v-107z" />
    <glyph glyph-name="uni1EF5" unicode="&#x1ef5;" horiz-adv-x="327" 
d="M4 514h96c31 -176 59 -342 63 -405h3c9 86 36 215 68 405h89l-115 -540c-31 -146 -80 -154 -138 -154c-16 0 -31 2 -43 4l1 81c2 -1 18 -3 30 -3c34 0 50 13 62 78zM327 -148h-90v97h90v-97z" />
    <glyph glyph-name="uni1EF7" unicode="&#x1ef7;" horiz-adv-x="327" 
d="M4 514h96c31 -176 59 -342 63 -405h3c9 86 36 215 68 405h89l-115 -540c-31 -146 -80 -154 -138 -154c-16 0 -31 2 -43 4l1 81c2 -1 18 -3 30 -3c34 0 50 13 62 78zM197 574h-73c31 29 40 42 40 63c0 12 -7 24 -28 24c-17 0 -31 -7 -42 -13l-19 47c17 13 47 27 87 27
c57 0 80 -31 80 -67s-24 -64 -45 -81z" />
    <glyph glyph-name="uni1EF9" unicode="&#x1ef9;" horiz-adv-x="327" 
d="M4 514h96c31 -176 59 -342 63 -405h3c9 86 36 215 68 405h89l-115 -540c-31 -146 -80 -154 -138 -154c-16 0 -31 2 -43 4l1 81c2 -1 18 -3 30 -3c34 0 50 13 62 78zM106 585h-58v27c0 49 22 72 60 72c44 0 79 -32 103 -32c8 0 12 3 12 26v5h56v-24c0 -60 -25 -76 -60 -76
c-39 0 -76 32 -101 32c-8 0 -12 -3 -12 -23v-7z" />
    <glyph glyph-name="zacute" unicode="&#x17a;" horiz-adv-x="280" 
d="M7 0v61c19 41 110 251 164 371h-149v82h248v-63c-11 -28 -118 -278 -159 -369h161l-8 -82h-257zM194 706h101l-116 -133h-77z" />
    <glyph glyph-name="zcaron" unicode="&#x17e;" horiz-adv-x="280" 
d="M7 0v61c19 41 110 251 164 371h-149v82h248v-63c-11 -28 -118 -278 -159 -369h161l-8 -82h-257zM194 580h-91l-78 113h80l43 -63l43 63h80z" />
    <glyph glyph-name="zdotaccent" unicode="&#x17c;" horiz-adv-x="280" 
d="M7 0v61c19 41 110 251 164 371h-149v82h248v-63c-11 -28 -118 -278 -159 -369h161l-8 -82h-257zM188 590h-90v107h90v-107z" />
    <glyph glyph-name="uni1E93" unicode="&#x1e93;" horiz-adv-x="280" 
d="M7 0v61c19 41 110 251 164 371h-149v82h248v-63c-11 -28 -118 -278 -159 -369h161l-8 -82h-257zM187 -155h-90v97h90v-97z" />
    <glyph glyph-name="eth" unicode="&#xf0;" horiz-adv-x="348" 
d="M66 630v72c65 -3 115 -19 152 -48l65 46l23 -39l-55 -39c50 -63 67 -158 67 -273v-170c0 -99 -29 -187 -147 -187c-112 0 -141 82 -141 179v140c0 103 33 179 134 179c29 0 49 -8 54 -16c-3 38 -14 72 -35 99l-78 -56l-25 40l67 47c-21 14 -48 22 -81 26zM172 415
c-45 0 -52 -43 -52 -87v-167c0 -47 9 -89 53 -89s55 31 55 92v164c0 54 -9 87 -56 87z" />
    <glyph glyph-name="thorn" unicode="&#xfe;" horiz-adv-x="361" 
d="M45 -173v870h89v-232c14 33 40 57 91 57c85 0 107 -72 107 -162v-196c0 -109 -33 -172 -116 -172c-46 0 -68 20 -82 47v-212h-89zM134 337v-152c0 -60 8 -112 56 -112c40 0 52 38 52 85v201c0 49 -8 82 -51 82c-46 0 -57 -45 -57 -104z" />
    <glyph glyph-name="uni0237" unicode="&#x237;" horiz-adv-x="181" 
d="M46 514h90v-547c0 -77 -10 -145 -107 -145c-9 0 -21 0 -41 2v80c10 -1 17 -1 23 -1c26 0 35 7 35 51v560z" />
    <glyph glyph-name="uni0251" unicode="&#x251;" horiz-adv-x="362" 
d="M233 514h85v-376c0 -71 1 -109 3 -138h-85c-3 13 -6 40 -6 50c-14 -32 -39 -58 -90 -58c-90 0 -110 72 -110 176v195c0 91 35 159 117 159c39 0 68 -15 81 -41c2 11 4 25 5 33zM120 364v-209c0 -54 14 -82 52 -82c47 0 56 44 56 108v158c0 53 -4 102 -54 102
c-38 0 -54 -29 -54 -77z" />
    <glyph glyph-name="uni0259" unicode="&#x259;" horiz-adv-x="337" 
d="M26 279h193v79c0 45 -9 88 -53 88s-51 -38 -51 -80v-3h-87v3c0 56 12 156 136 156c121 0 143 -77 143 -181v-178c0 -73 -25 -171 -143 -171c-105 0 -138 74 -138 171v116zM218 208h-106v-58c0 -47 9 -82 52 -82c40 0 54 30 54 83v57z" />
    <glyph glyph-name="uni0261" unicode="&#x261;" horiz-adv-x="362" 
d="M317 383v-362c0 -110 -11 -202 -150 -202c-116 0 -136 75 -136 131v3h90v-3c0 -19 7 -56 51 -56c47 0 56 35 56 104v60c-13 -31 -41 -50 -86 -50c-87 0 -112 67 -112 160v199c0 79 32 155 123 155c54 0 76 -26 85 -53c0 15 2 36 4 45h77c-1 -30 -2 -74 -2 -131zM120 362
v-187c0 -58 15 -87 50 -87c50 0 58 44 58 110v151c0 50 -5 92 -52 92c-37 0 -56 -26 -56 -79z" />
    <glyph glyph-name="fi" unicode="&#xfb01;" horiz-adv-x="382" 
d="M143 0h-89v435h-52v79h52v60c0 67 26 128 115 128c14 0 28 -1 37 -4v-80c-8 1 -13 2 -20 2c-35 0 -43 -21 -43 -57v-49h64v-79h-64v-435zM249 0v514h89v-514h-89zM249 590v107h90v-107h-90z" />
    <glyph glyph-name="fl" unicode="&#xfb02;" horiz-adv-x="381" 
d="M143 0h-89v435h-52v79h52v60c0 67 26 128 115 128c14 0 28 -1 37 -4v-80c-8 1 -13 2 -20 2c-35 0 -43 -21 -43 -57v-49h64v-79h-64v-435zM338 0h-89v697h89v-697z" />
    <glyph glyph-name="ampersand" unicode="&#x26;" horiz-adv-x="446" 
d="M147 531c0 -53 3 -77 29 -120c41 37 53 63 53 120c0 43 -7 72 -41 72c-30 0 -41 -32 -41 -72zM174 81c33 0 50 18 68 58l-94 151c-28 -29 -35 -56 -35 -109c0 -68 21 -100 61 -100zM349 403h86l-102 -248l96 -155h-100l-41 66c-33 -49 -71 -73 -125 -73
c-97 0 -138 74 -138 181c0 88 27 129 84 179c-35 58 -45 95 -45 169c0 98 44 154 124 154c82 0 122 -51 122 -145c0 -84 -23 -122 -96 -183l69 -110z" />
    <glyph glyph-name="zero.slash" horiz-adv-x="358" 
d="M181 658c100 0 144 -66 144 -163v-334c0 -96 -35 -169 -149 -169c-106 0 -143 71 -143 168v329c0 106 52 169 148 169zM179 580c-41 0 -59 -26 -59 -82v-265l114 297c-7 32 -25 50 -55 50zM179 70c41 0 58 29 58 84v280l-116 -302c4 -40 22 -62 58 -62z" />
    <glyph glyph-name="zero" unicode="0" horiz-adv-x="358" 
d="M181 658c93 0 144 -57 144 -170v-320c0 -104 -35 -176 -149 -176c-106 0 -143 71 -143 174v317c0 116 52 175 148 175zM179 576c-37 0 -58 -23 -58 -84v-334c0 -56 17 -84 58 -84c39 0 56 26 56 86v334c0 56 -18 82 -56 82z" />
    <glyph glyph-name="one" unicode="1" horiz-adv-x="218" 
d="M164 0h-90v546c-18 -5 -54 -9 -69 -10v69c40 5 76 28 94 49h65v-654z" />
    <glyph glyph-name="two" unicode="2" horiz-adv-x="319" 
d="M297 0h-281v11c1 115 49 194 120 296c53 77 70 103 70 175c0 71 -9 101 -50 101c-38 0 -53 -29 -53 -83v-32h-83v35c0 73 24 155 140 155c107 0 136 -71 136 -170c0 -103 -31 -145 -84 -219c-52 -72 -91 -138 -96 -192h193z" />
    <glyph glyph-name="three" unicode="3" horiz-adv-x="343" 
d="M111 487h-81v19c0 68 21 152 136 152c99 0 132 -63 132 -152v-25c0 -74 -24 -109 -62 -125v-1c48 -16 78 -52 78 -132v-53c0 -104 -32 -179 -149 -179c-105 0 -144 60 -144 151v20h83v-19c0 -41 14 -78 61 -78c46 0 60 35 60 93v64c0 68 -24 92 -80 92h-27v77h27
c48 0 67 19 67 81v35c0 43 -8 76 -50 76c-41 0 -51 -33 -51 -72v-24z" />
    <glyph glyph-name="four" unicode="4" horiz-adv-x="339" 
d="M281 0h-82v168h-184v66l148 416h118v-408h50l-7 -74h-43v-168zM101 242h98v133c0 63 2 128 4 191h-1c-32 -109 -66 -216 -101 -324z" />
    <glyph glyph-name="five" unicode="5" horiz-adv-x="352" 
d="M311 650l-9 -79h-162c-3 -55 -8 -131 -13 -173c14 20 43 33 80 33c86 0 118 -64 118 -172v-71c0 -112 -31 -196 -152 -196c-110 0 -145 72 -145 160v13h89v-21c0 -37 11 -78 56 -78c50 0 60 38 60 109v80c0 66 -11 100 -57 100c-38 0 -53 -22 -61 -65l-80 8
c10 92 23 271 27 352h249z" />
    <glyph glyph-name="six" unicode="6" horiz-adv-x="351" 
d="M315 503h-84v8c0 29 -6 72 -52 72s-58 -33 -58 -107v-92c16 26 42 47 90 47c82 0 113 -65 113 -150v-112c0 -100 -31 -177 -147 -177c-121 0 -144 87 -144 179v294c0 111 29 193 146 193c118 0 136 -87 136 -151v-4zM178 66c42 0 57 31 57 90v112c0 50 -11 84 -54 84
c-46 0 -60 -35 -60 -94v-102c0 -48 11 -90 57 -90z" />
    <glyph glyph-name="seven" unicode="7" horiz-adv-x="294" 
d="M4 650h282v-68c-78 -151 -139 -349 -166 -582h-92c23 213 93 431 167 571h-191v79z" />
    <glyph glyph-name="eight" unicode="8" horiz-adv-x="353" 
d="M175 -8c-83 0 -147 38 -147 161v68c0 82 35 108 66 127c-36 22 -56 55 -56 124v31c0 103 52 154 142 154c79 0 136 -42 136 -155v-28c0 -81 -26 -107 -57 -125c39 -20 65 -53 65 -128v-62c0 -120 -53 -167 -149 -167zM177 581c-41 0 -54 -31 -54 -72v-53
c0 -43 18 -71 54 -71c35 0 53 22 53 73v51c0 41 -10 72 -53 72zM176 69c43 0 59 27 59 79v84c0 56 -21 77 -59 77c-39 0 -59 -25 -59 -77v-83c0 -48 17 -80 59 -80z" />
    <glyph glyph-name="nine" unicode="9" horiz-adv-x="347" 
d="M32 146h89v-10c0 -44 16 -69 51 -69c42 0 54 30 54 124v101c-15 -27 -38 -43 -84 -43c-83 0 -116 62 -116 156v91c0 101 48 162 145 162c96 0 143 -57 143 -167v-278c0 -118 -11 -221 -143 -221c-113 0 -139 75 -139 150v4zM171 584c-39 0 -56 -25 -56 -78v-102
c0 -43 10 -78 54 -78c45 0 57 39 57 100v79c0 52 -15 79 -55 79z" />
    <glyph glyph-name="zero.slashtab" horiz-adv-x="357" 
d="M181 658c100 0 144 -66 144 -163v-334c0 -96 -35 -169 -149 -169c-106 0 -143 71 -143 168v329c0 106 52 169 148 169zM179 580c-41 0 -59 -26 -59 -82v-265l114 297c-7 32 -25 50 -55 50zM179 70c41 0 58 29 58 84v280l-116 -302c4 -40 22 -62 58 -62z" />
    <glyph glyph-name="zero.tab" horiz-adv-x="357" 
d="M181 658c93 0 144 -57 144 -170v-320c0 -104 -35 -176 -149 -176c-106 0 -143 71 -143 174v317c0 116 52 175 148 175zM179 576c-37 0 -58 -23 -58 -84v-334c0 -56 17 -84 58 -84c39 0 56 26 56 86v334c0 56 -18 82 -56 82z" />
    <glyph glyph-name="one.tab" horiz-adv-x="357" 
d="M315 0h-265v77h89v468c-20 -5 -60 -10 -81 -8v65c42 5 80 25 101 50h70v-575h86v-77z" />
    <glyph glyph-name="two.tab" horiz-adv-x="357" 
d="M312 0h-281v11c1 115 49 194 120 296c53 77 70 103 70 175c0 71 -9 101 -50 101c-38 0 -53 -29 -53 -83v-32h-83v35c0 73 24 155 140 155c107 0 136 -71 136 -170c0 -103 -31 -145 -84 -219c-52 -72 -91 -138 -96 -192h193z" />
    <glyph glyph-name="three.tab" horiz-adv-x="357" 
d="M119 487h-81v19c0 68 21 152 136 152c99 0 132 -63 132 -152v-25c0 -74 -24 -109 -62 -125v-1c48 -16 78 -52 78 -132v-53c0 -104 -32 -179 -149 -179c-105 0 -144 60 -144 151v20h83v-19c0 -41 14 -78 61 -78c46 0 60 35 60 93v64c0 68 -24 92 -80 92h-27v77h27
c48 0 67 19 67 81v35c0 43 -8 76 -50 76c-41 0 -51 -33 -51 -72v-24z" />
    <glyph glyph-name="four.tab" horiz-adv-x="357" 
d="M286 0h-82v168h-184v66l148 416h118v-408h50l-7 -74h-43v-168zM106 242h98v133c0 63 2 128 4 191h-1c-32 -109 -66 -216 -101 -324z" />
    <glyph glyph-name="five.tab" horiz-adv-x="357" 
d="M313 650l-9 -79h-162c-3 -55 -8 -131 -13 -173c14 20 43 33 80 33c86 0 118 -64 118 -172v-71c0 -112 -31 -196 -152 -196c-110 0 -145 72 -145 160v13h89v-21c0 -37 11 -78 56 -78c50 0 60 38 60 109v80c0 66 -11 100 -57 100c-38 0 -53 -22 -61 -65l-80 8
c10 92 23 271 27 352h249z" />
    <glyph glyph-name="six.tab" horiz-adv-x="357" 
d="M316 503h-84v8c0 29 -6 72 -52 72s-58 -33 -58 -107v-92c16 26 42 47 90 47c82 0 113 -65 113 -150v-112c0 -100 -31 -177 -147 -177c-121 0 -144 87 -144 179v294c0 111 29 193 146 193c118 0 136 -87 136 -151v-4zM179 66c42 0 57 31 57 90v112c0 50 -11 84 -54 84
c-46 0 -60 -35 -60 -94v-102c0 -48 11 -90 57 -90z" />
    <glyph glyph-name="seven.tab" horiz-adv-x="357" 
d="M37 650h282v-68c-78 -151 -139 -349 -166 -582h-92c23 213 93 431 167 571h-191v79z" />
    <glyph glyph-name="eight.tab" horiz-adv-x="357" 
d="M177 -8c-83 0 -147 38 -147 161v68c0 82 35 108 66 127c-36 22 -56 55 -56 124v31c0 103 52 154 142 154c79 0 136 -42 136 -155v-28c0 -81 -26 -107 -57 -125c39 -20 65 -53 65 -128v-62c0 -120 -53 -167 -149 -167zM179 581c-41 0 -54 -31 -54 -72v-53
c0 -43 18 -71 54 -71c35 0 53 22 53 73v51c0 41 -10 72 -53 72zM178 69c43 0 59 27 59 79v84c0 56 -21 77 -59 77c-39 0 -59 -25 -59 -77v-83c0 -48 17 -80 59 -80z" />
    <glyph glyph-name="nine.tab" horiz-adv-x="357" 
d="M38 146h89v-10c0 -44 16 -69 51 -69c42 0 54 30 54 124v101c-15 -27 -38 -43 -84 -43c-83 0 -116 62 -116 156v91c0 101 48 162 145 162c96 0 143 -57 143 -167v-278c0 -118 -11 -221 -143 -221c-113 0 -139 75 -139 150v4zM177 584c-39 0 -56 -25 -56 -78v-102
c0 -43 10 -78 54 -78c45 0 57 39 57 100v79c0 52 -15 79 -55 79z" />
    <glyph glyph-name="zero.slashcap" horiz-adv-x="367" 
d="M186 676c102 0 148 -72 148 -172v-332c0 -104 -36 -180 -154 -180c-109 0 -146 74 -146 179v332c0 108 53 173 152 173zM183 598c-40 0 -62 -29 -62 -87v-273l122 308c-8 35 -28 52 -60 52zM184 71c41 0 62 29 62 88v294l-124 -314c4 -42 25 -68 62 -68z" />
    <glyph glyph-name="zero.cap" horiz-adv-x="367" 
d="M186 676c102 0 148 -72 148 -172v-332c0 -104 -36 -180 -154 -180c-109 0 -146 74 -146 179v332c0 108 53 173 152 173zM183 596c-40 0 -59 -30 -59 -87v-350c0 -52 18 -86 60 -86c41 0 58 29 58 89v348c0 58 -18 86 -59 86z" />
    <glyph glyph-name="one.cap" horiz-adv-x="221" 
d="M167 0h-89v564c-15 -5 -48 -7 -67 -7v69c40 5 72 24 89 46h67v-672z" />
    <glyph glyph-name="two.cap" horiz-adv-x="326" 
d="M306 0h-289v9c3 123 53 195 123 300c56 83 71 119 71 193c0 60 -7 96 -50 96c-40 0 -54 -28 -54 -83v-32h-86v35c0 77 24 158 144 158c113 0 138 -81 138 -169c0 -110 -26 -150 -84 -237c-52 -78 -90 -134 -98 -190h198z" />
    <glyph glyph-name="three.cap" horiz-adv-x="353" 
d="M111 498h-81v15c0 84 26 163 142 163c93 0 136 -54 136 -156v-21c0 -76 -21 -113 -61 -129v-1c49 -18 77 -57 77 -147v-53c0 -104 -37 -177 -154 -177c-102 0 -146 55 -146 163v21h83v-25c0 -46 16 -84 63 -84c50 0 63 33 63 98v58c0 71 -16 96 -82 96h-23v80h22
c54 0 69 18 69 86v37c0 48 -10 78 -52 78s-56 -32 -56 -81v-21z" />
    <glyph glyph-name="four.cap" horiz-adv-x="350" 
d="M289 0h-83v172h-191v69l152 427h122v-419h49l-7 -77h-42v-172zM103 249h103v144c0 65 2 131 3 197h-1c-32 -113 -68 -235 -105 -341z" />
    <glyph glyph-name="five.cap" horiz-adv-x="362" 
d="M319 668l-10 -83h-166c-3 -58 -9 -140 -13 -183c14 20 43 34 83 34c89 0 121 -58 121 -166v-83c0 -111 -30 -195 -156 -195c-105 0 -146 64 -146 165v11h90v-20c0 -47 15 -81 59 -81c53 0 62 44 62 105v93c0 60 -13 93 -60 93c-39 0 -57 -25 -65 -69l-83 9
c13 102 24 276 28 370h256z" />
    <glyph glyph-name="six.cap" horiz-adv-x="360" 
d="M322 514h-87v12c0 38 -7 73 -53 73c-47 0 -58 -40 -58 -122v-90c15 27 44 51 95 51c90 0 114 -73 114 -154v-110c0 -103 -31 -182 -151 -182c-125 0 -148 90 -148 182v294c0 94 10 208 149 208c123 0 139 -91 139 -148v-14zM184 68c38 0 58 25 58 89v120
c0 45 -12 79 -54 79c-46 0 -64 -37 -64 -88v-112c0 -54 18 -88 60 -88z" />
    <glyph glyph-name="seven.cap" horiz-adv-x="300" 
d="M7 668h284v-71c-90 -176 -142 -375 -164 -597h-94c19 210 90 438 164 585h-190v83z" />
    <glyph glyph-name="eight.cap" horiz-adv-x="362" 
d="M179 -8c-85 0 -150 44 -150 170v52c0 94 38 122 65 138c-32 23 -55 53 -55 136v29c0 105 54 158 146 158c83 0 140 -47 140 -158v-28c0 -91 -27 -117 -55 -137c34 -18 64 -50 64 -138v-50c0 -121 -56 -172 -155 -172zM181 598c-43 0 -55 -31 -55 -77v-51
c0 -50 18 -79 56 -79c35 0 55 23 55 79v52c0 43 -12 76 -56 76zM181 70c44 0 61 33 61 86v75c0 60 -23 81 -62 81c-37 0 -59 -23 -59 -83v-73c0 -49 15 -86 60 -86z" />
    <glyph glyph-name="nine.cap" horiz-adv-x="358" 
d="M33 149h90v-8c0 -45 17 -73 52 -73c46 0 58 36 58 136v101c-14 -27 -40 -46 -88 -46c-80 0 -118 60 -118 156v97c0 100 47 164 149 164c99 0 148 -56 148 -170v-286c0 -132 -15 -228 -152 -228c-115 0 -139 77 -139 157v1v-1zM175 601c-40 0 -57 -26 -57 -83v-91
c0 -48 9 -89 56 -89s59 41 59 94v87c0 52 -15 82 -58 82z" />
    <glyph glyph-name="period" unicode="." horiz-adv-x="158" 
d="M124 0h-90v144h90v-144z" />
    <glyph glyph-name="comma" unicode="," horiz-adv-x="163" 
d="M72 -96h-67c33 83 50 176 51 240h82c-2 -86 -32 -184 -66 -240z" />
    <glyph glyph-name="colon" unicode=":" horiz-adv-x="191" 
d="M137 346h-83v144h83v-144zM137 0h-83v144h83v-144z" />
    <glyph glyph-name="semicolon" unicode=";" horiz-adv-x="202" 
d="M148 346h-83v144h83v-144zM82 -96h-67c30 78 50 163 51 240h82c-3 -93 -35 -187 -66 -240z" />
    <glyph glyph-name="ellipsis" unicode="&#x2026;" horiz-adv-x="519" 
d="M124 0h-90v144h90v-144zM294 0h-90v144h90v-144zM469 0h-90v144h90v-144z" />
    <glyph glyph-name="exclam" unicode="!" horiz-adv-x="214" 
d="M161 228h-80l-9 327v113h97v-112zM166 0h-91v112h91v-112z" />
    <glyph glyph-name="exclamdown" unicode="&#xa1;" horiz-adv-x="189" 
d="M41 286h80l8 -337v-113h-96v113zM36 514h91v-112h-91v112z" />
    <glyph glyph-name="question" unicode="?" horiz-adv-x="323" 
d="M210 206h-89v19c0 52 9 100 49 168c29 49 40 76 40 137c0 51 -9 74 -42 74s-44 -26 -44 -68v-30h-84v24c0 77 27 146 133 146c95 0 126 -58 126 -148c0 -79 -17 -115 -59 -191c-26 -45 -30 -83 -30 -122v-9zM210 0h-90v135h90v-135z" />
    <glyph glyph-name="questiondown" unicode="&#xbf;" horiz-adv-x="311" 
d="M105 308h90v-19c0 -52 -12 -98 -50 -168c-27 -49 -40 -84 -40 -137c0 -51 9 -74 43 -74c32 0 43 29 43 79v24h84v-21c0 -85 -27 -154 -133 -154c-95 0 -126 58 -126 148c0 79 20 115 60 191c23 45 29 83 29 122v9zM105 514h90v-135h-90v135z" />
    <glyph glyph-name="quotesingle" unicode="'" horiz-adv-x="130" 
d="M99 466h-70l-6 143v88h83v-88z" />
    <glyph glyph-name="quotedbl" unicode="&#x22;" horiz-adv-x="246" 
d="M95 466h-66l-6 143v88h79v-88zM216 466h-67l-5 143v88h79v-88z" />
    <glyph glyph-name="quoteleft" unicode="&#x2018;" horiz-adv-x="161" 
d="M71 698h66c-17 -72 -29 -157 -29 -232h-82c2 90 26 190 45 232z" />
    <glyph glyph-name="quoteright" unicode="&#x2019;" horiz-adv-x="161" 
d="M91 466h-67c17 71 29 157 30 231h82c-2 -90 -27 -189 -45 -231z" />
    <glyph glyph-name="quotedblleft" unicode="&#x201c;" horiz-adv-x="279" 
d="M193 697h62c-14 -58 -30 -139 -30 -231h-78c1 77 26 186 46 231zM72 697h62c-12 -49 -30 -146 -30 -231h-78c1 75 24 180 46 231z" />
    <glyph glyph-name="quotedblright" unicode="&#x201d;" horiz-adv-x="279" 
d="M86 466h-62c14 58 29 139 30 231h78c-1 -77 -27 -186 -46 -231zM207 466h-62c11 49 29 146 30 231h78c-1 -75 -24 -180 -46 -231z" />
    <glyph glyph-name="quotesinglbase" unicode="&#x201a;" horiz-adv-x="161" 
d="M91 -99h-67c17 71 29 157 30 231h82c-2 -90 -27 -189 -45 -231z" />
    <glyph glyph-name="quotedblbase" unicode="&#x201e;" horiz-adv-x="279" 
d="M86 -99h-62c14 58 29 139 30 231h78c-1 -77 -27 -186 -46 -231zM207 -99h-62c11 49 29 146 30 231h78c-1 -75 -24 -180 -46 -231z" />
    <glyph glyph-name="guilsinglleft" unicode="&#x2039;" horiz-adv-x="221" 
d="M195 418l-91 -158l91 -159h-77l-91 159l91 158h77z" />
    <glyph glyph-name="guilsinglright" unicode="&#x203a;" horiz-adv-x="221" 
d="M27 101l90 158l-90 159h76l92 -159l-92 -158h-76z" />
    <glyph glyph-name="guillemotleft" unicode="&#xab;" horiz-adv-x="360" 
d="M195 418l-91 -158l91 -159h-77l-91 159l91 158h77zM333 418l-90 -158l91 -159h-77l-93 159l93 158h76z" />
    <glyph glyph-name="guillemotright" unicode="&#xbb;" horiz-adv-x="360" 
d="M166 101l90 158l-91 159h77l92 -159l-92 -158h-76zM27 101l91 158l-91 159h77l92 -159l-92 -158h-77z" />
    <glyph glyph-name="uni00A0" unicode="&#xa0;" horiz-adv-x="133" 
 />
    <glyph glyph-name="uni2007" unicode="&#x2007;" horiz-adv-x="357" 
 />
    <glyph glyph-name="hyphen" unicode="-" horiz-adv-x="221" 
d="M23 304h175v-82h-175v82z" />
    <glyph glyph-name="uni2010" unicode="&#x2010;" horiz-adv-x="221" 
d="M23 304h175v-82h-175v82z" />
    <glyph glyph-name="uni00AD" unicode="&#xad;" horiz-adv-x="221" 
d="M23 304h175v-82h-175v82z" />
    <glyph glyph-name="endash" unicode="&#x2013;" horiz-adv-x="306" 
d="M23 303h260v-79h-260v79z" />
    <glyph glyph-name="emdash" unicode="&#x2014;" horiz-adv-x="552" 
d="M23 303h506v-79h-506v79z" />
    <glyph glyph-name="figuredash" unicode="&#x2012;" horiz-adv-x="357" 
d="M58 365h241v-78h-241v78z" />
    <glyph glyph-name="uni2015" unicode="&#x2015;" horiz-adv-x="552" 
d="M23 303h506v-79h-506v79z" />
    <glyph glyph-name="periodcentered" unicode="&#xb7;" horiz-adv-x="158" 
d="M124 200h-90v144h90v-144z" />
    <glyph glyph-name="bullet" unicode="&#x2022;" horiz-adv-x="219" 
d="M37 335h145v-154h-145v154z" />
    <glyph glyph-name="underscore" unicode="_" horiz-adv-x="530" 
d="M0 -78h530v-51h-530v51z" />
    <glyph glyph-name="parenleft" unicode="(" horiz-adv-x="254" 
d="M152 705h86c-56 -98 -108 -221 -108 -400c0 -167 42 -294 108 -413h-86c-53 88 -105 229 -105 414c0 184 57 317 105 399z" />
    <glyph glyph-name="parenright" unicode=")" horiz-adv-x="254" 
d="M102 -107h-85c56 98 108 221 108 400c0 167 -43 294 -108 413h85c53 -88 105 -229 105 -414c0 -184 -57 -317 -105 -399z" />
    <glyph glyph-name="bracketleft" unicode="[" horiz-adv-x="247" 
d="M226 -108h-178v812h178v-72h-104v-667h104v-73z" />
    <glyph glyph-name="bracketright" unicode="]" horiz-adv-x="247" 
d="M20 704h179v-812h-179v73h105v666h-105v73z" />
    <glyph glyph-name="braceleft" unicode="{" horiz-adv-x="288" 
d="M22 257v81h16c64 1 72 31 72 80l-5 136c0 117 56 150 145 150h18v-71h-10c-53 0 -74 -19 -74 -83l5 -123c1 -75 -20 -116 -72 -128c58 -17 73 -50 72 -130l-5 -126c0 -68 26 -82 74 -82h10v-71h-22c-85 0 -141 30 -141 141l5 146c0 47 -9 80 -68 80h-20z" />
    <glyph glyph-name="braceright" unicode="}" horiz-adv-x="288" 
d="M267 337v-81h-16c-64 -1 -73 -31 -73 -81l5 -135c0 -117 -55 -150 -145 -150h-18v71h10c53 0 74 18 74 82l-5 123c-1 76 21 117 72 129c-58 17 -73 50 -72 129l5 127c0 68 -26 82 -73 82h-11v71h22c85 0 141 -30 141 -142l-5 -145c0 -47 9 -80 68 -80h21z" />
    <glyph glyph-name="slash" unicode="/" horiz-adv-x="259" 
d="M88 -30h-70l154 698h68z" />
    <glyph glyph-name="bar" unicode="|" horiz-adv-x="175" 
d="M52 781h72v-1042h-72v1042z" />
    <glyph glyph-name="backslash" unicode="\" horiz-adv-x="259" 
d="M87 668l153 -698h-69l-153 698h69z" />
    <glyph glyph-name="brokenbar" unicode="&#xa6;" horiz-adv-x="175" 
d="M52 689h72v-356h-72v356zM52 179h72v-358h-72v358z" />
    <glyph glyph-name="asterisk" unicode="*" horiz-adv-x="299" 
d="M115 668h67l-11 -107l82 62l36 -57l-96 -44l92 -43l-34 -58l-80 64l12 -109h-68l12 109l-83 -64l-34 60l93 41l-91 42l35 59l79 -62z" />
    <glyph glyph-name="dagger" unicode="&#x2020;" horiz-adv-x="317" 
d="M111 618h81l-3 -181l103 6v-81l-103 5l3 -418h-81l5 418l-104 -5v81l104 -6z" />
    <glyph glyph-name="daggerdbl" unicode="&#x2021;" horiz-adv-x="317" 
d="M111 617h81l-3 -165l103 5v-81l-103 5v-192l103 6v-80l-103 5l3 -191h-81l4 191l-103 -5v80l103 -6v192l-103 -5v81l103 -5z" />
    <glyph glyph-name="section" unicode="&#xa7;" horiz-adv-x="335" 
d="M150 224l41 -30l12 -9c20 26 23 49 23 80c0 35 -4 65 -49 99l-50 39c-18 -18 -30 -44 -30 -84c0 -42 15 -67 53 -95zM154 -110c-86 0 -132 42 -132 141v14h81v-17c0 -50 18 -71 53 -71c32 0 47 19 47 65c0 41 -6 67 -49 98l-52 37c-56 40 -84 77 -84 150
c0 64 21 104 58 138c-23 24 -36 52 -36 101c0 84 46 130 127 130c87 0 124 -46 124 -136v-18h-78v17c0 48 -11 69 -48 69c-31 0 -44 -19 -44 -55s11 -53 50 -82l56 -41c50 -37 78 -72 78 -154c0 -69 -23 -110 -52 -138c21 -27 32 -59 32 -108c0 -93 -44 -140 -131 -140z" />
    <glyph glyph-name="paragraph" unicode="&#xb6;" horiz-adv-x="373" 
d="M253 159h-59c-122 0 -173 57 -173 198v65c0 137 49 198 170 198h62c0 15 4 44 7 57h61c-2 -19 -2 -38 -2 -56v-738h-66v276zM253 230v321h-8c-35 0 -54 -8 -54 -73v-171c0 -70 20 -77 52 -77h10z" />
    <glyph glyph-name="at" unicode="@" horiz-adv-x="599" 
d="M425 -53l19 -56c-34 -27 -89 -44 -154 -44c-175 0 -256 129 -256 351v26c0 212 81 390 276 390c162 0 255 -97 255 -299v-26c0 -161 -39 -276 -137 -276c-33 0 -69 14 -79 65c-21 -50 -57 -65 -92 -65c-54 0 -91 41 -83 143l13 149c9 110 46 147 102 147
c41 0 61 -25 66 -48l5 39h74l-30 -292c-5 -45 9 -65 30 -65c47 0 65 99 65 200v31c0 166 -61 235 -190 235c-154 0 -204 -154 -204 -327v-28c0 -149 37 -286 191 -286c46 0 83 9 129 36zM310 375c-28 0 -42 -17 -48 -76l-11 -126c-5 -57 5 -81 33 -81c25 0 45 26 51 96
l10 103c5 55 -5 84 -35 84z" />
    <glyph glyph-name="copyright" unicode="&#xa9;" horiz-adv-x="548" 
d="M275 636c135 0 236 -100 236 -307c0 -208 -99 -309 -236 -309s-238 97 -238 309c0 201 103 307 238 307zM274 588c-112 0 -185 -92 -185 -260c0 -164 68 -260 185 -260c122 0 185 96 185 261c0 164 -71 259 -185 259zM312 286h62v-19c0 -69 -31 -110 -100 -110
c-80 0 -102 54 -102 123v105c0 61 25 115 103 115c69 0 97 -44 97 -104v-24h-61v21c0 32 -9 54 -37 54c-32 0 -39 -28 -39 -62v-110c0 -34 5 -64 38 -65c26 0 39 17 39 55v21z" />
    <glyph glyph-name="uni2117" unicode="&#x2117;" horiz-adv-x="548" 
d="M194 165v329h91c64 0 99 -33 99 -94v-17c0 -60 -32 -96 -101 -96h-32v-122h-57zM251 444v-108h24c33 0 50 9 50 47v17c0 34 -18 44 -52 44h-22zM275 636c135 0 236 -100 236 -307c0 -208 -99 -309 -236 -309s-238 97 -238 309c0 201 103 307 238 307zM274 588
c-112 0 -185 -92 -185 -260c0 -164 68 -260 185 -260c122 0 185 96 185 261c0 164 -71 259 -185 259z" />
    <glyph glyph-name="registered" unicode="&#xae;" horiz-adv-x="246" 
d="M114 494h-28v120h53c24 0 42 -11 42 -35c0 -17 -8 -22 -17 -27c12 -6 15 -17 15 -34c0 -5 0 -18 2 -24h-30c-1 4 -2 12 -2 25c0 17 -4 22 -20 22h-15v-47zM115 591v-28h18c11 0 17 4 17 13c0 11 -5 15 -17 15h-18zM131 675c67 0 117 -53 117 -124
c0 -76 -50 -125 -117 -125s-117 51 -117 125c0 72 48 124 117 124zM130 649c-56 0 -88 -41 -88 -99c0 -56 37 -98 88 -98c59 0 89 37 89 99c0 54 -35 98 -89 98z" />
    <glyph glyph-name="trademark" unicode="&#x2122;" horiz-adv-x="366" 
d="M3 668h142v-45h-45v-189h-52v189h-45v45zM369 434h-50v77c0 60 3 90 4 112h-2c-12 -59 -24 -128 -38 -188h-42c-14 65 -23 128 -34 189h-1c1 -19 5 -54 5 -138v-52h-49v234h77c10 -57 20 -110 25 -148h1c7 39 20 99 31 148h73v-234z" />
    <glyph glyph-name="uni2120" unicode="&#x2120;" horiz-adv-x="372" 
d="M12 504h45c0 -22 8 -34 23 -34c12 0 19 9 19 22c0 15 -6 25 -27 37c-48 25 -56 46 -56 77c0 38 22 64 65 64c50 0 63 -35 62 -72h-43c0 23 -6 32 -21 32c-10 0 -16 -7 -16 -20c0 -11 7 -21 25 -31c45 -25 59 -41 59 -82c0 -40 -22 -67 -69 -67c-48 0 -66 31 -66 74z
M374 434h-51v77c0 60 3 90 4 112h-2c-12 -59 -24 -128 -37 -188h-43c-13 65 -23 128 -33 189h-2c1 -19 3 -53 3 -133v-57h-47v234h77c10 -57 21 -110 26 -148h1c6 39 19 99 31 148h73v-234z" />
    <glyph glyph-name="degree" unicode="&#xb0;" horiz-adv-x="244" 
d="M122 658c62 0 105 -43 105 -108c0 -72 -53 -109 -105 -109c-63 0 -105 41 -105 107c0 68 49 110 105 110zM122 604c-32 0 -48 -21 -48 -55c0 -31 18 -54 48 -54c31 0 46 21 46 55c0 29 -13 54 -46 54z" />
    <glyph glyph-name="numbersign" unicode="#" horiz-adv-x="393" 
d="M173 0l33 199h-68l-33 -199h-64l33 199h-50v73h62l23 139h-54v72h66l28 167h64l-28 -167h68l28 167h63l-27 -167h51v-72h-63l-23 -139h55v-73h-67l-32 -199h-65zM218 272l23 139h-68l-23 -139h68z" />
    <glyph glyph-name="uni2116" unicode="&#x2116;" horiz-adv-x="657" 
d="M131 0h-83v650h104c106 -388 117 -436 125 -471h1c-5 86 -5 162 -5 271v200h83v-650h-101c-70 251 -102 376 -127 489h-1c5 -81 4 -162 4 -283v-206zM513 617c66 0 115 -38 115 -133v-101c0 -100 -48 -138 -115 -138c-72 0 -115 41 -115 139v100c0 90 46 133 115 133z
M513 546c-26 0 -40 -19 -40 -60v-106c0 -40 11 -64 41 -64c29 0 39 24 39 63v106c0 40 -11 61 -40 61zM415 195h196v-68h-196v68z" />
    <glyph glyph-name="zero.sups" unicode="&#x2070;" horiz-adv-x="256" 
d="M130 784c63 0 102 -34 102 -117v-113c0 -74 -24 -123 -105 -123c-75 0 -103 49 -103 119v118c0 69 32 116 106 116zM128 727c-26 0 -37 -16 -37 -51v-134c0 -38 14 -53 38 -53c27 0 36 19 36 55v132c0 31 -9 51 -37 51z" />
    <glyph glyph-name="one.sups" unicode="&#xb9;" horiz-adv-x="166" 
d="M124 435h-66v274c-9 -3 -30 -4 -42 -3v47c25 3 46 16 58 30h50v-348z" />
    <glyph glyph-name="two.sups" unicode="&#xb2;" horiz-adv-x="236" 
d="M213 435h-196v8c0 53 19 96 76 154c44 46 55 55 55 85c0 23 -4 48 -33 48c-30 0 -36 -23 -36 -52v-14h-63v13c0 42 13 107 102 107c70 0 98 -43 98 -103c0 -52 -27 -72 -63 -110c-26 -27 -49 -47 -59 -80h129z" />
    <glyph glyph-name="three.sups" unicode="&#xb3;" horiz-adv-x="247" 
d="M14 538h66v-2c0 -31 13 -52 42 -52c27 0 41 18 41 52c0 42 -20 53 -52 53h-21v57h19c34 0 44 13 44 41c0 22 -6 43 -34 43c-25 0 -36 -19 -36 -47v-2h-63v2c0 57 32 101 101 101s98 -40 98 -93c0 -44 -24 -63 -43 -70c24 -10 54 -28 54 -84c0 -61 -37 -106 -109 -106
c-75 0 -107 47 -107 103v4z" />
    <glyph glyph-name="four.sups" unicode="&#x2074;" horiz-adv-x="251" 
d="M203 435h-62v87h-125v49l107 209h80v-203h36l-5 -55h-31v-87zM79 577h62v53c0 20 0 66 2 87h-1c-10 -29 -35 -79 -63 -140z" />
    <glyph glyph-name="five.sups" unicode="&#x2075;" horiz-adv-x="255" 
d="M222 780l-8 -55h-110c-2 -16 -6 -59 -8 -76c10 10 28 17 52 17c60 0 86 -42 86 -112c0 -66 -26 -123 -109 -123c-73 0 -104 45 -105 102h65c1 -24 10 -47 40 -47c31 0 41 21 41 67c0 45 -12 59 -40 59c-21 0 -34 -10 -43 -31l-56 7c7 48 15 144 19 192h176z" />
    <glyph glyph-name="six.sups" unicode="&#x2076;" horiz-adv-x="257" 
d="M230 693h-65c-1 17 -4 39 -35 39c-32 0 -39 -28 -39 -75v-18c14 16 33 26 63 26c54 0 84 -35 84 -108c0 -83 -37 -126 -107 -126c-84 0 -107 59 -107 141v67c0 86 24 145 110 145c70 0 96 -43 96 -91zM132 487c30 0 38 27 38 67c0 39 -9 57 -38 57c-27 0 -41 -16 -41 -61
c0 -32 6 -63 41 -63z" />
    <glyph glyph-name="seven.sups" unicode="&#x2077;" horiz-adv-x="223" 
d="M6 780h200v-50c-45 -70 -86 -177 -102 -295h-74c15 118 72 239 107 286h-131v59z" />
    <glyph glyph-name="eight.sups" unicode="&#x2078;" horiz-adv-x="257" 
d="M126 431c-61 0 -105 34 -105 103c0 49 26 68 47 79c-20 13 -38 34 -38 76c0 55 31 95 100 95c61 0 97 -34 97 -95c0 -42 -18 -62 -38 -74c22 -10 47 -31 47 -82c0 -64 -38 -102 -110 -102zM129 729c-25 0 -35 -17 -35 -40v-2c0 -23 7 -46 35 -46c22 0 34 12 34 45v2
c0 25 -9 41 -34 41zM130 487c25 0 39 17 39 48v2c0 36 -15 50 -40 50s-40 -15 -40 -49v-1c0 -28 10 -50 41 -50z" />
    <glyph glyph-name="nine.sups" unicode="&#x2079;" horiz-adv-x="259" 
d="M26 524h67c2 -19 6 -39 36 -39c33 0 39 35 39 87v16c-11 -17 -30 -29 -62 -29c-47 0 -86 30 -86 101v8c0 79 49 116 107 116c81 0 108 -56 108 -135v-74c0 -97 -29 -144 -110 -144c-67 0 -98 38 -99 93zM128 726c-31 0 -40 -25 -40 -54v-8c0 -28 9 -50 39 -50
c27 0 41 18 41 52v8c0 22 -5 52 -40 52z" />
    <glyph glyph-name="parenleft.sups" unicode="&#x207d;" horiz-adv-x="171" 
d="M96 854h62c-32 -60 -61 -143 -61 -255s29 -193 61 -251h-62c-27 41 -63 127 -63 251c0 126 35 207 63 255z" />
    <glyph glyph-name="parenright.sups" unicode="&#x207e;" horiz-adv-x="171" 
d="M74 348h-62c32 60 61 143 61 254c0 112 -29 194 -61 252h62c27 -41 63 -127 63 -252s-35 -206 -63 -254z" />
    <glyph glyph-name="period.sups" horiz-adv-x="112" 
d="M91 435h-70v93h70v-93z" />
    <glyph glyph-name="comma.sups" horiz-adv-x="132" 
d="M81 360h-65c14 42 25 95 25 168h70c0 -67 -14 -135 -30 -168z" />
    <glyph glyph-name="dollar.sups" horiz-adv-x="252" 
d="M154 396h-55v41c-59 9 -85 50 -85 104h65c2 -31 13 -53 49 -53c26 0 36 18 36 38c0 27 -9 40 -51 55c-71 24 -92 56 -92 104c0 51 27 86 78 93v35h55v-36c56 -12 75 -53 74 -96h-65c-1 22 -7 48 -41 48c-24 0 -34 -16 -34 -36c0 -25 12 -34 52 -49c72 -25 95 -52 95 -111
c0 -49 -22 -87 -81 -96v-41z" />
    <glyph glyph-name="cent.sups" horiz-adv-x="242" 
d="M158 559h63c0 -51 -19 -87 -68 -97v-41h-54v42c-52 10 -73 51 -73 121v53c0 64 25 101 73 111v37h54v-36c57 -11 69 -59 69 -96h-63c-1 34 -9 48 -35 48s-34 -25 -34 -61v-59c0 -48 9 -71 35 -71s33 21 33 49z" />
    <glyph glyph-name="hyphen.sups" horiz-adv-x="189" 
d="M26 638h137v-61h-137v61z" />
    <glyph glyph-name="zero.subs" unicode="&#x2080;" horiz-adv-x="256" 
d="M130 216c63 0 102 -34 102 -117v-113c0 -74 -24 -123 -105 -123c-75 0 -103 49 -103 119v118c0 69 32 116 106 116zM128 159c-26 0 -37 -16 -37 -51v-134c0 -38 14 -53 38 -53c27 0 36 19 36 55v132c0 31 -9 51 -37 51z" />
    <glyph glyph-name="one.subs" unicode="&#x2081;" horiz-adv-x="166" 
d="M124 -133h-66v274c-9 -3 -30 -4 -42 -3v47c25 3 46 16 58 30h50v-348z" />
    <glyph glyph-name="two.subs" unicode="&#x2082;" horiz-adv-x="236" 
d="M213 -133h-196v8c0 53 19 96 76 154c44 46 55 55 55 85c0 23 -4 48 -33 48c-30 0 -36 -23 -36 -52v-14h-63v13c0 42 13 107 102 107c70 0 98 -43 98 -103c0 -52 -27 -72 -63 -110c-26 -27 -49 -47 -59 -80h129z" />
    <glyph glyph-name="three.subs" unicode="&#x2083;" horiz-adv-x="247" 
d="M14 -30h66v-2c0 -31 13 -52 42 -52c27 0 41 18 41 52c0 42 -20 53 -52 53h-21v57h19c34 0 44 13 44 41c0 22 -6 43 -34 43c-25 0 -36 -19 -36 -47v-2h-63v2c0 57 32 101 101 101s98 -40 98 -93c0 -44 -24 -63 -43 -70c24 -10 54 -28 54 -84c0 -61 -37 -106 -109 -106
c-75 0 -107 47 -107 103v4z" />
    <glyph glyph-name="four.subs" unicode="&#x2084;" horiz-adv-x="251" 
d="M203 -133h-62v87h-125v49l107 209h80v-203h36l-5 -55h-31v-87zM79 9h62v53c0 20 0 66 2 87h-1c-10 -29 -35 -79 -63 -140z" />
    <glyph glyph-name="five.subs" unicode="&#x2085;" horiz-adv-x="255" 
d="M222 212l-8 -55h-110c-2 -16 -6 -59 -8 -76c10 10 28 17 52 17c60 0 86 -42 86 -112c0 -66 -26 -123 -109 -123c-73 0 -104 45 -105 102h65c1 -24 10 -47 40 -47c31 0 41 21 41 67c0 45 -12 59 -40 59c-21 0 -34 -10 -43 -31l-56 7c7 48 15 144 19 192h176z" />
    <glyph glyph-name="six.subs" unicode="&#x2086;" horiz-adv-x="257" 
d="M230 125h-65c-1 17 -4 39 -35 39c-32 0 -39 -28 -39 -75v-18c14 16 33 26 63 26c54 0 84 -35 84 -108c0 -83 -37 -126 -107 -126c-84 0 -107 59 -107 141v67c0 86 24 145 110 145c70 0 96 -43 96 -91zM132 -81c30 0 38 27 38 67c0 39 -9 57 -38 57c-27 0 -41 -16 -41 -61
c0 -32 6 -63 41 -63z" />
    <glyph glyph-name="seven.subs" unicode="&#x2087;" horiz-adv-x="223" 
d="M6 212h200v-50c-45 -70 -86 -177 -102 -295h-74c15 118 72 239 107 286h-131v59z" />
    <glyph glyph-name="eight.subs" unicode="&#x2088;" horiz-adv-x="257" 
d="M126 -137c-61 0 -105 34 -105 103c0 49 26 68 47 79c-20 13 -38 34 -38 76c0 55 31 95 100 95c61 0 97 -34 97 -95c0 -42 -18 -62 -38 -74c22 -10 47 -31 47 -82c0 -64 -38 -102 -110 -102zM129 161c-25 0 -35 -17 -35 -40v-2c0 -23 7 -46 35 -46c22 0 34 12 34 45v2
c0 25 -9 41 -34 41zM130 -81c25 0 39 17 39 48v2c0 36 -15 50 -40 50s-40 -15 -40 -49v-1c0 -28 10 -50 41 -50z" />
    <glyph glyph-name="nine.subs" unicode="&#x2089;" horiz-adv-x="259" 
d="M26 -44h67c2 -19 6 -39 36 -39c33 0 39 35 39 87v16c-11 -17 -30 -29 -62 -29c-47 0 -86 30 -86 101v8c0 79 49 116 107 116c81 0 108 -56 108 -135v-74c0 -97 -29 -144 -110 -144c-67 0 -98 38 -99 93zM128 158c-31 0 -40 -25 -40 -54v-8c0 -28 9 -50 39 -50
c27 0 41 18 41 52v8c0 22 -5 52 -40 52z" />
    <glyph glyph-name="parenleft.subs" unicode="&#x208d;" horiz-adv-x="171" 
d="M96 286h62c-32 -60 -61 -143 -61 -255s29 -193 61 -251h-62c-27 41 -63 127 -63 251c0 126 35 207 63 255z" />
    <glyph glyph-name="parenright.subs" unicode="&#x208e;" horiz-adv-x="171" 
d="M74 -220h-62c32 60 61 143 61 254c0 112 -29 194 -61 252h62c27 -41 63 -127 63 -252s-35 -206 -63 -254z" />
    <glyph glyph-name="period.subs" horiz-adv-x="112" 
d="M91 -133h-70v93h70v-93z" />
    <glyph glyph-name="comma.subs" horiz-adv-x="132" 
d="M81 -208h-65c14 42 25 95 25 168h70c0 -67 -14 -135 -30 -168z" />
    <glyph glyph-name="dollar.subs" horiz-adv-x="252" 
d="M154 -172h-55v41c-59 9 -85 50 -85 104h65c2 -31 13 -53 49 -53c26 0 36 18 36 38c0 27 -9 40 -51 55c-71 24 -92 56 -92 104c0 51 27 86 78 93v35h55v-36c56 -12 75 -53 74 -96h-65c-1 22 -7 48 -41 48c-24 0 -34 -16 -34 -36c0 -25 12 -34 52 -49
c72 -25 95 -52 95 -111c0 -49 -22 -87 -81 -96v-41z" />
    <glyph glyph-name="cent.subs" horiz-adv-x="242" 
d="M158 -9h63c0 -51 -19 -87 -68 -97v-41h-54v42c-52 10 -73 51 -73 121v53c0 64 25 101 73 111v37h54v-36c57 -11 69 -59 69 -96h-63c-1 34 -9 48 -35 48s-34 -25 -34 -61v-59c0 -48 9 -71 35 -71s33 21 33 49z" />
    <glyph glyph-name="hyphen.subs" horiz-adv-x="189" 
d="M26 70h137v-61h-137v61z" />
    <glyph glyph-name="zero.numr" horiz-adv-x="256" 
d="M130 654c63 0 102 -34 102 -117v-113c0 -74 -24 -123 -105 -123c-75 0 -103 49 -103 119v118c0 69 32 116 106 116zM128 597c-26 0 -37 -16 -37 -51v-134c0 -38 14 -53 38 -53c27 0 36 19 36 55v132c0 31 -9 51 -37 51z" />
    <glyph glyph-name="one.numr" horiz-adv-x="166" 
d="M124 305h-66v274c-9 -3 -30 -4 -42 -3v47c25 3 46 16 58 30h50v-348z" />
    <glyph glyph-name="two.numr" horiz-adv-x="236" 
d="M213 305h-196v8c0 53 19 96 76 154c44 46 55 55 55 85c0 23 -4 48 -33 48c-30 0 -36 -23 -36 -52v-14h-63v13c0 42 13 107 102 107c70 0 98 -43 98 -103c0 -52 -27 -72 -63 -110c-26 -27 -49 -47 -59 -80h129z" />
    <glyph glyph-name="three.numr" horiz-adv-x="247" 
d="M14 408h66v-2c0 -31 13 -52 42 -52c27 0 41 18 41 52c0 42 -20 53 -52 53h-21v57h19c34 0 44 13 44 41c0 22 -6 43 -34 43c-25 0 -36 -19 -36 -47v-2h-63v2c0 57 32 101 101 101s98 -40 98 -93c0 -44 -24 -63 -43 -70c24 -10 54 -28 54 -84c0 -61 -37 -106 -109 -106
c-75 0 -107 47 -107 103v4z" />
    <glyph glyph-name="four.numr" horiz-adv-x="251" 
d="M203 305h-62v87h-125v49l107 209h80v-203h36l-5 -55h-31v-87zM79 447h62v53c0 20 0 66 2 87h-1c-10 -29 -35 -79 -63 -140z" />
    <glyph glyph-name="five.numr" horiz-adv-x="255" 
d="M222 650l-8 -55h-110c-2 -16 -6 -59 -8 -76c10 10 28 17 52 17c60 0 86 -42 86 -112c0 -66 -26 -123 -109 -123c-73 0 -104 45 -105 102h65c1 -24 10 -47 40 -47c31 0 41 21 41 67c0 45 -12 59 -40 59c-21 0 -34 -10 -43 -31l-56 7c7 48 15 144 19 192h176z" />
    <glyph glyph-name="six.numr" horiz-adv-x="257" 
d="M230 563h-65c-1 17 -4 39 -35 39c-32 0 -39 -28 -39 -75v-18c14 16 33 26 63 26c54 0 84 -35 84 -108c0 -83 -37 -126 -107 -126c-84 0 -107 59 -107 141v67c0 86 24 145 110 145c70 0 96 -43 96 -91zM132 357c30 0 38 27 38 67c0 39 -9 57 -38 57c-27 0 -41 -16 -41 -61
c0 -32 6 -63 41 -63z" />
    <glyph glyph-name="seven.numr" horiz-adv-x="223" 
d="M6 650h200v-50c-45 -70 -86 -177 -102 -295h-74c15 118 72 239 107 286h-131v59z" />
    <glyph glyph-name="eight.numr" horiz-adv-x="257" 
d="M126 301c-61 0 -105 34 -105 103c0 49 26 68 47 79c-20 13 -38 34 -38 76c0 55 31 95 100 95c61 0 97 -34 97 -95c0 -42 -18 -62 -38 -74c22 -10 47 -31 47 -82c0 -64 -38 -102 -110 -102zM129 599c-25 0 -35 -17 -35 -40v-2c0 -23 7 -46 35 -46c22 0 34 12 34 45v2
c0 25 -9 41 -34 41zM130 357c25 0 39 17 39 48v2c0 36 -15 50 -40 50s-40 -15 -40 -49v-1c0 -28 10 -50 41 -50z" />
    <glyph glyph-name="nine.numr" horiz-adv-x="259" 
d="M26 394h67c2 -19 6 -39 36 -39c33 0 39 35 39 87v16c-11 -17 -30 -29 -62 -29c-47 0 -86 30 -86 101v8c0 79 49 116 107 116c81 0 108 -56 108 -135v-74c0 -97 -29 -144 -110 -144c-67 0 -98 38 -99 93zM128 596c-31 0 -40 -25 -40 -54v-8c0 -28 9 -50 39 -50
c27 0 41 18 41 52v8c0 22 -5 52 -40 52z" />
    <glyph glyph-name="parenleft.numr" horiz-adv-x="171" 
d="M96 724h62c-32 -60 -61 -143 -61 -255s29 -193 61 -251h-62c-27 41 -63 127 -63 251c0 126 35 207 63 255z" />
    <glyph glyph-name="parenright.numr" horiz-adv-x="171" 
d="M74 218h-62c32 60 61 143 61 254c0 112 -29 194 -61 252h62c27 -41 63 -127 63 -252s-35 -206 -63 -254z" />
    <glyph glyph-name="period.numr" horiz-adv-x="112" 
d="M91 305h-70v93h70v-93z" />
    <glyph glyph-name="comma.numr" horiz-adv-x="132" 
d="M81 230h-65c14 42 25 95 25 168h70c0 -67 -14 -135 -30 -168z" />
    <glyph glyph-name="dollar.numr" horiz-adv-x="252" 
d="M154 266h-55v41c-59 9 -85 50 -85 104h65c2 -31 13 -53 49 -53c26 0 36 18 36 38c0 27 -9 40 -51 55c-71 24 -92 56 -92 104c0 51 27 86 78 93v35h55v-36c56 -12 75 -53 74 -96h-65c-1 22 -7 48 -41 48c-24 0 -34 -16 -34 -36c0 -25 12 -34 52 -49c72 -25 95 -52 95 -111
c0 -49 -22 -87 -81 -96v-41z" />
    <glyph glyph-name="cent.numr" horiz-adv-x="242" 
d="M158 429h63c0 -51 -19 -87 -68 -97v-41h-54v42c-52 10 -73 51 -73 121v53c0 64 25 101 73 111v37h54v-36c57 -11 69 -59 69 -96h-63c-1 34 -9 48 -35 48s-34 -25 -34 -61v-59c0 -48 9 -71 35 -71s33 21 33 49z" />
    <glyph glyph-name="hyphen.numr" horiz-adv-x="189" 
d="M26 508h137v-61h-137v61z" />
    <glyph glyph-name="zero.dnom" horiz-adv-x="256" 
d="M130 349c63 0 102 -34 102 -117v-113c0 -74 -24 -123 -105 -123c-75 0 -103 49 -103 119v118c0 69 32 116 106 116zM128 292c-26 0 -37 -16 -37 -51v-134c0 -38 14 -53 38 -53c27 0 36 19 36 55v132c0 31 -9 51 -37 51z" />
    <glyph glyph-name="one.dnom" horiz-adv-x="166" 
d="M124 0h-66v274c-9 -3 -30 -4 -42 -3v47c25 3 46 16 58 30h50v-348z" />
    <glyph glyph-name="two.dnom" horiz-adv-x="236" 
d="M213 0h-196v8c0 53 19 96 76 154c44 46 55 55 55 85c0 23 -4 48 -33 48c-30 0 -36 -23 -36 -52v-14h-63v13c0 42 13 107 102 107c70 0 98 -43 98 -103c0 -52 -27 -72 -63 -110c-26 -27 -49 -47 -59 -80h129z" />
    <glyph glyph-name="three.dnom" horiz-adv-x="247" 
d="M14 103h66v-2c0 -31 13 -52 42 -52c27 0 41 18 41 52c0 42 -20 53 -52 53h-21v57h19c34 0 44 13 44 41c0 22 -6 43 -34 43c-25 0 -36 -19 -36 -47v-2h-63v2c0 57 32 101 101 101s98 -40 98 -93c0 -44 -24 -63 -43 -70c24 -10 54 -28 54 -84c0 -61 -37 -106 -109 -106
c-75 0 -107 47 -107 103v4z" />
    <glyph glyph-name="four.dnom" horiz-adv-x="251" 
d="M203 0h-62v87h-125v49l107 209h80v-203h36l-5 -55h-31v-87zM79 142h62v53c0 20 0 66 2 87h-1c-10 -29 -35 -79 -63 -140z" />
    <glyph glyph-name="five.dnom" horiz-adv-x="255" 
d="M222 345l-8 -55h-110c-2 -16 -6 -59 -8 -76c10 10 28 17 52 17c60 0 86 -42 86 -112c0 -66 -26 -123 -109 -123c-73 0 -104 45 -105 102h65c1 -24 10 -47 40 -47c31 0 41 21 41 67c0 45 -12 59 -40 59c-21 0 -34 -10 -43 -31l-56 7c7 48 15 144 19 192h176z" />
    <glyph glyph-name="six.dnom" horiz-adv-x="257" 
d="M230 258h-65c-1 17 -4 39 -35 39c-32 0 -39 -28 -39 -75v-18c14 16 33 26 63 26c54 0 84 -35 84 -108c0 -83 -37 -126 -107 -126c-84 0 -107 59 -107 141v67c0 86 24 145 110 145c70 0 96 -43 96 -91zM132 52c30 0 38 27 38 67c0 39 -9 57 -38 57c-27 0 -41 -16 -41 -61
c0 -32 6 -63 41 -63z" />
    <glyph glyph-name="seven.dnom" horiz-adv-x="223" 
d="M6 345h200v-50c-45 -70 -86 -177 -102 -295h-74c15 118 72 239 107 286h-131v59z" />
    <glyph glyph-name="eight.dnom" horiz-adv-x="257" 
d="M126 -4c-61 0 -105 34 -105 103c0 49 26 68 47 79c-20 13 -38 34 -38 76c0 55 31 95 100 95c61 0 97 -34 97 -95c0 -42 -18 -62 -38 -74c22 -10 47 -31 47 -82c0 -64 -38 -102 -110 -102zM129 294c-25 0 -35 -17 -35 -40v-2c0 -23 7 -46 35 -46c22 0 34 12 34 45v2
c0 25 -9 41 -34 41zM130 52c25 0 39 17 39 48v2c0 36 -15 50 -40 50s-40 -15 -40 -49v-1c0 -28 10 -50 41 -50z" />
    <glyph glyph-name="nine.dnom" horiz-adv-x="259" 
d="M26 89h67c2 -19 6 -39 36 -39c33 0 39 35 39 87v16c-11 -17 -30 -29 -62 -29c-47 0 -86 30 -86 101v8c0 79 49 116 107 116c81 0 108 -56 108 -135v-74c0 -97 -29 -144 -110 -144c-67 0 -98 38 -99 93zM128 291c-31 0 -40 -25 -40 -54v-8c0 -28 9 -50 39 -50
c27 0 41 18 41 52v8c0 22 -5 52 -40 52z" />
    <glyph glyph-name="parenleft.dnom" horiz-adv-x="171" 
d="M96 419h62c-32 -60 -61 -143 -61 -255s29 -193 61 -251h-62c-27 41 -63 127 -63 251c0 126 35 207 63 255z" />
    <glyph glyph-name="parenright.dnom" horiz-adv-x="171" 
d="M74 -87h-62c32 60 61 143 61 254c0 112 -29 194 -61 252h62c27 -41 63 -127 63 -252s-35 -206 -63 -254z" />
    <glyph glyph-name="period.dnom" horiz-adv-x="112" 
d="M91 0h-70v93h70v-93z" />
    <glyph glyph-name="comma.dnom" horiz-adv-x="132" 
d="M81 -75h-65c14 42 25 95 25 168h70c0 -67 -14 -135 -30 -168z" />
    <glyph glyph-name="dollar.dnom" horiz-adv-x="252" 
d="M154 -39h-55v41c-59 9 -85 50 -85 104h65c2 -31 13 -53 49 -53c26 0 36 18 36 38c0 27 -9 40 -51 55c-71 24 -92 56 -92 104c0 51 27 86 78 93v35h55v-36c56 -12 75 -53 74 -96h-65c-1 22 -7 48 -41 48c-24 0 -34 -16 -34 -36c0 -25 12 -34 52 -49c72 -25 95 -52 95 -111
c0 -49 -22 -87 -81 -96v-41z" />
    <glyph glyph-name="cent.dnom" horiz-adv-x="242" 
d="M158 124h63c0 -51 -19 -87 -68 -97v-41h-54v42c-52 10 -73 51 -73 121v53c0 64 25 101 73 111v37h54v-36c57 -11 69 -59 69 -96h-63c-1 34 -9 48 -35 48s-34 -25 -34 -61v-59c0 -48 9 -71 35 -71s33 21 33 49z" />
    <glyph glyph-name="hyphen.dnom" horiz-adv-x="189" 
d="M26 203h137v-61h-137v61z" />
    <glyph glyph-name="ordfeminine" unicode="&#xaa;" horiz-adv-x="247" 
d="M124 628c62 0 93 -29 93 -84v-177c0 -24 1 -50 3 -62h-59c-3 9 -4 21 -4 30c-16 -26 -38 -36 -64 -36c-53 0 -77 42 -77 94c0 70 46 102 119 103h17v40c0 27 -6 42 -31 42c-21 0 -32 -13 -32 -47v-2h-61v4c0 60 28 95 96 95zM81 398c0 -22 11 -42 33 -42
c27 0 39 21 39 64v27c-6 1 -14 1 -18 1c-33 0 -54 -12 -54 -50z" />
    <glyph glyph-name="ordmasculine" unicode="&#xba;" horiz-adv-x="245" 
d="M124 628c65 0 100 -47 100 -120v-84c0 -80 -30 -125 -103 -125c-65 0 -100 38 -100 123v88c0 69 33 118 103 118zM122 571c-29 0 -37 -24 -37 -59v-98c0 -36 10 -58 38 -58c29 0 37 22 37 59v98c0 35 -7 58 -38 58z" />
    <glyph glyph-name="a.sups" horiz-adv-x="247" 
d="M124 628c62 0 93 -29 93 -84v-177c0 -24 1 -50 3 -62h-59c-3 9 -4 21 -4 30c-16 -26 -38 -36 -64 -36c-53 0 -77 42 -77 94c0 70 46 102 119 103h17v40c0 27 -6 42 -31 42c-21 0 -32 -13 -32 -47v-2h-61v4c0 60 28 95 96 95zM81 398c0 -22 11 -42 33 -42
c27 0 39 21 39 64v27c-6 1 -14 1 -18 1c-33 0 -54 -12 -54 -50z" />
    <glyph glyph-name="b.sups" horiz-adv-x="257" 
d="M91 304h-61c1 20 1 49 1 83v351h63v-147c12 21 32 36 65 36c55 0 77 -44 77 -115v-91c0 -63 -18 -122 -84 -122c-33 0 -50 17 -59 37c0 -11 -1 -24 -2 -32zM171 430v81c0 34 -10 57 -37 57c-28 0 -41 -23 -41 -67v-68c0 -37 4 -74 39 -74c34 0 39 39 39 71z" />
    <glyph glyph-name="c.sups" horiz-adv-x="225" 
d="M150 414h63v-5c0 -67 -29 -110 -95 -110c-72 0 -97 41 -97 129v82c0 55 17 118 100 118c72 0 92 -52 92 -104v-10h-63v5c0 35 -7 53 -32 53c-24 0 -33 -20 -33 -59v-93c0 -36 4 -64 34 -64c26 0 31 24 31 54v4z" />
    <glyph glyph-name="d.sups" horiz-adv-x="257" 
d="M226 738v-342c0 -30 0 -71 1 -91h-62c-2 9 -3 20 -3 32c-11 -24 -29 -37 -62 -37c-69 0 -79 63 -79 120v93c0 82 37 115 88 115c29 0 46 -13 51 -29v139h66zM85 510v-87c0 -28 2 -64 37 -64c38 0 41 31 41 76v57c0 41 -1 76 -38 76c-32 0 -40 -25 -40 -58z" />
    <glyph glyph-name="e.sups" horiz-adv-x="237" 
d="M220 447h-135v-24c0 -41 6 -69 38 -69c31 0 34 33 34 46v3h60v-3c0 -43 -19 -100 -96 -100c-79 0 -100 54 -100 140v59c0 61 21 129 101 129c78 0 98 -56 98 -135v-46zM85 496h73v19c0 33 -4 59 -36 59c-30 0 -37 -30 -37 -64v-14z" />
    <glyph glyph-name="f.sups" horiz-adv-x="147" 
d="M104 305h-64v263h-34v55h34v31c0 53 17 88 75 88c11 0 23 -1 29 -3v-56c-6 1 -8 1 -15 1c-18 0 -25 -9 -25 -36v-25h43v-55h-43v-263z" />
    <glyph glyph-name="g.sups" horiz-adv-x="259" 
d="M226 526v-194c0 -81 -8 -143 -106 -143c-71 0 -97 42 -97 91h64c1 -24 13 -39 38 -39c34 0 38 30 38 72v31c-10 -21 -31 -33 -59 -33c-61 0 -83 45 -83 118v73c0 75 29 126 88 126c35 0 52 -17 59 -36c1 10 2 23 4 31h56c-1 -19 -2 -54 -2 -97zM85 505v-76
c0 -38 9 -61 37 -61c36 0 42 36 42 83v44c0 40 -3 73 -39 73c-29 0 -40 -24 -40 -63z" />
    <glyph glyph-name="h.sups" horiz-adv-x="260" 
d="M31 305v433h64v-145c8 15 26 35 63 35c40 0 71 -19 71 -91v-232h-64v219c0 25 -6 44 -33 44c-31 0 -37 -23 -37 -65v-198h-64z" />
    <glyph glyph-name="i.sups" horiz-adv-x="126" 
d="M95 305h-64v317h64v-317zM95 663h-64v75h64v-75z" />
    <glyph glyph-name="j.sups" horiz-adv-x="126" 
d="M95 663h-64v75h64v-75zM-8 190l1 58c3 0 7 -1 15 -1c18 0 23 12 23 45v331h64v-317c0 -69 -9 -117 -78 -117c-6 0 -13 0 -25 1z" />
    <glyph glyph-name="k.sups" horiz-adv-x="236" 
d="M95 738v-257c16 34 51 99 72 142h69c-24 -43 -46 -75 -70 -118c26 -65 50 -123 78 -200h-71c-17 49 -37 104 -53 145c-6 -11 -18 -30 -25 -41v-104h-64v433h64z" />
    <glyph glyph-name="l.sups" horiz-adv-x="127" 
d="M95 305h-64v433h64v-433z" />
    <glyph glyph-name="m.sups" horiz-adv-x="384" 
d="M30 623h59c2 -8 4 -19 4 -30c10 15 28 35 64 35c32 0 47 -11 58 -37c11 17 32 37 68 37c38 0 70 -20 70 -95v-228h-63v217c0 29 -4 49 -31 49c-28 0 -36 -21 -36 -57v-209h-62v218c0 30 -5 48 -32 48s-35 -21 -35 -58v-208h-63v214c0 67 -1 89 -1 104z" />
    <glyph glyph-name="n.sups" unicode="&#x207f;" horiz-adv-x="260" 
d="M31 305v212c0 67 0 82 -1 106h61c1 -6 2 -17 3 -34c9 19 25 39 64 39c37 0 71 -18 71 -92v-231h-64v218c0 30 -8 47 -32 47c-30 0 -38 -22 -38 -67v-198h-64z" />
    <glyph glyph-name="o.sups" horiz-adv-x="245" 
d="M124 628c65 0 100 -47 100 -120v-84c0 -80 -30 -125 -103 -125c-65 0 -100 38 -100 123v88c0 69 33 118 103 118zM122 571c-29 0 -37 -24 -37 -59v-98c0 -36 10 -58 38 -58c29 0 37 22 37 59v98c0 35 -7 58 -38 58z" />
    <glyph glyph-name="p.sups" horiz-adv-x="257" 
d="M31 195v333c0 31 -1 82 -1 95h59c1 -7 3 -23 3 -35c11 21 34 39 67 39c56 0 77 -44 77 -124v-84c0 -62 -19 -120 -86 -120c-30 0 -48 15 -56 31v-135h-63zM172 428v82c0 37 -11 58 -38 58c-29 0 -41 -28 -41 -67v-71c0 -45 10 -71 40 -71c31 0 39 29 39 69z" />
    <glyph glyph-name="q.sups" horiz-adv-x="259" 
d="M163 193v141c-11 -23 -28 -34 -61 -34c-50 0 -79 39 -79 123v88c0 77 33 117 86 117c37 0 53 -19 60 -35c1 9 2 22 5 29h57c-1 -20 -2 -53 -2 -84v-345h-66zM88 510v-90c0 -37 9 -61 38 -61c40 0 40 50 40 90v33c0 48 -2 86 -38 86c-30 0 -40 -21 -40 -58z" />
    <glyph glyph-name="r.sups" horiz-adv-x="178" 
d="M31 305v209c0 53 0 86 -2 109h62c1 -9 3 -29 3 -52c14 41 44 57 77 57v-74c-47 1 -76 -23 -76 -81v-168h-64z" />
    <glyph glyph-name="s.sups" horiz-adv-x="221" 
d="M17 402h59v-5c0 -33 15 -46 35 -46c22 0 31 11 31 34c0 22 -10 37 -39 50c-66 29 -82 58 -82 103c0 56 35 90 91 90c57 0 89 -32 89 -88v-10h-59v5c0 25 -9 41 -31 41c-19 0 -29 -11 -29 -32s11 -30 37 -43c67 -31 87 -55 87 -107c0 -56 -31 -95 -95 -95
c-52 0 -94 23 -94 95v8z" />
    <glyph glyph-name="t.sups" horiz-adv-x="156" 
d="M3 623h34v82h64v-82h46v-56h-46v-185c0 -19 8 -25 25 -25c7 0 14 0 20 1v-54c-11 -4 -25 -5 -39 -5c-50 0 -70 19 -70 76v192h-34v56z" />
    <glyph glyph-name="u.sups" horiz-adv-x="255" 
d="M228 623v-212c0 -68 0 -90 1 -106h-62c-1 8 -3 22 -3 32c-10 -21 -25 -37 -63 -37c-37 0 -70 22 -70 90v233h64v-209c0 -35 6 -57 32 -57c29 0 37 22 37 71v195h64z" />
    <glyph glyph-name="v.sups" horiz-adv-x="233" 
d="M7 623h67c15 -78 34 -179 43 -246h1c5 46 24 151 45 246h63l-72 -318h-75z" />
    <glyph glyph-name="w.sups" horiz-adv-x="366" 
d="M10 623h68c22 -139 30 -201 34 -236h2c5 45 15 99 38 236h67c27 -147 35 -199 38 -237h1c4 39 12 93 34 237h64l-66 -318h-66c-20 99 -35 181 -40 231h-1c-7 -46 -23 -130 -43 -231h-66z" />
    <glyph glyph-name="x.sups" horiz-adv-x="224" 
d="M2 623h70c22 -55 35 -92 41 -108h1c8 22 22 56 42 108h65l-68 -150l70 -168h-69c-24 62 -37 103 -43 120h-1c-5 -16 -19 -60 -42 -120h-67l70 161z" />
    <glyph glyph-name="y.sups" horiz-adv-x="235" 
d="M5 622h71c19 -92 36 -189 42 -232h1c7 46 28 144 47 232h65c-10 -34 -55 -221 -81 -318c-24 -95 -49 -110 -100 -110c-9 0 -26 2 -33 3v57c9 -1 20 -1 23 -1c23 0 35 10 44 55z" />
    <glyph glyph-name="z.sups" horiz-adv-x="206" 
d="M9 305v43c14 25 73 146 111 219h-104v55h176v-43c-9 -20 -79 -160 -108 -218h112l-7 -56h-180z" />
    <glyph glyph-name="egrave.sups" horiz-adv-x="237" 
d="M21 735h78l61 -78h-60zM220 447h-135v-24c0 -41 6 -69 38 -69c31 0 34 33 34 46v3h60v-3c0 -43 -19 -100 -96 -100c-79 0 -100 54 -100 140v59c0 61 21 129 101 129c78 0 98 -56 98 -135v-46zM85 496h73v19c0 33 -4 59 -36 59c-30 0 -37 -30 -37 -64v-14z" />
    <glyph glyph-name="eacute.sups" horiz-adv-x="237" 
d="M150 735h80l-85 -78h-60zM220 447h-135v-24c0 -41 6 -69 38 -69c31 0 34 33 34 46v3h60v-3c0 -43 -19 -100 -96 -100c-79 0 -100 54 -100 140v59c0 61 21 129 101 129c78 0 98 -56 98 -135v-46zM85 496h73v19c0 33 -4 59 -36 59c-30 0 -37 -30 -37 -64v-14z" />
    <glyph glyph-name="currency" unicode="&#xa4;" horiz-adv-x="360" 
d="M179 432c-38 0 -58 -31 -58 -101v-17c0 -66 21 -101 59 -101s56 31 56 101v17c0 66 -16 101 -57 101zM182 502c26 0 51 -7 71 -22l47 50l51 -51l-54 -58c9 -23 14 -52 14 -87v-24c0 -33 -5 -61 -14 -83l54 -57l-51 -53l-47 50c-22 -17 -49 -25 -76 -25
c-26 0 -51 8 -72 24l-46 -49l-52 53l55 58c-8 23 -13 52 -13 85v18c0 35 5 65 15 89l-57 59l51 51l49 -52c22 16 48 24 75 24z" />
    <glyph glyph-name="dollar" unicode="$" horiz-adv-x="349" 
d="M207 -70h-71v71c-91 12 -117 81 -117 162v18h88v-23c0 -51 14 -86 63 -86c46 0 61 31 61 90c0 61 -14 95 -81 136c-81 50 -124 92 -124 193c0 91 38 145 110 157v54h71v-55c89 -15 105 -82 105 -150v-17h-89v16c0 43 -8 83 -54 83c-36 0 -55 -23 -55 -77
c1 -53 16 -78 84 -121c90 -55 122 -102 122 -208c0 -100 -32 -157 -113 -171v-72z" />
    <glyph glyph-name="sterling" unicode="&#xa3;" horiz-adv-x="366" 
d="M334 0h-310v70c43 27 59 88 59 174c0 20 0 39 -1 57h-65v73h61c-3 43 -6 83 -6 124c0 101 39 160 134 160c106 0 132 -69 132 -155v-22h-87v20c0 50 -8 78 -45 78s-45 -30 -45 -81c0 -32 4 -78 7 -124h96v-73h-92v-25c0 -76 -7 -150 -42 -199h213z" />
    <glyph glyph-name="yen" unicode="&#xa5;" horiz-adv-x="337" 
d="M295 180h-85v-180h-89v180h-81v55h81v48h-81v55h72l-117 312h98c60 -178 71 -225 77 -251h1c6 26 17 79 71 251h96l-119 -312h76v-55h-85v-48h85v-55z" />
    <glyph glyph-name="Euro" unicode="&#x20ac;" horiz-adv-x="375" 
d="M270 175h85v-5c0 -101 -33 -178 -148 -178c-131 0 -144 105 -144 188v77h-44v53h44v48h-44v52h44v65c0 76 23 183 147 183c122 0 142 -92 142 -166v-15h-84v13c0 45 -6 86 -57 86c-42 0 -57 -34 -57 -91v-75h134v-52h-134v-48h134v-53h-134v-84c0 -64 14 -100 59 -100
s57 36 57 96v6z" />
    <glyph glyph-name="cent" unicode="&#xa2;" horiz-adv-x="337" 
d="M223 254h88v-10c0 -85 -20 -143 -94 -159v-69h-80v68c-77 14 -102 76 -102 164v160c0 91 32 147 102 162v59h80v-59c83 -16 95 -86 95 -148v-16h-89v16c0 51 -9 78 -48 78c-37 0 -49 -35 -49 -86v-170c0 -53 11 -87 49 -87c35 0 48 20 48 80v17z" />
    <glyph glyph-name="florin" unicode="&#x192;" horiz-adv-x="341" 
d="M334 657l-19 -74c-11 5 -28 8 -38 8c-29 0 -40 -26 -47 -81l-12 -88h72v-74h-81l-36 -271c-15 -112 -44 -160 -120 -160c-31 0 -57 7 -70 16l17 78c13 -7 30 -10 41 -11c28 1 33 18 40 66l39 282h-61v74h72l11 82c12 90 38 167 126 167c29 0 56 -5 66 -14z" />
    <glyph glyph-name="colonmonetary" unicode="&#x20a1;" horiz-adv-x="357" 
d="M244 200h85v-5c0 -82 -10 -152 -72 -180v-80h-55v67c-6 -1 -12 -1 -18 -1h-9v-66h-55v76c-76 27 -83 108 -83 185v275c0 86 25 143 83 166v67h55v-55h13h14v55h55v-67c62 -27 69 -96 69 -176v-10h-84v12c0 65 -5 105 -54 105c-46 0 -60 -34 -60 -92v-288
c0 -74 15 -107 61 -107c48 0 55 41 55 100v19z" />
    <glyph glyph-name="lira" unicode="&#x20a4;" horiz-adv-x="366" 
d="M334 0h-310v70c43 27 59 88 59 174v7h-65v51h64c-1 17 -2 34 -3 50h-61v52h58c-2 32 -4 63 -4 94c0 101 39 160 134 160c106 0 132 -69 132 -155v-19h-87v22c0 50 -8 77 -45 77s-45 -29 -45 -80c0 -26 2 -61 5 -99h97v-52h-94c1 -17 2 -34 3 -50h91v-51h-91
c-2 -67 -11 -130 -42 -174h213z" />
    <glyph glyph-name="franc" unicode="&#x20a3;" horiz-adv-x="327" 
d="M63 0v142h-54v62h54v446h249v-79h-160v-176h148v-78h-148v-113h79v-62h-79v-142h-89z" />
    <glyph glyph-name="uni20A6" unicode="&#x20a6;" horiz-adv-x="365" 
d="M111 539c2 -38 4 -76 5 -116h22l-22 116h-5zM246 143h6c-3 43 -6 84 -8 127h-22zM119 0h-72v270h-37v51h37v50h-37v52h37v227h104l43 -227h47v2v225h73v-227h36v-52h-36v-50h36v-51h-36v-270h-96l-51 270h-48v-33v-237zM243 321c-1 16 -1 33 -2 50h-38l10 -50h30z
M157 321l-9 50h-30v-50h39z" />
    <glyph glyph-name="peseta" unicode="&#x20a7;" horiz-adv-x="365" 
d="M55 0v430h-35v62h35v158h110c111 0 158 -51 158 -158h29v-62h-29c-3 -112 -52 -159 -156 -159h-23v-271h-89zM143 578v-86h91v6c0 58 -16 80 -68 80h-23zM143 343h19c55 0 72 28 72 87h-91v-87z" />
    <glyph glyph-name="dong" unicode="&#x20ab;" horiz-adv-x="365" 
d="M45 -58h272v-62h-272v62zM229 461v89h-120v63h120v54h89v-54h47v-63h-47v-411c0 -57 1 -108 2 -139h-83c-3 13 -4 38 -5 51c-16 -39 -44 -59 -90 -59c-82 0 -111 65 -111 162v186c0 100 42 162 119 162c42 0 67 -18 79 -41zM121 335v-174c0 -57 15 -85 52 -85
c49 0 57 53 57 104v143c0 48 -4 93 -54 93c-41 0 -55 -32 -55 -81z" />
    <glyph glyph-name="dong.alt" horiz-adv-x="365" 
d="M229 461v89h-120v63h120v54h89v-54h47v-63h-47v-411c0 -57 1 -108 2 -139h-83c-3 13 -4 38 -5 51c-16 -39 -44 -59 -90 -59c-82 0 -111 65 -111 162v186c0 100 42 162 119 162c42 0 67 -18 79 -41zM121 335v-174c0 -57 15 -85 52 -85c49 0 57 53 57 104v143
c0 48 -4 93 -54 93c-41 0 -55 -32 -55 -81z" />
    <glyph glyph-name="uni20B1" unicode="&#x20b1;" horiz-adv-x="388" 
d="M65 0v386h-44v46h44v44h-44v47h44v127h115c101 0 145 -48 152 -127h41v-47h-40v-44h40v-46h-41c-9 -85 -54 -130 -150 -130h-27v-256h-90zM155 580v-57h90c-5 34 -22 57 -65 57h-25zM155 328h22c44 0 62 23 68 58h-90v-58zM247 432v44h-92v-44h92z" />
    <glyph glyph-name="uni20B2" unicode="&#x20b2;" horiz-adv-x="365" 
d="M331 347v-322c-22 -7 -62 -19 -107 -23v-72h-71v73c-107 17 -119 107 -119 211v251c0 103 34 170 119 184v53h71v-54c93 -16 108 -94 108 -173v-16h-89v25c0 58 -12 91 -58 91c-52 0 -60 -42 -60 -95v-264c0 -99 16 -138 79 -138c12 0 26 3 38 7v262h89z" />
    <glyph glyph-name="uni20B4" unicode="&#x20b4;" horiz-adv-x="357" 
d="M129 493h-85v5c0 96 34 160 132 160c86 0 132 -45 132 -149c0 -43 -8 -76 -22 -106h43v-50h-76c-12 -16 -26 -31 -42 -48h103v-50h-147c-32 -41 -39 -68 -39 -109c0 -46 17 -79 52 -79c42 0 55 36 55 90v10h86v-8c0 -113 -46 -167 -144 -167c-85 0 -137 46 -137 153
c0 45 8 78 25 110h-42v50h78c13 16 29 32 44 48h-107v50h150c26 36 32 66 31 108c-1 44 -10 73 -45 73c-32 0 -45 -26 -45 -72v-19z" />
    <glyph glyph-name="uni20B5" unicode="&#x20b5;" horiz-adv-x="353" 
d="M244 197h85v-5c0 -92 -14 -173 -109 -188v-72h-70v71c-105 17 -113 111 -113 200v265c0 99 33 163 113 178v56h70v-55c95 -14 106 -94 106 -181v-11h-84v15c0 60 -6 102 -54 102c-46 0 -60 -36 -60 -95v-285c0 -74 15 -114 61 -114c48 0 55 45 55 99v20z" />
    <glyph glyph-name="uni20B9" unicode="&#x20b9;" horiz-adv-x="361" 
d="M32 586v64h302v-52h-99c14 -15 25 -34 31 -58h68v-52h-61v-4v-21c0 -90 -36 -145 -109 -167l145 -296h-99l-139 285h-39v76h45c76 0 107 24 107 103v20v4h-152v52h144c-13 34 -43 46 -98 46h-46z" />
    <glyph glyph-name="uni20BA" unicode="&#x20ba;" horiz-adv-x="375" 
d="M161 0h-86v287l-65 -28v64l65 28v55l-65 -28v65l65 28v179h89v-140l93 40v-65l-93 -40v-55l93 40v-64l-93 -40v-245c69 0 101 41 105 151h81c-2 -117 -39 -232 -189 -232z" />
    <glyph glyph-name="uni20BD" unicode="&#x20bd;" horiz-adv-x="372" 
d="M66 0v195h-55v62h55v51h-55v66h55v276h119c135 0 162 -71 162 -149v-34c0 -98 -36 -159 -163 -159h-30v-51h91v-62h-91v-195h-88zM154 578v-204h30c65 0 75 37 75 91v33c0 50 -14 80 -72 80h-33z" />
    <glyph glyph-name="currency.tab" horiz-adv-x="357" 
d="M178 432c-38 0 -58 -31 -58 -101v-17c0 -66 21 -101 59 -101s56 31 56 101v17c0 66 -16 101 -57 101zM181 502c26 0 51 -7 71 -22l47 50l51 -51l-54 -58c9 -23 14 -52 14 -87v-24c0 -33 -5 -61 -14 -83l54 -57l-51 -53l-47 50c-22 -17 -49 -25 -76 -25
c-26 0 -51 8 -72 24l-46 -49l-52 53l55 58c-8 23 -13 52 -13 85v18c0 35 5 65 15 89l-57 59l51 51l49 -52c22 16 48 24 75 24z" />
    <glyph glyph-name="dollar.tab" horiz-adv-x="357" 
d="M216 -70h-71v71c-91 12 -117 81 -117 162v18h88v-23c0 -51 14 -86 63 -86c46 0 61 31 61 90c0 61 -14 95 -81 136c-81 50 -124 92 -124 193c0 91 38 145 110 157v54h71v-55c89 -15 105 -82 105 -150v-17h-89v16c0 43 -8 83 -54 83c-36 0 -55 -23 -55 -77
c1 -53 16 -78 84 -121c90 -55 122 -102 122 -208c0 -100 -32 -157 -113 -171v-72z" />
    <glyph glyph-name="sterling.tab" horiz-adv-x="357" 
d="M333 0h-310v70c43 27 59 88 59 174c0 20 0 39 -1 57h-65v73h61c-3 43 -6 83 -6 124c0 101 39 160 134 160c106 0 132 -69 132 -155v-22h-87v20c0 50 -8 78 -45 78s-45 -30 -45 -81c0 -32 4 -78 7 -124h96v-73h-92v-25c0 -76 -7 -150 -42 -199h213z" />
    <glyph glyph-name="yen.tab" horiz-adv-x="357" 
d="M306 180h-85v-180h-89v180h-81v55h81v48h-81v55h72l-117 312h98c60 -178 71 -225 77 -251h1c6 26 17 79 71 251h96l-119 -312h76v-55h-85v-48h85v-55z" />
    <glyph glyph-name="Euro.tab" horiz-adv-x="357" 
d="M255 175h85v-5c0 -101 -33 -178 -148 -178c-131 0 -144 105 -144 188v77h-44v53h44v48h-44v52h44v65c0 76 23 183 147 183c122 0 142 -92 142 -166v-15h-84v13c0 45 -6 86 -57 86c-42 0 -57 -34 -57 -91v-75h134v-52h-134v-48h134v-53h-134v-84c0 -64 14 -100 59 -100
s57 36 57 96v6z" />
    <glyph glyph-name="cent.tab" horiz-adv-x="357" 
d="M228 254h88v-10c0 -85 -20 -143 -94 -159v-69h-80v68c-77 14 -102 76 -102 164v160c0 91 32 147 102 162v59h80v-59c83 -16 95 -86 95 -148v-16h-89v16c0 51 -9 78 -48 78c-37 0 -49 -35 -49 -86v-170c0 -53 11 -87 49 -87c35 0 48 20 48 80v17z" />
    <glyph glyph-name="florin.tab" horiz-adv-x="357" 
d="M349 656l-19 -74c-11 5 -28 8 -38 8c-29 0 -40 -26 -47 -81l-12 -88h72v-74h-81l-36 -271c-15 -112 -44 -160 -120 -160c-31 0 -57 7 -70 16l17 78c13 -7 30 -10 41 -11c28 1 33 18 40 66l39 282h-61v74h72l11 82c12 90 38 167 126 167c29 0 56 -5 66 -14z" />
    <glyph glyph-name="colonmonetary.tab" horiz-adv-x="357" 
d="M239 200h85v-5c0 -82 -10 -152 -72 -180v-80h-55v67c-6 -1 -12 -1 -18 -1h-9v-66h-55v76c-76 27 -83 108 -83 185v275c0 86 25 143 83 166v67h55v-55h13h14v55h55v-67c62 -27 69 -96 69 -176v-10h-84v12c0 65 -5 105 -54 105c-46 0 -60 -34 -60 -92v-288
c0 -74 15 -107 61 -107c48 0 55 41 55 100v19z" />
    <glyph glyph-name="lira.tab" horiz-adv-x="357" 
d="M330 0h-310v70c43 27 59 88 59 174v7h-65v51h64c-1 17 -2 34 -3 50h-61v52h58c-2 32 -4 63 -4 94c0 101 39 160 134 160c106 0 132 -69 132 -155v-19h-87v22c0 50 -8 77 -45 77s-45 -29 -45 -80c0 -26 2 -61 5 -99h97v-52h-94c1 -17 2 -34 3 -50h91v-51h-91
c-2 -67 -11 -130 -42 -174h213z" />
    <glyph glyph-name="franc.tab" horiz-adv-x="357" 
d="M77 0v142h-54v62h54v446h249v-79h-160v-176h148v-78h-148v-113h79v-62h-79v-142h-89z" />
    <glyph glyph-name="uni20A6.tab" horiz-adv-x="357" 
d="M104 539c2 -38 4 -76 5 -116h22l-22 116h-5zM239 143h6c-3 43 -6 84 -8 127h-22zM112 0h-72v270h-37v51h37v50h-37v52h37v227h104l43 -227h47v2v225h73v-227h36v-52h-36v-50h36v-51h-36v-270h-96l-51 270h-48v-33v-237zM236 321c-1 16 -1 33 -2 50h-38l10 -50h30z
M150 321l-9 50h-30v-50h39z" />
    <glyph glyph-name="peseta.tab" horiz-adv-x="357" 
d="M45 0v430h-35v62h35v158h110c111 0 158 -51 158 -158h29v-62h-29c-3 -112 -52 -159 -156 -159h-23v-271h-89zM133 578v-86h91v6c0 58 -16 80 -68 80h-23zM133 343h19c55 0 72 28 72 87h-91v-87z" />
    <glyph glyph-name="dong.tab" horiz-adv-x="357" 
d="M37 -58h272v-62h-272v62zM221 461v89h-120v63h120v54h89v-54h47v-63h-47v-411c0 -57 1 -108 2 -139h-83c-3 13 -4 38 -5 51c-16 -39 -44 -59 -90 -59c-82 0 -111 65 -111 162v186c0 100 42 162 119 162c42 0 67 -18 79 -41zM113 335v-174c0 -57 15 -85 52 -85
c49 0 57 53 57 104v143c0 48 -4 93 -54 93c-41 0 -55 -32 -55 -81z" />
    <glyph glyph-name="dong.alttab" horiz-adv-x="357" 
d="M221 461v89h-120v63h120v54h89v-54h47v-63h-47v-411c0 -57 1 -108 2 -139h-83c-3 13 -4 38 -5 51c-16 -39 -44 -59 -90 -59c-82 0 -111 65 -111 162v186c0 100 42 162 119 162c42 0 67 -18 79 -41zM113 335v-174c0 -57 15 -85 52 -85c49 0 57 53 57 104v143
c0 48 -4 93 -54 93c-41 0 -55 -32 -55 -81z" />
    <glyph glyph-name="uni20B1.tab" horiz-adv-x="357" 
d="M37 0v386h-44v46h44v44h-44v47h44v127h115c101 0 145 -48 152 -127h41v-47h-40v-44h40v-46h-41c-9 -85 -54 -130 -150 -130h-27v-256h-90zM127 580v-57h90c-5 34 -22 57 -65 57h-25zM127 328h22c44 0 62 23 68 58h-90v-58zM219 432v44h-92v-44h92z" />
    <glyph glyph-name="uni20B2.tab" horiz-adv-x="357" 
d="M319 347v-322c-22 -7 -62 -19 -107 -23v-72h-71v73c-107 17 -119 107 -119 211v251c0 103 34 170 119 184v53h71v-54c93 -16 108 -94 108 -173v-16h-89v25c0 58 -12 91 -58 91c-52 0 -60 -42 -60 -95v-264c0 -99 16 -138 79 -138c12 0 26 3 38 7v262h89z" />
    <glyph glyph-name="uni20B4.tab" horiz-adv-x="357" 
d="M128 493h-85v5c0 96 34 160 132 160c86 0 132 -45 132 -149c0 -43 -8 -76 -22 -106h43v-50h-76c-12 -16 -26 -31 -42 -48h103v-50h-147c-32 -41 -39 -68 -39 -109c0 -46 17 -79 52 -79c42 0 55 36 55 90v10h86v-8c0 -113 -46 -167 -144 -167c-85 0 -137 46 -137 153
c0 45 8 78 25 110h-42v50h78c13 16 29 32 44 48h-107v50h150c26 36 32 66 31 108c-1 44 -10 73 -45 73c-32 0 -45 -26 -45 -72v-19z" />
    <glyph glyph-name="uni20B5.tab" horiz-adv-x="357" 
d="M243 197h85v-5c0 -92 -14 -173 -109 -188v-72h-70v71c-105 17 -113 111 -113 200v265c0 99 33 163 113 178v56h70v-55c95 -14 106 -94 106 -181v-11h-84v15c0 60 -6 102 -54 102c-46 0 -60 -36 -60 -95v-285c0 -74 15 -114 61 -114c48 0 55 45 55 99v20z" />
    <glyph glyph-name="uni20B9.tab" horiz-adv-x="357" 
d="M34 586v64h302v-52h-99c14 -15 25 -34 31 -58h68v-52h-61v-4v-21c0 -90 -36 -145 -109 -167l145 -296h-99l-139 285h-39v76h45c76 0 107 24 107 103v20v4h-152v52h144c-13 34 -43 46 -98 46h-46z" />
    <glyph glyph-name="uni20BA.tab" horiz-adv-x="357" 
d="M142 0h-86v287l-65 -28v64l65 28v55l-65 -28v65l65 28v179h89v-140l93 40v-65l-93 -40v-55l93 40v-64l-93 -40v-245c69 0 101 41 105 151h81c-2 -117 -39 -232 -189 -232z" />
    <glyph glyph-name="uni20BD.tab" horiz-adv-x="357" 
d="M54 0v195h-55v62h55v51h-55v66h55v276h119c135 0 162 -71 162 -149v-34c0 -98 -36 -159 -163 -159h-30v-51h91v-62h-91v-195h-88zM142 578v-204h30c65 0 75 37 75 91v33c0 50 -14 80 -72 80h-33z" />
    <glyph glyph-name="currency.cap" horiz-adv-x="362" 
d="M179 452c-38 0 -58 -31 -58 -101v-17c0 -66 21 -101 59 -101s56 31 56 101v17c0 66 -16 101 -57 101zM182 522c26 0 51 -7 71 -22l47 50l51 -51l-54 -58c9 -23 14 -52 14 -87v-24c0 -33 -5 -61 -14 -83l54 -57l-51 -53l-47 50c-22 -17 -49 -25 -76 -25
c-26 0 -51 8 -72 24l-46 -49l-52 53l55 58c-8 23 -13 52 -13 85v18c0 35 5 65 15 89l-57 59l51 51l49 -52c22 16 48 24 75 24z" />
    <glyph glyph-name="dollar.cap" horiz-adv-x="357" 
d="M212 -72h-73v72c-94 12 -120 82 -120 163v17h90v-19c0 -51 15 -89 65 -89c49 0 64 34 64 94s-16 96 -84 139c-83 53 -128 99 -128 199c0 91 39 149 113 161v57h73v-57c92 -15 107 -84 107 -155v-14h-89v13c0 49 -10 87 -57 87c-38 0 -58 -29 -57 -82
c1 -56 18 -81 86 -127c92 -61 127 -107 127 -209c0 -103 -32 -164 -117 -177v-73z" />
    <glyph glyph-name="sterling.cap" horiz-adv-x="372" 
d="M343 0h-320v70c42 27 59 90 59 174c0 21 -1 41 -2 61h-64v74h60c-2 46 -5 90 -5 131c0 103 41 166 141 166c106 0 134 -72 134 -161v-16h-86v23c0 48 -15 75 -50 75c-38 0 -49 -31 -49 -78c0 -33 3 -87 6 -140h106v-74h-102v-29c0 -76 -6 -150 -40 -199h221z" />
    <glyph glyph-name="yen.cap" horiz-adv-x="338" 
d="M297 179h-87v-179h-92v179h-83v59h83v49h-83v59h77l-123 322h101c52 -168 70 -229 76 -255h1c8 35 22 86 75 255h99l-125 -322h81v-59h-87v-49h87v-59z" />
    <glyph glyph-name="Euro.cap" horiz-adv-x="390" 
d="M278 177h87v-11c0 -113 -40 -174 -152 -174c-135 0 -148 104 -148 189v88h-47v52h47v49h-47v53h47v72c0 77 19 181 151 181c128 0 146 -89 146 -171v-14h-86v9c0 60 -8 97 -58 97c-44 0 -59 -32 -59 -94v-80h130v-53h-130v-49h130v-52h-130v-85c0 -73 13 -110 59 -110
c43 0 60 26 60 93v10z" />
    <glyph glyph-name="cent.cap" horiz-adv-x="346" 
d="M229 251h91v-4c0 -70 -15 -141 -96 -159v-70h-83v68c-80 16 -105 84 -105 176v155c0 94 31 154 105 169v56h83v-56c85 -17 96 -87 96 -150v-9h-91v7c0 47 -7 80 -48 80c-40 0 -51 -33 -51 -99v-161c0 -63 12 -92 50 -92c37 0 49 26 49 82v7z" />
    <glyph glyph-name="florin.cap" horiz-adv-x="335" 
d="M338 670l-18 -76c-12 5 -29 8 -40 8c-29 0 -41 -26 -48 -83l-12 -89h74v-76h-83l-36 -275c-15 -115 -45 -164 -123 -164c-32 0 -58 8 -72 17l18 80c13 -7 30 -10 41 -11c28 1 34 18 41 67l40 286h-63v76h73l12 84c12 91 39 170 129 170c29 0 57 -5 67 -14z" />
    <glyph glyph-name="colonmonetary.cap" horiz-adv-x="367" 
d="M251 196h87v-8c0 -80 -10 -151 -74 -180v-78h-57v66c-5 -1 -11 -1 -17 -1h-10v-65h-57v76c-75 31 -85 116 -85 198v276c0 86 24 150 85 176v63h57v-50h12h15v50h57v-62c63 -27 71 -94 71 -169v-13h-86v16c0 57 -7 100 -57 100c-45 0 -60 -34 -60 -101v-302
c0 -85 15 -115 63 -115c47 0 56 43 56 104v19z" />
    <glyph glyph-name="lira.cap" horiz-adv-x="371" 
d="M343 0h-320v70c42 27 59 90 59 174v18h-67v51h65c0 15 -1 30 -2 44h-63v52h60c-2 35 -4 69 -4 101c0 103 41 166 141 166c106 0 134 -72 134 -161v-16h-86v23c0 48 -15 75 -50 75c-38 0 -49 -31 -49 -78c0 -27 2 -67 5 -110h96v-52h-94c1 -15 2 -30 2 -44h92v-51h-91
c-1 -71 -8 -139 -40 -185h221z" />
    <glyph glyph-name="franc.cap" horiz-adv-x="336" 
d="M63 0v142h-56v65h56v461h254v-81h-164v-185h152v-81h-152v-114h81v-65h-81v-142h-90z" />
    <glyph glyph-name="uni20A6.cap" horiz-adv-x="376" 
d="M112 554c2 -39 4 -78 5 -119h23l-23 119h-5zM251 147h6c-3 44 -6 86 -8 131h-23zM120 0h-75v278h-37v52h37v51h-37v54h37v233h108l44 -233h49v2v231h74v-233h37v-54h-37l1 -51h36v-52h-36v-278h-99l-53 278h-49v-34v-244zM248 330c-1 16 -1 33 -2 51h-39l10 -51h31z
M159 330l-9 51h-31v-51h40z" />
    <glyph glyph-name="peseta.cap" horiz-adv-x="377" 
d="M52 0v445h-32v64h32v159h114c111 0 157 -50 160 -159h34v-64h-34c-4 -113 -52 -162 -157 -162h-26v-283h-91zM143 595v-86h94v2c0 58 -17 84 -70 84h-24zM143 356h21c55 0 73 30 73 89h-94v-89z" />
    <glyph glyph-name="dong.cap" horiz-adv-x="376" 
d="M49 -56h280v-64h-280v64zM233 472v90h-121v65h121v55h91v-55h48v-65h-48v-420c0 -58 0 -110 2 -142h-84c-3 13 -4 33 -5 52c-16 -40 -45 -60 -92 -60c-84 0 -113 66 -113 165v191c0 102 42 165 120 165c44 0 70 -18 81 -41zM123 347v-184c0 -58 16 -88 53 -88
c50 0 59 55 59 108v150c0 48 -5 95 -56 95c-41 0 -56 -33 -56 -81z" />
    <glyph glyph-name="dong.altcap" horiz-adv-x="376" 
d="M233 472v90h-121v65h121v55h91v-55h48v-65h-48v-420c0 -58 0 -110 2 -142h-84c-3 13 -4 33 -5 52c-16 -40 -45 -60 -92 -60c-84 0 -113 66 -113 165v191c0 102 42 165 120 165c44 0 70 -18 81 -41zM123 347v-184c0 -58 16 -88 53 -88c50 0 59 55 59 108v150
c0 48 -5 95 -56 95c-41 0 -56 -33 -56 -81z" />
    <glyph glyph-name="uni20B1.cap" horiz-adv-x="380" 
d="M55 0v400h-44v47h44v41h-44v47h44v133h116c105 0 151 -50 157 -133h40v-47h-39v-41h39v-47h-41c-8 -86 -55 -132 -153 -132h-28v-268h-91zM146 597v-62h93c-5 37 -22 62 -67 62h-26zM146 341h22c45 0 64 23 71 59h-93v-59zM241 447v41h-95v-41h95z" />
    <glyph glyph-name="uni20B2.cap" horiz-adv-x="378" 
d="M337 356v-330c-23 -7 -62 -20 -107 -24v-74h-72v75c-112 17 -124 113 -124 221v255c0 102 32 174 124 188v53h72v-54c91 -16 108 -93 108 -169v-11h-91v10c0 56 -10 92 -58 92c-53 0 -61 -48 -61 -95v-265c0 -102 15 -144 80 -144c12 0 25 2 37 6v266h92z" />
    <glyph glyph-name="uni20B4.cap" horiz-adv-x="364" 
d="M128 507h-86v11c0 90 36 158 137 158c88 0 136 -48 136 -149c0 -44 -8 -79 -23 -110h44v-52h-78c-12 -16 -27 -33 -43 -50h106v-51h-150c-34 -45 -41 -78 -41 -121c0 -47 18 -76 53 -76c44 0 57 31 57 85v17h88v-5c0 -119 -47 -172 -149 -172c-89 0 -140 51 -140 155
c0 48 9 83 28 117h-45v51h81c13 16 29 33 46 50h-113v52h156c27 40 33 74 32 113c-1 52 -11 74 -47 74c-32 0 -49 -26 -49 -77v-20z" />
    <glyph glyph-name="uni20B5.cap" horiz-adv-x="367" 
d="M251 196h87v-7c0 -94 -14 -176 -112 -191v-68h-71v68c-105 17 -117 115 -117 207v275c0 100 33 170 117 186v52h71v-51c98 -14 109 -91 109 -180v-12h-86v16c0 56 -7 101 -58 101c-46 0 -59 -35 -59 -102v-300c0 -86 15 -117 63 -117s56 44 56 104v19z" />
    <glyph glyph-name="uni20B9.cap" horiz-adv-x="368" 
d="M32 602v66h310v-54h-102c14 -15 24 -34 31 -57h71v-54h-64v-3v-24c0 -92 -37 -148 -112 -171l149 -305h-101l-143 294h-39v77h45c77 0 111 27 111 107v22v3h-156v54h146c-14 33 -47 45 -101 45h-45z" />
    <glyph glyph-name="uni20BA.cap" horiz-adv-x="382" 
d="M168 0h-86v295l-66 -29v64l66 29v56l-66 -29v64l66 29v189h89v-151l92 40v-64l-92 -40v-56l92 40v-64l-92 -40v-252c69 0 101 41 105 151h81c-2 -117 -39 -232 -189 -232z" />
    <glyph glyph-name="uni20BD.cap" horiz-adv-x="385" 
d="M73 0v196h-54v62h54v51h-54v66h54v293h120c135 0 163 -72 163 -149v-49c0 -98 -37 -161 -164 -161h-31v-51h93v-62h-93v-196h-88zM161 596v-221h31c64 0 76 39 76 93v48c0 49 -15 80 -73 80h-34z" />
    <glyph glyph-name="at.cap" horiz-adv-x="599" 
d="M425 2l19 -56c-34 -27 -89 -44 -154 -44c-175 0 -256 129 -256 351v26c0 212 81 390 276 390c162 0 255 -97 255 -299v-26c0 -161 -39 -276 -137 -276c-33 0 -69 14 -79 65c-21 -50 -57 -65 -92 -65c-54 0 -91 41 -83 143l13 149c9 110 46 147 102 147
c41 0 61 -25 66 -48l5 39h74l-30 -292c-5 -45 9 -65 30 -65c47 0 65 99 65 200v31c0 166 -61 235 -190 235c-154 0 -204 -154 -204 -327v-28c0 -149 37 -286 191 -286c46 0 83 9 129 36zM310 430c-28 0 -42 -17 -48 -76l-11 -126c-5 -57 5 -81 33 -81c25 0 45 26 51 96
l10 103c5 55 -5 84 -35 84z" />
    <glyph glyph-name="emdash.cap" horiz-adv-x="552" 
d="M23 391h506v-79h-506v79z" />
    <glyph glyph-name="endash.cap" horiz-adv-x="306" 
d="M23 391h260v-79h-260v79z" />
    <glyph glyph-name="hyphen.cap" horiz-adv-x="221" 
d="M23 392h175v-82h-175v82z" />
    <glyph glyph-name="uni00AD.cap" horiz-adv-x="221" 
d="M23 392h175v-82h-175v82z" />
    <glyph glyph-name="exclamdown.cap" horiz-adv-x="189" 
d="M41 440h80l8 -337v-113h-96v113zM36 668h91v-112h-91v112z" />
    <glyph glyph-name="questiondown.cap" horiz-adv-x="311" 
d="M113 462h90v-19c0 -52 -12 -98 -50 -168c-27 -49 -40 -84 -40 -137c0 -51 9 -74 43 -74c32 0 43 29 43 79v24h84v-21c0 -85 -27 -154 -133 -154c-95 0 -126 58 -126 148c0 79 20 115 60 191c23 45 29 83 29 122v9zM113 668h90v-135h-90v135z" />
    <glyph glyph-name="guillemotleft.cap" horiz-adv-x="360" 
d="M195 496l-91 -158l91 -159h-77l-91 159l91 158h77zM333 496l-90 -158l91 -159h-77l-93 159l93 158h76z" />
    <glyph glyph-name="guillemotright.cap" horiz-adv-x="360" 
d="M166 179l90 158l-91 159h77l92 -159l-92 -158h-76zM27 179l91 158l-91 159h77l92 -159l-92 -158h-77z" />
    <glyph glyph-name="guilsinglleft.cap" horiz-adv-x="221" 
d="M195 496l-91 -158l91 -159h-77l-91 159l91 158h77z" />
    <glyph glyph-name="guilsinglright.cap" horiz-adv-x="221" 
d="M27 179l90 158l-90 159h76l92 -159l-92 -158h-76z" />
    <glyph glyph-name="parenleft.cap" horiz-adv-x="254" 
d="M135 730h86c-56 -98 -108 -221 -108 -400c0 -167 42 -294 108 -413h-86c-53 88 -105 229 -105 414c0 184 57 317 105 399z" />
    <glyph glyph-name="parenright.cap" horiz-adv-x="254" 
d="M102 -82h-85c56 98 108 221 108 400c0 167 -43 294 -108 413h85c53 -88 105 -229 105 -414c0 -184 -57 -317 -105 -399z" />
    <glyph glyph-name="braceleft.cap" horiz-adv-x="288" 
d="M22 282v81h16c64 1 72 31 72 80l-5 136c0 117 56 150 145 150h18v-71h-10c-53 0 -74 -19 -74 -83l5 -123c1 -75 -20 -116 -72 -128c58 -17 73 -50 72 -130l-5 -126c0 -68 26 -82 74 -82h10v-71h-22c-85 0 -141 30 -141 141l5 146c0 47 -9 80 -68 80h-20z" />
    <glyph glyph-name="braceright.cap" horiz-adv-x="288" 
d="M267 362v-81h-16c-64 -1 -73 -31 -73 -81l5 -135c0 -117 -55 -150 -145 -150h-18v71h10c53 0 74 18 74 82l-5 123c-1 76 21 117 72 129c-58 17 -73 50 -72 129l5 127c0 68 -26 82 -73 82h-11v71h22c85 0 141 -30 141 -142l-5 -145c0 -47 9 -80 68 -80h21z" />
    <glyph glyph-name="bracketleft.cap" horiz-adv-x="247" 
d="M226 -83h-178v812h178v-72h-104v-667h104v-73z" />
    <glyph glyph-name="bracketright.cap" horiz-adv-x="247" 
d="M20 704h179v-812h-179v73h105v666h-105v73z" />
    <glyph glyph-name="bullet.cap" horiz-adv-x="219" 
d="M37 426h145v-154h-145v154z" />
    <glyph glyph-name="periodcentered.cap" horiz-adv-x="158" 
d="M124 278h-90v144h90v-144z" />
    <glyph glyph-name="bulletoperator.cap" horiz-adv-x="158" 
d="M124 278h-90v144h90v-144z" />
    <glyph glyph-name="fraction" unicode="&#x2044;" horiz-adv-x="94" 
d="M-70 0h-55l288 650h56z" />
    <glyph glyph-name="uni2215" unicode="&#x2215;" horiz-adv-x="94" 
d="M-70 0h-55l288 650h56z" />
    <glyph glyph-name="slash.frac" horiz-adv-x="94" 
d="M-70 0h-55l288 650h56z" />
    <glyph glyph-name="percent" unicode="%" horiz-adv-x="523" 
d="M131 658c62 0 101 -39 101 -115v-116c0 -74 -33 -121 -102 -121c-63 0 -103 39 -103 116v121c0 81 43 115 104 115zM130 601c-29 0 -39 -20 -39 -55v-124c0 -37 10 -57 39 -57c30 0 39 22 39 59v123c0 34 -12 54 -39 54zM131 0h-48l307 650h49zM395 344
c62 0 101 -37 101 -116v-116c0 -73 -33 -120 -102 -120c-66 0 -102 38 -102 116v120c0 80 43 116 103 116zM395 287c-30 0 -40 -20 -40 -56v-123c0 -36 11 -57 39 -57c30 0 39 22 39 58v125c0 34 -11 53 -38 53z" />
    <glyph glyph-name="percent.alt" horiz-adv-x="354" 
d="M86 597c39 0 65 -20 65 -68v-89c0 -60 -34 -74 -66 -74c-29 0 -63 13 -63 74v87c0 47 26 70 64 70zM86 558c-14 0 -23 -8 -23 -29v-90c0 -21 7 -34 23 -34c17 0 23 13 23 35v89c0 20 -8 29 -23 29zM109 200h-30l164 391h31zM266 424c39 0 65 -21 65 -69v-89
c0 -59 -34 -73 -66 -73c-30 0 -64 12 -64 73v87c0 47 27 71 65 71zM266 385c-14 0 -23 -9 -23 -30v-89c0 -21 7 -34 23 -34c17 0 23 12 23 35v88c0 20 -8 30 -23 30z" />
    <glyph glyph-name="perthousand" unicode="&#x2030;" horiz-adv-x="760" 
d="M632 344c62 0 101 -34 101 -116v-116c0 -73 -33 -120 -102 -120c-67 0 -103 38 -103 116v120c0 82 43 116 104 116zM631 287c-29 0 -39 -20 -39 -56v-123c0 -36 10 -57 39 -57c30 0 38 22 38 58v125c0 34 -11 53 -38 53zM131 658c62 0 101 -39 101 -115v-116
c0 -74 -33 -121 -102 -121c-63 0 -103 39 -103 116v121c0 81 43 115 104 115zM130 601c-29 0 -39 -20 -39 -55v-124c0 -37 10 -57 39 -57c30 0 39 22 39 59v123c0 34 -12 54 -39 54zM131 0h-48l307 650h49zM395 344c62 0 101 -37 101 -116v-116c0 -73 -33 -120 -102 -120
c-66 0 -102 38 -102 116v120c0 80 43 116 103 116zM395 287c-30 0 -40 -20 -40 -56v-123c0 -36 11 -57 39 -57c30 0 39 22 39 58v125c0 34 -11 53 -38 53z" />
    <glyph glyph-name="onequarter" unicode="&#xbc;" horiz-adv-x="478" 
d="M104 0h-55l288 650h56zM133 305h-66v274c-9 -3 -30 -4 -42 -3v47c25 3 46 16 58 30h50v-348zM423 0h-62v87h-125v49l107 209h80v-203h36l-5 -55h-31v-87zM299 142h62v53c0 20 0 66 2 87h-1c-10 -29 -35 -79 -63 -140z" />
    <glyph glyph-name="onehalf" unicode="&#xbd;" horiz-adv-x="496" 
d="M90 0h-55l288 650h56zM121 305h-66v274c-9 -3 -30 -4 -42 -3v47c25 3 46 16 58 30h50v-348zM460 0h-196v8c0 53 19 96 76 154c44 46 55 55 55 85c0 23 -4 48 -33 48c-30 0 -36 -23 -36 -52v-14h-63v13c0 42 13 107 102 107c70 0 98 -43 98 -103c0 -52 -27 -72 -63 -110
c-26 -27 -49 -47 -59 -80h129z" />
    <glyph glyph-name="threequarters" unicode="&#xbe;" horiz-adv-x="534" 
d="M169 0h-55l288 650h56zM481 0h-62v87h-125v49l107 209h80v-203h36l-5 -55h-31v-87zM357 142h62v53c0 20 0 66 2 87h-1c-10 -29 -35 -79 -63 -140zM19 408h66v-2c0 -31 13 -52 42 -52c27 0 41 18 41 52c0 42 -20 53 -52 53h-21v57h19c34 0 44 13 44 41c0 22 -6 43 -34 43
c-25 0 -36 -19 -36 -47v-2h-63v2c0 57 32 101 101 101s98 -40 98 -93c0 -44 -24 -63 -43 -70c24 -10 54 -28 54 -84c0 -61 -37 -106 -109 -106c-75 0 -107 47 -107 103v4z" />
    <glyph glyph-name="onethird" unicode="&#x2153;" horiz-adv-x="500" 
d="M96 1h-55l288 650h56zM121 305h-66v274c-9 -3 -30 -4 -42 -3v47c25 3 46 16 58 30h50v-348zM258 101h66v-2c0 -31 13 -52 42 -52c27 0 41 18 41 52c0 42 -20 53 -52 53h-21v57h19c34 0 44 13 44 41c0 22 -6 43 -34 43c-25 0 -36 -19 -36 -47v-2h-63v2
c0 57 32 101 101 101s98 -40 98 -93c0 -44 -24 -63 -43 -70c24 -10 54 -28 54 -84c0 -61 -37 -106 -109 -106c-75 0 -107 47 -107 103v4z" />
    <glyph glyph-name="twothirds" unicode="&#x2154;" horiz-adv-x="573" 
d="M171 0h-55l288 650h56zM213 305h-196v8c0 53 19 96 76 154c44 46 55 55 55 85c0 23 -4 48 -33 48c-30 0 -36 -23 -36 -52v-14h-63v13c0 42 13 107 102 107c70 0 98 -43 98 -103c0 -52 -27 -72 -63 -110c-26 -27 -49 -47 -59 -80h129zM328 102h66v-2c0 -31 13 -52 42 -52
c27 0 41 18 41 52c0 42 -20 53 -52 53h-21v57h19c34 0 44 13 44 41c0 22 -6 43 -34 43c-25 0 -36 -19 -36 -47v-2h-63v2c0 57 32 101 101 101s98 -40 98 -93c0 -44 -24 -63 -43 -70c24 -10 54 -28 54 -84c0 -61 -37 -106 -109 -106c-75 0 -107 47 -107 103v4z" />
    <glyph glyph-name="oneeighth" unicode="&#x215b;" horiz-adv-x="502" 
d="M96 0h-55l288 650h56zM124 305h-66v274c-9 -3 -30 -4 -42 -3v47c25 3 46 16 58 30h50v-348zM366 -6c-61 0 -105 34 -105 103c0 49 26 68 47 79c-20 13 -38 34 -38 76c0 55 31 95 100 95c61 0 97 -34 97 -95c0 -42 -18 -62 -38 -74c22 -10 47 -31 47 -82
c0 -64 -38 -102 -110 -102zM369 292c-25 0 -35 -17 -35 -40v-2c0 -23 7 -46 35 -46c22 0 34 12 34 45v2c0 25 -9 41 -34 41zM370 50c25 0 39 17 39 48v2c0 36 -15 50 -40 50s-40 -15 -40 -49v-1c0 -28 10 -50 41 -50z" />
    <glyph glyph-name="threeeighths" unicode="&#x215c;" horiz-adv-x="561" 
d="M160 0h-55l288 650h56zM423 -5c-61 0 -105 34 -105 103c0 49 26 68 47 79c-20 13 -38 34 -38 76c0 55 31 95 100 95c61 0 97 -34 97 -95c0 -42 -18 -62 -38 -74c22 -10 47 -31 47 -82c0 -64 -38 -102 -110 -102zM426 293c-25 0 -35 -17 -35 -40v-2c0 -23 7 -46 35 -46
c22 0 34 12 34 45v2c0 25 -9 41 -34 41zM427 51c25 0 39 17 39 48v2c0 36 -15 50 -40 50s-40 -15 -40 -49v-1c0 -28 10 -50 41 -50zM14 408h66v-2c0 -31 13 -52 42 -52c27 0 41 18 41 52c0 42 -20 53 -52 53h-21v57h19c34 0 44 13 44 41c0 22 -6 43 -34 43
c-25 0 -36 -19 -36 -47v-2h-63v2c0 57 32 101 101 101s98 -40 98 -93c0 -44 -24 -63 -43 -70c24 -10 54 -28 54 -84c0 -61 -37 -106 -109 -106c-75 0 -107 47 -107 103v4z" />
    <glyph glyph-name="fiveeighths" unicode="&#x215d;" horiz-adv-x="571" 
d="M167 0h-55l288 650h56zM225 650l-8 -55h-110c-2 -16 -6 -59 -8 -76c10 10 28 17 52 17c60 0 86 -42 86 -112c0 -66 -26 -123 -109 -123c-73 0 -104 45 -105 102h65c1 -24 10 -47 40 -47c31 0 41 21 41 67c0 45 -12 59 -40 59c-21 0 -34 -10 -43 -31l-56 7
c7 48 15 144 19 192h176zM431 -5c-61 0 -105 34 -105 103c0 49 26 68 47 79c-20 13 -38 34 -38 76c0 55 31 95 100 95c61 0 97 -34 97 -95c0 -42 -18 -62 -38 -74c22 -10 47 -31 47 -82c0 -64 -38 -102 -110 -102zM434 293c-25 0 -35 -17 -35 -40v-2c0 -23 7 -46 35 -46
c22 0 34 12 34 45v2c0 25 -9 41 -34 41zM435 51c25 0 39 17 39 48v2c0 36 -15 50 -40 50s-40 -15 -40 -49v-1c0 -28 10 -50 41 -50z" />
    <glyph glyph-name="seveneighths" unicode="&#x215e;" horiz-adv-x="516" 
d="M104 0h-55l288 650h56zM375 -6c-61 0 -105 34 -105 103c0 49 26 68 47 79c-20 13 -38 34 -38 76c0 55 31 95 100 95c61 0 97 -34 97 -95c0 -42 -18 -62 -38 -74c22 -10 47 -31 47 -82c0 -64 -38 -102 -110 -102zM378 292c-25 0 -35 -17 -35 -40v-2c0 -23 7 -46 35 -46
c22 0 34 12 34 45v2c0 25 -9 41 -34 41zM379 50c25 0 39 17 39 48v2c0 36 -15 50 -40 50s-40 -15 -40 -49v-1c0 -28 10 -50 41 -50zM24 650h200v-50c-45 -70 -86 -177 -102 -295h-74c15 118 72 239 107 286h-131v59z" />
    <glyph glyph-name="plus" unicode="+" horiz-adv-x="470" 
d="M201 454h70v-170h159v-68h-159v-172h-70v172h-160v68h160v170z" />
    <glyph glyph-name="minus" unicode="&#x2212;" horiz-adv-x="470" 
d="M41 284h389v-68h-389v68z" />
    <glyph glyph-name="multiply" unicode="&#xd7;" horiz-adv-x="471" 
d="M427 398l-146 -150l146 -149l-45 -47l-146 150l-146 -150l-46 47l146 149l-146 150l44 46l148 -150l147 150z" />
    <glyph glyph-name="divide" unicode="&#xf7;" horiz-adv-x="469" 
d="M271 348h-70v100h70v-100zM41 284h388v-68h-388v68zM271 52h-70v98h70v-98z" />
    <glyph glyph-name="uni2219" unicode="&#x2219;" horiz-adv-x="158" 
d="M124 200h-90v144h90v-144z" />
    <glyph glyph-name="equal" unicode="=" horiz-adv-x="469" 
d="M41 369h387v-68h-387v68zM41 200h387v-69h-387v69z" />
    <glyph glyph-name="less" unicode="&#x3c;" horiz-adv-x="380" 
d="M46 213v73l288 162v-79l-219 -118l219 -121v-79z" />
    <glyph glyph-name="greater" unicode="&#x3e;" horiz-adv-x="380" 
d="M334 287v-73l-288 -162v79l219 118l-219 121v79z" />
    <glyph glyph-name="lessequal" unicode="&#x2264;" horiz-adv-x="455" 
d="M47 270v71l362 160v-75l-287 -119l287 -122v-74zM47 68h362v-68h-362v68z" />
    <glyph glyph-name="greaterequal" unicode="&#x2265;" horiz-adv-x="455" 
d="M409 342v-72l-362 -159v74l286 120l-286 121v75zM47 68h362v-68h-362v68z" />
    <glyph glyph-name="plusminus" unicode="&#xb1;" horiz-adv-x="470" 
d="M201 505h70v-156h159v-68h-159v-157h-70v157h-160v68h160v156zM430 0h-389v68h389v-68z" />
    <glyph glyph-name="asciicircum" unicode="^" horiz-adv-x="328" 
d="M315 331h-73l-82 248l-74 -248h-73l109 319h80z" />
    <glyph glyph-name="notequal" unicode="&#x2260;" horiz-adv-x="469" 
d="M368 449l-40 -80h100v-68h-135l-50 -101h185v-69h-220l-41 -81h-66l41 81h-101v69h136l50 101h-186v68h221l40 80h66z" />
    <glyph glyph-name="asciitilde" unicode="~" horiz-adv-x="437" 
d="M114 188h-67v27c0 65 28 100 81 100c36 0 56 -10 102 -31c36 -17 56 -29 72 -29c15 0 21 7 21 41v14h67v-22c0 -91 -40 -107 -76 -107c-31 0 -60 12 -102 34c-36 18 -56 29 -75 29c-15 0 -23 -10 -23 -35v-21z" />
    <glyph glyph-name="approxequal" unicode="&#x2248;" horiz-adv-x="468" 
d="M108 274h-65v19c0 75 37 98 87 98c75 0 145 -54 201 -54c20 0 30 12 30 41v8h64v-14c0 -83 -41 -103 -90 -103c-78 0 -145 53 -198 53c-19 0 -29 -12 -29 -42v-6zM108 116h-65v17c0 79 35 99 86 99c72 0 146 -53 202 -53c20 0 30 8 30 41v8h64v-16
c0 -82 -40 -101 -90 -101c-83 0 -145 52 -198 52c-19 0 -29 -11 -29 -41v-6z" />
    <glyph glyph-name="logicalnot" unicode="&#xac;" horiz-adv-x="445" 
d="M31 316h374v-222h-69v153h-305v69z" />
    <glyph glyph-name="pi" unicode="&#x3c0;" horiz-adv-x="395" 
d="M239 0v432h-87v-432h-90v432c-10 0 -41 0 -55 -2v80c22 4 69 4 140 4h232v-83h-52v-431h-88z" />
    <glyph glyph-name="infinity" unicode="&#x221e;" horiz-adv-x="636" 
d="M157 118c-77 0 -128 54 -128 132c0 74 50 134 135 134c68 0 112 -43 152 -83c44 43 87 83 154 83c80 0 131 -53 131 -134c0 -75 -53 -132 -135 -132c-66 -1 -109 39 -153 85c-43 -44 -84 -85 -156 -85zM465 188c52 0 65 34 65 62c0 35 -22 65 -65 65
c-39 0 -68 -22 -105 -62c32 -32 65 -65 105 -65zM163 188c44 0 72 27 105 62c-33 34 -62 65 -103 65c-36 0 -66 -21 -66 -65c0 -40 32 -62 64 -62z" />
    <glyph glyph-name="uni00B5" unicode="&#xb5;" horiz-adv-x="373" 
d="M244 0c-2 9 -3 21 -5 42c-15 -35 -33 -50 -70 -50c-15 0 -39 7 -50 30c0 -34 4 -129 5 -195h-85c2 115 4 237 5 350v337h90v-363c0 -48 13 -78 47 -78c31 0 57 16 57 104v337h90v-369c0 -71 1 -118 2 -145h-86z" />
    <glyph glyph-name="partialdiff" unicode="&#x2202;" horiz-adv-x="368" 
d="M61 587v81c16 6 38 8 68 8c172 0 198 -128 198 -278v-239c-2 -112 -49 -167 -150 -167c-90 0 -141 53 -141 161v121c0 94 47 154 131 154c34 0 59 -8 69 -25v5c0 100 -10 185 -119 185c-29 0 -40 -2 -56 -6zM183 66c37 0 54 23 54 82v125c0 50 -17 80 -56 80
c-30 0 -54 -18 -54 -72v-135c0 -47 15 -80 56 -80z" />
    <glyph glyph-name="integral" unicode="&#x222b;" horiz-adv-x="237" 
d="M239 799l-8 -82c-8 2 -15 3 -27 3c-44 0 -50 -30 -49 -105c1 -131 9 -420 9 -548c0 -98 8 -231 -114 -231c-23 0 -46 5 -54 10l11 87c7 -3 25 -5 35 -5c35 0 42 25 39 139c-2 126 -5 389 -8 528c-1 99 7 212 116 212c17 0 38 -2 50 -8z" />
    <glyph glyph-name="radical" unicode="&#x221a;" horiz-adv-x="425" 
d="M419 812l-150 -943h-57l-112 373l-63 -23l-18 66l140 53c56 -206 71 -274 76 -295c3 61 32 237 114 769h70z" />
    <glyph glyph-name="uni2206" unicode="&#x2206;" horiz-adv-x="372" 
d="M19 0v63l105 605h116l113 -604v-64h-334zM106 82h151c-25 161 -63 373 -78 493h-1c-13 -125 -47 -329 -72 -493z" />
    </font>
</defs>
</svg>
