<?xml version="1.0" standalone="no"?>
<!DOCTYPE svg PUBLIC "-//W3C//DTD SVG 1.1//EN" "http://www.w3.org/Graphics/SVG/1.1/DTD/svg11.dtd" >
<svg xmlns="http://www.w3.org/2000/svg" xmlns:xlink="http://www.w3.org/1999/xlink" version="1.1">
<metadata>
Created by FontForge 20150824 at Sun Oct  9 20:36:48 2016
 By Everything Fonts
(c) 2014 Adobe Systems Incorporated. All Rights Reserved.
</metadata>
<defs>
<font id="AcuminProThin" horiz-adv-x="400" >
  <font-face 
    font-family="AcuminProThin"
    font-weight="250"
    font-stretch="normal"
    units-per-em="1000"
    panose-1="2 11 2 4 2 2 2 2 2 4"
    ascent="735"
    descent="-265"
    x-height="497"
    cap-height="704"
    bbox="-164 -263 1021 1031"
    underline-thickness="50"
    underline-position="-150"
    unicode-range="U+0020-FB02"
  />
<missing-glyph horiz-adv-x="500" 
d="M0 0v700h500v-700h-500zM250 395l170 255h-340zM280 350l170 -255v510zM80 50h340l-170 255zM50 605v-510l170 255z" />
    <glyph glyph-name="f_f" unicode="ff" horiz-adv-x="468" 
d="M338 479h-216v-479h-20v479h-89v18h89v89q0 35 3.5 61t14 54.5t34.5 44t60 15.5q30 0 45 -8v-20q-17 9 -45 9q-49 0 -70.5 -33t-21.5 -113v-99h216v89q0 35 3.5 61t14 54.5t34.5 44t60 15.5q30 0 45 -8v-20q-16 9 -45 9q-49 0 -70.5 -33t-21.5 -113v-99h105v-18h-105
v-479h-20v479z" />
    <glyph glyph-name=".notdef" horiz-adv-x="500" 
d="M0 0v700h500v-700h-500zM250 395l170 255h-340zM280 350l170 -255v510zM80 50h340l-170 255zM50 605v-510l170 255z" />
    <glyph glyph-name=".null" horiz-adv-x="0" 
 />
    <glyph glyph-name="nonmarkingreturn" horiz-adv-x="333" 
 />
    <glyph glyph-name="space" unicode=" " horiz-adv-x="235" 
 />
    <glyph glyph-name="exclam" unicode="!" horiz-adv-x="260" 
d="M161 215h-18l-1 363v126h20v-126zM162 0h-20v112h20v-112z" />
    <glyph glyph-name="quotedbl" unicode="&#x22;" horiz-adv-x="221" 
d="M68 532h-16l-2 145v74h20v-74zM169 532h-16l-2 145v74h20v-74z" />
    <glyph glyph-name="numbersign" unicode="#" horiz-adv-x="514" 
d="M275 0l43 226l-165 -1l-43 -225h-18l43 225h-103v19h106l37 197h-110v18h114l37 198h19l-38 -198h165l37 198h19l-38 -198h101v-18h-104l-38 -197h109v-18h-112l-43 -226h-18zM321 244l37 197h-164l-38 -197h165z" />
    <glyph glyph-name="dollar" unicode="$" horiz-adv-x="476" 
d="M64 514q0 -57 35 -89.5t128 -58.5v292q-71 -1 -117 -38.5t-46 -105.5zM418 173q0 41 -14.5 71t-43.5 49t-53 28.5t-61 19.5v-327q78 2 125 42.5t47 116.5zM246 -95h-19v92q-86 3 -141 47t-68 119h20q15 -70 65.5 -107.5t123.5 -41.5v332q-98 28 -140.5 63t-42.5 105
q0 71 49.5 116t133.5 45v82h19v-82q157 -6 179 -144h-21q-9 54 -49 88.5t-109 38.5v-298q41 -11 69.5 -22.5t59.5 -32t47.5 -53.5t16.5 -77q0 -80 -50.5 -128t-142.5 -50v-92z" />
    <glyph glyph-name="percent" unicode="%" horiz-adv-x="736" 
d="M176 674q68 0 103 -48.5t35 -131.5q0 -85 -37 -133t-101 -48t-100.5 48.5t-36.5 132.5q0 79 36.5 129.5t100.5 50.5zM176 656q-56 0 -86.5 -43t-30.5 -119q0 -75 31 -119.5t86 -44.5t86.5 44t31.5 120q0 79 -31 120.5t-87 41.5zM161 0h-23l442 662h23zM558 351
q68 0 103 -48.5t35 -131.5q0 -85 -37 -133t-101 -48q-65 0 -101.5 48t-36.5 133q0 79 37 129.5t101 50.5zM558 334q-55 0 -86.5 -44.5t-31.5 -118.5q0 -76 31 -119.5t87 -43.5q55 0 87 43.5t32 119.5q0 77 -32 120t-87 43z" />
    <glyph glyph-name="ampersand" unicode="&#x26;" horiz-adv-x="691" 
d="M239 8q68 0 115.5 39t97.5 113l-216 209q-42 -25 -65 -41t-49.5 -40.5t-38.5 -53t-12 -63.5q0 -67 44.5 -115t123.5 -48zM635 433h23l-182 -270l170 -163h-29l-152 147q-58 -84 -107 -120.5t-120 -36.5q-91 0 -139.5 53.5t-48.5 125.5q0 31 10 58t23 46t39.5 40.5
t45.5 34t55 34.5q-49 47 -74.5 88.5t-25.5 91.5q0 65 42.5 108.5t109.5 43.5q70 0 108 -43.5t38 -97.5q0 -46 -22.5 -82t-54 -59t-90.5 -55l209 -201zM274 696q-58 0 -94.5 -39t-36.5 -95q0 -44 23 -82.5t75 -89.5q89 49 124 86t35 97q0 41 -31 82t-95 41z" />
    <glyph glyph-name="quotesingle" unicode="'" horiz-adv-x="120" 
d="M69 532h-17l-2 145v74h20v-74z" />
    <glyph glyph-name="parenleft" unicode="(" horiz-adv-x="296" 
d="M214 741h22q-166 -203 -166 -448q0 -261 166 -461h-22q-68 78 -116 199.5t-48 260.5q0 253 164 449z" />
    <glyph glyph-name="parenright" unicode=")" horiz-adv-x="296" 
d="M82 -168h-22q166 203 166 448q0 261 -166 461h22q68 -78 116 -199.5t48 -260.5q0 -253 -164 -449z" />
    <glyph glyph-name="asterisk" unicode="*" horiz-adv-x="348" 
d="M149 704h20l-2 -148l121 84l11 -17l-127 -79l126 -78l-11 -17l-120 83l2 -146h-20l4 146l-121 -82l-11 17l127 77l-128 78l11 17l122 -83z" />
    <glyph glyph-name="plus" unicode="+" horiz-adv-x="601" 
d="M290 517h20v-240h241v-18h-241v-259h-20v259h-240v18h240v240z" />
    <glyph glyph-name="comma" unicode="," horiz-adv-x="145" 
d="M25 -116h-19q54 105 64 228h20q-4 -61 -23.5 -125t-41.5 -103z" />
    <glyph glyph-name="hyphen" unicode="-" horiz-adv-x="348" 
d="M50 261h248v-18h-248v18z" />
    <glyph glyph-name="period" unicode="." horiz-adv-x="120" 
d="M70 0h-20v112h20v-112z" />
    <glyph glyph-name="slash" unicode="/" horiz-adv-x="366" 
d="M74 -34h-20l234 758h19z" />
    <glyph glyph-name="zero" unicode="0" horiz-adv-x="555" 
d="M282 674q59 0 102.5 -30.5t66.5 -82.5t33.5 -108.5t10.5 -118.5q0 -64 -9.5 -119.5t-31.5 -109.5t-67 -85.5t-109 -31.5q-61 0 -105.5 31t-68 82.5t-34 108t-10.5 118.5q0 64 10.5 121t34 110t69 84t108.5 31zM281 656q-57 0 -98 -30t-62 -80.5t-30.5 -104.5t-9.5 -114
q0 -57 9.5 -109t30.5 -102t61.5 -80t96.5 -30q57 0 97.5 29.5t60.5 80.5t28.5 104t8.5 114q0 55 -9 106.5t-29 102.5t-60 82t-95 31z" />
    <glyph glyph-name="one" unicode="1" horiz-adv-x="308" 
d="M197 0h-20v641q-21 -26 -73.5 -56.5t-78.5 -37.5v20q92 37 156 102h16v-669z" />
    <glyph glyph-name="two" unicode="2" horiz-adv-x="510" 
d="M479 0h-431v10q21 140 210 270q44 30 64.5 45t46 37t36 39.5t18 40.5t7.5 51q0 74 -44.5 118.5t-123.5 44.5q-159 0 -187 -173h-19q12 87 64 139t143 52q88 0 138 -51t50 -131q0 -66 -37 -110t-144 -116q-172 -117 -201 -248h417z" />
    <glyph glyph-name="three" unicode="3" horiz-adv-x="528" 
d="M83 519h-19q2 13 7.5 29.5t19.5 39.5t33.5 41.5t53 31.5t75.5 13q83 0 132.5 -45t49.5 -121q0 -63 -34.5 -99t-87.5 -46v-1q66 -13 109.5 -60.5t43.5 -116.5q0 -82 -53.5 -139.5t-156.5 -57.5q-58 0 -101 18.5t-65.5 48t-33 51.5t-14.5 43h20q16 -61 64 -102t130 -41
q83 0 135.5 45t52.5 129q0 81 -52.5 127t-145.5 46h-58v18h63q78 0 121 36t43 100q0 61 -40.5 105t-121.5 44q-132 0 -170 -137z" />
    <glyph glyph-name="four" unicode="4" horiz-adv-x="514" 
d="M390 0h-20v210h-337v21l337 437h20v-440h104l-4 -18h-100v-210zM370 228v214q0 173 4 205q-19 -27 -320 -419h316z" />
    <glyph glyph-name="five" unicode="5" horiz-adv-x="544" 
d="M458 662v-18h-312q-23 -206 -45 -299q57 90 179 90q93 0 147.5 -61t54.5 -155q0 -106 -59 -168.5t-158 -62.5q-81 0 -136 44t-69 118h20q15 -65 64 -104.5t120 -39.5q92 0 144.5 58t52.5 153q0 84 -46.5 142t-136.5 58q-121 0 -179 -106l-22 7q13 57 30 176.5t21 167.5
h330z" />
    <glyph glyph-name="six" unicode="6" horiz-adv-x="543" 
d="M468 539h-20q-37 117 -159 117q-210 0 -210 -361q19 61 72 99t132 38q94 0 150 -62.5t56 -155.5q0 -108 -59.5 -167t-147.5 -59q-222 0 -222 322q0 72 11 132.5t35.5 115t71 85.5t111.5 31q80 0 124 -41.5t55 -93.5zM283 6q79 0 132.5 55.5t53.5 151.5q0 85 -50 143
t-137 58q-95 0 -145.5 -54t-50.5 -115q0 -37 8.5 -74t28.5 -76.5t61.5 -64t98.5 -24.5z" />
    <glyph glyph-name="seven" unicode="7" horiz-adv-x="461" 
d="M18 662h419v-17q-100 -129 -183.5 -304t-121.5 -341h-20q33 157 121 341.5t182 302.5h-397v18z" />
    <glyph glyph-name="eight" unicode="8" horiz-adv-x="524" 
d="M260 -12q-88 0 -148 54t-60 137q0 75 42.5 121t104.5 60q-58 14 -89 54t-31 97q0 74 52 118.5t136 44.5q79 0 129 -44.5t50 -120.5q0 -56 -33.5 -97.5t-87.5 -52.5q70 -15 108.5 -64.5t38.5 -116.5q0 -81 -59 -135.5t-153 -54.5zM260 6q82 0 137 47.5t55 123.5
q0 77 -51.5 125t-135.5 48q-97 0 -144.5 -48.5t-47.5 -121.5q0 -75 53.5 -124.5t133.5 -49.5zM264 656q-75 0 -119.5 -39t-44.5 -105q0 -65 41.5 -104.5t124.5 -39.5q72 0 115.5 37t43.5 103t-41.5 107t-119.5 41z" />
    <glyph glyph-name="nine" unicode="9" horiz-adv-x="528" 
d="M65 125h20q41 -119 162 -119q50 0 87.5 22.5t59 58t34.5 88t17 102.5t4 111q-42 -132 -195 -132q-93 0 -146.5 57t-53.5 148q0 93 54.5 153t146.5 60q109 0 161 -82t52 -214q0 -90 -11 -158t-36 -122t-69 -82t-107 -28q-73 0 -118 37.5t-62 99.5zM255 656
q-79 0 -129.5 -51t-50.5 -144q0 -83 49 -135t130 -52q91 0 138.5 49.5t47.5 130.5q0 12 -3 31t-14.5 50.5t-30 57t-54.5 44.5t-83 19z" />
    <glyph glyph-name="colon" unicode=":" horiz-adv-x="210" 
d="M115 0h-20v112h20v-112zM115 387h-20v110h20v-110z" />
    <glyph glyph-name="semicolon" unicode=";" horiz-adv-x="230" 
d="M72 -116h-20q54 107 64 228h20q-12 -129 -64 -228zM135 387h-20v110h20v-110z" />
    <glyph glyph-name="less" unicode="&#x3c;" horiz-adv-x="551" 
d="M50 240v22l451 224v-21l-433 -213l433 -222v-21z" />
    <glyph glyph-name="equal" unicode="=" horiz-adv-x="621" 
d="M60 167h501v-18h-501v18zM60 387h501v-18h-501v18z" />
    <glyph glyph-name="greater" unicode="&#x3e;" horiz-adv-x="551" 
d="M501 255v-22l-451 -224v21l433 213l-433 222v21z" />
    <glyph glyph-name="question" unicode="?" horiz-adv-x="491" 
d="M267 201h-19v2q0 43 16.5 81t73.5 89q55 50 72 89t17 84q0 60 -39.5 105t-114.5 45q-70 0 -114.5 -38t-57.5 -114h-20q4 28 13.5 53.5t30 54t58.5 45.5t90 17q83 0 129 -49t46 -117q0 -57 -22 -98.5t-79 -94.5q-43 -39 -61.5 -73t-18.5 -76v-5zM268 0h-20v107h20v-107z
" />
    <glyph glyph-name="at" unicode="@" horiz-adv-x="801" 
d="M616 -68l8 -16q-91 -68 -231 -68q-146 0 -244.5 96.5t-98.5 259.5q0 174 105.5 290t271.5 116q151 0 242.5 -88.5t91.5 -220.5q0 -126 -57.5 -198t-133.5 -72q-36 0 -55 24t-10 75q-20 -43 -61 -71t-91 -28q-60 0 -94 39t-34 111q0 113 59.5 186.5t140.5 73.5
q108 0 121 -106l20 97h20l-58 -279q-13 -61 0.5 -83t44.5 -22q62 0 115 66.5t53 187.5q0 120 -84.5 205t-230.5 85q-157 0 -256.5 -110.5t-99.5 -276.5q0 -153 91 -246t234 -93q126 0 221 66zM425 423q-71 0 -125 -66.5t-54 -175.5q0 -66 30 -99t78 -33q62 0 109.5 47
t63.5 146q29 181 -102 181z" />
    <glyph glyph-name="A" unicode="A" horiz-adv-x="624" 
d="M467 274h-315l-105 -274h-21l270 704h21l281 -704h-22zM159 292h300q-39 98 -74 187.5t-55 141.5t-24 62h-1q-8 -31 -146 -391z" />
    <glyph glyph-name="B" unicode="B" horiz-adv-x="596" 
d="M94 0v704h227q94 0 147 -45t53 -125q0 -63 -34.5 -104t-94.5 -52q62 -12 109.5 -56t47.5 -125q0 -95 -63 -146t-170 -51h-222zM114 386h211q81 0 128 38t47 109q0 77 -50.5 115t-137.5 38h-198v-300zM114 368v-350h198q44 0 81 9t68.5 28.5t49 55.5t17.5 85
q0 83 -57 127.5t-149 44.5h-208z" />
    <glyph glyph-name="C" unicode="C" horiz-adv-x="661" 
d="M599 186h21q-63 -196 -267 -196q-99 0 -168.5 49t-102 128.5t-32.5 180.5q0 159 79.5 262.5t229.5 103.5q101 0 169 -54.5t91 -151.5h-21q-22 86 -84.5 136.5t-154.5 50.5q-143 0 -215.5 -98.5t-72.5 -248.5q0 -67 17 -127t50.5 -108t89 -76t126.5 -28q96 0 156.5 48
t88.5 129z" />
    <glyph glyph-name="D" unicode="D" horiz-adv-x="690" 
d="M94 0v704h213q156 0 244.5 -94.5t88.5 -242.5q0 -165 -87.5 -266t-247.5 -101h-211zM114 686v-668h193q143 0 227.5 92t84.5 256q0 142 -83.5 231t-231.5 89h-190z" />
    <glyph glyph-name="E" unicode="E" horiz-adv-x="558" 
d="M497 382v-18h-383v-346h417l-4 -18h-433v704h423v-18h-403v-304h383z" />
    <glyph glyph-name="F" unicode="F" horiz-adv-x="547" 
d="M94 0v704h422v-18h-402v-321h377v-18h-377v-347h-20z" />
    <glyph glyph-name="G" unicode="G" horiz-adv-x="694" 
d="M623 352v-352h-18q-1 14 -2 165q-58 -175 -253 -175q-100 0 -169.5 50t-100 128t-30.5 177q0 157 80 263t229 106q111 0 177.5 -52t85.5 -138h-20q-22 82 -83 127t-161 45q-138 0 -212.5 -99t-74.5 -249q0 -93 27.5 -167.5t93 -123.5t160.5 -49q124 0 187.5 74.5
t63.5 199.5v52h-252v18h272z" />
    <glyph glyph-name="H" unicode="H" horiz-adv-x="692" 
d="M94 0v704h20v-319h464v319h20v-704h-20v367h-464v-367h-20z" />
    <glyph glyph-name="I" unicode="I" horiz-adv-x="208" 
d="M94 704h20v-704h-20v704z" />
    <glyph glyph-name="J" unicode="J" horiz-adv-x="250" 
d="M166 704v-536q0 -103 -35.5 -140.5t-102.5 -37.5q-27 0 -35 2v18q16 -2 37 -2q69 0 92.5 42.5t23.5 130.5v523h20z" />
    <glyph glyph-name="K" unicode="K" horiz-adv-x="594" 
d="M94 0v704h20v-387q161 139 432 387h29l-337 -302l357 -402h-27l-344 389l-110 -96v-293h-20z" />
    <glyph glyph-name="L" unicode="L" horiz-adv-x="508" 
d="M94 0v704h20v-686h398l-7 -18h-411z" />
    <glyph glyph-name="M" unicode="M" horiz-adv-x="856" 
d="M742 0v344q0 310 2 343h-2q-49 -121 -305 -687h-25q-252 571 -298 687h-1q1 -21 1 -371v-316h-20v704h32q81 -187 299 -681h1q10 23 62.5 140t124 276.5t117.5 264.5h32v-704h-20z" />
    <glyph glyph-name="N" unicode="N" horiz-adv-x="702" 
d="M114 0h-20v704h32q413 -606 463 -683l2 -3q-3 19 -3 333v353h20v-704h-29q-374 552 -466 687l-2 3q3 -56 3 -329v-361z" />
    <glyph glyph-name="O" unicode="O" horiz-adv-x="722" 
d="M364 714q140 0 224 -102t84 -254q0 -159 -81.5 -263.5t-232.5 -104.5q-142 0 -225 103t-83 259q0 153 83.5 257.5t230.5 104.5zM363 696q-134 0 -213 -97.5t-79 -244.5q0 -93 31 -170t97.5 -126.5t158.5 -49.5q141 0 217 98t76 251q0 144 -78 241.5t-210 97.5z" />
    <glyph glyph-name="P" unicode="P" horiz-adv-x="585" 
d="M94 0v704h235q94 0 152.5 -50t58.5 -139q0 -92 -58 -140.5t-164 -48.5h-204v-326h-20zM114 686v-342h207q88 0 143 40t55 130q0 75 -50 123.5t-141 48.5h-214z" />
    <glyph glyph-name="Q" unicode="Q" horiz-adv-x="722" 
d="M364 714q140 0 224 -102t84 -254q0 -118 -46 -209t-134 -131l198 -142l-13 -15l-207 148q-52 -19 -112 -19q-142 0 -225 103t-83 259q0 153 83.5 257.5t230.5 104.5zM363 696q-134 0 -213 -97.5t-79 -244.5q0 -93 31 -170t97.5 -126.5t158.5 -49.5q141 0 217 98t76 251
q0 144 -78 241.5t-210 97.5z" />
    <glyph glyph-name="R" unicode="R" horiz-adv-x="597" 
d="M319 345h-204v-345h-21v704h232q97 0 155 -45.5t58 -134.5q0 -143 -147 -168q66 -11 101 -53t35 -143v-13q0 -123 9 -147h-22q-7 28 -7 147v9q0 100 -38.5 144.5t-150.5 44.5zM115 686v-322h196q207 0 207 159q0 77 -50 120t-142 43h-211z" />
    <glyph glyph-name="S" unicode="S" horiz-adv-x="552" 
d="M36 183h21q16 -85 74 -130t149 -45q95 0 150.5 44.5t55.5 122.5q0 76 -43 117t-163 73q-113 30 -161 69t-48 114q0 77 55.5 121.5t150.5 44.5q105 0 156 -50t61 -120h-20q-14 72 -63.5 112t-134.5 40q-84 0 -134 -37.5t-50 -108.5q0 -67 42.5 -102.5t147.5 -62.5
q133 -34 179 -81.5t46 -126.5q0 -87 -61 -137t-167 -50q-105 0 -166 51.5t-77 141.5z" />
    <glyph glyph-name="T" unicode="T" horiz-adv-x="515" 
d="M247 0v686h-249v18h519v-18h-250v-686h-20z" />
    <glyph glyph-name="U" unicode="U" horiz-adv-x="672" 
d="M84 704h20v-440q0 -133 66.5 -194.5t167.5 -61.5q113 0 171.5 65t58.5 191v440h20v-436q0 -278 -252 -278q-50 0 -92.5 13.5t-79.5 42.5t-58.5 82.5t-21.5 126.5v449z" />
    <glyph glyph-name="V" unicode="V" horiz-adv-x="616" 
d="M315 0h-25l-271 704h21l152 -391q85 -221 110 -291h2q10 30 114 288l157 394h22z" />
    <glyph glyph-name="W" unicode="W" horiz-adv-x="924" 
d="M250 0h-28l-198 704h21q186 -662 191 -686h1q8 29 92.5 310.5t110.5 375.5h30q17 -61 68.5 -237t88.5 -303.5t41 -144.5h1q125 411 210 685h21l-218 -704h-29q-21 74 -69 241t-86.5 298.5t-42.5 149.5h-1q-14 -60 -204 -689z" />
    <glyph glyph-name="X" unicode="X" horiz-adv-x="539" 
d="M533 0h-25l-238 343h-1l-239 -343h-24l252 360l-241 344h25l228 -327h1l232 327h24l-245 -343z" />
    <glyph glyph-name="Y" unicode="Y" horiz-adv-x="540" 
d="M278 0h-20v288q0 6 -6 14l-247 402h24q199 -319 239 -392q12 22 53 87.5t100.5 160.5t90.5 144h23l-252 -401q-5 -7 -5 -14v-289z" />
    <glyph glyph-name="Z" unicode="Z" horiz-adv-x="548" 
d="M6 0v15l492 671h-460v18h487v-15l-492 -671h501l-5 -18h-523z" />
    <glyph glyph-name="bracketleft" unicode="[" horiz-adv-x="338" 
d="M278 -169h-184v910h184v-18h-164v-874h164v-18z" />
    <glyph glyph-name="backslash" unicode="\" horiz-adv-x="366" 
d="M285 -34l-233 758h19l234 -758h-20z" />
    <glyph glyph-name="bracketright" unicode="]" horiz-adv-x="338" 
d="M60 741h184v-910h-184v18h164v874h-164v18z" />
    <glyph glyph-name="asciicircum" unicode="^" horiz-adv-x="452" 
d="M415 309h-21l-168 352l-168 -352h-20l175 365h27z" />
    <glyph glyph-name="underscore" unicode="_" horiz-adv-x="541" 
d="M0 -78h541v-51h-541v51z" />
    <glyph glyph-name="grave" unicode="`" 
d="M58 760h25l146 -159h-23z" />
    <glyph glyph-name="a" unicode="a" horiz-adv-x="506" 
d="M421 356v-244q0 -80 5 -112h-20q-5 40 -5 111q-40 -123 -181 -123q-84 0 -125.5 41.5t-41.5 100.5q0 151 222 151q90 0 126 -1v70q0 141 -148 141q-143 0 -155 -131h-20q4 63 44.5 106t131.5 43q85 0 126 -41.5t41 -111.5zM401 214v48q-34 1 -127 1q-200 0 -200 -132
q0 -57 41 -90.5t106 -33.5q87 0 133.5 52.5t46.5 154.5z" />
    <glyph glyph-name="b" unicode="b" horiz-adv-x="548" 
d="M85 138v613h20v-379q46 137 187 137q91 0 148.5 -66.5t57.5 -182.5q0 -136 -61 -204t-151 -68q-139 0 -181 131q2 -73 -1 -119h-20q1 20 1 138zM477 259q0 108 -53 169.5t-133 61.5q-84 0 -136 -59t-52 -186q0 -109 44.5 -173.5t138.5 -64.5q85 0 138 66t53 186z" />
    <glyph glyph-name="c" unicode="c" horiz-adv-x="484" 
d="M429 135h20q-42 -147 -189 -147q-97 0 -153.5 70t-56.5 190q0 117 59.5 189t155.5 72q77 0 124 -43.5t60 -107.5h-21q-35 133 -165 133q-92 0 -142 -70t-50 -173q0 -108 49 -175t141 -67q126 0 168 129z" />
    <glyph glyph-name="d" unicode="d" horiz-adv-x="548" 
d="M443 751h20v-632q0 -18 0.5 -61.5t0.5 -57.5h-19q-2 34 -2 125q-43 -137 -188 -137q-86 0 -145.5 67t-59.5 188q0 128 63 197t155 69q43 0 76.5 -13t53 -34.5t29.5 -37.5t16 -33v360zM71 245q0 -110 52 -174t133 -64q189 0 189 252q0 112 -45 171.5t-134 59.5t-142 -69
t-53 -176z" />
    <glyph glyph-name="e" unicode="e" horiz-adv-x="506" 
d="M459 254h-389q0 -114 51 -180t134 -66q121 0 174 118h20q-52 -136 -193 -136q-72 0 -120.5 40.5t-67 96.5t-18.5 123q0 118 57.5 188.5t150.5 70.5q55 0 96 -22t63 -58t32.5 -73.5t10.5 -76.5q0 -14 -1 -25zM71 272h370q0 95 -47.5 157t-136.5 62q-81 0 -131 -60.5
t-55 -158.5z" />
    <glyph glyph-name="f" unicode="f" horiz-adv-x="232" 
d="M122 0h-20v479h-89v18h89v85q0 39 4 67t15.5 55.5t35.5 42t61 14.5q32 0 46 -8v-19q-20 9 -46 9q-51 0 -73.5 -34.5t-22.5 -116.5v-95h109v-18h-109v-479z" />
    <glyph glyph-name="g" unicode="g" horiz-adv-x="545" 
d="M460 362v-345q0 -126 -47.5 -187.5t-164.5 -61.5q-84 0 -131.5 41t-56.5 102h20q12 -57 55 -91t114 -34q107 0 149 57t42 177v110q-40 -130 -182 -130q-90 0 -148.5 67t-58.5 181q0 123 64 192t152 69q75 0 117.5 -35t56.5 -86q0 24 0.5 49.5t0.5 41.5v18h19
q0 -4 -0.5 -24.5t-0.5 -51v-59.5zM72 249q0 -107 53.5 -168.5t133.5 -61.5q182 0 182 239q0 35 -2.5 62.5t-13.5 61t-29 56t-51 37.5t-79 15q-88 0 -141 -67.5t-53 -173.5z" />
    <glyph glyph-name="h" unicode="h" horiz-adv-x="547" 
d="M85 751h20v-375q18 53 62.5 93t126.5 40q70 0 119 -45t49 -144v-320h-21v318q0 77 -38.5 124.5t-111.5 47.5q-89 0 -137.5 -59.5t-48.5 -153.5v-277h-20v751z" />
    <glyph glyph-name="i" unicode="i" horiz-adv-x="190" 
d="M85 0v497h20v-497h-20zM105 660h-20v91h20v-91z" />
    <glyph glyph-name="j" unicode="j" horiz-adv-x="190" 
d="M85 497h20v-590q0 -68 -20.5 -103.5t-76.5 -35.5h-7v18h2q18 0 29.5 3t25 13t20.5 35.5t7 66.5v593zM105 660h-20v91h20v-91z" />
    <glyph glyph-name="k" unicode="k" horiz-adv-x="456" 
d="M105 751v-520l137.5 125t154.5 141h28l-227 -206q125 -147 255 -291h-28q-111 127 -242 279l-78 -70v-209h-20v751h20z" />
    <glyph glyph-name="l" unicode="l" horiz-adv-x="190" 
d="M105 0h-20v751h20v-751z" />
    <glyph glyph-name="m" unicode="m" horiz-adv-x="848" 
d="M85 0v384q0 90 -1 113h20q3 -47 1 -117q16 53 57 91t115 38q61 0 99.5 -31.5t51.5 -86.5q7 19 18 36.5t30.5 37.5t51.5 32t72 12q72 0 117.5 -46t45.5 -138v-325h-21v323q0 72 -36 119.5t-108 47.5q-78 0 -121 -50.5t-43 -131.5v-308h-21v326q0 74 -35 119t-104 45
q-76 0 -122.5 -57.5t-46.5 -157.5v-275h-20z" />
    <glyph glyph-name="n" unicode="n" horiz-adv-x="547" 
d="M85 0v376q0 29 -0.5 74.5t-0.5 46.5h20q2 -52 1 -125q18 54 63.5 95.5t125.5 41.5q71 0 119.5 -46t48.5 -146v-317h-21v315q0 78 -38 126.5t-112 48.5q-86 0 -136 -62.5t-50 -154.5v-273h-20z" />
    <glyph glyph-name="o" unicode="o" horiz-adv-x="535" 
d="M270 511q94 0 154.5 -70.5t60.5 -191.5q0 -124 -60 -193.5t-160 -69.5q-98 0 -156.5 70.5t-58.5 190.5q0 125 62 194.5t158 69.5zM268 493q-93 0 -145 -70.5t-52 -174.5t51 -174t143 -70q94 0 146.5 68t52.5 176q0 105 -52 175t-144 70z" />
    <glyph glyph-name="p" unicode="p" horiz-adv-x="548" 
d="M105 -224h-20v577q0 113 -1 144h20q3 -60 1 -131q50 143 191 143q89 0 145.5 -67.5t56.5 -179.5q0 -135 -59.5 -204.5t-150.5 -69.5q-135 0 -183 129v-341zM477 261q0 103 -51.5 166t-130.5 63q-88 0 -140 -66t-52 -179q0 -108 45 -173t140 -65q85 0 137 68t52 186z" />
    <glyph glyph-name="q" unicode="q" horiz-adv-x="548" 
d="M443 -224v355q-7 -25 -19.5 -47.5t-33.5 -45.5t-55.5 -36.5t-77.5 -13.5q-88 0 -147.5 65.5t-59.5 188.5q0 128 62 197.5t156 69.5q79 0 119.5 -37.5t55.5 -84.5q0 88 2 110h19q0 -7 -0.5 -60.5t-0.5 -72.5v-588h-20zM71 244q0 -112 52 -174.5t135 -62.5q88 0 137.5 64.5
t49.5 187.5q0 231 -179 231q-89 0 -142 -69t-53 -177z" />
    <glyph glyph-name="r" unicode="r" horiz-adv-x="298" 
d="M85 0v327q0 139 -1 170h19q2 -25 2 -144q19 65 73 109.5t115 46.5v-20q-76 -3 -132 -69t-56 -152v-268h-20z" />
    <glyph glyph-name="s" unicode="s" horiz-adv-x="438" 
d="M42 132h20q13 -64 52.5 -95t111.5 -31t110.5 32.5t38.5 82.5q0 51 -31 80.5t-123 53.5q-90 24 -121.5 53.5t-31.5 79.5q0 51 39.5 86t114.5 35q73 0 116 -38t49 -97h-20q-7 49 -41.5 83t-104.5 34q-67 0 -100 -29t-33 -72q0 -45 29 -71t112 -47q95 -24 131 -58t36 -91
q0 -62 -46 -98.5t-124 -36.5q-161 0 -184 144z" />
    <glyph glyph-name="t" unicode="t" horiz-adv-x="253" 
d="M7 479v18h93v165h20v-165h124v-18h-124v-376q0 -46 15 -70t58 -24q29 0 40 5v-18q-16 -6 -41 -6q-50 0 -71 26t-21 92v371h-93z" />
    <glyph glyph-name="u" unicode="u" horiz-adv-x="541" 
d="M456 497v-361q0 -28 0.5 -78t0.5 -58h-20q-4 28 -2 123q-19 -60 -63.5 -96.5t-114.5 -36.5q-30 0 -57 8t-54.5 27t-44 58t-16.5 94v320h20v-328q0 -68 38 -114t115 -46q80 0 128.5 55t48.5 160v273h21z" />
    <glyph glyph-name="v" unicode="v" horiz-adv-x="465" 
d="M20 497h22q37 -94 87 -219.5t72 -181.5t28 -75h1q10 30 88 219t106 257h21l-204 -497h-24z" />
    <glyph glyph-name="w" unicode="w" horiz-adv-x="761" 
d="M31 497h22q33 -105 72 -228.5t55.5 -176.5t20.5 -72h1q10 35 165 477h27q155 -471 156 -473h1q3 10 158 473h21l-168 -497h-24q-149 444 -158 477h-1q-19 -64 -166 -477h-24z" />
    <glyph glyph-name="x" unicode="x" horiz-adv-x="432" 
d="M19 497h26q56 -76 110.5 -148.5t58.5 -78.5h1q40 51 174 227h25l-186 -241l190 -256h-27q-90 126 -176 239h-1q-10 -15 -32.5 -45.5t-64.5 -87.5t-78 -106h-25l187 253z" />
    <glyph glyph-name="y" unicode="y" horiz-adv-x="476" 
d="M26 497h22q187 -468 191 -481h1q7 18 25.5 65.5t67.5 171.5t96 244h22l-199 -503q-54 -134 -89 -178t-96 -44q-26 0 -38 3l2 20q13 -3 37 -3q48 0 80.5 38t80.5 159z" />
    <glyph glyph-name="z" unicode="z" horiz-adv-x="437" 
d="M29 0v15q112 147 349 464h-333v18h360v-15q-32 -41 -349 -464h354l-4 -18h-377z" />
    <glyph glyph-name="braceleft" unicode="{" horiz-adv-x="332" 
d="M31 276v22q56 0 80.5 30.5t24.5 89.5v168q0 78 42 116.5t116 38.5h8v-18h-7q-139 0 -139 -135v-157q0 -69 -21 -103t-68 -40q51 -10 70 -41.5t19 -104.5v-156q0 -74 34 -104.5t105 -30.5h7v-18h-8q-78 0 -118 34t-40 121v167q0 68 -26.5 94.5t-78.5 26.5z" />
    <glyph glyph-name="bar" unicode="|" horiz-adv-x="208" 
d="M94 781h20v-1043h-20v1043z" />
    <glyph glyph-name="braceright" unicode="}" horiz-adv-x="332" 
d="M301 298v-22q-56 0 -80.5 -30.5t-24.5 -89.5v-168q0 -78 -42 -116.5t-116 -38.5h-8v18h7q139 0 139 135v157q0 69 21 103t68 40q-49 8 -69 41t-20 105v156q0 74 -34 104.5t-105 30.5h-7v18h8q78 0 118 -34t40 -121v-167q0 -68 26.5 -94.5t78.5 -26.5z" />
    <glyph glyph-name="asciitilde" unicode="~" horiz-adv-x="597" 
d="M84 196h-19v8q0 49 24.5 76t69.5 27q49 0 141 -47t138 -47q75 0 75 84v10h19v-8q0 -103 -94 -103q-51 0 -143 46.5t-136 46.5q-75 0 -75 -84v-9z" />
    <glyph glyph-name="uni00A0" unicode="&#xa0;" horiz-adv-x="235" 
 />
    <glyph glyph-name="exclamdown" unicode="&#xa1;" horiz-adv-x="240" 
d="M94 282h18l1 -363v-126h-20v126zM93 497h20v-112h-20v112z" />
    <glyph glyph-name="cent" unicode="&#xa2;" horiz-adv-x="499" 
d="M437 223h21q-21 -68 -69 -100.5t-112 -32.5v-101h-19v101q-91 5 -146 68t-55 174q0 106 56.5 167t144.5 66v81h19v-81q77 -1 122 -39.5t59 -98.5h-21q-34 116 -160 120v-439q122 3 160 115zM78 332q0 -99 48.5 -159t131.5 -65v439q-77 -4 -128.5 -59.5t-51.5 -155.5z" />
    <glyph glyph-name="sterling" unicode="&#xa3;" horiz-adv-x="463" 
d="M451 0h-438v17q104 63 104 241q0 14 -0.5 36t-0.5 31h-103v18h102q-6 84 -6 140q0 95 42.5 143.5t113.5 48.5q136 0 155 -138h-19q-21 120 -136 120q-66 0 -101 -44t-35 -128q0 -27 3 -78.5t3 -63.5h173v-18h-172q0 -10 0.5 -31.5t0.5 -33.5q0 -163 -90 -242h409z" />
    <glyph glyph-name="currency" unicode="&#xa4;" horiz-adv-x="495" 
d="M243 529q81 0 135 -54l67 70l13 -15l-69 -69q41 -52 41 -126q0 -78 -41 -131l69 -68l-14 -15l-66 69q-52 -55 -135 -55q-81 0 -133 55l-68 -69l-13 15l69 68q-42 54 -42 131q0 76 43 128l-70 67l14 15l68 -69q51 53 132 53zM243 511q-77 0 -122.5 -50.5t-45.5 -125.5
q0 -78 45.5 -130t122.5 -52q78 0 123 51t45 131q0 75 -45.5 125.5t-122.5 50.5z" />
    <glyph glyph-name="yen" unicode="&#xa5;" horiz-adv-x="436" 
d="M361 213h-139v-213h-20v213h-136v17h136v86h-136v17h133l-204 329h23q171 -277 194 -316h1q32 54 193 316h21l-203 -329h137v-17h-139v-86h139v-17z" />
    <glyph glyph-name="brokenbar" unicode="&#xa6;" horiz-adv-x="209" 
d="M95 179h20v-442h-20v442zM95 781h20v-448h-20v448z" />
    <glyph glyph-name="section" unicode="&#xa7;" horiz-adv-x="521" 
d="M441 584h-19q-10 52 -51 82t-108 30q-69 0 -106 -32.5t-37 -85.5q0 -57 37 -85.5t132 -65.5q91 -35 131 -73t40 -104q0 -84 -76 -136q44 -38 44 -106q0 -65 -46.5 -106.5t-127.5 -41.5t-131 39t-62 105h21q14 -63 60.5 -94.5t111.5 -31.5q73 0 113 35t40 93t-34 93.5
t-142 76.5q-100 37 -136 74t-36 95q0 41 24 76t64 54q-47 42 -47 100q0 62 43 101t121 38q82 -1 125.5 -39t51.5 -91zM78 347q0 -54 32.5 -86t127.5 -68q91 -35 135 -67q68 46 68 121q0 57 -32 91.5t-123 70.5q-84 33 -124 55q-84 -41 -84 -117z" />
    <glyph glyph-name="dieresis" unicode="&#xa8;" 
d="M129 665h-20v86h20v-86zM289 665h-20v86h20v-86z" />
    <glyph glyph-name="copyright" unicode="&#xa9;" horiz-adv-x="805" 
d="M549 276h19q-33 -124 -156 -124q-83 0 -134 55t-51 152t48 154.5t134 57.5q65 0 107 -36.5t52 -93.5h-19q-15 57 -53 84.5t-87 27.5q-77 0 -119.5 -52t-42.5 -142t46 -139.5t119 -49.5q102 0 137 106zM400 711q156 0 253 -102t97 -253q0 -156 -94.5 -256t-255.5 -100
q-159 0 -254.5 102t-95.5 254q0 151 96 253t254 102zM400 693q-148 0 -239 -97t-91 -240q0 -89 38 -165t114.5 -124.5t177.5 -48.5q152 0 241 97t89 241q0 138 -89.5 237.5t-240.5 99.5z" />
    <glyph glyph-name="ordfeminine" unicode="&#xaa;" horiz-adv-x="332" 
d="M280 498v-155q0 -54 2 -74h-19q-3 30 -2 65q-30 -73 -122 -73q-56 0 -83.5 29.5t-27.5 66.5q0 106 151 106h82v33q0 97 -95 97q-94 0 -99 -86h-19q2 46 31 74.5t89 28.5q112 0 112 -112zM261 404v42h-81q-72 0 -102 -22.5t-30 -66.5q0 -35 26.5 -57t65.5 -22
q60 0 90.5 32.5t30.5 93.5z" />
    <glyph glyph-name="guillemotleft" unicode="&#xab;" horiz-adv-x="406" 
d="M216 447l-162 -191l162 -191h-23l-163 191l163 191h23zM376 447l-162 -191l162 -191h-23l-163 191l163 191h23z" />
    <glyph glyph-name="logicalnot" unicode="&#xac;" horiz-adv-x="646" 
d="M65 353h501v-263h-20v245h-481v18z" />
    <glyph glyph-name="uni00AD" unicode="&#xad;" horiz-adv-x="348" 
d="M50 261h248v-18h-248v18z" />
    <glyph glyph-name="registered" unicode="&#xae;" horiz-adv-x="263" 
d="M111 539h-16v123h43q45 0 45 -34q0 -21 -22 -28q18 -7 18 -31q0 -12 2 -30h-15q-3 11 -3 30q0 25 -25 25h-27v-55zM111 649v-43h28q28 0 28 23q0 20 -29 20h-27zM136 714q48 0 82.5 -32t34.5 -86q0 -56 -33.5 -88t-84.5 -32q-49 0 -82 32.5t-33 87.5q0 53 34.5 85.5
t81.5 32.5zM136 700q-41 0 -70.5 -28.5t-29.5 -75.5q0 -49 29 -77.5t70 -28.5q44 0 72.5 27.5t28.5 78.5q0 49 -29.5 76.5t-70.5 27.5z" />
    <glyph glyph-name="macron" unicode="&#xaf;" 
d="M70 686h256v-18h-256v18z" />
    <glyph glyph-name="degree" unicode="&#xb0;" horiz-adv-x="270" 
d="M135 700q49 0 82 -31t33 -84q0 -51 -33.5 -83.5t-81.5 -32.5t-81.5 32.5t-33.5 83.5t33.5 83t81.5 32zM135 683q-42 0 -69 -27.5t-27 -70.5t27 -71t69 -28t69 28t27 71t-27 70.5t-69 27.5z" />
    <glyph glyph-name="plusminus" unicode="&#xb1;" horiz-adv-x="631" 
d="M305 586h20v-229h241v-18h-241v-239h-20v239h-240v18h240v229zM566 0h-501v18h501v-18z" />
    <glyph glyph-name="two.sups" unicode="&#xb2;" horiz-adv-x="321" 
d="M293 434h-262v3q0 81 126 164q65 43 84 63.5t19 60.5q0 42 -26 67t-71 25q-91 0 -107 -95h-19q6 50 39 81t88 31t85.5 -30.5t30.5 -77.5q0 -44 -22 -68.5t-88 -68.5q-107 -70 -120 -138h248z" />
    <glyph glyph-name="three.sups" unicode="&#xb3;" horiz-adv-x="321" 
d="M127 641v17h20q104 0 104 76q0 38 -24 60.5t-71 22.5q-82 0 -101 -80h-19q8 43 38.5 70t82.5 27q51 0 82 -25.5t31 -74.5q0 -37 -21 -57.5t-49 -26.5q91 -19 91 -104q0 -57 -38.5 -87.5t-94.5 -30.5q-38 0 -66 11.5t-42.5 30t-21 34t-9.5 31.5h19q9 -43 40 -66.5
t80 -23.5q52 0 82.5 26.5t30.5 71.5q0 98 -125 98h-19z" />
    <glyph glyph-name="acute" unicode="&#xb4;" 
d="M308 760h25l-154 -159h-23z" />
    <glyph glyph-name="uni00B5" unicode="&#xb5;" horiz-adv-x="531" 
d="M250 -8q-116 0 -151 88q0 -224 1 -304h-20v118v145v131v327h20v-335q0 -64 37 -107.5t114 -43.5t128 55t51 158v273h21v-361q0 -114 3 -136h-19q-7 25 -5 123q-18 -58 -65.5 -94.5t-114.5 -36.5z" />
    <glyph glyph-name="paragraph" unicode="&#xb6;" horiz-adv-x="522" 
d="M406 -160h-20v342q-19 -1 -131 -1q-215 0 -215 238q0 97 50 161t148 64h148q3 67 3 70h18q-1 -27 -1 -81v-793zM318 200h68v425h-72q-31 0 -51 -13.5t-35 -62.5t-15 -136q0 -119 24.5 -166t80.5 -47z" />
    <glyph glyph-name="periodcentered" unicode="&#xb7;" horiz-adv-x="120" 
d="M70 200h-20v112h20v-112z" />
    <glyph glyph-name="cedilla" unicode="&#xb8;" 
d="M190 0h19l-33 -67q56 0 85 -22t29 -58t-25.5 -57t-66.5 -21q-45 0 -73 14v19q31 -15 73 -15q35 0 53.5 16.5t18.5 42.5q0 30 -28.5 48t-89.5 15v10z" />
    <glyph glyph-name="one.sups" unicode="&#xb9;" horiz-adv-x="212" 
d="M128 434h-19v373q-34 -28 -85 -38v17q49 11 90 46h14v-398z" />
    <glyph glyph-name="ordmasculine" unicode="&#xba;" horiz-adv-x="357" 
d="M180 610q64 0 105 -48t41 -127q0 -82 -41 -128t-108 -46q-68 0 -107 49.5t-39 123.5q0 85 43.5 130.5t105.5 45.5zM179 593q-62 0 -95 -45.5t-33 -113.5q0 -67 34 -111.5t92 -44.5q63 0 96 43.5t33 112.5q0 67 -34 113t-93 46z" />
    <glyph glyph-name="guillemotright" unicode="&#xbb;" horiz-adv-x="406" 
d="M190 65l162 191l-162 191h23l163 -191l-163 -191h-23zM30 65l162 191l-162 191h23l163 -191l-163 -191h-23z" />
    <glyph glyph-name="onequarter" unicode="&#xbc;" horiz-adv-x="694" 
d="M101 0h-23l454 662h22zM143 267h-19v373q-34 -28 -85 -38v17q49 11 90 46h14v-398zM592 0h-19v117h-207v18l206 260h20v-261h63l-4 -17h-59v-117zM388 134h185v128q0 92 2 112q-7 -11 -41.5 -55.5t-80.5 -102t-65 -82.5z" />
    <glyph glyph-name="onehalf" unicode="&#xbd;" horiz-adv-x="726" 
d="M95 0h-23l454 662h22zM138 267h-19v373q-34 -28 -85 -38v17q49 11 90 46h14v-398zM685 0h-262v3q0 81 126 164q65 43 84 63.5t19 60.5q0 42 -26 67t-71 25q-91 0 -107 -95h-19q6 50 39 81t88 31t85.5 -30.5t30.5 -77.5q0 -44 -22 -68.5t-88 -68.5q-107 -70 -120 -138h248
z" />
    <glyph glyph-name="threequarters" unicode="&#xbe;" horiz-adv-x="767" 
d="M199 0h-23l454 662h22zM659 0h-19v117h-207v18l206 260h20v-261h63l-4 -17h-59v-117zM455 134h185v128q0 92 2 112q-7 -11 -41.5 -55.5t-80.5 -102t-65 -82.5zM142 474v17h20q104 0 104 76q0 38 -24 60.5t-71 22.5q-82 0 -101 -80h-19q8 43 38.5 70t82.5 27
q51 0 82 -25.5t31 -74.5q0 -37 -21 -57.5t-49 -26.5q91 -19 91 -104q0 -57 -38.5 -87.5t-94.5 -30.5q-38 0 -66 11.5t-42.5 30t-21 34t-9.5 31.5h19q9 -43 40 -66.5t80 -23.5q52 0 82.5 26.5t30.5 71.5q0 98 -125 98h-19z" />
    <glyph glyph-name="questiondown" unicode="&#xbf;" horiz-adv-x="411" 
d="M20 -51q0 57 21.5 98t79.5 94q43 39 61.5 73.5t18.5 76.5v5h19v-2q0 -43 -16.5 -81t-73.5 -89q-55 -50 -72 -89t-17 -84q0 -61 39.5 -106t114.5 -45q70 0 114.5 38.5t57.5 114.5h20q-4 -28 -14 -53t-30 -54t-58.5 -46t-89.5 -17q-84 0 -129.5 49t-45.5 117zM200 497h20
v-107h-20v107z" />
    <glyph glyph-name="Agrave" unicode="&#xc0;" horiz-adv-x="624" 
d="M467 274h-315l-105 -274h-21l270 704h21l281 -704h-22zM159 292h300q-39 98 -74 187.5t-55 141.5t-24 62h-1q-8 -31 -146 -391zM131 919h29l165 -150h-25z" />
    <glyph glyph-name="Aacute" unicode="&#xc1;" horiz-adv-x="624" 
d="M467 274h-315l-105 -274h-21l270 704h21l281 -704h-22zM159 292h300q-39 98 -74 187.5t-55 141.5t-24 62h-1q-8 -31 -146 -391zM455 919h29l-171 -150h-25z" />
    <glyph glyph-name="Acircumflex" unicode="&#xc2;" horiz-adv-x="624" 
d="M467 274h-315l-105 -274h-21l270 704h21l281 -704h-22zM159 292h300q-39 98 -74 187.5t-55 141.5t-24 62h-1q-8 -31 -146 -391zM296 897h25l127 -128h-25l-115 114l-112 -114h-24z" />
    <glyph glyph-name="Atilde" unicode="&#xc3;" horiz-adv-x="624" 
d="M467 274h-315l-105 -274h-21l270 704h21l281 -704h-22zM159 292h300q-39 98 -74 187.5t-55 141.5t-24 62h-1q-8 -31 -146 -391zM189 790h-18v11q0 70 63 70q28 0 79 -30.5t74 -30.5q45 0 45 57v9h18v-11q0 -75 -61 -75q-28 0 -80.5 31t-74.5 31q-45 0 -45 -53v-9z" />
    <glyph glyph-name="Adieresis" unicode="&#xc4;" horiz-adv-x="624" 
d="M467 274h-315l-105 -274h-21l270 704h21l281 -704h-22zM159 292h300q-39 98 -74 187.5t-55 141.5t-24 62h-1q-8 -31 -146 -391zM227 788h-20v86h20v-86zM417 788h-20v86h20v-86z" />
    <glyph glyph-name="Aring" unicode="&#xc5;" horiz-adv-x="624" 
d="M467 274h-315l-105 -274h-21l270 704h21l281 -704h-22zM159 292h300q-39 98 -74 187.5t-55 141.5t-24 62h-1q-8 -31 -146 -391zM305 763q-38 0 -61.5 25.5t-23.5 61.5t23.5 61.5t61.5 25.5t62 -25.5t24 -61.5t-24 -61.5t-62 -25.5zM305 781q31 0 49 20.5t18 48.5
t-18 48.5t-49 20.5t-48.5 -20.5t-17.5 -48.5t17.5 -48.5t48.5 -20.5z" />
    <glyph glyph-name="AE" unicode="&#xc6;" horiz-adv-x="929" 
d="M467 704h421v-18h-393v-304h373v-18h-373v-346h407l-4 -18h-423v294h-265l-200 -294h-25zM223 312h252v367h-1z" />
    <glyph glyph-name="Ccedilla" unicode="&#xc7;" horiz-adv-x="661" 
d="M599 186h21q-61 -190 -255 -196l-28 -57q56 0 85 -22t29 -58t-25.5 -57t-66.5 -21q-45 0 -73 14v19q31 -15 73 -15q35 0 53.5 16.5t18.5 42.5q0 30 -28.5 48t-89.5 15v10l33 65q-143 3 -219.5 103.5t-76.5 254.5q0 159 79.5 262.5t229.5 103.5q101 0 169 -54.5t91 -151.5
h-21q-22 86 -84.5 136.5t-154.5 50.5q-143 0 -215.5 -98.5t-72.5 -248.5q0 -67 17 -127t50.5 -108t89 -76t126.5 -28q96 0 156.5 48t88.5 129z" />
    <glyph glyph-name="Egrave" unicode="&#xc8;" horiz-adv-x="558" 
d="M497 382v-18h-383v-346h417l-4 -18h-433v704h423v-18h-403v-304h383zM138 929h29l165 -150h-25z" />
    <glyph glyph-name="Eacute" unicode="&#xc9;" horiz-adv-x="558" 
d="M497 382v-18h-383v-346h417l-4 -18h-433v704h423v-18h-403v-304h383zM442 929h29l-171 -150h-25z" />
    <glyph glyph-name="Ecircumflex" unicode="&#xca;" horiz-adv-x="558" 
d="M497 382v-18h-383v-346h417l-4 -18h-433v704h423v-18h-403v-304h383zM293 907h25l127 -128h-25l-115 114l-112 -114h-24z" />
    <glyph glyph-name="Edieresis" unicode="&#xcb;" horiz-adv-x="558" 
d="M497 382v-18h-383v-346h417l-4 -18h-433v704h423v-18h-403v-304h383zM224 788h-20v86h20v-86zM414 788h-20v86h20v-86z" />
    <glyph glyph-name="Igrave" unicode="&#xcc;" horiz-adv-x="208" 
d="M94 704h20v-704h-20v704zM-67 929h29l165 -150h-25z" />
    <glyph glyph-name="Iacute" unicode="&#xcd;" horiz-adv-x="208" 
d="M94 704h20v-704h-20v704zM257 929h29l-171 -150h-25z" />
    <glyph glyph-name="Icircumflex" unicode="&#xce;" horiz-adv-x="208" 
d="M94 704h20v-704h-20v704zM88 907h25l127 -128h-25l-115 114l-112 -114h-24z" />
    <glyph glyph-name="Idieresis" unicode="&#xcf;" horiz-adv-x="208" 
d="M94 704h20v-704h-20v704zM19 788h-20v86h20v-86zM209 788h-20v86h20v-86z" />
    <glyph glyph-name="Eth" unicode="&#xd0;" horiz-adv-x="700" 
d="M5 375h99v329h213q156 0 244.5 -94.5t88.5 -242.5q0 -165 -87.5 -266t-247.5 -101h-211v356h-99v19zM124 686v-311h234v-19h-234v-338h193q143 0 227.5 92t84.5 256q0 142 -83.5 231t-231.5 89h-190z" />
    <glyph glyph-name="Ntilde" unicode="&#xd1;" horiz-adv-x="702" 
d="M114 0h-20v704h32q413 -606 463 -683l2 -3q-3 19 -3 333v353h20v-704h-29q-374 552 -466 687l-2 3q3 -56 3 -329v-361zM228 790h-18v11q0 70 63 70q29 0 80 -30.5t73 -30.5q45 0 45 57v9h18v-11q0 -75 -61 -75q-28 0 -80.5 31t-74.5 31q-45 0 -45 -53v-9z" />
    <glyph glyph-name="Ograve" unicode="&#xd2;" horiz-adv-x="722" 
d="M364 714q140 0 224 -102t84 -254q0 -159 -81.5 -263.5t-232.5 -104.5q-142 0 -225 103t-83 259q0 153 83.5 257.5t230.5 104.5zM363 696q-134 0 -213 -97.5t-79 -244.5q0 -93 31 -170t97.5 -126.5t158.5 -49.5q141 0 217 98t76 251q0 144 -78 241.5t-210 97.5zM200 938
h29l165 -150h-25z" />
    <glyph glyph-name="Oacute" unicode="&#xd3;" horiz-adv-x="722" 
d="M364 714q140 0 224 -102t84 -254q0 -159 -81.5 -263.5t-232.5 -104.5q-142 0 -225 103t-83 259q0 153 83.5 257.5t230.5 104.5zM363 696q-134 0 -213 -97.5t-79 -244.5q0 -93 31 -170t97.5 -126.5t158.5 -49.5q141 0 217 98t76 251q0 144 -78 241.5t-210 97.5zM494 937
h29l-171 -150h-25z" />
    <glyph glyph-name="Ocircumflex" unicode="&#xd4;" horiz-adv-x="722" 
d="M364 714q140 0 224 -102t84 -254q0 -159 -81.5 -263.5t-232.5 -104.5q-142 0 -225 103t-83 259q0 153 83.5 257.5t230.5 104.5zM363 696q-134 0 -213 -97.5t-79 -244.5q0 -93 31 -170t97.5 -126.5t158.5 -49.5q141 0 217 98t76 251q0 144 -78 241.5t-210 97.5zM345 907
h25l127 -128h-25l-115 114l-112 -114h-24z" />
    <glyph glyph-name="Otilde" unicode="&#xd5;" horiz-adv-x="722" 
d="M364 714q140 0 224 -102t84 -254q0 -159 -81.5 -263.5t-232.5 -104.5q-142 0 -225 103t-83 259q0 153 83.5 257.5t230.5 104.5zM363 696q-134 0 -213 -97.5t-79 -244.5q0 -93 31 -170t97.5 -126.5t158.5 -49.5q141 0 217 98t76 251q0 144 -78 241.5t-210 97.5zM238 800
h-18v11q0 70 63 70q29 0 80 -30.5t73 -30.5q45 0 45 57v9h18v-11q0 -75 -61 -75q-28 0 -80.5 31t-74.5 31q-45 0 -45 -53v-9z" />
    <glyph glyph-name="Odieresis" unicode="&#xd6;" horiz-adv-x="722" 
d="M364 714q140 0 224 -102t84 -254q0 -159 -81.5 -263.5t-232.5 -104.5q-142 0 -225 103t-83 259q0 153 83.5 257.5t230.5 104.5zM363 696q-134 0 -213 -97.5t-79 -244.5q0 -93 31 -170t97.5 -126.5t158.5 -49.5q141 0 217 98t76 251q0 144 -78 241.5t-210 97.5zM276 788
h-20v86h20v-86zM466 788h-20v86h20v-86z" />
    <glyph glyph-name="multiply" unicode="&#xd7;" horiz-adv-x="599" 
d="M532 27l-13 -15l-220 224l-219 -223l-14 14l220 223l-221 225l13 12l221 -224l222 225l13 -12l-222 -226z" />
    <glyph glyph-name="Oslash" unicode="&#xd8;" horiz-adv-x="722" 
d="M364 714q110 0 188 -65l40 55h24l-49 -68q105 -100 105 -278q0 -76 -19 -141.5t-56 -116.5t-98.5 -80.5t-140.5 -29.5q-121 0 -202 76l-48 -66h-24l58 81q-92 101 -92 271q0 154 82 258t232 104zM71 354q0 -158 84 -255l385 532q-74 63 -177 63q-138 0 -215 -96t-77 -244
zM358 10q143 0 218 97t75 250q0 77 -25 146t-72 115l-385 -533q75 -75 189 -75z" />
    <glyph glyph-name="Ugrave" unicode="&#xd9;" horiz-adv-x="672" 
d="M84 704h20v-440q0 -133 66.5 -194.5t167.5 -61.5q113 0 171.5 65t58.5 191v440h20v-436q0 -278 -252 -278q-50 0 -92.5 13.5t-79.5 42.5t-58.5 82.5t-21.5 126.5v449zM175 929h29l165 -150h-25z" />
    <glyph glyph-name="Uacute" unicode="&#xda;" horiz-adv-x="672" 
d="M84 704h20v-440q0 -133 66.5 -194.5t167.5 -61.5q113 0 171.5 65t58.5 191v440h20v-436q0 -278 -252 -278q-50 0 -92.5 13.5t-79.5 42.5t-58.5 82.5t-21.5 126.5v449zM469 929h29l-171 -150h-25z" />
    <glyph glyph-name="Ucircumflex" unicode="&#xdb;" horiz-adv-x="672" 
d="M84 704h20v-440q0 -133 66.5 -194.5t167.5 -61.5q113 0 171.5 65t58.5 191v440h20v-436q0 -278 -252 -278q-50 0 -92.5 13.5t-79.5 42.5t-58.5 82.5t-21.5 126.5v449zM320 907h25l127 -128h-25l-115 114l-112 -114h-24z" />
    <glyph glyph-name="Udieresis" unicode="&#xdc;" horiz-adv-x="672" 
d="M84 704h20v-440q0 -133 66.5 -194.5t167.5 -61.5q113 0 171.5 65t58.5 191v440h20v-436q0 -278 -252 -278q-50 0 -92.5 13.5t-79.5 42.5t-58.5 82.5t-21.5 126.5v449zM251 788h-20v86h20v-86zM441 788h-20v86h20v-86z" />
    <glyph glyph-name="Yacute" unicode="&#xdd;" horiz-adv-x="540" 
d="M278 0h-20v288q0 6 -6 14l-247 402h24q199 -319 239 -392q12 22 53 87.5t100.5 160.5t90.5 144h23l-252 -401q-5 -7 -5 -14v-289zM403 929h29l-171 -150h-25z" />
    <glyph glyph-name="Thorn" unicode="&#xde;" horiz-adv-x="558" 
d="M95 0v704h20v-157h156q123 0 185 -47t62 -134q0 -96 -68.5 -140.5t-178.5 -44.5h-156v-181h-20zM115 528v-328h162q104 0 162 41t58 124q0 163 -220 163h-162z" />
    <glyph glyph-name="germandbls" unicode="&#xdf;" horiz-adv-x="564" 
d="M282 761q56 0 96.5 -17t61.5 -45.5t30.5 -59t9.5 -62.5v-15l-217 -136v-1q9 -5 48 -26.5t59 -32.5q78 -45 114 -89t36 -112q0 -81 -52.5 -128t-136.5 -47q-112 0 -174 72l1 30q60 -84 173 -84q79 0 123.5 45t44.5 109q0 63 -31 103.5t-109 85.5q-58 33 -102 56
q-32 15 0 35l203 129q0 29 -7.5 56.5t-25.5 55t-55.5 44t-89.5 16.5q-88 0 -133 -47.5t-45 -137.5v-558h-19v568q0 90 51.5 141.5t145.5 51.5z" />
    <glyph glyph-name="agrave" unicode="&#xe0;" horiz-adv-x="506" 
d="M421 356v-244q0 -80 5 -112h-20q-5 40 -5 111q-40 -123 -181 -123q-84 0 -125.5 41.5t-41.5 100.5q0 151 222 151q90 0 126 -1v70q0 141 -148 141q-143 0 -155 -131h-20q4 63 44.5 106t131.5 43q85 0 126 -41.5t41 -111.5zM401 214v48q-34 1 -127 1q-200 0 -200 -132
q0 -57 41 -90.5t106 -33.5q87 0 133.5 52.5t46.5 154.5zM111 760h25l146 -159h-23z" />
    <glyph glyph-name="aacute" unicode="&#xe1;" horiz-adv-x="506" 
d="M421 356v-244q0 -80 5 -112h-20q-5 40 -5 111q-40 -123 -181 -123q-84 0 -125.5 41.5t-41.5 100.5q0 151 222 151q90 0 126 -1v70q0 141 -148 141q-143 0 -155 -131h-20q4 63 44.5 106t131.5 43q85 0 126 -41.5t41 -111.5zM401 214v48q-34 1 -127 1q-200 0 -200 -132
q0 -57 41 -90.5t106 -33.5q87 0 133.5 52.5t46.5 154.5zM361 760h25l-154 -159h-23z" />
    <glyph glyph-name="acircumflex" unicode="&#xe2;" horiz-adv-x="506" 
d="M421 356v-244q0 -80 5 -112h-20q-5 40 -5 111q-40 -123 -181 -123q-84 0 -125.5 41.5t-41.5 100.5q0 151 222 151q90 0 126 -1v70q0 141 -148 141q-143 0 -155 -131h-20q4 63 44.5 106t131.5 43q85 0 126 -41.5t41 -111.5zM401 214v48q-34 1 -127 1q-200 0 -200 -132
q0 -57 41 -90.5t106 -33.5q87 0 133.5 52.5t46.5 154.5zM242 759h19l113 -150h-23l-100 134l-97 -134h-22z" />
    <glyph glyph-name="atilde" unicode="&#xe3;" horiz-adv-x="506" 
d="M421 356v-244q0 -80 5 -112h-20q-5 40 -5 111q-40 -123 -181 -123q-84 0 -125.5 41.5t-41.5 100.5q0 151 222 151q90 0 126 -1v70q0 141 -148 141q-143 0 -155 -131h-20q4 63 44.5 106t131.5 43q85 0 126 -41.5t41 -111.5zM401 214v48q-34 1 -127 1q-200 0 -200 -132
q0 -57 41 -90.5t106 -33.5q87 0 133.5 52.5t46.5 154.5zM134 648h-17v10q0 68 59 68q31 0 81.5 -30t72.5 -30q38 0 38 49v12h17v-12q0 -66 -55 -66q-26 0 -78.5 30.5t-76.5 30.5q-41 0 -41 -52v-10z" />
    <glyph glyph-name="adieresis" unicode="&#xe4;" horiz-adv-x="506" 
d="M421 356v-244q0 -80 5 -112h-20q-5 40 -5 111q-40 -123 -181 -123q-84 0 -125.5 41.5t-41.5 100.5q0 151 222 151q90 0 126 -1v70q0 141 -148 141q-143 0 -155 -131h-20q4 63 44.5 106t131.5 43q85 0 126 -41.5t41 -111.5zM401 214v48q-34 1 -127 1q-200 0 -200 -132
q0 -57 41 -90.5t106 -33.5q87 0 133.5 52.5t46.5 154.5zM182 665h-20v86h20v-86zM342 665h-20v86h20v-86z" />
    <glyph glyph-name="aring" unicode="&#xe5;" horiz-adv-x="506" 
d="M421 356v-244q0 -80 5 -112h-20q-5 40 -5 111q-40 -123 -181 -123q-84 0 -125.5 41.5t-41.5 100.5q0 151 222 151q90 0 126 -1v70q0 141 -148 141q-143 0 -155 -131h-20q4 63 44.5 106t131.5 43q85 0 126 -41.5t41 -111.5zM401 214v48q-34 1 -127 1q-200 0 -200 -132
q0 -57 41 -90.5t106 -33.5q87 0 133.5 52.5t46.5 154.5zM250 593q-38 0 -61.5 25.5t-23.5 61.5t23.5 61.5t61.5 25.5t62 -25.5t24 -61.5t-24 -61.5t-62 -25.5zM250 611q31 0 49 20.5t18 48.5t-18 48.5t-49 20.5t-48.5 -20.5t-17.5 -48.5t17.5 -48.5t48.5 -20.5z" />
    <glyph glyph-name="ae" unicode="&#xe6;" horiz-adv-x="858" 
d="M787 126h20q-52 -134 -195 -134q-80 0 -128.5 42t-68.5 109q-41 -151 -192 -151q-85 0 -127.5 43t-42.5 101q0 44 18 73.5t52.5 44.5t73.5 21t92 6h112v72q0 56 -34 96t-114 40q-71 0 -109.5 -33.5t-45.5 -90.5h-20q5 60 48.5 101t129.5 41q79 0 120.5 -39.5t43.5 -99.5
q24 65 74 102t118 37q52 0 92.5 -20.5t63 -54t33.5 -70t11 -74.5q0 -14 -1 -25h-390q-4 -120 50 -186t141 -66q124 0 175 115zM401 214v49h-100q-25 0 -42.5 -0.5t-43 -3t-43 -7.5t-37.5 -14t-32 -22t-20 -33t-8 -45q0 -58 41 -92.5t106 -34.5q89 0 134 52t45 151zM422 281
h370q0 91 -47 149t-134 59q-81 1 -133 -57t-56 -151z" />
    <glyph glyph-name="ccedilla" unicode="&#xe7;" horiz-adv-x="484" 
d="M429 135h20q-42 -147 -184 -147l-27 -55q56 0 85 -22t29 -58t-25.5 -57t-66.5 -21q-45 0 -73 14v19q31 -15 73 -15q35 0 53.5 16.5t18.5 42.5q0 30 -28.5 48t-89.5 15v10l32 63q-91 5 -143.5 74.5t-52.5 185.5q0 117 59.5 189t155.5 72q77 0 124 -43.5t60 -107.5h-21
q-35 133 -165 133q-92 0 -142 -70t-50 -173q0 -108 49 -175t141 -67q126 0 168 129z" />
    <glyph glyph-name="egrave" unicode="&#xe8;" horiz-adv-x="506" 
d="M459 254h-389q0 -114 51 -180t134 -66q121 0 174 118h20q-52 -136 -193 -136q-72 0 -120.5 40.5t-67 96.5t-18.5 123q0 118 57.5 188.5t150.5 70.5q55 0 96 -22t63 -58t32.5 -73.5t10.5 -76.5q0 -14 -1 -25zM71 272h370q0 95 -47.5 157t-136.5 62q-81 0 -131 -60.5
t-55 -158.5zM122 760h25l146 -159h-23z" />
    <glyph glyph-name="eacute" unicode="&#xe9;" horiz-adv-x="506" 
d="M459 254h-389q0 -114 51 -180t134 -66q121 0 174 118h20q-52 -136 -193 -136q-72 0 -120.5 40.5t-67 96.5t-18.5 123q0 118 57.5 188.5t150.5 70.5q55 0 96 -22t63 -58t32.5 -73.5t10.5 -76.5q0 -14 -1 -25zM71 272h370q0 95 -47.5 157t-136.5 62q-81 0 -131 -60.5
t-55 -158.5zM374 760h25l-154 -159h-23z" />
    <glyph glyph-name="ecircumflex" unicode="&#xea;" horiz-adv-x="506" 
d="M459 254h-389q0 -114 51 -180t134 -66q121 0 174 118h20q-52 -136 -193 -136q-72 0 -120.5 40.5t-67 96.5t-18.5 123q0 118 57.5 188.5t150.5 70.5q55 0 96 -22t63 -58t32.5 -73.5t10.5 -76.5q0 -14 -1 -25zM71 272h370q0 95 -47.5 157t-136.5 62q-81 0 -131 -60.5
t-55 -158.5zM252 759h19l113 -150h-23l-100 134l-97 -134h-22z" />
    <glyph glyph-name="edieresis" unicode="&#xeb;" horiz-adv-x="506" 
d="M459 254h-389q0 -114 51 -180t134 -66q121 0 174 118h20q-52 -136 -193 -136q-72 0 -120.5 40.5t-67 96.5t-18.5 123q0 118 57.5 188.5t150.5 70.5q55 0 96 -22t63 -58t32.5 -73.5t10.5 -76.5q0 -14 -1 -25zM71 272h370q0 95 -47.5 157t-136.5 62q-81 0 -131 -60.5
t-55 -158.5zM192 665h-20v86h20v-86zM352 665h-20v86h20v-86z" />
    <glyph glyph-name="igrave" unicode="&#xec;" horiz-adv-x="190" 
d="M85 0v497h20v-497h-20zM-60 760h25l146 -159h-23z" />
    <glyph glyph-name="iacute" unicode="&#xed;" horiz-adv-x="190" 
d="M85 0v497h20v-497h-20zM230 760h25l-154 -159h-23z" />
    <glyph glyph-name="icircumflex" unicode="&#xee;" horiz-adv-x="190" 
d="M85 0v497h20v-497h-20zM84 759h19l113 -150h-23l-100 134l-97 -134h-22z" />
    <glyph glyph-name="idieresis" unicode="&#xef;" horiz-adv-x="190" 
d="M85 0v497h20v-497h-20zM24 665h-20v86h20v-86zM184 665h-20v86h20v-86z" />
    <glyph glyph-name="eth" unicode="&#xf0;" horiz-adv-x="536" 
d="M121 742v20q99 -27 177 -86l110 77l9 -15l-105 -74q170 -139 170 -396q0 -137 -61 -207.5t-159 -70.5q-96 0 -155.5 72.5t-59.5 186.5q0 123 64.5 192t158.5 69q114 0 173 -93q-37 146 -147 236l-133 -94l-10 15l128 90q-66 50 -160 78zM269 490q-95 0 -148 -69.5
t-53 -171.5q0 -109 57 -174.5t136 -65.5q94 0 147 67.5t53 188.5q0 109 -52 167t-140 58z" />
    <glyph glyph-name="ntilde" unicode="&#xf1;" horiz-adv-x="547" 
d="M85 0v376q0 29 -0.5 74.5t-0.5 46.5h20q2 -52 1 -125q18 54 63.5 95.5t125.5 41.5q71 0 119.5 -46t48.5 -146v-317h-21v315q0 78 -38 126.5t-112 48.5q-86 0 -136 -62.5t-50 -154.5v-273h-20zM154 648h-17v10q0 68 59 68q31 0 81.5 -30t72.5 -30q38 0 38 49v12h17v-12
q0 -66 -55 -66q-26 0 -78.5 30.5t-76.5 30.5q-41 0 -41 -52v-10z" />
    <glyph glyph-name="ograve" unicode="&#xf2;" horiz-adv-x="535" 
d="M270 511q94 0 154.5 -70.5t60.5 -191.5q0 -124 -60 -193.5t-160 -69.5q-98 0 -156.5 70.5t-58.5 190.5q0 125 62 194.5t158 69.5zM268 493q-93 0 -145 -70.5t-52 -174.5t51 -174t143 -70q94 0 146.5 68t52.5 176q0 105 -52 175t-144 70zM125 760h25l146 -159h-23z" />
    <glyph glyph-name="oacute" unicode="&#xf3;" horiz-adv-x="535" 
d="M270 511q94 0 154.5 -70.5t60.5 -191.5q0 -124 -60 -193.5t-160 -69.5q-98 0 -156.5 70.5t-58.5 190.5q0 125 62 194.5t158 69.5zM268 493q-93 0 -145 -70.5t-52 -174.5t51 -174t143 -70q94 0 146.5 68t52.5 176q0 105 -52 175t-144 70zM387 760h25l-154 -159h-23z" />
    <glyph glyph-name="ocircumflex" unicode="&#xf4;" horiz-adv-x="535" 
d="M270 511q94 0 154.5 -70.5t60.5 -191.5q0 -124 -60 -193.5t-160 -69.5q-98 0 -156.5 70.5t-58.5 190.5q0 125 62 194.5t158 69.5zM268 493q-93 0 -145 -70.5t-52 -174.5t51 -174t143 -70q94 0 146.5 68t52.5 176q0 105 -52 175t-144 70zM256 759h19l113 -150h-23
l-100 134l-97 -134h-22z" />
    <glyph glyph-name="otilde" unicode="&#xf5;" horiz-adv-x="535" 
d="M270 511q94 0 154.5 -70.5t60.5 -191.5q0 -124 -60 -193.5t-160 -69.5q-98 0 -156.5 70.5t-58.5 190.5q0 125 62 194.5t158 69.5zM268 493q-93 0 -145 -70.5t-52 -174.5t51 -174t143 -70q94 0 146.5 68t52.5 176q0 105 -52 175t-144 70zM148 648h-17v10q0 68 59 68
q31 0 81.5 -30t72.5 -30q38 0 38 49v12h17v-12q0 -66 -55 -66q-26 0 -78.5 30.5t-76.5 30.5q-41 0 -41 -52v-10z" />
    <glyph glyph-name="odieresis" unicode="&#xf6;" horiz-adv-x="535" 
d="M270 511q94 0 154.5 -70.5t60.5 -191.5q0 -124 -60 -193.5t-160 -69.5q-98 0 -156.5 70.5t-58.5 190.5q0 125 62 194.5t158 69.5zM268 493q-93 0 -145 -70.5t-52 -174.5t51 -174t143 -70q94 0 146.5 68t52.5 176q0 105 -52 175t-144 70zM196 665h-20v86h20v-86zM356 665
h-20v86h20v-86z" />
    <glyph glyph-name="divide" unicode="&#xf7;" horiz-adv-x="631" 
d="M324 0h-20v112h20v-112zM566 249h-501v18h501v-18zM324 385h-20v112h20v-112z" />
    <glyph glyph-name="oslash" unicode="&#xf8;" horiz-adv-x="535" 
d="M270 511q75 0 131 -48l31 44h22l-40 -56q71 -74 71 -202q0 -121 -61 -192t-159 -71q-81 0 -140 56l-37 -52h-22l47 66q-63 72 -63 191q0 122 63.5 193t156.5 71zM268 492q-93 0 -145 -70t-52 -174q0 -108 53 -176l266 375q-51 45 -122 45zM265 5q94 0 146.5 68.5
t52.5 174.5q0 119 -61 186l-267 -376q51 -53 129 -53z" />
    <glyph glyph-name="ugrave" unicode="&#xf9;" horiz-adv-x="541" 
d="M456 497v-361q0 -28 0.5 -78t0.5 -58h-20q-4 28 -2 123q-19 -60 -63.5 -96.5t-114.5 -36.5q-30 0 -57 8t-54.5 27t-44 58t-16.5 94v320h20v-328q0 -68 38 -114t115 -46q80 0 128.5 55t48.5 160v273h21zM128 760h25l146 -159h-23z" />
    <glyph glyph-name="uacute" unicode="&#xfa;" horiz-adv-x="541" 
d="M456 497v-361q0 -28 0.5 -78t0.5 -58h-20q-4 28 -2 123q-19 -60 -63.5 -96.5t-114.5 -36.5q-30 0 -57 8t-54.5 27t-44 58t-16.5 94v320h20v-328q0 -68 38 -114t115 -46q80 0 128.5 55t48.5 160v273h21zM378 760h25l-154 -159h-23z" />
    <glyph glyph-name="ucircumflex" unicode="&#xfb;" horiz-adv-x="541" 
d="M456 497v-361q0 -28 0.5 -78t0.5 -58h-20q-4 28 -2 123q-19 -60 -63.5 -96.5t-114.5 -36.5q-30 0 -57 8t-54.5 27t-44 58t-16.5 94v320h20v-328q0 -68 38 -114t115 -46q80 0 128.5 55t48.5 160v273h21zM259 759h19l113 -150h-23l-100 134l-97 -134h-22z" />
    <glyph glyph-name="udieresis" unicode="&#xfc;" horiz-adv-x="541" 
d="M456 497v-361q0 -28 0.5 -78t0.5 -58h-20q-4 28 -2 123q-19 -60 -63.5 -96.5t-114.5 -36.5q-30 0 -57 8t-54.5 27t-44 58t-16.5 94v320h20v-328q0 -68 38 -114t115 -46q80 0 128.5 55t48.5 160v273h21zM199 665h-20v86h20v-86zM359 665h-20v86h20v-86z" />
    <glyph glyph-name="yacute" unicode="&#xfd;" horiz-adv-x="476" 
d="M26 497h22q187 -468 191 -481h1q7 18 25.5 65.5t67.5 171.5t96 244h22l-199 -503q-54 -134 -89 -178t-96 -44q-26 0 -38 3l2 20q13 -3 37 -3q48 0 80.5 38t80.5 159zM358 752h25l-154 -159h-23z" />
    <glyph glyph-name="thorn" unicode="&#xfe;" horiz-adv-x="542" 
d="M102 -224h-20v975h20v-382q52 138 190 138q90 0 146.5 -67t56.5 -178q0 -131 -62 -200.5t-150 -69.5q-135 0 -181 125v-341zM474 261q0 101 -52 164t-131 63q-90 0 -140.5 -65t-50.5 -178q0 -49 9 -89.5t29.5 -74t57 -52t87.5 -18.5q84 0 137.5 67.5t53.5 182.5z" />
    <glyph glyph-name="ydieresis" unicode="&#xff;" horiz-adv-x="476" 
d="M26 497h22q187 -468 191 -481h1q7 18 25.5 65.5t67.5 171.5t96 244h22l-199 -503q-54 -134 -89 -178t-96 -44q-26 0 -38 3l2 20q13 -3 37 -3q48 0 80.5 38t80.5 159zM167 665h-20v86h20v-86zM327 665h-20v86h20v-86z" />
    <glyph glyph-name="Amacron" unicode="&#x100;" horiz-adv-x="624" 
d="M467 274h-315l-105 -274h-21l270 704h21l281 -704h-22zM159 292h300q-39 98 -74 187.5t-55 141.5t-24 62h-1q-8 -31 -146 -391zM184 824h252v-18h-252v18z" />
    <glyph glyph-name="amacron" unicode="&#x101;" horiz-adv-x="506" 
d="M421 356v-244q0 -80 5 -112h-20q-5 40 -5 111q-40 -123 -181 -123q-84 0 -125.5 41.5t-41.5 100.5q0 151 222 151q90 0 126 -1v70q0 141 -148 141q-143 0 -155 -131h-20q4 63 44.5 106t131.5 43q85 0 126 -41.5t41 -111.5zM401 214v48q-34 1 -127 1q-200 0 -200 -132
q0 -57 41 -90.5t106 -33.5q87 0 133.5 52.5t46.5 154.5zM125 686h256v-18h-256v18z" />
    <glyph glyph-name="Abreve" unicode="&#x102;" horiz-adv-x="624" 
d="M467 274h-315l-105 -274h-21l270 704h21l281 -704h-22zM159 292h300q-39 98 -74 187.5t-55 141.5t-24 62h-1q-8 -31 -146 -391zM174 887h18q22 -94 118 -94q94 0 118 94h18q-22 -113 -136 -113t-136 113z" />
    <glyph glyph-name="abreve" unicode="&#x103;" horiz-adv-x="506" 
d="M421 356v-244q0 -80 5 -112h-20q-5 40 -5 111q-40 -123 -181 -123q-84 0 -125.5 41.5t-41.5 100.5q0 151 222 151q90 0 126 -1v70q0 141 -148 141q-143 0 -155 -131h-20q4 63 44.5 106t131.5 43q85 0 126 -41.5t41 -111.5zM401 214v48q-34 1 -127 1q-200 0 -200 -132
q0 -57 41 -90.5t106 -33.5q87 0 133.5 52.5t46.5 154.5zM136 733h16q17 -87 99 -87q83 0 99 87h16q-4 -44 -33.5 -74.5t-81.5 -30.5t-81.5 30.5t-33.5 74.5z" />
    <glyph glyph-name="Aogonek" unicode="&#x104;" horiz-adv-x="624" 
d="M467 274h-315l-105 -274h-21l270 704h21l281 -704q-24 -31 -34 -44.5t-21 -38.5t-11 -48q0 -32 20 -50t53 -18q31 0 61 13l4 -18q-23 -15 -66 -15q-44 0 -68 24t-24 62q0 60 65 133h-1zM159 292h300q-39 98 -74 187.5t-55 141.5t-24 62h-1q-8 -31 -146 -391z" />
    <glyph glyph-name="aogonek" unicode="&#x105;" horiz-adv-x="506" 
d="M421 356v-244q0 -80 5 -112q-24 -31 -34 -44.5t-21 -38.5t-11 -48q0 -32 20 -50t53 -18q31 0 61 13l4 -18q-23 -15 -66 -15q-44 0 -68 24t-24 62q0 59 66 134q-5 40 -5 110q-40 -123 -181 -123q-84 0 -125.5 41.5t-41.5 100.5q0 151 222 151q90 0 126 -1v70
q0 141 -148 141q-143 0 -155 -131h-20q4 63 44.5 106t131.5 43q85 0 126 -41.5t41 -111.5zM401 214v48q-34 1 -127 1q-200 0 -200 -132q0 -57 41 -90.5t106 -33.5q87 0 133.5 52.5t46.5 154.5z" />
    <glyph glyph-name="Cacute" unicode="&#x106;" horiz-adv-x="661" 
d="M599 186h21q-63 -196 -267 -196q-99 0 -168.5 49t-102 128.5t-32.5 180.5q0 159 79.5 262.5t229.5 103.5q101 0 169 -54.5t91 -151.5h-21q-22 86 -84.5 136.5t-154.5 50.5q-143 0 -215.5 -98.5t-72.5 -248.5q0 -67 17 -127t50.5 -108t89 -76t126.5 -28q96 0 156.5 48
t88.5 129zM483 929h29l-171 -150h-25z" />
    <glyph glyph-name="cacute" unicode="&#x107;" horiz-adv-x="484" 
d="M429 135h20q-42 -147 -189 -147q-97 0 -153.5 70t-56.5 190q0 117 59.5 189t155.5 72q77 0 124 -43.5t60 -107.5h-21q-35 133 -165 133q-92 0 -142 -70t-50 -173q0 -108 49 -175t141 -67q126 0 168 129zM384 760h25l-154 -159h-23z" />
    <glyph glyph-name="Ccircumflex" unicode="&#x108;" horiz-adv-x="661" 
d="M599 186h21q-63 -196 -267 -196q-99 0 -168.5 49t-102 128.5t-32.5 180.5q0 159 79.5 262.5t229.5 103.5q101 0 169 -54.5t91 -151.5h-21q-22 86 -84.5 136.5t-154.5 50.5q-143 0 -215.5 -98.5t-72.5 -248.5q0 -67 17 -127t50.5 -108t89 -76t126.5 -28q96 0 156.5 48
t88.5 129zM340 907h25l127 -128h-25l-115 114l-112 -114h-24z" />
    <glyph glyph-name="ccircumflex" unicode="&#x109;" horiz-adv-x="484" 
d="M429 135h20q-42 -147 -189 -147q-97 0 -153.5 70t-56.5 190q0 117 59.5 189t155.5 72q77 0 124 -43.5t60 -107.5h-21q-35 133 -165 133q-92 0 -142 -70t-50 -173q0 -108 49 -175t141 -67q126 0 168 129zM251 759h19l113 -150h-23l-100 134l-97 -134h-22z" />
    <glyph glyph-name="Cdotaccent" unicode="&#x10a;" horiz-adv-x="661" 
d="M599 186h21q-63 -196 -267 -196q-99 0 -168.5 49t-102 128.5t-32.5 180.5q0 159 79.5 262.5t229.5 103.5q101 0 169 -54.5t91 -151.5h-21q-22 86 -84.5 136.5t-154.5 50.5q-143 0 -215.5 -98.5t-72.5 -248.5q0 -67 17 -127t50.5 -108t89 -76t126.5 -28q96 0 156.5 48
t88.5 129zM360 806h-20v86h20v-86z" />
    <glyph glyph-name="cdotaccent" unicode="&#x10b;" horiz-adv-x="484" 
d="M429 135h20q-42 -147 -189 -147q-97 0 -153.5 70t-56.5 190q0 117 59.5 189t155.5 72q77 0 124 -43.5t60 -107.5h-21q-35 133 -165 133q-92 0 -142 -70t-50 -173q0 -108 49 -175t141 -67q126 0 168 129zM271 665h-20v86h20v-86z" />
    <glyph glyph-name="Ccaron" unicode="&#x10c;" horiz-adv-x="661" 
d="M599 186h21q-63 -196 -267 -196q-99 0 -168.5 49t-102 128.5t-32.5 180.5q0 159 79.5 262.5t229.5 103.5q101 0 169 -54.5t91 -151.5h-21q-22 86 -84.5 136.5t-154.5 50.5q-143 0 -215.5 -98.5t-72.5 -248.5q0 -67 17 -127t50.5 -108t89 -76t126.5 -28q96 0 156.5 48
t88.5 129zM369 779h-25l-127 128h25l115 -114l112 114h24z" />
    <glyph glyph-name="ccaron" unicode="&#x10d;" horiz-adv-x="484" 
d="M429 135h20q-42 -147 -189 -147q-97 0 -153.5 70t-56.5 190q0 117 59.5 189t155.5 72q77 0 124 -43.5t60 -107.5h-21q-35 133 -165 133q-92 0 -142 -70t-50 -173q0 -108 49 -175t141 -67q126 0 168 129zM273 604h-19l-113 150h23l100 -134l97 134h22z" />
    <glyph glyph-name="Dcaron" unicode="&#x10e;" horiz-adv-x="690" 
d="M94 0v704h213q156 0 244.5 -94.5t88.5 -242.5q0 -165 -87.5 -266t-247.5 -101h-211zM114 686v-668h193q143 0 227.5 92t84.5 256q0 142 -83.5 231t-231.5 89h-190zM321 779h-25l-127 128h25l115 -114l112 114h24z" />
    <glyph glyph-name="dcaron" unicode="&#x10f;" horiz-adv-x="558" 
d="M443 751h20v-632q0 -18 0.5 -61.5t0.5 -57.5h-19q-2 34 -2 125q-43 -137 -188 -137q-86 0 -145.5 67t-59.5 188q0 128 63 197t155 69q43 0 76.5 -13t53 -34.5t29.5 -37.5t16 -33v360zM71 245q0 -110 52 -174t133 -64q189 0 189 252q0 112 -45 171.5t-134 59.5t-142 -69
t-53 -176zM568 543h-18l-1 208h20z" />
    <glyph glyph-name="Dcroat" unicode="&#x110;" horiz-adv-x="700" 
d="M5 375h99v329h213q156 0 244.5 -94.5t88.5 -242.5q0 -165 -87.5 -266t-247.5 -101h-211v356h-99v19zM124 686v-311h234v-19h-234v-338h193q143 0 227.5 92t84.5 256q0 142 -83.5 231t-231.5 89h-190z" />
    <glyph glyph-name="dcroat" unicode="&#x111;" horiz-adv-x="546" 
d="M443 751h20v-118h90v-19h-90v-495q0 -80 3 -119h-19q-3 33 -3 128q-45 -140 -193 -140q-83 0 -142 67t-59 188q0 127 63.5 196.5t154.5 69.5q132 0 175 -118v223h-228v19h228v118zM71 245q0 -110 51.5 -173.5t129.5 -63.5q193 0 193 251q0 230 -179 230q-89 0 -142 -68
t-53 -176z" />
    <glyph glyph-name="Emacron" unicode="&#x112;" horiz-adv-x="558" 
d="M497 382v-18h-383v-346h417l-4 -18h-433v704h423v-18h-403v-304h383zM181 834h252v-18h-252v18z" />
    <glyph glyph-name="emacron" unicode="&#x113;" horiz-adv-x="506" 
d="M459 254h-389q0 -114 51 -180t134 -66q121 0 174 118h20q-52 -136 -193 -136q-72 0 -120.5 40.5t-67 96.5t-18.5 123q0 118 57.5 188.5t150.5 70.5q55 0 96 -22t63 -58t32.5 -73.5t10.5 -76.5q0 -14 -1 -25zM71 272h370q0 95 -47.5 157t-136.5 62q-81 0 -131 -60.5
t-55 -158.5zM135 686h256v-18h-256v18z" />
    <glyph glyph-name="Ebreve" unicode="&#x114;" horiz-adv-x="558" 
d="M497 382v-18h-383v-346h417l-4 -18h-433v704h423v-18h-403v-304h383zM171 901h18q22 -94 118 -94q94 0 118 94h18q-22 -113 -136 -113t-136 113z" />
    <glyph glyph-name="ebreve" unicode="&#x115;" horiz-adv-x="506" 
d="M459 254h-389q0 -114 51 -180t134 -66q121 0 174 118h20q-52 -136 -193 -136q-72 0 -120.5 40.5t-67 96.5t-18.5 123q0 118 57.5 188.5t150.5 70.5q55 0 96 -22t63 -58t32.5 -73.5t10.5 -76.5q0 -14 -1 -25zM71 272h370q0 95 -47.5 157t-136.5 62q-81 0 -131 -60.5
t-55 -158.5zM146 733h16q8 -43 34.5 -65t64.5 -22q83 0 99 87h16q-4 -44 -33.5 -74.5t-81.5 -30.5t-81.5 30.5t-33.5 74.5z" />
    <glyph glyph-name="Edotaccent" unicode="&#x116;" horiz-adv-x="558" 
d="M497 382v-18h-383v-346h417l-4 -18h-433v704h423v-18h-403v-304h383zM319 788h-20v86h20v-86z" />
    <glyph glyph-name="edotaccent" unicode="&#x117;" horiz-adv-x="506" 
d="M459 254h-389q0 -114 51 -180t134 -66q121 0 174 118h20q-52 -136 -193 -136q-72 0 -120.5 40.5t-67 96.5t-18.5 123q0 118 57.5 188.5t150.5 70.5q55 0 96 -22t63 -58t32.5 -73.5t10.5 -76.5q0 -14 -1 -25zM71 272h370q0 95 -47.5 157t-136.5 62q-81 0 -131 -60.5
t-55 -158.5zM272 665h-20v86h20v-86z" />
    <glyph glyph-name="Eogonek" unicode="&#x118;" horiz-adv-x="558" 
d="M497 382v-18h-383v-346h417l-4 -18h-63q-24 -31 -34 -44.5t-21 -38.5t-11 -48q0 -32 20 -50t53 -18q31 0 61 13l4 -18q-23 -15 -66 -15q-44 0 -68 24t-24 62q0 60 65 133h-349v704h423v-18h-403v-304h383z" />
    <glyph glyph-name="eogonek" unicode="&#x119;" horiz-adv-x="506" 
d="M459 254h-389q0 -114 51 -180t134 -66q121 0 174 118h20q-39 -99 -123 -126q-24 -30 -33.5 -43.5t-20.5 -38.5t-11 -48q0 -32 20 -50t53 -18q31 0 61 13l4 -18q-23 -15 -66 -15q-44 0 -68 24t-24 62q0 58 58 126q-17 -4 -43 -4q-72 0 -120.5 40.5t-67 96.5t-18.5 123
q0 118 57.5 188.5t150.5 70.5q55 0 96 -22t63 -58t32.5 -73.5t10.5 -76.5q0 -14 -1 -25zM71 272h370q0 95 -47.5 157t-136.5 62q-81 0 -131 -60.5t-55 -158.5z" />
    <glyph glyph-name="Ecaron" unicode="&#x11a;" horiz-adv-x="558" 
d="M497 382v-18h-383v-346h417l-4 -18h-433v704h423v-18h-403v-304h383zM321 779h-25l-127 128h25l115 -114l112 114h24z" />
    <glyph glyph-name="ecaron" unicode="&#x11b;" horiz-adv-x="506" 
d="M459 254h-389q0 -114 51 -180t134 -66q121 0 174 118h20q-52 -136 -193 -136q-72 0 -120.5 40.5t-67 96.5t-18.5 123q0 118 57.5 188.5t150.5 70.5q55 0 96 -22t63 -58t32.5 -73.5t10.5 -76.5q0 -14 -1 -25zM71 272h370q0 95 -47.5 157t-136.5 62q-81 0 -131 -60.5
t-55 -158.5zM274 604h-19l-113 150h23l100 -134l97 134h22z" />
    <glyph glyph-name="Gcircumflex" unicode="&#x11c;" horiz-adv-x="694" 
d="M623 352v-352h-18q-1 14 -2 165q-58 -175 -253 -175q-100 0 -169.5 50t-100 128t-30.5 177q0 157 80 263t229 106q111 0 177.5 -52t85.5 -138h-20q-22 82 -83 127t-161 45q-138 0 -212.5 -99t-74.5 -249q0 -93 27.5 -167.5t93 -123.5t160.5 -49q124 0 187.5 74.5
t63.5 199.5v52h-252v18h272zM341 907h25l127 -128h-25l-115 114l-112 -114h-24z" />
    <glyph glyph-name="gcircumflex" unicode="&#x11d;" horiz-adv-x="545" 
d="M460 362v-345q0 -126 -47.5 -187.5t-164.5 -61.5q-84 0 -131.5 41t-56.5 102h20q12 -57 55 -91t114 -34q107 0 149 57t42 177v110q-40 -130 -182 -130q-90 0 -148.5 67t-58.5 181q0 123 64 192t152 69q75 0 117.5 -35t56.5 -86q0 24 0.5 49.5t0.5 41.5v18h19
q0 -4 -0.5 -24.5t-0.5 -51v-59.5zM72 249q0 -107 53.5 -168.5t133.5 -61.5q182 0 182 239q0 35 -2.5 62.5t-13.5 61t-29 56t-51 37.5t-79 15q-88 0 -141 -67.5t-53 -173.5zM261 759h19l113 -150h-23l-100 134l-97 -134h-22z" />
    <glyph glyph-name="Gbreve" unicode="&#x11e;" horiz-adv-x="694" 
d="M623 352v-352h-18q-1 14 -2 165q-58 -175 -253 -175q-100 0 -169.5 50t-100 128t-30.5 177q0 157 80 263t229 106q111 0 177.5 -52t85.5 -138h-20q-22 82 -83 127t-161 45q-138 0 -212.5 -99t-74.5 -249q0 -93 27.5 -167.5t93 -123.5t160.5 -49q124 0 187.5 74.5
t63.5 199.5v52h-252v18h272zM219 900h18q22 -94 118 -94q94 0 118 94h18q-22 -113 -136 -113t-136 113z" />
    <glyph glyph-name="gbreve" unicode="&#x11f;" horiz-adv-x="545" 
d="M460 362v-345q0 -126 -47.5 -187.5t-164.5 -61.5q-84 0 -131.5 41t-56.5 102h20q12 -57 55 -91t114 -34q107 0 149 57t42 177v110q-40 -130 -182 -130q-90 0 -148.5 67t-58.5 181q0 123 64 192t152 69q75 0 117.5 -35t56.5 -86q0 24 0.5 49.5t0.5 41.5v18h19
q0 -4 -0.5 -24.5t-0.5 -51v-59.5zM72 249q0 -107 53.5 -168.5t133.5 -61.5q182 0 182 239q0 35 -2.5 62.5t-13.5 61t-29 56t-51 37.5t-79 15q-88 0 -141 -67.5t-53 -173.5zM155 733h16q8 -43 34.5 -65t64.5 -22q82 0 99 87h16q-4 -44 -33.5 -74.5t-81.5 -30.5t-81.5 30.5
t-33.5 74.5z" />
    <glyph glyph-name="Gdotaccent" unicode="&#x120;" horiz-adv-x="694" 
d="M623 352v-352h-18q-1 14 -2 165q-58 -175 -253 -175q-100 0 -169.5 50t-100 128t-30.5 177q0 157 80 263t229 106q111 0 177.5 -52t85.5 -138h-20q-22 82 -83 127t-161 45q-138 0 -212.5 -99t-74.5 -249q0 -93 27.5 -167.5t93 -123.5t160.5 -49q124 0 187.5 74.5
t63.5 199.5v52h-252v18h272zM367 796h-20v86h20v-86z" />
    <glyph glyph-name="gdotaccent" unicode="&#x121;" horiz-adv-x="545" 
d="M460 362v-345q0 -126 -47.5 -187.5t-164.5 -61.5q-84 0 -131.5 41t-56.5 102h20q12 -57 55 -91t114 -34q107 0 149 57t42 177v110q-40 -130 -182 -130q-90 0 -148.5 67t-58.5 181q0 123 64 192t152 69q75 0 117.5 -35t56.5 -86q0 24 0.5 49.5t0.5 41.5v18h19
q0 -4 -0.5 -24.5t-0.5 -51v-59.5zM72 249q0 -107 53.5 -168.5t133.5 -61.5q182 0 182 239q0 35 -2.5 62.5t-13.5 61t-29 56t-51 37.5t-79 15q-88 0 -141 -67.5t-53 -173.5zM281 665h-20v86h20v-86z" />
    <glyph glyph-name="uni0122" unicode="&#x122;" horiz-adv-x="694" 
d="M623 352v-352h-18q-1 14 -2 165q-58 -175 -253 -175q-100 0 -169.5 50t-100 128t-30.5 177q0 157 80 263t229 106q111 0 177.5 -52t85.5 -138h-20q-22 82 -83 127t-161 45q-138 0 -212.5 -99t-74.5 -249q0 -93 27.5 -167.5t93 -123.5t160.5 -49q124 0 187.5 74.5
t63.5 199.5v52h-252v18h272zM330 -256h-20q51 89 51 190h20q0 -111 -51 -190z" />
    <glyph glyph-name="uni0123" unicode="&#x123;" horiz-adv-x="545" 
d="M299 777h18q-41 -94 -49 -186h-19q9 108 50 186zM460 362v-345q0 -126 -47.5 -187.5t-164.5 -61.5q-84 0 -131.5 41t-56.5 102h20q12 -57 55 -91t114 -34q107 0 149 57t42 177v110q-40 -130 -182 -130q-90 0 -148.5 67t-58.5 181q0 123 64 192t152 69q75 0 117.5 -35
t56.5 -86q0 24 0.5 49.5t0.5 41.5v18h19q0 -4 -0.5 -24.5t-0.5 -51v-59.5zM72 249q0 -107 53.5 -168.5t133.5 -61.5q182 0 182 239q0 35 -2.5 62.5t-13.5 61t-29 56t-51 37.5t-79 15q-88 0 -141 -67.5t-53 -173.5z" />
    <glyph glyph-name="Hcircumflex" unicode="&#x124;" horiz-adv-x="692" 
d="M94 0v704h20v-319h464v319h20v-704h-20v367h-464v-367h-20zM330 907h25l127 -128h-25l-115 114l-112 -114h-24z" />
    <glyph glyph-name="hcircumflex" unicode="&#x125;" horiz-adv-x="547" 
d="M83 888h25l110 -96h-26l-97 82l-95 -82h-24zM85 751h20v-375q18 53 62.5 93t126.5 40q70 0 119 -45t49 -144v-320h-21v318q0 77 -38.5 124.5t-111.5 47.5q-89 0 -137.5 -59.5t-48.5 -153.5v-277h-20v751z" />
    <glyph glyph-name="Hbar" unicode="&#x126;" horiz-adv-x="692" 
d="M26 554h68v150h20v-150h464v150h20v-150h68v-18h-68v-536h-20v363h-464v-363h-20v536h-68v18zM114 382h464v154h-464v-154z" />
    <glyph glyph-name="hbar" unicode="&#x127;" horiz-adv-x="547" 
d="M85 751h20v-118h225v-18h-225v-239q17 52 63 92.5t126 40.5q32 0 60 -9t53.5 -28.5t40 -57t14.5 -89.5v-325h-21v323q0 77 -38.5 122t-111.5 45q-87 0 -136.5 -59t-49.5 -151v-280h-20v615h-93v18h93v118z" />
    <glyph glyph-name="Itilde" unicode="&#x128;" horiz-adv-x="208" 
d="M94 704h20v-704h-20v704zM-19 800h-18v11q0 70 63 70q28 0 79 -30.5t74 -30.5q45 0 45 57v9h18v-11q0 -75 -61 -75q-28 0 -80.5 31t-74.5 31q-45 0 -45 -53v-9z" />
    <glyph glyph-name="itilde" unicode="&#x129;" horiz-adv-x="190" 
d="M85 0v497h20v-497h-20zM-24 648h-17v10q0 68 59 68q31 0 81.5 -30t72.5 -30q38 0 38 49v12h17v-12q0 -66 -55 -66q-26 0 -78.5 30.5t-76.5 30.5q-41 0 -41 -52v-10z" />
    <glyph glyph-name="Imacron" unicode="&#x12a;" horiz-adv-x="208" 
d="M94 704h20v-704h-20v704zM-24 834h252v-18h-252v18z" />
    <glyph glyph-name="imacron" unicode="&#x12b;" horiz-adv-x="190" 
d="M85 0v497h20v-497h-20zM-35 686h256v-18h-256v18z" />
    <glyph glyph-name="Iogonek" unicode="&#x12e;" horiz-adv-x="208" 
d="M94 704h20v-704q-24 -31 -34 -44.5t-21 -38.5t-11 -48q0 -32 20 -50t53 -18q31 0 61 13l4 -18q-23 -15 -66 -15q-44 0 -68 24t-24 62q0 59 66 134v703z" />
    <glyph glyph-name="iogonek" unicode="&#x12f;" horiz-adv-x="190" 
d="M177 -204q-23 -15 -66 -15q-44 0 -68 24t-24 62q0 59 66 134v496h20v-497q-24 -31 -34 -44.5t-21 -38.5t-11 -48q0 -32 20 -50t53 -18q31 0 61 13zM105 660h-20v91h20v-91z" />
    <glyph glyph-name="Idotaccent" unicode="&#x130;" horiz-adv-x="208" 
d="M94 704h20v-704h-20v704zM114 788h-20v86h20v-86z" />
    <glyph glyph-name="dotlessi" unicode="&#x131;" horiz-adv-x="190" 
d="M85 0v497h20v-497h-20z" />
    <glyph glyph-name="Jcircumflex" unicode="&#x134;" horiz-adv-x="250" 
d="M166 704v-536q0 -103 -35.5 -140.5t-102.5 -37.5q-27 0 -35 2v18q16 -2 37 -2q69 0 92.5 42.5t23.5 130.5v523h20zM139 907h25l127 -128h-25l-115 114l-112 -114h-24z" />
    <glyph glyph-name="jcircumflex" unicode="&#x135;" horiz-adv-x="190" 
d="M85 497h20v-590q0 -68 -20.5 -103.5t-76.5 -35.5h-7v18h2q18 0 29.5 3t25 13t20.5 35.5t7 66.5v593zM82 759h19l113 -150h-23l-100 134l-97 -134h-22z" />
    <glyph glyph-name="uni0136" unicode="&#x136;" horiz-adv-x="594" 
d="M94 0v704h20v-387q161 139 432 387h29l-337 -302l357 -402h-27l-344 389l-110 -96v-293h-20zM257 -246h-20q51 89 51 190h20q0 -111 -51 -190z" />
    <glyph glyph-name="uni0137" unicode="&#x137;" horiz-adv-x="456" 
d="M105 751v-520l137.5 125t154.5 141h28l-227 -206q125 -147 255 -291h-28q-111 127 -242 279l-78 -70v-209h-20v751h20zM188 -246h-20q51 89 51 190h20q0 -111 -51 -190z" />
    <glyph glyph-name="kgreenlandic" unicode="&#x138;" horiz-adv-x="456" 
d="M105 497v-266q206 189 292 266h28l-227 -206q148 -174 255 -291h-30q-127 147 -241 278l-77 -69v-209h-20v497h20z" />
    <glyph glyph-name="Lacute" unicode="&#x139;" horiz-adv-x="508" 
d="M94 0v704h20v-686h398l-7 -18h-411zM257 929h29l-171 -150h-25z" />
    <glyph glyph-name="lacute" unicode="&#x13a;" horiz-adv-x="190" 
d="M204 909h27l-127 -113h-24zM105 0h-20v751h20v-751z" />
    <glyph glyph-name="uni013B" unicode="&#x13b;" horiz-adv-x="508" 
d="M94 0v704h20v-686h398l-7 -18h-411zM274 -246h-20q51 89 51 190h20q0 -111 -51 -190z" />
    <glyph glyph-name="uni013C" unicode="&#x13c;" horiz-adv-x="190" 
d="M105 0h-20v751h20v-751zM55 -246h-20q51 89 51 190h20q0 -111 -51 -190z" />
    <glyph glyph-name="Lcaron" unicode="&#x13d;" horiz-adv-x="508" 
d="M94 0v704h20v-686h398l-7 -18h-411zM332 504h-18l-1 208h20z" />
    <glyph glyph-name="lcaron" unicode="&#x13e;" horiz-adv-x="200" 
d="M105 0h-20v751h20v-751zM202 551h-18l-1 208h20z" />
    <glyph glyph-name="Ldot" unicode="&#x13f;" horiz-adv-x="508" 
d="M344 340h-20v112h20v-112zM94 0v704h20v-686h398l-7 -18h-411z" />
    <glyph glyph-name="ldot" unicode="&#x140;" horiz-adv-x="206" 
d="M206 385h-20v112h20v-112zM105 0h-20v751h20v-751z" />
    <glyph glyph-name="Lslash" unicode="&#x141;" horiz-adv-x="518" 
d="M296 448l-172 -91v-339h398l-7 -18h-411v346l-109 -58l-1 19l110 59v338h20v-327l172 92v-21z" />
    <glyph glyph-name="lslash" unicode="&#x142;" horiz-adv-x="204" 
d="M112 0h-20v426l-74 -43v20l74 43v305h20v-293l82 48v-20l-82 -48v-438z" />
    <glyph glyph-name="Nacute" unicode="&#x143;" horiz-adv-x="702" 
d="M114 0h-20v704h32q413 -606 463 -683l2 -3q-3 19 -3 333v353h20v-704h-29q-374 552 -466 687l-2 3q3 -56 3 -329v-361zM494 929h29l-171 -150h-25z" />
    <glyph glyph-name="nacute" unicode="&#x144;" horiz-adv-x="547" 
d="M85 0v376q0 29 -0.5 74.5t-0.5 46.5h20q2 -52 1 -125q18 54 63.5 95.5t125.5 41.5q71 0 119.5 -46t48.5 -146v-317h-21v315q0 78 -38 126.5t-112 48.5q-86 0 -136 -62.5t-50 -154.5v-273h-20zM401 760h25l-154 -159h-23z" />
    <glyph glyph-name="uni0145" unicode="&#x145;" horiz-adv-x="702" 
d="M114 0h-20v704h32q413 -606 463 -683l2 -3q-3 19 -3 333v353h20v-704h-29q-374 552 -466 687l-2 3q3 -56 3 -329v-361zM311 -246h-20q51 89 51 190h20q0 -111 -51 -190z" />
    <glyph glyph-name="uni0146" unicode="&#x146;" horiz-adv-x="547" 
d="M85 0v376q0 29 -0.5 74.5t-0.5 46.5h20q2 -52 1 -125q18 54 63.5 95.5t125.5 41.5q71 0 119.5 -46t48.5 -146v-317h-21v315q0 78 -38 126.5t-112 48.5q-86 0 -136 -62.5t-50 -154.5v-273h-20zM242 -246h-20q51 89 51 190h20q0 -111 -51 -190z" />
    <glyph glyph-name="Ncaron" unicode="&#x147;" horiz-adv-x="702" 
d="M114 0h-20v704h32q413 -606 463 -683l2 -3q-3 19 -3 333v353h20v-704h-29q-374 552 -466 687l-2 3q3 -56 3 -329v-361zM363 769h-25l-127 128h25l115 -114l112 114h24z" />
    <glyph glyph-name="ncaron" unicode="&#x148;" horiz-adv-x="547" 
d="M85 0v376q0 29 -0.5 74.5t-0.5 46.5h20q2 -52 1 -125q18 54 63.5 95.5t125.5 41.5q71 0 119.5 -46t48.5 -146v-317h-21v315q0 78 -38 126.5t-112 48.5q-86 0 -136 -62.5t-50 -154.5v-273h-20zM284 604h-19l-113 150h23l100 -134l97 134h22z" />
    <glyph glyph-name="napostrophe" unicode="&#x149;" horiz-adv-x="547" 
d="M41 588h-19q31 85 40 190h19q-4 -99 -40 -190zM85 0v376q0 29 -0.5 74.5t-0.5 46.5h20q2 -52 1 -125q18 54 63.5 95.5t125.5 41.5q71 0 119.5 -46t48.5 -146v-317h-21v315q0 78 -38 126.5t-112 48.5q-86 0 -136 -62.5t-50 -154.5v-273h-20z" />
    <glyph glyph-name="Omacron" unicode="&#x14c;" horiz-adv-x="722" 
d="M364 714q140 0 224 -102t84 -254q0 -159 -81.5 -263.5t-232.5 -104.5q-142 0 -225 103t-83 259q0 153 83.5 257.5t230.5 104.5zM363 696q-134 0 -213 -97.5t-79 -244.5q0 -93 31 -170t97.5 -126.5t158.5 -49.5q141 0 217 98t76 251q0 144 -78 241.5t-210 97.5zM233 834
h252v-18h-252v18z" />
    <glyph glyph-name="omacron" unicode="&#x14d;" horiz-adv-x="535" 
d="M270 511q94 0 154.5 -70.5t60.5 -191.5q0 -124 -60 -193.5t-160 -69.5q-98 0 -156.5 70.5t-58.5 190.5q0 125 62 194.5t158 69.5zM268 493q-93 0 -145 -70.5t-52 -174.5t51 -174t143 -70q94 0 146.5 68t52.5 176q0 105 -52 175t-144 70zM139 686h256v-18h-256v18z" />
    <glyph glyph-name="Ohungarumlaut" unicode="&#x150;" horiz-adv-x="722" 
d="M364 714q140 0 224 -102t84 -254q0 -159 -81.5 -263.5t-232.5 -104.5q-142 0 -225 103t-83 259q0 153 83.5 257.5t230.5 104.5zM363 696q-134 0 -213 -97.5t-79 -244.5q0 -93 31 -170t97.5 -126.5t158.5 -49.5q141 0 217 98t76 251q0 144 -78 241.5t-210 97.5zM368 929
h25l-108 -150h-23zM515 929h25l-108 -150h-23z" />
    <glyph glyph-name="ohungarumlaut" unicode="&#x151;" horiz-adv-x="535" 
d="M270 511q94 0 154.5 -70.5t60.5 -191.5q0 -124 -60 -193.5t-160 -69.5q-98 0 -156.5 70.5t-58.5 190.5q0 125 62 194.5t158 69.5zM268 493q-93 0 -145 -70.5t-52 -174.5t51 -174t143 -70q94 0 146.5 68t52.5 176q0 105 -52 175t-144 70zM207 591h-21l111 159h22zM337 591
h-21l111 159h22z" />
    <glyph glyph-name="OE" unicode="&#x152;" horiz-adv-x="993" 
d="M952 704v-19h-395v-303h375v-19h-375v-344h409l-5 -19h-414q-1 0 -8 -0.5t-19 -1t-28 -1.5t-38.5 -1.5t-45.5 -0.5q-163 0 -260.5 94t-97.5 265q0 169 105.5 260.5t257.5 91.5q31 0 62 -0.5t49.5 -1t19.5 -0.5h408zM537 19v664q-38 3 -124 3q-93 0 -169 -35.5t-125 -112
t-49 -182.5q0 -167 94 -254t244 -87q100 0 129 4z" />
    <glyph glyph-name="oe" unicode="&#x153;" horiz-adv-x="921" 
d="M671 -10q-82 0 -130 47t-66 123q-20 -83 -75.5 -128.5t-134.5 -45.5q-96 0 -155.5 71t-59.5 190q0 124 63.5 194t156.5 70q75 0 130 -45.5t75 -127.5q20 80 72.5 125.5t125.5 45.5q55 0 96 -22t63 -58t32.5 -73.5t10.5 -76.5q0 -14 -1 -25h-389q0 -114 51 -180t134 -66
q122 0 174 118h20q-23 -61 -72 -98.5t-121 -37.5zM268 493q-93 0 -145 -70.5t-52 -174.5t51 -174t143 -70q95 0 147 68t52 176q0 105 -52 175t-144 70zM486 272h370q0 95 -47.5 156.5t-136.5 62.5q-81 1 -131 -61t-55 -158z" />
    <glyph glyph-name="Racute" unicode="&#x154;" horiz-adv-x="597" 
d="M319 345h-204v-345h-21v704h232q97 0 155 -45.5t58 -134.5q0 -143 -147 -168q66 -11 101 -53t35 -143v-13q0 -123 9 -147h-22q-7 28 -7 147v9q0 100 -38.5 144.5t-150.5 44.5zM115 686v-322h196q207 0 207 159q0 77 -50 120t-142 43h-211zM439 929h29l-171 -150h-25z" />
    <glyph glyph-name="racute" unicode="&#x155;" horiz-adv-x="298" 
d="M85 0v327q0 139 -1 170h19q2 -25 2 -144q19 65 73 109.5t115 46.5v-20q-76 -3 -132 -69t-56 -152v-268h-20zM292 760h25l-154 -159h-23z" />
    <glyph glyph-name="uni0156" unicode="&#x156;" horiz-adv-x="597" 
d="M319 345h-204v-345h-21v704h232q97 0 155 -45.5t58 -134.5q0 -143 -147 -168q66 -11 101 -53t35 -143v-13q0 -123 9 -147h-22q-7 28 -7 147v9q0 100 -38.5 144.5t-150.5 44.5zM115 686v-322h196q207 0 207 159q0 77 -50 120t-142 43h-211zM258 -246h-20q51 89 51 190h20
q0 -111 -51 -190z" />
    <glyph glyph-name="uni0157" unicode="&#x157;" horiz-adv-x="298" 
d="M85 0v327q0 139 -1 170h19q2 -25 2 -144q19 65 73 109.5t115 46.5v-20q-76 -3 -132 -69t-56 -152v-268h-20zM55 -246h-20q51 89 51 190h20q0 -111 -51 -190z" />
    <glyph glyph-name="Rcaron" unicode="&#x158;" horiz-adv-x="597" 
d="M319 345h-204v-345h-21v704h232q97 0 155 -45.5t58 -134.5q0 -143 -147 -168q66 -11 101 -53t35 -143v-13q0 -123 9 -147h-22q-7 28 -7 147v9q0 100 -38.5 144.5t-150.5 44.5zM115 686v-322h196q207 0 207 159q0 77 -50 120t-142 43h-211zM310 779h-25l-127 128h25
l115 -114l112 114h24z" />
    <glyph glyph-name="rcaron" unicode="&#x159;" horiz-adv-x="298" 
d="M85 0v327q0 139 -1 170h19q2 -25 2 -144q19 65 73 109.5t115 46.5v-20q-76 -3 -132 -69t-56 -152v-268h-20zM180 604h-19l-113 150h23l100 -134l97 134h22z" />
    <glyph glyph-name="Sacute" unicode="&#x15a;" horiz-adv-x="552" 
d="M36 183h21q16 -85 74 -130t149 -45q95 0 150.5 44.5t55.5 122.5q0 76 -43 117t-163 73q-113 30 -161 69t-48 114q0 77 55.5 121.5t150.5 44.5q105 0 156 -50t61 -120h-20q-14 72 -63.5 112t-134.5 40q-84 0 -134 -37.5t-50 -108.5q0 -67 42.5 -102.5t147.5 -62.5
q133 -34 179 -81.5t46 -126.5q0 -87 -61 -137t-167 -50q-105 0 -166 51.5t-77 141.5zM424 929h29l-171 -150h-25z" />
    <glyph glyph-name="sacute" unicode="&#x15b;" horiz-adv-x="438" 
d="M42 132h20q13 -64 52.5 -95t111.5 -31t110.5 32.5t38.5 82.5q0 51 -31 80.5t-123 53.5q-90 24 -121.5 53.5t-31.5 79.5q0 51 39.5 86t114.5 35q73 0 116 -38t49 -97h-20q-7 49 -41.5 83t-104.5 34q-67 0 -100 -29t-33 -72q0 -45 29 -71t112 -47q95 -24 131 -58t36 -91
q0 -62 -46 -98.5t-124 -36.5q-161 0 -184 144zM338 760h25l-154 -159h-23z" />
    <glyph glyph-name="Scircumflex" unicode="&#x15c;" horiz-adv-x="552" 
d="M36 183h21q16 -85 74 -130t149 -45q95 0 150.5 44.5t55.5 122.5q0 76 -43 117t-163 73q-113 30 -161 69t-48 114q0 77 55.5 121.5t150.5 44.5q105 0 156 -50t61 -120h-20q-14 72 -63.5 112t-134.5 40q-84 0 -134 -37.5t-50 -108.5q0 -67 42.5 -102.5t147.5 -62.5
q133 -34 179 -81.5t46 -126.5q0 -87 -61 -137t-167 -50q-105 0 -166 51.5t-77 141.5zM270 905h25l127 -128h-25l-115 114l-112 -114h-24z" />
    <glyph glyph-name="scircumflex" unicode="&#x15d;" horiz-adv-x="438" 
d="M42 132h20q13 -64 52.5 -95t111.5 -31t110.5 32.5t38.5 82.5q0 51 -31 80.5t-123 53.5q-90 24 -121.5 53.5t-31.5 79.5q0 51 39.5 86t114.5 35q73 0 116 -38t49 -97h-20q-7 49 -41.5 83t-104.5 34q-67 0 -100 -29t-33 -72q0 -45 29 -71t112 -47q95 -24 131 -58t36 -91
q0 -62 -46 -98.5t-124 -36.5q-161 0 -184 144zM208 759h19l113 -150h-23l-100 134l-97 -134h-22z" />
    <glyph glyph-name="uni015E" unicode="&#x15e;" horiz-adv-x="552" 
d="M36 183h21q16 -85 74 -130t149 -45q95 0 150.5 44.5t55.5 122.5q0 76 -43 117t-163 73q-113 30 -161 69t-48 114q0 77 55.5 121.5t150.5 44.5q105 0 156 -50t61 -120h-20q-14 72 -63.5 112t-134.5 40q-84 0 -134 -37.5t-50 -108.5q0 -67 42.5 -102.5t147.5 -62.5
q133 -34 179 -81.5t46 -126.5q0 -84 -58 -134t-159 -53l-28 -57q56 0 85 -22t29 -58t-25.5 -57t-66.5 -21q-45 0 -73 14v19q31 -15 73 -15q35 0 53.5 16.5t18.5 42.5q0 30 -28.5 48t-89.5 15v10l33 65q-102 2 -160.5 53t-74.5 140z" />
    <glyph glyph-name="uni015F" unicode="&#x15f;" horiz-adv-x="438" 
d="M42 132h20q13 -64 52.5 -95t111.5 -31t110.5 32.5t38.5 82.5q0 51 -31 80.5t-123 53.5q-90 24 -121.5 53.5t-31.5 79.5q0 51 39.5 86t114.5 35q73 0 116 -38t49 -97h-20q-7 49 -41.5 83t-104.5 34q-67 0 -100 -29t-33 -72q0 -45 29 -71t112 -47q95 -24 131 -58t36 -91
q0 -62 -45.5 -98.5t-119.5 -36.5l-27 -55q56 0 85 -22t29 -58t-25.5 -57t-66.5 -21q-45 0 -73 14v19q31 -15 73 -15q35 0 53.5 16.5t18.5 42.5q0 30 -28.5 48t-89.5 15v10l32 63q-149 7 -170 144z" />
    <glyph glyph-name="Scaron" unicode="&#x160;" horiz-adv-x="552" 
d="M36 183h21q16 -85 74 -130t149 -45q95 0 150.5 44.5t55.5 122.5q0 76 -43 117t-163 73q-113 30 -161 69t-48 114q0 77 55.5 121.5t150.5 44.5q105 0 156 -50t61 -120h-20q-14 72 -63.5 112t-134.5 40q-84 0 -134 -37.5t-50 -108.5q0 -67 42.5 -102.5t147.5 -62.5
q133 -34 179 -81.5t46 -126.5q0 -87 -61 -137t-167 -50q-105 0 -166 51.5t-77 141.5zM288 779h-25l-127 128h25l115 -114l112 114h24z" />
    <glyph glyph-name="scaron" unicode="&#x161;" horiz-adv-x="438" 
d="M42 132h20q13 -64 52.5 -95t111.5 -31t110.5 32.5t38.5 82.5q0 51 -31 80.5t-123 53.5q-90 24 -121.5 53.5t-31.5 79.5q0 51 39.5 86t114.5 35q73 0 116 -38t49 -97h-20q-7 49 -41.5 83t-104.5 34q-67 0 -100 -29t-33 -72q0 -45 29 -71t112 -47q95 -24 131 -58t36 -91
q0 -62 -46 -98.5t-124 -36.5q-161 0 -184 144zM230 604h-19l-113 150h23l100 -134l97 134h22z" />
    <glyph glyph-name="uni0162" unicode="&#x162;" horiz-adv-x="515" 
d="M247 0v686h-249v18h519v-18h-250v-686h-1l-33 -67q56 0 85 -22t29 -58t-25.5 -57t-66.5 -21q-45 0 -73 14v19q31 -15 73 -15q35 0 53.5 16.5t18.5 42.5q0 30 -28.5 48t-89.5 15v10z" />
    <glyph glyph-name="uni0163" unicode="&#x163;" horiz-adv-x="253" 
d="M7 479v18h93v165h20v-165h124v-18h-124v-376q0 -46 15 -70t58 -24q29 0 40 5v-18q-16 -6 -41 -6q-10 0 -28 2l-29 -59q56 0 85 -22t29 -58t-25.5 -57t-66.5 -21q-45 0 -73 14v19q31 -15 73 -15q35 0 53.5 16.5t18.5 42.5q0 30 -28.5 48t-89.5 15v10l36 72q-47 19 -47 111
v371h-93z" />
    <glyph glyph-name="Tcaron" unicode="&#x164;" horiz-adv-x="515" 
d="M247 0v686h-249v18h519v-18h-250v-686h-20zM269 779h-25l-127 128h25l115 -114l112 114h24z" />
    <glyph glyph-name="tcaron" unicode="&#x165;" horiz-adv-x="253" 
d="M241 602h-18l7 193h20zM7 479v18h93v165h20v-165h124v-18h-124v-376q0 -46 15 -70t58 -24q29 0 40 5v-18q-16 -6 -41 -6q-50 0 -71 26t-21 92v371h-93z" />
    <glyph glyph-name="Utilde" unicode="&#x168;" horiz-adv-x="672" 
d="M84 704h20v-440q0 -133 66.5 -194.5t167.5 -61.5q113 0 171.5 65t58.5 191v440h20v-436q0 -278 -252 -278q-50 0 -92.5 13.5t-79.5 42.5t-58.5 82.5t-21.5 126.5v449zM213 800h-18v11q0 70 63 70q28 0 79 -30.5t74 -30.5q45 0 45 57v9h18v-11q0 -75 -61 -75
q-28 0 -80.5 31t-74.5 31q-45 0 -45 -53v-9z" />
    <glyph glyph-name="utilde" unicode="&#x169;" horiz-adv-x="541" 
d="M456 497v-361q0 -28 0.5 -78t0.5 -58h-20q-4 28 -2 123q-19 -60 -63.5 -96.5t-114.5 -36.5q-30 0 -57 8t-54.5 27t-44 58t-16.5 94v320h20v-328q0 -68 38 -114t115 -46q80 0 128.5 55t48.5 160v273h21zM151 648h-17v10q0 68 59 68q31 0 81.5 -30t72.5 -30q38 0 38 49v12
h17v-12q0 -66 -55 -66q-26 0 -78.5 30.5t-76.5 30.5q-41 0 -41 -52v-10z" />
    <glyph glyph-name="Umacron" unicode="&#x16a;" horiz-adv-x="672" 
d="M84 704h20v-440q0 -133 66.5 -194.5t167.5 -61.5q113 0 171.5 65t58.5 191v440h20v-436q0 -278 -252 -278q-50 0 -92.5 13.5t-79.5 42.5t-58.5 82.5t-21.5 126.5v449zM208 834h252v-18h-252v18z" />
    <glyph glyph-name="umacron" unicode="&#x16b;" horiz-adv-x="541" 
d="M456 497v-361q0 -28 0.5 -78t0.5 -58h-20q-4 28 -2 123q-19 -60 -63.5 -96.5t-114.5 -36.5q-30 0 -57 8t-54.5 27t-44 58t-16.5 94v320h20v-328q0 -68 38 -114t115 -46q80 0 128.5 55t48.5 160v273h21zM142 686h256v-18h-256v18z" />
    <glyph glyph-name="Ubreve" unicode="&#x16c;" horiz-adv-x="672" 
d="M84 704h20v-440q0 -133 66.5 -194.5t167.5 -61.5q113 0 171.5 65t58.5 191v440h20v-436q0 -278 -252 -278q-50 0 -92.5 13.5t-79.5 42.5t-58.5 82.5t-21.5 126.5v449zM198 887h18q22 -94 118 -94q94 0 118 94h18q-22 -113 -136 -113t-136 113z" />
    <glyph glyph-name="ubreve" unicode="&#x16d;" horiz-adv-x="541" 
d="M456 497v-361q0 -28 0.5 -78t0.5 -58h-20q-4 28 -2 123q-19 -60 -63.5 -96.5t-114.5 -36.5q-30 0 -57 8t-54.5 27t-44 58t-16.5 94v320h20v-328q0 -68 38 -114t115 -46q80 0 128.5 55t48.5 160v273h21zM153 733h16q17 -87 99 -87t99 87h16q-4 -44 -33.5 -74.5
t-81.5 -30.5t-81.5 30.5t-33.5 74.5z" />
    <glyph glyph-name="Uring" unicode="&#x16e;" horiz-adv-x="672" 
d="M84 704h20v-440q0 -133 66.5 -194.5t167.5 -61.5q113 0 171.5 65t58.5 191v440h20v-436q0 -278 -252 -278q-50 0 -92.5 13.5t-79.5 42.5t-58.5 82.5t-21.5 126.5v449zM335 763q-38 0 -61.5 25.5t-23.5 61.5t23.5 61.5t61.5 25.5t62 -25.5t24 -61.5t-24 -61.5t-62 -25.5z
M335 781q31 0 49 20.5t18 48.5t-18 48.5t-49 20.5t-48.5 -20.5t-17.5 -48.5t17.5 -48.5t48.5 -20.5z" />
    <glyph glyph-name="uring" unicode="&#x16f;" horiz-adv-x="541" 
d="M456 497v-361q0 -28 0.5 -78t0.5 -58h-20q-4 28 -2 123q-19 -60 -63.5 -96.5t-114.5 -36.5q-30 0 -57 8t-54.5 27t-44 58t-16.5 94v320h20v-328q0 -68 38 -114t115 -46q80 0 128.5 55t48.5 160v273h21zM267 593q-38 0 -61.5 25.5t-23.5 61.5t23.5 61.5t61.5 25.5
t62 -25.5t24 -61.5t-24 -61.5t-62 -25.5zM267 611q31 0 49 20.5t18 48.5t-18 48.5t-49 20.5t-48.5 -20.5t-17.5 -48.5t17.5 -48.5t48.5 -20.5z" />
    <glyph glyph-name="Uhungarumlaut" unicode="&#x170;" horiz-adv-x="672" 
d="M84 704h20v-440q0 -133 66.5 -194.5t167.5 -61.5q113 0 171.5 65t58.5 191v440h20v-436q0 -278 -252 -278q-50 0 -92.5 13.5t-79.5 42.5t-58.5 82.5t-21.5 126.5v449zM343 929h25l-108 -150h-23zM490 929h25l-108 -150h-23z" />
    <glyph glyph-name="uhungarumlaut" unicode="&#x171;" horiz-adv-x="541" 
d="M456 497v-361q0 -28 0.5 -78t0.5 -58h-20q-4 28 -2 123q-19 -60 -63.5 -96.5t-114.5 -36.5q-30 0 -57 8t-54.5 27t-44 58t-16.5 94v320h20v-328q0 -68 38 -114t115 -46q80 0 128.5 55t48.5 160v273h21zM205 591h-21l111 159h22zM335 591h-21l111 159h22z" />
    <glyph glyph-name="Uogonek" unicode="&#x172;" horiz-adv-x="672" 
d="M84 704h20v-440q0 -133 66.5 -194.5t167.5 -61.5q113 0 171.5 65t58.5 191v440h20v-436q0 -224 -162 -267q-23 -29 -33 -43.5t-20.5 -38.5t-10.5 -47q0 -32 20 -50t53 -18q31 0 61 13l4 -18q-23 -15 -66 -15q-44 0 -68 24t-24 62q0 57 58 125q-33 -5 -64 -5
q-50 0 -92.5 13.5t-79.5 42.5t-58.5 82.5t-21.5 126.5v449z" />
    <glyph glyph-name="uogonek" unicode="&#x173;" horiz-adv-x="541" 
d="M456 497v-361q0 -28 0.5 -78t0.5 -58q-24 -31 -34 -44.5t-21 -38.5t-11 -48q0 -32 20 -50t53 -18q31 0 61 13l4 -18q-23 -15 -66 -15q-44 0 -68 24t-24 62q0 59 66 134q-4 41 -2 122q-19 -60 -63.5 -96.5t-114.5 -36.5q-30 0 -57 8t-54.5 27t-44 58t-16.5 94v320h20v-328
q0 -68 38 -114t115 -46q80 0 128.5 55t48.5 160v273h21z" />
    <glyph glyph-name="Wcircumflex" unicode="&#x174;" horiz-adv-x="924" 
d="M250 0h-28l-198 704h21q186 -662 191 -686h1q8 29 92.5 310.5t110.5 375.5h30q17 -61 68.5 -237t88.5 -303.5t41 -144.5h1q125 411 210 685h21l-218 -704h-29q-21 74 -69 241t-86.5 298.5t-42.5 149.5h-1q-14 -60 -204 -689zM446 907h25l127 -128h-25l-115 114l-112 -114
h-24z" />
    <glyph glyph-name="wcircumflex" unicode="&#x175;" horiz-adv-x="761" 
d="M31 497h22q33 -105 72 -228.5t55.5 -176.5t20.5 -72h1q10 35 165 477h27q155 -471 156 -473h1q3 10 158 473h21l-168 -497h-24q-149 444 -158 477h-1q-19 -64 -166 -477h-24zM369 759h19l113 -150h-23l-100 134l-97 -134h-22z" />
    <glyph glyph-name="Ycircumflex" unicode="&#x176;" horiz-adv-x="540" 
d="M278 0h-20v288q0 6 -6 14l-247 402h24q199 -319 239 -392q12 22 53 87.5t100.5 160.5t90.5 144h23l-252 -401q-5 -7 -5 -14v-289zM254 907h25l127 -128h-25l-115 114l-112 -114h-24z" />
    <glyph glyph-name="ycircumflex" unicode="&#x177;" horiz-adv-x="476" 
d="M26 497h22q187 -468 191 -481h1q7 18 25.5 65.5t67.5 171.5t96 244h22l-199 -503q-54 -134 -89 -178t-96 -44q-26 0 -38 3l2 20q13 -3 37 -3q48 0 80.5 38t80.5 159zM227 759h19l113 -150h-23l-100 134l-97 -134h-22z" />
    <glyph glyph-name="Ydieresis" unicode="&#x178;" horiz-adv-x="540" 
d="M278 0h-20v288q0 6 -6 14l-247 402h24q199 -319 239 -392q12 22 53 87.5t100.5 160.5t90.5 144h23l-252 -401q-5 -7 -5 -14v-289zM185 788h-20v86h20v-86zM375 788h-20v86h20v-86z" />
    <glyph glyph-name="Zacute" unicode="&#x179;" horiz-adv-x="548" 
d="M6 0v15l492 671h-460v18h487v-15l-492 -671h501l-5 -18h-523zM407 929h29l-171 -150h-25z" />
    <glyph glyph-name="zacute" unicode="&#x17a;" horiz-adv-x="437" 
d="M29 0v15q112 147 349 464h-333v18h360v-15q-32 -41 -349 -464h354l-4 -18h-377zM347 760h25l-154 -159h-23z" />
    <glyph glyph-name="Zdotaccent" unicode="&#x17b;" horiz-adv-x="548" 
d="M6 0v15l492 671h-460v18h487v-15l-492 -671h501l-5 -18h-523zM284 788h-20v86h20v-86z" />
    <glyph glyph-name="zdotaccent" unicode="&#x17c;" horiz-adv-x="437" 
d="M29 0v15q112 147 349 464h-333v18h360v-15q-32 -41 -349 -464h354l-4 -18h-377zM227 665h-20v86h20v-86z" />
    <glyph glyph-name="Zcaron" unicode="&#x17d;" horiz-adv-x="548" 
d="M6 0v15l492 671h-460v18h487v-15l-492 -671h501l-5 -18h-523zM286 779h-25l-127 128h25l115 -114l112 114h24z" />
    <glyph glyph-name="zcaron" unicode="&#x17e;" horiz-adv-x="437" 
d="M29 0v15q112 147 349 464h-333v18h360v-15q-32 -41 -349 -464h354l-4 -18h-377zM231 604h-19l-113 150h23l100 -134l97 134h22z" />
    <glyph glyph-name="uni018F" unicode="&#x18f;" horiz-adv-x="681" 
d="M631 357q0 -165 -77 -266t-216 -101q-137 0 -216 92.5t-79 253.5v17h567q0 164 -75.5 253t-200.5 89q-179 0 -255 -173h-20q31 87 101 139.5t175 52.5q142 0 219 -98.5t77 -258.5zM609 335h-545q2 -146 73 -236t201 -90q120 0 192.5 87t78.5 239z" />
    <glyph glyph-name="florin" unicode="&#x192;" horiz-adv-x="514" 
d="M452 659l-7 -19q-28 16 -62 16q-44 0 -69.5 -38.5t-40.5 -133.5l-14 -89h114v-18h-117l-40 -252q-18 -113 -45.5 -167t-84.5 -54q-43 0 -71 21l8 17q28 -19 64 -19q46 0 68.5 49t39.5 149l41 256h-100v18h103l11 72q8 50 16 81.5t22.5 63.5t38.5 47.5t59 15.5
q40 0 66 -16z" />
    <glyph glyph-name="Ohorn" unicode="&#x1a0;" horiz-adv-x="722" 
d="M364 714q140 0 224 -102t84 -254q0 -159 -81.5 -263.5t-232.5 -104.5q-142 0 -225 103t-83 259q0 153 83.5 257.5t230.5 104.5zM363 696q-134 0 -213 -97.5t-79 -244.5q0 -93 31 -170t97.5 -126.5t158.5 -49.5q141 0 217 98t76 251q0 144 -78 241.5t-210 97.5zM581 621
l-16 16q88 8 88 78q0 29 -11 54h22q9 -23 9 -49q0 -85 -92 -99z" />
    <glyph glyph-name="ohorn" unicode="&#x1a1;" horiz-adv-x="535" 
d="M270 511q88 0 146 -60q69 13 69 75q0 29 -11 54h22q9 -22 9 -49q0 -76 -76 -96q56 -70 56 -186q0 -124 -60 -193.5t-160 -69.5q-98 0 -156.5 70.5t-58.5 190.5q0 125 62 194.5t158 69.5zM268 493q-93 0 -145 -70.5t-52 -174.5t51 -174t143 -70q94 0 146.5 68t52.5 176
q0 105 -52 175t-144 70z" />
    <glyph glyph-name="Uhorn" unicode="&#x1af;" horiz-adv-x="672" 
d="M84 704h20v-440q0 -133 66.5 -194.5t167.5 -61.5q113 0 171.5 65t58.5 191v440h2q88 8 88 78q0 29 -11 54h22q9 -22 9 -49q0 -84 -90 -99v-420q0 -278 -252 -278q-50 0 -92.5 13.5t-79.5 42.5t-58.5 82.5t-21.5 126.5v449z" />
    <glyph glyph-name="uhorn" unicode="&#x1b0;" horiz-adv-x="541" 
d="M435 123q-19 -60 -63.5 -96.5t-114.5 -36.5q-30 0 -57 8t-54.5 27t-44 58t-16.5 94v320h20v-328q0 -68 38 -114t115 -46q80 0 128.5 55t48.5 160v273h11q79 10 79 77q0 29 -11 54h22q9 -22 9 -49q0 -85 -89 -98v-345q0 -28 0.5 -78t0.5 -58h-20q-4 28 -2 123z" />
    <glyph glyph-name="uni01CD" unicode="&#x1cd;" horiz-adv-x="624" 
d="M467 274h-315l-105 -274h-21l270 704h21l281 -704h-22zM159 292h300q-39 98 -74 187.5t-55 141.5t-24 62h-1q-8 -31 -146 -391zM319 761h-25l-127 128h25l115 -114l112 114h24z" />
    <glyph glyph-name="uni01CE" unicode="&#x1ce;" horiz-adv-x="506" 
d="M421 356v-244q0 -80 5 -112h-20q-5 40 -5 111q-40 -123 -181 -123q-84 0 -125.5 41.5t-41.5 100.5q0 151 222 151q90 0 126 -1v70q0 141 -148 141q-143 0 -155 -131h-20q4 63 44.5 106t131.5 43q85 0 126 -41.5t41 -111.5zM401 214v48q-34 1 -127 1q-200 0 -200 -132
q0 -57 41 -90.5t106 -33.5q87 0 133.5 52.5t46.5 154.5zM264 604h-19l-113 150h23l100 -134l97 134h22z" />
    <glyph glyph-name="uni01CF" unicode="&#x1cf;" horiz-adv-x="208" 
d="M94 704h20v-704h-20v704zM116 779h-25l-127 128h25l115 -114l112 114h24z" />
    <glyph glyph-name="uni01D0" unicode="&#x1d0;" horiz-adv-x="190" 
d="M85 0v497h20v-497h-20zM106 604h-19l-113 150h23l100 -134l97 134h22z" />
    <glyph glyph-name="uni01D1" unicode="&#x1d1;" horiz-adv-x="722" 
d="M364 714q140 0 224 -102t84 -254q0 -159 -81.5 -263.5t-232.5 -104.5q-142 0 -225 103t-83 259q0 153 83.5 257.5t230.5 104.5zM363 696q-134 0 -213 -97.5t-79 -244.5q0 -93 31 -170t97.5 -126.5t158.5 -49.5q141 0 217 98t76 251q0 144 -78 241.5t-210 97.5zM373 779
h-25l-127 128h25l115 -114l112 114h24z" />
    <glyph glyph-name="uni01D2" unicode="&#x1d2;" horiz-adv-x="535" 
d="M270 511q94 0 154.5 -70.5t60.5 -191.5q0 -124 -60 -193.5t-160 -69.5q-98 0 -156.5 70.5t-58.5 190.5q0 125 62 194.5t158 69.5zM268 493q-93 0 -145 -70.5t-52 -174.5t51 -174t143 -70q94 0 146.5 68t52.5 176q0 105 -52 175t-144 70zM278 604h-19l-113 150h23
l100 -134l97 134h22z" />
    <glyph glyph-name="uni01D3" unicode="&#x1d3;" horiz-adv-x="672" 
d="M84 704h20v-440q0 -133 66.5 -194.5t167.5 -61.5q113 0 171.5 65t58.5 191v440h20v-436q0 -278 -252 -278q-50 0 -92.5 13.5t-79.5 42.5t-58.5 82.5t-21.5 126.5v449zM348 779h-25l-127 128h25l115 -114l112 114h24z" />
    <glyph glyph-name="uni01D4" unicode="&#x1d4;" horiz-adv-x="541" 
d="M456 497v-361q0 -28 0.5 -78t0.5 -58h-20q-4 28 -2 123q-19 -60 -63.5 -96.5t-114.5 -36.5q-30 0 -57 8t-54.5 27t-44 58t-16.5 94v320h20v-328q0 -68 38 -114t115 -46q80 0 128.5 55t48.5 160v273h21zM281 604h-19l-113 150h23l100 -134l97 134h22z" />
    <glyph glyph-name="uni01D5" unicode="&#x1d5;" horiz-adv-x="672" 
d="M84 704h20v-440q0 -133 66.5 -194.5t167.5 -61.5q113 0 171.5 65t58.5 191v440h20v-436q0 -278 -252 -278q-50 0 -92.5 13.5t-79.5 42.5t-58.5 82.5t-21.5 126.5v449zM249 762h-20v86h20v-86zM468 920h-247v19h247v-19zM460 762h-20v86h20v-86z" />
    <glyph glyph-name="uni01D6" unicode="&#x1d6;" horiz-adv-x="541" 
d="M456 497v-361q0 -28 0.5 -78t0.5 -58h-20q-4 28 -2 123q-19 -60 -63.5 -96.5t-114.5 -36.5q-30 0 -57 8t-54.5 27t-44 58t-16.5 94v320h20v-328q0 -68 38 -114t115 -46q80 0 128.5 55t48.5 160v273h21zM188 569h-20v86h20v-86zM381 736h-221v17h221v-17zM369 569h-20v86
h20v-86z" />
    <glyph glyph-name="uni01D7" unicode="&#x1d7;" horiz-adv-x="672" 
d="M84 704h20v-440q0 -133 66.5 -194.5t167.5 -61.5q113 0 171.5 65t58.5 191v440h20v-436q0 -278 -252 -278q-50 0 -92.5 13.5t-79.5 42.5t-58.5 82.5t-21.5 126.5v449zM229 838h20v-76h-20v76zM318 875l119 123h28l-122 -123h-25zM450 762h-20v76h20v-76z" />
    <glyph glyph-name="uni01D8" unicode="&#x1d8;" horiz-adv-x="541" 
d="M456 497v-361q0 -28 0.5 -78t0.5 -58h-20q-4 28 -2 123q-19 -60 -63.5 -96.5t-114.5 -36.5q-30 0 -57 8t-54.5 27t-44 58t-16.5 94v320h20v-328q0 -68 38 -114t115 -46q80 0 128.5 55t48.5 160v273h21zM173 650h20v-86h-20v86zM273 690h-22l109 123h25zM372 564h-20v86
h20v-86z" />
    <glyph glyph-name="uni01D9" unicode="&#x1d9;" horiz-adv-x="672" 
d="M84 704h20v-440q0 -133 66.5 -194.5t167.5 -61.5q113 0 171.5 65t58.5 191v440h20v-436q0 -278 -252 -278q-50 0 -92.5 13.5t-79.5 42.5t-58.5 82.5t-21.5 126.5v449zM347 867h-24l-115 103h26l102 -89l102 89h26zM248 762h-20v71h20v-71zM450 762h-20v71h20v-71z" />
    <glyph glyph-name="uni01DA" unicode="&#x1da;" horiz-adv-x="541" 
d="M456 497v-361q0 -28 0.5 -78t0.5 -58h-20q-4 28 -2 123q-19 -60 -63.5 -96.5t-114.5 -36.5q-30 0 -57 8t-54.5 27t-44 58t-16.5 94v320h20v-328q0 -68 38 -114t115 -46q80 0 128.5 55t48.5 160v273h21zM280 697h-24l-105 113h23l95 -100l95 100h23zM190 571h-20v86h20
v-86zM371 571h-20v86h20v-86z" />
    <glyph glyph-name="uni01DB" unicode="&#x1db;" horiz-adv-x="672" 
d="M84 704h20v-440q0 -133 66.5 -194.5t167.5 -61.5q113 0 171.5 65t58.5 191v440h20v-436q0 -278 -252 -278q-50 0 -92.5 13.5t-79.5 42.5t-58.5 82.5t-21.5 126.5v449zM229 838h20v-76h-20v76zM360 885h-24l-122 123h27zM450 762h-20v76h20v-76z" />
    <glyph glyph-name="uni01DC" unicode="&#x1dc;" horiz-adv-x="541" 
d="M456 497v-361q0 -28 0.5 -78t0.5 -58h-20q-4 28 -2 123q-19 -60 -63.5 -96.5t-114.5 -36.5q-30 0 -57 8t-54.5 27t-44 58t-16.5 94v320h20v-328q0 -68 38 -114t115 -46q80 0 128.5 55t48.5 160v273h21zM171 650h20v-86h-20v86zM156 813h25l107 -123h-20zM372 564h-20v86
h20v-86z" />
    <glyph glyph-name="Gcaron" unicode="&#x1e6;" horiz-adv-x="694" 
d="M623 352v-352h-18q-1 14 -2 165q-58 -175 -253 -175q-100 0 -169.5 50t-100 128t-30.5 177q0 157 80 263t229 106q111 0 177.5 -52t85.5 -138h-20q-22 82 -83 127t-161 45q-138 0 -212.5 -99t-74.5 -249q0 -93 27.5 -167.5t93 -123.5t160.5 -49q124 0 187.5 74.5
t63.5 199.5v52h-252v18h272zM369 779h-25l-127 128h25l115 -114l112 114h24z" />
    <glyph glyph-name="gcaron" unicode="&#x1e7;" horiz-adv-x="545" 
d="M460 362v-345q0 -126 -47.5 -187.5t-164.5 -61.5q-84 0 -131.5 41t-56.5 102h20q12 -57 55 -91t114 -34q107 0 149 57t42 177v110q-40 -130 -182 -130q-90 0 -148.5 67t-58.5 181q0 123 64 192t152 69q75 0 117.5 -35t56.5 -86q0 24 0.5 49.5t0.5 41.5v18h19
q0 -4 -0.5 -24.5t-0.5 -51v-59.5zM72 249q0 -107 53.5 -168.5t133.5 -61.5q182 0 182 239q0 35 -2.5 62.5t-13.5 61t-29 56t-51 37.5t-79 15q-88 0 -141 -67.5t-53 -173.5zM283 604h-19l-113 150h23l100 -134l97 134h22z" />
    <glyph glyph-name="uni0218" unicode="&#x218;" horiz-adv-x="552" 
d="M36 183h21q16 -85 74 -130t149 -45q95 0 150.5 44.5t55.5 122.5q0 76 -43 117t-163 73q-113 30 -161 69t-48 114q0 77 55.5 121.5t150.5 44.5q105 0 156 -50t61 -120h-20q-14 72 -63.5 112t-134.5 40q-84 0 -134 -37.5t-50 -108.5q0 -67 42.5 -102.5t147.5 -62.5
q133 -34 179 -81.5t46 -126.5q0 -87 -61 -137t-167 -50q-105 0 -166 51.5t-77 141.5zM246 -246h-20q51 89 51 190h20q0 -111 -51 -190z" />
    <glyph glyph-name="uni0219" unicode="&#x219;" horiz-adv-x="438" 
d="M42 132h20q13 -64 52.5 -95t111.5 -31t110.5 32.5t38.5 82.5q0 51 -31 80.5t-123 53.5q-90 24 -121.5 53.5t-31.5 79.5q0 51 39.5 86t114.5 35q73 0 116 -38t49 -97h-20q-7 49 -41.5 83t-104.5 34q-67 0 -100 -29t-33 -72q0 -45 29 -71t112 -47q95 -24 131 -58t36 -91
q0 -62 -46 -98.5t-124 -36.5q-161 0 -184 144zM179 -246h-20q51 89 51 190h20q0 -111 -51 -190z" />
    <glyph glyph-name="uni021A" unicode="&#x21a;" horiz-adv-x="515" 
d="M247 0v686h-249v18h519v-18h-250v-686h-20zM217 -246h-20q51 89 51 190h20q0 -111 -51 -190z" />
    <glyph glyph-name="uni021B" unicode="&#x21b;" horiz-adv-x="253" 
d="M7 479v18h93v165h20v-165h124v-18h-124v-376q0 -46 15 -70t58 -24q29 0 40 5v-18q-16 -6 -41 -6q-50 0 -71 26t-21 92v371h-93zM114 -246h-20q51 89 51 190h20q0 -111 -51 -190z" />
    <glyph glyph-name="uni0237" unicode="&#x237;" horiz-adv-x="190" 
d="M85 497h20v-590q0 -68 -20.5 -103.5t-76.5 -35.5h-7v18h2q18 0 29.5 3t25 13t20.5 35.5t7 66.5v593z" />
    <glyph glyph-name="uni0251" unicode="&#x251;" horiz-adv-x="548" 
d="M443 497h20v-392q0 -72 4 -106h-18q-6 33 -6 126q-44 -137 -188 -137q-87 0 -146 66t-59 189q0 128 63 197t155 69q132 0 175 -118v106zM71 245q0 -112 51.5 -175t133.5 -63q189 0 189 252q0 231 -179 231q-89 0 -142 -69t-53 -176z" />
    <glyph glyph-name="uni0259" unicode="&#x259;" horiz-adv-x="497" 
d="M36 245h389q0 114 -51 180t-134 66q-121 0 -174 -118h-20q52 136 193 136q72 0 120.5 -40.5t67 -96.5t18.5 -123q0 -118 -57.5 -188.5t-150.5 -70.5q-55 0 -96 22t-63 58t-32.5 73.5t-10.5 76.5q0 14 1 25zM424 227h-370q0 -95 47.5 -157t136.5 -62q81 0 131 60.5
t55 158.5z" />
    <glyph glyph-name="uni0261" unicode="&#x261;" horiz-adv-x="545" 
d="M460 362v-345q0 -126 -47.5 -187.5t-164.5 -61.5q-84 0 -131.5 41t-56.5 102h20q12 -57 55 -91t114 -34q107 0 149 57t42 177v110q-40 -130 -182 -130q-90 0 -148.5 67t-58.5 181q0 123 64 192t152 69q75 0 117.5 -35t56.5 -86q0 24 0.5 49.5t0.5 41.5v18h19
q0 -4 -0.5 -24.5t-0.5 -51v-59.5zM72 249q0 -107 53.5 -168.5t133.5 -61.5q182 0 182 239q0 35 -2.5 62.5t-13.5 61t-29 56t-51 37.5t-79 15q-88 0 -141 -67.5t-53 -173.5z" />
    <glyph glyph-name="uni02BB" unicode="&#x2bb;" horiz-adv-x="266" 
d="M147 751h19q-46 -104 -46 -218h-20q3 123 47 218z" />
    <glyph glyph-name="uni02BC" unicode="&#x2bc;" horiz-adv-x="266" 
d="M119 533h-19q46 104 46 218h20q-3 -123 -47 -218z" />
    <glyph glyph-name="uni02BE" unicode="&#x2be;" horiz-adv-x="289" 
d="M100 586q36 4 53.5 23.5t17.5 47.5t-17.5 47.5t-53.5 23.5v17q40 0 64.5 -26t24.5 -62t-24.5 -62t-64.5 -26v17z" />
    <glyph glyph-name="uni02BF" unicode="&#x2bf;" horiz-adv-x="289" 
d="M189 589v-17q-40 0 -64.5 26t-24.5 62t24.5 62t64.5 26v-17q-36 -4 -53.5 -23.5t-17.5 -47.5t17.5 -47.5t53.5 -23.5z" />
    <glyph glyph-name="circumflex" unicode="&#x2c6;" 
d="M189 759h19l113 -150h-23l-100 134l-97 -134h-22z" />
    <glyph glyph-name="caron" unicode="&#x2c7;" 
d="M211 604h-19l-113 150h23l100 -134l97 134h22z" />
    <glyph glyph-name="uni02C8" unicode="&#x2c8;" horiz-adv-x="220" 
d="M120 577h-20v171h20v-171z" />
    <glyph glyph-name="uni02C9" unicode="&#x2c9;" horiz-adv-x="456" 
d="M100 686h256v-18h-256v18z" />
    <glyph glyph-name="uni02CA" unicode="&#x2ca;" horiz-adv-x="358" 
d="M252 760h25l-154 -159h-23z" />
    <glyph glyph-name="uni02CB" unicode="&#x2cb;" horiz-adv-x="358" 
d="M87 760h25l146 -159h-23z" />
    <glyph glyph-name="uni02CC" unicode="&#x2cc;" horiz-adv-x="220" 
d="M120 -223h-20v171h20v-171z" />
    <glyph glyph-name="breve" unicode="&#x2d8;" 
d="M83 733h16q17 -87 99 -87t99 87h16q-4 -44 -33.5 -74.5t-81.5 -30.5t-81.5 30.5t-33.5 74.5z" />
    <glyph glyph-name="dotaccent" unicode="&#x2d9;" 
d="M209 665h-20v86h20v-86z" />
    <glyph glyph-name="ring" unicode="&#x2da;" 
d="M197 593q-38 0 -61.5 25.5t-23.5 61.5t23.5 61.5t61.5 25.5t62 -25.5t24 -61.5t-24 -61.5t-62 -25.5zM197 611q31 0 49 20.5t18 48.5t-18 48.5t-49 20.5t-48.5 -20.5t-17.5 -48.5t17.5 -48.5t48.5 -20.5z" />
    <glyph glyph-name="ogonek" unicode="&#x2db;" 
d="M245 9l13 -9q-24 -31 -34 -44.5t-21 -38.5t-11 -48q0 -32 20 -50t53 -18q31 0 61 13l4 -18q-23 -15 -66 -15q-44 0 -68 24t-24 62q0 62 73 142z" />
    <glyph glyph-name="tilde" unicode="&#x2dc;" 
d="M81 648h-17v10q0 68 59 68q31 0 81.5 -30t72.5 -30q38 0 38 49v12h17v-12q0 -66 -55 -66q-26 0 -78.5 30.5t-76.5 30.5q-41 0 -41 -52v-10z" />
    <glyph glyph-name="hungarumlaut" unicode="&#x2dd;" 
d="M133 591h-21l111 159h22zM263 591h-21l111 159h22z" />
    <glyph glyph-name="uni0300" unicode="&#x300;" horiz-adv-x="0" 
d="M-97 760h25l146 -159h-23z" />
    <glyph glyph-name="uni0301" unicode="&#x301;" horiz-adv-x="0" 
d="M71 760h25l-154 -159h-23z" />
    <glyph glyph-name="uni0302" unicode="&#x302;" horiz-adv-x="0" 
d="M-11 759h19l113 -150h-23l-100 134l-97 -134h-22z" />
    <glyph glyph-name="uni0303" unicode="&#x303;" horiz-adv-x="0" 
d="M-117 648h-17v10q0 68 59 68q31 0 81.5 -30t72.5 -30q38 0 38 49v12h17v-12q0 -66 -55 -66q-26 0 -78.5 30.5t-76.5 30.5q-41 0 -41 -52v-10z" />
    <glyph glyph-name="uni0304" unicode="&#x304;" horiz-adv-x="0" 
d="M-128 686h256v-18h-256v18z" />
    <glyph glyph-name="uni0306" unicode="&#x306;" horiz-adv-x="0" 
d="M-115 733h16q17 -87 99 -87t99 87h16q-4 -44 -33.5 -74.5t-81.5 -30.5t-81.5 30.5t-33.5 74.5z" />
    <glyph glyph-name="uni0307" unicode="&#x307;" horiz-adv-x="0" 
d="M10 665h-20v86h20v-86z" />
    <glyph glyph-name="uni0308" unicode="&#x308;" horiz-adv-x="0" 
d="M-70 665h-20v86h20v-86zM90 665h-20v86h20v-86z" />
    <glyph glyph-name="uni0309" unicode="&#x309;" horiz-adv-x="0" 
d="M11 584h-26q73 49 73 97q0 24 -15.5 40t-43.5 16q-40 0 -71 -25l-8 15q32 29 80 29q37 0 57.5 -21.5t20.5 -53.5q0 -26 -19.5 -53t-47.5 -44z" />
    <glyph glyph-name="uni030A" unicode="&#x30a;" horiz-adv-x="0" 
d="M-1 593q-38 0 -61.5 25.5t-23.5 61.5t23.5 61.5t61.5 25.5t62 -25.5t24 -61.5t-24 -61.5t-62 -25.5zM-1 611q31 0 49 20.5t18 48.5t-18 48.5t-49 20.5t-48.5 -20.5t-17.5 -48.5t17.5 -48.5t48.5 -20.5z" />
    <glyph glyph-name="uni030B" unicode="&#x30b;" horiz-adv-x="0" 
d="M-102 591h-21l111 159h22zM28 591h-21l111 159h22z" />
    <glyph glyph-name="uni030C" unicode="&#x30c;" horiz-adv-x="0" 
d="M11 604h-19l-113 150h23l100 -134l97 134h22z" />
    <glyph glyph-name="uni031B" unicode="&#x31b;" horiz-adv-x="0" 
d="M-33 448l-16 16q88 8 88 78q0 29 -11 54h22q9 -23 9 -49q0 -85 -92 -99z" />
    <glyph glyph-name="uni0323" unicode="&#x323;" horiz-adv-x="0" 
d="M10 -173h-20v84h20v-84z" />
    <glyph glyph-name="uni0324" unicode="&#x324;" horiz-adv-x="0" 
d="M-70 -154h-20v86h20v-86zM90 -154h-20v86h20v-86z" />
    <glyph glyph-name="uni0326" unicode="&#x326;" horiz-adv-x="0" 
d="M-40 -246h-20q51 89 51 190h20q0 -111 -51 -190z" />
    <glyph glyph-name="uni0327" unicode="&#x327;" horiz-adv-x="0" 
d="M-8 0h19l-33 -67q56 0 85 -22t29 -58t-25.5 -57t-66.5 -21q-45 0 -73 14v19q31 -15 73 -15q35 0 53.5 16.5t18.5 42.5q0 30 -28.5 48t-89.5 15v10z" />
    <glyph glyph-name="uni0328" unicode="&#x328;" horiz-adv-x="0" 
d="M39 9l13 -9q-24 -31 -34 -44.5t-21 -38.5t-11 -48q0 -32 20 -50t53 -18q31 0 61 13l4 -18q-23 -15 -66 -15q-44 0 -68 24t-24 62q0 62 73 142z" />
    <glyph glyph-name="uni032E" unicode="&#x32e;" horiz-adv-x="0" 
d="M-115 -46h16q17 -87 99 -87t99 87h16q-4 -44 -33.5 -74.5t-81.5 -30.5t-81.5 30.5t-33.5 74.5z" />
    <glyph glyph-name="uni0331" unicode="&#x331;" horiz-adv-x="0" 
d="M-128 -93h256v-18h-256v18z" />
    <glyph glyph-name="pi" unicode="&#x3c0;" horiz-adv-x="502" 
d="M384 0v479h-277v-479h-20v479q-65 0 -92 -1v17q21 2 134 2h362v-18h-87v-479h-20z" />
    <glyph glyph-name="uni1E0C" unicode="&#x1e0c;" horiz-adv-x="690" 
d="M94 0v704h213q156 0 244.5 -94.5t88.5 -242.5q0 -165 -87.5 -266t-247.5 -101h-211zM114 686v-668h193q143 0 227.5 92t84.5 256q0 142 -83.5 231t-231.5 89h-190zM306 -173h-20v84h20v-84z" />
    <glyph glyph-name="uni1E0D" unicode="&#x1e0d;" horiz-adv-x="548" 
d="M443 751h20v-632q0 -18 0.5 -61.5t0.5 -57.5h-19q-2 34 -2 125q-43 -137 -188 -137q-86 0 -145.5 67t-59.5 188q0 128 63 197t155 69q43 0 76.5 -13t53 -34.5t29.5 -37.5t16 -33v360zM71 245q0 -110 52 -174t133 -64q189 0 189 252q0 112 -45 171.5t-134 59.5t-142 -69
t-53 -176zM284 -173h-20v84h20v-84z" />
    <glyph glyph-name="uni1E0E" unicode="&#x1e0e;" horiz-adv-x="690" 
d="M94 0v704h213q156 0 244.5 -94.5t88.5 -242.5q0 -165 -87.5 -266t-247.5 -101h-211zM114 686v-668h193q143 0 227.5 92t84.5 256q0 142 -83.5 231t-231.5 89h-190zM187 -93h256v-18h-256v18z" />
    <glyph glyph-name="uni1E0F" unicode="&#x1e0f;" horiz-adv-x="548" 
d="M443 751h20v-632q0 -18 0.5 -61.5t0.5 -57.5h-19q-2 34 -2 125q-43 -137 -188 -137q-86 0 -145.5 67t-59.5 188q0 128 63 197t155 69q43 0 76.5 -13t53 -34.5t29.5 -37.5t16 -33v360zM71 245q0 -110 52 -174t133 -64q189 0 189 252q0 112 -45 171.5t-134 59.5t-142 -69
t-53 -176zM146 -104h256v-18h-256v18z" />
    <glyph glyph-name="uni1E20" unicode="&#x1e20;" horiz-adv-x="694" 
d="M623 352v-352h-18q-1 14 -2 165q-58 -175 -253 -175q-100 0 -169.5 50t-100 128t-30.5 177q0 157 80 263t229 106q111 0 177.5 -52t85.5 -138h-20q-22 82 -83 127t-161 45q-138 0 -212.5 -99t-74.5 -249q0 -93 27.5 -167.5t93 -123.5t160.5 -49q124 0 187.5 74.5
t63.5 199.5v52h-252v18h272zM236 834h252v-18h-252v18z" />
    <glyph glyph-name="uni1E21" unicode="&#x1e21;" horiz-adv-x="545" 
d="M460 362v-345q0 -126 -47.5 -187.5t-164.5 -61.5q-84 0 -131.5 41t-56.5 102h20q12 -57 55 -91t114 -34q107 0 149 57t42 177v110q-40 -130 -182 -130q-90 0 -148.5 67t-58.5 181q0 123 64 192t152 69q75 0 117.5 -35t56.5 -86q0 24 0.5 49.5t0.5 41.5v18h19
q0 -4 -0.5 -24.5t-0.5 -51v-59.5zM72 249q0 -107 53.5 -168.5t133.5 -61.5q182 0 182 239q0 35 -2.5 62.5t-13.5 61t-29 56t-51 37.5t-79 15q-88 0 -141 -67.5t-53 -173.5zM144 686h256v-18h-256v18z" />
    <glyph glyph-name="uni1E24" unicode="&#x1e24;" horiz-adv-x="692" 
d="M94 0v704h20v-319h464v319h20v-704h-20v367h-464v-367h-20zM356 -173h-20v84h20v-84z" />
    <glyph glyph-name="uni1E25" unicode="&#x1e25;" horiz-adv-x="547" 
d="M85 751h20v-375q18 53 62.5 93t126.5 40q70 0 119 -45t49 -144v-320h-21v318q0 77 -38.5 124.5t-111.5 47.5q-89 0 -137.5 -59.5t-48.5 -153.5v-277h-20v751zM283 -173h-20v84h20v-84z" />
    <glyph glyph-name="uni1E2A" unicode="&#x1e2a;" horiz-adv-x="692" 
d="M94 0v704h20v-319h464v319h20v-704h-20v367h-464v-367h-20zM231 -46h16q17 -87 99 -87t99 87h16q-4 -44 -33.5 -74.5t-81.5 -30.5t-81.5 30.5t-33.5 74.5z" />
    <glyph glyph-name="uni1E2B" unicode="&#x1e2b;" horiz-adv-x="547" 
d="M85 751h20v-375q18 53 62.5 93t126.5 40q70 0 119 -45t49 -144v-320h-21v318q0 77 -38.5 124.5t-111.5 47.5q-89 0 -137.5 -59.5t-48.5 -153.5v-277h-20v751zM158 -69h16q8 -43 34.5 -65t64.5 -22q83 0 99 87h16q-4 -44 -33.5 -74.5t-81.5 -30.5t-81.5 30.5t-33.5 74.5z
" />
    <glyph glyph-name="uni1E36" unicode="&#x1e36;" horiz-adv-x="508" 
d="M94 0v704h20v-686h398l-7 -18h-411zM314 -173h-20v84h20v-84z" />
    <glyph glyph-name="uni1E37" unicode="&#x1e37;" horiz-adv-x="190" 
d="M105 0h-20v751h20v-751zM105 -173h-20v84h20v-84z" />
    <glyph glyph-name="uni1E38" unicode="&#x1e38;" horiz-adv-x="508" 
d="M94 0v704h20v-686h398l-7 -18h-411zM314 -173h-20v84h20v-84zM-17 824h252v-18h-252v18z" />
    <glyph glyph-name="uni1E39" unicode="&#x1e39;" horiz-adv-x="190" 
d="M105 0h-20v751h20v-751zM-33 883h256v-18h-256v18zM105 -173h-20v84h20v-84z" />
    <glyph glyph-name="uni1E3A" unicode="&#x1e3a;" horiz-adv-x="508" 
d="M94 0v704h20v-686h398l-7 -18h-411zM176 -113h256v-18h-256v18z" />
    <glyph glyph-name="uni1E3B" unicode="&#x1e3b;" horiz-adv-x="190" 
d="M105 0h-20v751h20v-751zM-33 -93h256v-18h-256v18z" />
    <glyph glyph-name="uni1E42" unicode="&#x1e42;" horiz-adv-x="856" 
d="M742 0v344q0 310 2 343h-2q-49 -121 -305 -687h-25q-252 571 -298 687h-1q1 -21 1 -371v-316h-20v704h32q81 -187 299 -681h1q10 23 62.5 140t124 276.5t117.5 264.5h32v-704h-20zM435 -173h-20v84h20v-84z" />
    <glyph glyph-name="uni1E43" unicode="&#x1e43;" horiz-adv-x="848" 
d="M85 0v384q0 90 -1 113h20q3 -47 1 -117q16 53 57 91t115 38q61 0 99.5 -31.5t51.5 -86.5q7 19 18 36.5t30.5 37.5t51.5 32t72 12q72 0 117.5 -46t45.5 -138v-325h-21v323q0 72 -36 119.5t-108 47.5q-78 0 -121 -50.5t-43 -131.5v-308h-21v326q0 74 -35 119t-104 45
q-76 0 -122.5 -57.5t-46.5 -157.5v-275h-20zM434 -173h-20v84h20v-84z" />
    <glyph glyph-name="uni1E44" unicode="&#x1e44;" horiz-adv-x="702" 
d="M114 0h-20v704h32q413 -606 463 -683l2 -3q-3 19 -3 333v353h20v-704h-29q-374 552 -466 687l-2 3q3 -56 3 -329v-361zM361 788h-20v86h20v-86z" />
    <glyph glyph-name="uni1E45" unicode="&#x1e45;" horiz-adv-x="547" 
d="M85 0v376q0 29 -0.5 74.5t-0.5 46.5h20q2 -52 1 -125q18 54 63.5 95.5t125.5 41.5q71 0 119.5 -46t48.5 -146v-317h-21v315q0 78 -38 126.5t-112 48.5q-86 0 -136 -62.5t-50 -154.5v-273h-20zM282 665h-20v86h20v-86z" />
    <glyph glyph-name="uni1E46" unicode="&#x1e46;" horiz-adv-x="702" 
d="M114 0h-20v704h32q413 -606 463 -683l2 -3q-3 19 -3 333v353h20v-704h-29q-374 552 -466 687l-2 3q3 -56 3 -329v-361zM361 -173h-20v84h20v-84z" />
    <glyph glyph-name="uni1E47" unicode="&#x1e47;" horiz-adv-x="547" 
d="M85 0v376q0 29 -0.5 74.5t-0.5 46.5h20q2 -52 1 -125q18 54 63.5 95.5t125.5 41.5q71 0 119.5 -46t48.5 -146v-317h-21v315q0 78 -38 126.5t-112 48.5q-86 0 -136 -62.5t-50 -154.5v-273h-20zM283 -173h-20v84h20v-84z" />
    <glyph glyph-name="uni1E48" unicode="&#x1e48;" horiz-adv-x="702" 
d="M114 0h-20v704h32q413 -606 463 -683l2 -3q-3 19 -3 333v353h20v-704h-29q-374 552 -466 687l-2 3q3 -56 3 -329v-361zM223 -93h256v-18h-256v18z" />
    <glyph glyph-name="uni1E49" unicode="&#x1e49;" horiz-adv-x="547" 
d="M85 0v376q0 29 -0.5 74.5t-0.5 46.5h20q2 -52 1 -125q18 54 63.5 95.5t125.5 41.5q71 0 119.5 -46t48.5 -146v-317h-21v315q0 78 -38 126.5t-112 48.5q-86 0 -136 -62.5t-50 -154.5v-273h-20zM145 -93h256v-18h-256v18z" />
    <glyph glyph-name="uni1E5A" unicode="&#x1e5a;" horiz-adv-x="597" 
d="M319 345h-204v-345h-21v704h232q97 0 155 -45.5t58 -134.5q0 -143 -147 -168q66 -11 101 -53t35 -143v-13q0 -123 9 -147h-22q-7 28 -7 147v9q0 100 -38.5 144.5t-150.5 44.5zM115 686v-322h196q207 0 207 159q0 77 -50 120t-142 43h-211zM308 -173h-20v84h20v-84z" />
    <glyph glyph-name="uni1E5B" unicode="&#x1e5b;" horiz-adv-x="298" 
d="M85 0v327q0 139 -1 170h19q2 -25 2 -144q19 65 73 109.5t115 46.5v-20q-76 -3 -132 -69t-56 -152v-268h-20zM106 -173h-20v84h20v-84z" />
    <glyph glyph-name="uni1E5C" unicode="&#x1e5c;" horiz-adv-x="597" 
d="M319 345h-204v-345h-21v704h232q97 0 155 -45.5t58 -134.5q0 -143 -147 -168q66 -11 101 -53t35 -143v-13q0 -123 9 -147h-22q-7 28 -7 147v9q0 100 -38.5 144.5t-150.5 44.5zM115 686v-322h196q207 0 207 159q0 77 -50 120t-142 43h-211zM308 -173h-20v84h20v-84z
M170 829h252v-18h-252v18z" />
    <glyph glyph-name="uni1E5D" unicode="&#x1e5d;" horiz-adv-x="298" 
d="M85 0v327q0 139 -1 170h19q2 -25 2 -144q19 65 73 109.5t115 46.5v-20q-76 -3 -132 -69t-56 -152v-268h-20zM51 686h256v-18h-256v18zM106 -173h-20v84h20v-84z" />
    <glyph glyph-name="uni1E5E" unicode="&#x1e5e;" horiz-adv-x="597" 
d="M319 345h-204v-345h-21v704h232q97 0 155 -45.5t58 -134.5q0 -143 -147 -168q66 -11 101 -53t35 -143v-13q0 -123 9 -147h-22q-7 28 -7 147v9q0 100 -38.5 144.5t-150.5 44.5zM115 686v-322h196q207 0 207 159q0 77 -50 120t-142 43h-211zM170 -93h256v-18h-256v18z" />
    <glyph glyph-name="uni1E5F" unicode="&#x1e5f;" horiz-adv-x="298" 
d="M85 0v327q0 139 -1 170h19q2 -25 2 -144q19 65 73 109.5t115 46.5v-20q-76 -3 -132 -69t-56 -152v-268h-20zM1 -104h256v-18h-256v18z" />
    <glyph glyph-name="uni1E60" unicode="&#x1e60;" horiz-adv-x="552" 
d="M36 183h21q16 -85 74 -130t149 -45q95 0 150.5 44.5t55.5 122.5q0 76 -43 117t-163 73q-113 30 -161 69t-48 114q0 77 55.5 121.5t150.5 44.5q105 0 156 -50t61 -120h-20q-14 72 -63.5 112t-134.5 40q-84 0 -134 -37.5t-50 -108.5q0 -67 42.5 -102.5t147.5 -62.5
q133 -34 179 -81.5t46 -126.5q0 -87 -61 -137t-167 -50q-105 0 -166 51.5t-77 141.5zM286 788h-20v86h20v-86z" />
    <glyph glyph-name="uni1E61" unicode="&#x1e61;" horiz-adv-x="438" 
d="M42 132h20q13 -64 52.5 -95t111.5 -31t110.5 32.5t38.5 82.5q0 51 -31 80.5t-123 53.5q-90 24 -121.5 53.5t-31.5 79.5q0 51 39.5 86t114.5 35q73 0 116 -38t49 -97h-20q-7 49 -41.5 83t-104.5 34q-67 0 -100 -29t-33 -72q0 -45 29 -71t112 -47q95 -24 131 -58t36 -91
q0 -62 -46 -98.5t-124 -36.5q-161 0 -184 144zM228 665h-20v86h20v-86z" />
    <glyph glyph-name="uni1E62" unicode="&#x1e62;" horiz-adv-x="552" 
d="M36 183h21q16 -85 74 -130t149 -45q95 0 150.5 44.5t55.5 122.5q0 76 -43 117t-163 73q-113 30 -161 69t-48 114q0 77 55.5 121.5t150.5 44.5q105 0 156 -50t61 -120h-20q-14 72 -63.5 112t-134.5 40q-84 0 -134 -37.5t-50 -108.5q0 -67 42.5 -102.5t147.5 -62.5
q133 -34 179 -81.5t46 -126.5q0 -87 -61 -137t-167 -50q-105 0 -166 51.5t-77 141.5zM286 -173h-20v84h20v-84z" />
    <glyph glyph-name="uni1E63" unicode="&#x1e63;" horiz-adv-x="438" 
d="M42 132h20q13 -64 52.5 -95t111.5 -31t110.5 32.5t38.5 82.5q0 51 -31 80.5t-123 53.5q-90 24 -121.5 53.5t-31.5 79.5q0 51 39.5 86t114.5 35q73 0 116 -38t49 -97h-20q-7 49 -41.5 83t-104.5 34q-67 0 -100 -29t-33 -72q0 -45 29 -71t112 -47q95 -24 131 -58t36 -91
q0 -62 -46 -98.5t-124 -36.5q-161 0 -184 144zM229 -173h-20v84h20v-84z" />
    <glyph glyph-name="uni1E6C" unicode="&#x1e6c;" horiz-adv-x="515" 
d="M247 0v686h-249v18h519v-18h-250v-686h-20zM267 -173h-20v84h20v-84z" />
    <glyph glyph-name="uni1E6D" unicode="&#x1e6d;" horiz-adv-x="253" 
d="M7 479v18h93v165h20v-165h124v-18h-124v-376q0 -46 15 -70t58 -24q29 0 40 5v-18q-16 -6 -41 -6q-50 0 -71 26t-21 92v371h-93zM156 -173h-20v84h20v-84z" />
    <glyph glyph-name="uni1E6E" unicode="&#x1e6e;" horiz-adv-x="515" 
d="M247 0v686h-249v18h519v-18h-250v-686h-20zM129 -93h256v-18h-256v18z" />
    <glyph glyph-name="uni1E6F" unicode="&#x1e6f;" horiz-adv-x="253" 
d="M7 479v18h93v165h20v-165h124v-18h-124v-376q0 -46 15 -70t58 -24q29 0 40 5v-18q-16 -6 -41 -6q-50 0 -71 26t-21 92v371h-93zM18 -93h256v-18h-256v18z" />
    <glyph glyph-name="Wgrave" unicode="&#x1e80;" horiz-adv-x="924" 
d="M250 0h-28l-198 704h21q186 -662 191 -686h1q8 29 92.5 310.5t110.5 375.5h30q17 -61 68.5 -237t88.5 -303.5t41 -144.5h1q125 411 210 685h21l-218 -704h-29q-21 74 -69 241t-86.5 298.5t-42.5 149.5h-1q-14 -60 -204 -689zM284 929h29l165 -150h-25z" />
    <glyph glyph-name="wgrave" unicode="&#x1e81;" horiz-adv-x="761" 
d="M31 497h22q33 -105 72 -228.5t55.5 -176.5t20.5 -72h1q10 35 165 477h27q155 -471 156 -473h1q3 10 158 473h21l-168 -497h-24q-149 444 -158 477h-1q-19 -64 -166 -477h-24zM228 753h25l146 -159h-23z" />
    <glyph glyph-name="Wacute" unicode="&#x1e82;" horiz-adv-x="924" 
d="M250 0h-28l-198 704h21q186 -662 191 -686h1q8 29 92.5 310.5t110.5 375.5h30q17 -61 68.5 -237t88.5 -303.5t41 -144.5h1q125 411 210 685h21l-218 -704h-29q-21 74 -69 241t-86.5 298.5t-42.5 149.5h-1q-14 -60 -204 -689zM595 929h29l-171 -150h-25z" />
    <glyph glyph-name="wacute" unicode="&#x1e83;" horiz-adv-x="761" 
d="M31 497h22q33 -105 72 -228.5t55.5 -176.5t20.5 -72h1q10 35 165 477h27q155 -471 156 -473h1q3 10 158 473h21l-168 -497h-24q-149 444 -158 477h-1q-19 -64 -166 -477h-24zM502 760h25l-154 -159h-23z" />
    <glyph glyph-name="Wdieresis" unicode="&#x1e84;" horiz-adv-x="924" 
d="M250 0h-28l-198 704h21q186 -662 191 -686h1q8 29 92.5 310.5t110.5 375.5h30q17 -61 68.5 -237t88.5 -303.5t41 -144.5h1q125 411 210 685h21l-218 -704h-29q-21 74 -69 241t-86.5 298.5t-42.5 149.5h-1q-14 -60 -204 -689zM372 788h-20v86h20v-86zM562 788h-20v86h20
v-86z" />
    <glyph glyph-name="wdieresis" unicode="&#x1e85;" horiz-adv-x="761" 
d="M31 497h22q33 -105 72 -228.5t55.5 -176.5t20.5 -72h1q10 35 165 477h27q155 -471 156 -473h1q3 10 158 473h21l-168 -497h-24q-149 444 -158 477h-1q-19 -64 -166 -477h-24zM309 665h-20v86h20v-86zM469 665h-20v86h20v-86z" />
    <glyph glyph-name="uni1E8E" unicode="&#x1e8e;" horiz-adv-x="540" 
d="M278 0h-20v288q0 6 -6 14l-247 402h24q199 -319 239 -392q12 22 53 87.5t100.5 160.5t90.5 144h23l-252 -401q-5 -7 -5 -14v-289zM280 788h-20v86h20v-86z" />
    <glyph glyph-name="uni1E8F" unicode="&#x1e8f;" horiz-adv-x="476" 
d="M26 497h22q187 -468 191 -481h1q7 18 25.5 65.5t67.5 171.5t96 244h22l-199 -503q-54 -134 -89 -178t-96 -44q-26 0 -38 3l2 20q13 -3 37 -3q48 0 80.5 38t80.5 159zM247 665h-20v86h20v-86z" />
    <glyph glyph-name="uni1E92" unicode="&#x1e92;" horiz-adv-x="548" 
d="M6 0v15l492 671h-460v18h487v-15l-492 -671h501l-5 -18h-523zM284 -173h-20v84h20v-84z" />
    <glyph glyph-name="uni1E93" unicode="&#x1e93;" horiz-adv-x="437" 
d="M29 0v15q112 147 349 464h-333v18h360v-15q-32 -41 -349 -464h354l-4 -18h-377zM228 -173h-20v84h20v-84z" />
    <glyph glyph-name="uni1E97" unicode="&#x1e97;" horiz-adv-x="253" 
d="M7 479v18h93v165h20v-165h124v-18h-124v-376q0 -46 15 -70t58 -24q29 0 40 5v-18q-16 -6 -41 -6q-50 0 -71 26t-21 92v371h-93zM40 755h-20v86h20v-86zM200 755h-20v86h20v-86z" />
    <glyph glyph-name="uni1E9E" unicode="&#x1e9e;" horiz-adv-x="638" 
d="M114 526v-526h-20v534q0 49 18.5 85.5t51 56.5t70 29t81.5 9q109 0 166.5 -48.5t57.5 -108.5v-18l-235 -132v-1q19 -8 117 -55q89 -42 128 -83t39 -105q0 -84 -57 -128.5t-151 -44.5q-66 0 -115.5 22.5t-76.5 53.5v28q32 -40 83 -63t109 -23q89 0 138 41.5t49 111.5
q0 58 -33.5 94t-122.5 80q-20 10 -127 60q-8 4 -8 10.5t8 11.5l235 133q0 55 -50 100t-154 45q-201 0 -201 -169z" />
    <glyph glyph-name="uni1EA0" unicode="&#x1ea0;" horiz-adv-x="624" 
d="M467 274h-315l-105 -274h-21l270 704h21l281 -704h-22zM159 292h300q-39 98 -74 187.5t-55 141.5t-24 62h-1q-8 -31 -146 -391zM322 -173h-20v84h20v-84z" />
    <glyph glyph-name="uni1EA1" unicode="&#x1ea1;" horiz-adv-x="506" 
d="M421 356v-244q0 -80 5 -112h-20q-5 40 -5 111q-40 -123 -181 -123q-84 0 -125.5 41.5t-41.5 100.5q0 151 222 151q90 0 126 -1v70q0 141 -148 141q-143 0 -155 -131h-20q4 63 44.5 106t131.5 43q85 0 126 -41.5t41 -111.5zM401 214v48q-34 1 -127 1q-200 0 -200 -132
q0 -57 41 -90.5t106 -33.5q87 0 133.5 52.5t46.5 154.5zM263 -173h-20v84h20v-84z" />
    <glyph glyph-name="uni1EA2" unicode="&#x1ea2;" horiz-adv-x="624" 
d="M467 274h-315l-105 -274h-21l270 704h21l281 -704h-22zM159 292h300q-39 98 -74 187.5t-55 141.5t-24 62h-1q-8 -31 -146 -391zM310 775h-26q73 49 73 97q0 24 -15.5 40t-43.5 16q-40 0 -71 -25l-8 15q32 29 80 29q37 0 57.5 -21.5t20.5 -53.5q0 -26 -19.5 -53t-47.5 -44
z" />
    <glyph glyph-name="uni1EA3" unicode="&#x1ea3;" horiz-adv-x="506" 
d="M421 356v-244q0 -80 5 -112h-20q-5 40 -5 111q-40 -123 -181 -123q-84 0 -125.5 41.5t-41.5 100.5q0 151 222 151q90 0 126 -1v70q0 141 -148 141q-143 0 -155 -131h-20q4 63 44.5 106t131.5 43q85 0 126 -41.5t41 -111.5zM401 214v48q-34 1 -127 1q-200 0 -200 -132
q0 -57 41 -90.5t106 -33.5q87 0 133.5 52.5t46.5 154.5zM265 584h-26q73 49 73 97q0 24 -15.5 40t-43.5 16q-40 0 -71 -25l-8 15q32 29 80 29q37 0 57.5 -21.5t20.5 -53.5q0 -26 -19.5 -53t-47.5 -44z" />
    <glyph glyph-name="uni1EA4" unicode="&#x1ea4;" horiz-adv-x="624" 
d="M467 274h-315l-105 -274h-21l270 704h21l281 -704h-22zM159 292h300q-39 98 -74 187.5t-55 141.5t-24 62h-1q-8 -31 -146 -391zM303 886h19l136 -114h-28l-117 98l-116 -98h-27zM550 988h28l-142 -116h-25z" />
    <glyph glyph-name="uni1EA5" unicode="&#x1ea5;" horiz-adv-x="506" 
d="M421 356v-244q0 -80 5 -112h-20q-5 40 -5 111q-40 -123 -181 -123q-84 0 -125.5 41.5t-41.5 100.5q0 151 222 151q90 0 126 -1v70q0 141 -148 141q-143 0 -155 -131h-20q4 63 44.5 106t131.5 43q85 0 126 -41.5t41 -111.5zM401 214v48q-34 1 -127 1q-200 0 -200 -132
q0 -57 41 -90.5t106 -33.5q87 0 133.5 52.5t46.5 154.5zM244 731h19l113 -140h-24l-98 123l-98 -123h-22zM462 835h26l-119 -126h-21z" />
    <glyph glyph-name="uni1EA6" unicode="&#x1ea6;" horiz-adv-x="624" 
d="M467 274h-315l-105 -274h-21l270 704h21l281 -704h-22zM159 292h300q-39 98 -74 187.5t-55 141.5t-24 62h-1q-8 -31 -146 -391zM297 883h19l136 -114h-28l-117 98l-116 -98h-27zM386 962h29l121 -105h-26z" />
    <glyph glyph-name="uni1EA7" unicode="&#x1ea7;" horiz-adv-x="506" 
d="M421 356v-244q0 -80 5 -112h-20q-5 40 -5 111q-40 -123 -181 -123q-84 0 -125.5 41.5t-41.5 100.5q0 151 222 151q90 0 126 -1v70q0 141 -148 141q-143 0 -155 -131h-20q4 63 44.5 106t131.5 43q85 0 126 -41.5t41 -111.5zM401 214v48q-34 1 -127 1q-200 0 -200 -132
q0 -57 41 -90.5t106 -33.5q87 0 133.5 52.5t46.5 154.5zM244 731h19l113 -140h-24l-99 123l-97 -123h-22zM331 820h25l109 -126h-21z" />
    <glyph glyph-name="uni1EA8" unicode="&#x1ea8;" horiz-adv-x="624" 
d="M467 274h-315l-105 -274h-21l270 704h21l281 -704h-22zM159 292h300q-39 98 -74 187.5t-55 141.5t-24 62h-1q-8 -31 -146 -391zM434 855h-27q70 42 70 85t-48 43q-33 0 -64 -23l-7 14q34 28 71 28q32 0 50 -17t18 -44q0 -24 -18.5 -48t-44.5 -38zM294 867h19l136 -114
h-28l-117 97l-116 -97h-27z" />
    <glyph glyph-name="uni1EA9" unicode="&#x1ea9;" horiz-adv-x="506" 
d="M421 356v-244q0 -80 5 -112h-20q-5 40 -5 111q-40 -123 -181 -123q-84 0 -125.5 41.5t-41.5 100.5q0 151 222 151q90 0 126 -1v70q0 141 -148 141q-143 0 -155 -131h-20q4 63 44.5 106t131.5 43q85 0 126 -41.5t41 -111.5zM401 214v48q-34 1 -127 1q-200 0 -200 -132
q0 -57 41 -90.5t106 -33.5q87 0 133.5 52.5t46.5 154.5zM386 695h-26q71 41 71 85q0 43 -49 43q-33 0 -64 -23l-7 14q32 27 71 27q32 0 50 -16.5t18 -43.5q0 -24 -19 -48t-45 -38zM244 731h19l113 -140h-24l-99 123l-97 -123h-22z" />
    <glyph glyph-name="uni1EAA" unicode="&#x1eaa;" horiz-adv-x="624" 
d="M467 274h-315l-105 -274h-21l270 704h21l281 -704h-22zM159 292h300q-39 98 -74 187.5t-55 141.5t-24 62h-1q-8 -31 -146 -391zM193 886h-16v9q0 56 50 56q27 0 86 -22.5t81 -22.5q31 0 31 37v9h16v-9q0 -56 -47 -56q-25 0 -85 23t-83 23q-33 0 -33 -38v-9zM297 837h21
l132 -84h-30l-113 69l-110 -69h-29z" />
    <glyph glyph-name="uni1EAB" unicode="&#x1eab;" horiz-adv-x="506" 
d="M421 356v-244q0 -80 5 -112h-20q-5 40 -5 111q-40 -123 -181 -123q-84 0 -125.5 41.5t-41.5 100.5q0 151 222 151q90 0 126 -1v70q0 141 -148 141q-143 0 -155 -131h-20q4 63 44.5 106t131.5 43q85 0 126 -41.5t41 -111.5zM401 214v48q-34 1 -127 1q-200 0 -200 -132
q0 -57 41 -90.5t106 -33.5q87 0 133.5 52.5t46.5 154.5zM147 716h-17v9q0 56 51 56q27 0 76 -23t71 -23q31 0 31 38v9h17v-9q0 -56 -48 -56q-25 0 -75 23.5t-73 23.5q-33 0 -33 -39v-9zM241 675h21l122 -94h-27l-106 79l-103 -79h-26z" />
    <glyph glyph-name="uni1EAC" unicode="&#x1eac;" horiz-adv-x="624" 
d="M467 274h-315l-105 -274h-21l270 704h21l281 -704h-22zM159 292h300q-39 98 -74 187.5t-55 141.5t-24 62h-1q-8 -31 -146 -391zM322 -173h-20v84h20v-84zM293 887h25l127 -128h-25l-115 114l-112 -114h-24z" />
    <glyph glyph-name="uni1EAD" unicode="&#x1ead;" horiz-adv-x="506" 
d="M421 356v-244q0 -80 5 -112h-20q-5 40 -5 111q-40 -123 -181 -123q-84 0 -125.5 41.5t-41.5 100.5q0 151 222 151q90 0 126 -1v70q0 141 -148 141q-143 0 -155 -131h-20q4 63 44.5 106t131.5 43q85 0 126 -41.5t41 -111.5zM401 214v48q-34 1 -127 1q-200 0 -200 -132
q0 -57 41 -90.5t106 -33.5q87 0 133.5 52.5t46.5 154.5zM263 -173h-20v84h20v-84zM242 759h19l113 -150h-23l-100 134l-97 -134h-22z" />
    <glyph glyph-name="uni1EAE" unicode="&#x1eae;" horiz-adv-x="624" 
d="M467 274h-315l-105 -274h-21l270 704h21l281 -704h-22zM159 292h300q-39 98 -74 187.5t-55 141.5t-24 62h-1q-8 -31 -146 -391zM165 864h18q35 -71 124 -71q47 0 75.5 17.5t49.5 53.5h18q-40 -89 -143 -89q-57 0 -93 25t-49 64zM405 1005h25l-121 -123h-22z" />
    <glyph glyph-name="uni1EAF" unicode="&#x1eaf;" horiz-adv-x="506" 
d="M421 356v-244q0 -80 5 -112h-20q-5 40 -5 111q-40 -123 -181 -123q-84 0 -125.5 41.5t-41.5 100.5q0 151 222 151q90 0 126 -1v70q0 141 -148 141q-143 0 -155 -131h-20q4 63 44.5 106t131.5 43q85 0 126 -41.5t41 -111.5zM401 214v48q-34 1 -127 1q-200 0 -200 -132
q0 -57 41 -90.5t106 -33.5q87 0 133.5 52.5t46.5 154.5zM126 686h18q28 -71 111 -71q79 0 112 71h18q-34 -89 -130 -89q-53 0 -85.5 25t-43.5 64zM345 835h24l-112 -123h-22z" />
    <glyph glyph-name="uni1EB0" unicode="&#x1eb0;" horiz-adv-x="624" 
d="M467 274h-315l-105 -274h-21l270 704h21l281 -704h-22zM159 292h300q-39 98 -74 187.5t-55 141.5t-24 62h-1q-8 -31 -146 -391zM164 864h18q32 -71 124 -71q47 0 75.5 17.5t49.5 53.5h18q-40 -89 -143 -89q-57 0 -93 25t-49 64zM187 1005h24l115 -123h-22z" />
    <glyph glyph-name="uni1EB1" unicode="&#x1eb1;" horiz-adv-x="506" 
d="M421 356v-244q0 -80 5 -112h-20q-5 40 -5 111q-40 -123 -181 -123q-84 0 -125.5 41.5t-41.5 100.5q0 151 222 151q90 0 126 -1v70q0 141 -148 141q-143 0 -155 -131h-20q4 63 44.5 106t131.5 43q85 0 126 -41.5t41 -111.5zM401 214v48q-34 1 -127 1q-200 0 -200 -132
q0 -57 41 -90.5t106 -33.5q87 0 133.5 52.5t46.5 154.5zM124 674h18q29 -71 111 -71q44 0 69.5 17t42.5 54h18q-34 -89 -130 -89q-53 0 -85.5 25t-43.5 64zM143 823h24l111 -123h-22z" />
    <glyph glyph-name="uni1EB2" unicode="&#x1eb2;" horiz-adv-x="624" 
d="M467 274h-315l-105 -274h-21l270 704h21l281 -704h-22zM159 292h300q-39 98 -74 187.5t-55 141.5t-24 62h-1q-8 -31 -146 -391zM308 871h-26q67 42 67 85t-49 43q-33 0 -64 -23l-7 14q32 27 71 27q32 0 50 -16.5t18 -43.5q0 -24 -17.5 -47.5t-42.5 -38.5zM162 861h18
q31 -70 124 -70q48 0 76.5 16.5t48.5 53.5h18q-40 -89 -143 -89q-57 0 -93 25t-49 64z" />
    <glyph glyph-name="uni1EB3" unicode="&#x1eb3;" horiz-adv-x="506" 
d="M421 356v-244q0 -80 5 -112h-20q-5 40 -5 111q-40 -123 -181 -123q-84 0 -125.5 41.5t-41.5 100.5q0 151 222 151q90 0 126 -1v70q0 141 -148 141q-143 0 -155 -131h-20q4 63 44.5 106t131.5 43q85 0 126 -41.5t41 -111.5zM401 214v48q-34 1 -127 1q-200 0 -200 -132
q0 -57 41 -90.5t106 -33.5q87 0 133.5 52.5t46.5 154.5zM260 695h-26q68 42 68 85t-49 43q-33 0 -64 -23l-7 14q32 27 71 27q32 0 50 -16.5t18 -43.5q0 -23 -18 -47t-43 -39zM126 678h18q29 -71 111 -71q44 0 69.5 17t42.5 54h18q-34 -89 -130 -89q-53 0 -85.5 25t-43.5 64z
" />
    <glyph glyph-name="uni1EB4" unicode="&#x1eb4;" horiz-adv-x="624" 
d="M467 274h-315l-105 -274h-21l270 704h21l281 -704h-22zM159 292h300q-39 98 -74 187.5t-55 141.5t-24 62h-1q-8 -31 -146 -391zM186 899h-16v9q0 56 50 56q27 0 86 -22.5t81 -22.5q31 0 31 37v9h16v-9q0 -56 -47 -56q-25 0 -85 23t-83 23q-33 0 -33 -38v-9zM170 854h18
q31 -64 116 -64q45 0 72.5 15t44.5 49h18q-34 -83 -135 -83q-53 0 -87 23t-47 60z" />
    <glyph glyph-name="uni1EB5" unicode="&#x1eb5;" horiz-adv-x="506" 
d="M421 356v-244q0 -80 5 -112h-20q-5 40 -5 111q-40 -123 -181 -123q-84 0 -125.5 41.5t-41.5 100.5q0 151 222 151q90 0 126 -1v70q0 141 -148 141q-143 0 -155 -131h-20q4 63 44.5 106t131.5 43q85 0 126 -41.5t41 -111.5zM401 214v48q-34 1 -127 1q-200 0 -200 -132
q0 -57 41 -90.5t106 -33.5q87 0 133.5 52.5t46.5 154.5zM142 718h-16v8q0 55 50 55q27 0 81 -22.5t76 -22.5q31 0 31 37v9h16v-9q0 -54 -47 -54q-25 0 -80 23t-78 23q-33 0 -33 -39v-8zM126 661h18q32 -65 111 -65q44 0 69 15t43 50h18q-34 -83 -130 -83q-101 0 -129 83z
" />
    <glyph glyph-name="uni1EB6" unicode="&#x1eb6;" horiz-adv-x="624" 
d="M467 274h-315l-105 -274h-21l270 704h21l281 -704h-22zM159 292h300q-39 98 -74 187.5t-55 141.5t-24 62h-1q-8 -31 -146 -391zM322 -173h-20v84h20v-84zM172 886h18q22 -94 118 -94q94 0 118 94h18q-22 -113 -136 -113t-136 113z" />
    <glyph glyph-name="uni1EB7" unicode="&#x1eb7;" horiz-adv-x="506" 
d="M421 356v-244q0 -80 5 -112h-20q-5 40 -5 111q-40 -123 -181 -123q-84 0 -125.5 41.5t-41.5 100.5q0 151 222 151q90 0 126 -1v70q0 141 -148 141q-143 0 -155 -131h-20q4 63 44.5 106t131.5 43q85 0 126 -41.5t41 -111.5zM401 214v48q-34 1 -127 1q-200 0 -200 -132
q0 -57 41 -90.5t106 -33.5q87 0 133.5 52.5t46.5 154.5zM136 733h16q17 -87 99 -87q83 0 99 87h16q-4 -44 -33.5 -74.5t-81.5 -30.5t-81.5 30.5t-33.5 74.5zM263 -173h-20v84h20v-84z" />
    <glyph glyph-name="uni1EB8" unicode="&#x1eb8;" horiz-adv-x="558" 
d="M497 382v-18h-383v-346h417l-4 -18h-433v704h423v-18h-403v-304h383zM317 -173h-20v84h20v-84z" />
    <glyph glyph-name="uni1EB9" unicode="&#x1eb9;" horiz-adv-x="506" 
d="M459 254h-389q0 -114 51 -180t134 -66q121 0 174 118h20q-52 -136 -193 -136q-72 0 -120.5 40.5t-67 96.5t-18.5 123q0 118 57.5 188.5t150.5 70.5q55 0 96 -22t63 -58t32.5 -73.5t10.5 -76.5q0 -14 -1 -25zM71 272h370q0 95 -47.5 157t-136.5 62q-81 0 -131 -60.5
t-55 -158.5zM273 -173h-20v84h20v-84z" />
    <glyph glyph-name="uni1EBA" unicode="&#x1eba;" horiz-adv-x="558" 
d="M497 382v-18h-383v-346h417l-4 -18h-433v704h423v-18h-403v-304h383zM313 788h-26q73 49 73 97q0 24 -15.5 40t-43.5 16q-40 0 -71 -25l-8 15q32 29 80 29q37 0 57.5 -21.5t20.5 -53.5q0 -26 -19.5 -53t-47.5 -44z" />
    <glyph glyph-name="uni1EBB" unicode="&#x1ebb;" horiz-adv-x="506" 
d="M459 254h-389q0 -114 51 -180t134 -66q121 0 174 118h20q-52 -136 -193 -136q-72 0 -120.5 40.5t-67 96.5t-18.5 123q0 118 57.5 188.5t150.5 70.5q55 0 96 -22t63 -58t32.5 -73.5t10.5 -76.5q0 -14 -1 -25zM71 272h370q0 95 -47.5 157t-136.5 62q-81 0 -131 -60.5
t-55 -158.5zM266 584h-26q73 49 73 97q0 24 -15.5 40t-43.5 16q-40 0 -71 -25l-8 15q32 29 80 29q37 0 57.5 -21.5t20.5 -53.5q0 -26 -19.5 -53t-47.5 -44z" />
    <glyph glyph-name="uni1EBC" unicode="&#x1ebc;" horiz-adv-x="558" 
d="M497 382v-18h-383v-346h417l-4 -18h-433v704h423v-18h-403v-304h383zM186 800h-18v11q0 70 63 70q29 0 80 -30.5t73 -30.5q45 0 45 57v9h18v-11q0 -75 -61 -75q-28 0 -80.5 31t-74.5 31q-45 0 -45 -53v-9z" />
    <glyph glyph-name="uni1EBD" unicode="&#x1ebd;" horiz-adv-x="506" 
d="M459 254h-389q0 -114 51 -180t134 -66q121 0 174 118h20q-52 -136 -193 -136q-72 0 -120.5 40.5t-67 96.5t-18.5 123q0 118 57.5 188.5t150.5 70.5q55 0 96 -22t63 -58t32.5 -73.5t10.5 -76.5q0 -14 -1 -25zM71 272h370q0 95 -47.5 157t-136.5 62q-81 0 -131 -60.5
t-55 -158.5zM144 648h-17v10q0 68 59 68q31 0 81.5 -30t72.5 -30q38 0 38 49v12h17v-12q0 -66 -55 -66q-26 0 -78.5 30.5t-76.5 30.5q-41 0 -41 -52v-10z" />
    <glyph glyph-name="uni1EBE" unicode="&#x1ebe;" horiz-adv-x="558" 
d="M497 382v-18h-383v-346h417l-4 -18h-433v704h423v-18h-403v-304h383zM293 896h19l136 -114h-28l-117 98l-116 -98h-27zM540 998h28l-142 -116h-25z" />
    <glyph glyph-name="uni1EBF" unicode="&#x1ebf;" horiz-adv-x="506" 
d="M459 254h-389q0 -114 51 -180t134 -66q121 0 174 118h20q-52 -136 -193 -136q-72 0 -120.5 40.5t-67 96.5t-18.5 123q0 118 57.5 188.5t150.5 70.5q55 0 96 -22t63 -58t32.5 -73.5t10.5 -76.5q0 -14 -1 -25zM71 272h370q0 95 -47.5 157t-136.5 62q-81 0 -131 -60.5
t-55 -158.5zM244 731h19l113 -140h-24l-98 123l-98 -123h-22zM462 835h26l-119 -126h-21z" />
    <glyph glyph-name="uni1EC0" unicode="&#x1ec0;" horiz-adv-x="558" 
d="M497 382v-18h-383v-346h417l-4 -18h-433v704h423v-18h-403v-304h383zM294 896h19l136 -114h-28l-117 98l-116 -98h-27zM383 975h29l121 -105h-26z" />
    <glyph glyph-name="uni1EC1" unicode="&#x1ec1;" horiz-adv-x="506" 
d="M459 254h-389q0 -114 51 -180t134 -66q121 0 174 118h20q-52 -136 -193 -136q-72 0 -120.5 40.5t-67 96.5t-18.5 123q0 118 57.5 188.5t150.5 70.5q55 0 96 -22t63 -58t32.5 -73.5t10.5 -76.5q0 -14 -1 -25zM71 272h370q0 95 -47.5 157t-136.5 62q-81 0 -131 -60.5
t-55 -158.5zM244 731h19l113 -140h-24l-99 123l-97 -123h-22zM331 820h25l109 -126h-21z" />
    <glyph glyph-name="uni1EC2" unicode="&#x1ec2;" horiz-adv-x="558" 
d="M497 382v-18h-383v-346h417l-4 -18h-433v704h423v-18h-403v-304h383zM430 884h-27q70 42 70 85t-48 43q-33 0 -64 -23l-7 14q34 28 71 28q32 0 50 -17t18 -44q0 -24 -18.5 -48t-44.5 -38zM290 896h19l136 -114h-28l-117 97l-116 -97h-27z" />
    <glyph glyph-name="uni1EC3" unicode="&#x1ec3;" horiz-adv-x="506" 
d="M459 254h-389q0 -114 51 -180t134 -66q121 0 174 118h20q-52 -136 -193 -136q-72 0 -120.5 40.5t-67 96.5t-18.5 123q0 118 57.5 188.5t150.5 70.5q55 0 96 -22t63 -58t32.5 -73.5t10.5 -76.5q0 -14 -1 -25zM71 272h370q0 95 -47.5 157t-136.5 62q-81 0 -131 -60.5
t-55 -158.5zM386 695h-26q71 41 71 85q0 43 -49 43q-33 0 -64 -23l-7 14q32 27 71 27q32 0 50 -16.5t18 -43.5q0 -24 -19 -48t-45 -38zM244 731h19l113 -140h-24l-99 123l-97 -123h-22z" />
    <glyph glyph-name="uni1EC4" unicode="&#x1ec4;" horiz-adv-x="558" 
d="M497 382v-18h-383v-346h417l-4 -18h-433v704h423v-18h-403v-304h383zM193 912h-16v9q0 56 50 56q27 0 86 -22.5t81 -22.5q31 0 31 37v9h16v-9q0 -56 -47 -56q-25 0 -85 23t-83 23q-33 0 -33 -38v-9zM297 863h21l132 -84h-30l-113 69l-110 -69h-29z" />
    <glyph glyph-name="uni1EC5" unicode="&#x1ec5;" horiz-adv-x="506" 
d="M459 254h-389q0 -114 51 -180t134 -66q121 0 174 118h20q-52 -136 -193 -136q-72 0 -120.5 40.5t-67 96.5t-18.5 123q0 118 57.5 188.5t150.5 70.5q55 0 96 -22t63 -58t32.5 -73.5t10.5 -76.5q0 -14 -1 -25zM71 272h370q0 95 -47.5 157t-136.5 62q-81 0 -131 -60.5
t-55 -158.5zM157 722h-17v9q0 56 51 56q27 0 76 -23t71 -23q31 0 31 38v9h17v-9q0 -56 -48 -56q-25 0 -75 23.5t-73 23.5q-33 0 -33 -39v-9zM251 681h21l122 -94h-27l-106 79l-103 -79h-26z" />
    <glyph glyph-name="uni1EC6" unicode="&#x1ec6;" horiz-adv-x="558" 
d="M497 382v-18h-383v-346h417l-4 -18h-433v704h423v-18h-403v-304h383zM329 -173h-20v84h20v-84zM293 907h25l127 -128h-25l-115 114l-112 -114h-24z" />
    <glyph glyph-name="uni1EC7" unicode="&#x1ec7;" horiz-adv-x="506" 
d="M459 254h-389q0 -114 51 -180t134 -66q121 0 174 118h20q-52 -136 -193 -136q-72 0 -120.5 40.5t-67 96.5t-18.5 123q0 118 57.5 188.5t150.5 70.5q55 0 96 -22t63 -58t32.5 -73.5t10.5 -76.5q0 -14 -1 -25zM71 272h370q0 95 -47.5 157t-136.5 62q-81 0 -131 -60.5
t-55 -158.5zM273 -173h-20v84h20v-84zM252 759h19l113 -150h-23l-100 134l-97 -134h-22z" />
    <glyph glyph-name="uni1EC8" unicode="&#x1ec8;" horiz-adv-x="208" 
d="M94 704h20v-704h-20v704zM112 788h-26q73 49 73 97q0 24 -15.5 40t-43.5 16q-40 0 -71 -25l-8 15q32 29 80 29q37 0 57.5 -21.5t20.5 -53.5q0 -26 -19.5 -53t-47.5 -44z" />
    <glyph glyph-name="uni1EC9" unicode="&#x1ec9;" horiz-adv-x="190" 
d="M85 0v497h20v-497h-20zM98 584h-26q73 49 73 97q0 24 -15.5 40t-43.5 16q-40 0 -71 -25l-8 15q32 29 80 29q37 0 57.5 -21.5t20.5 -53.5q0 -26 -19.5 -53t-47.5 -44z" />
    <glyph glyph-name="uni1ECA" unicode="&#x1eca;" horiz-adv-x="208" 
d="M94 704h20v-704h-20v704zM114 -173h-20v84h20v-84z" />
    <glyph glyph-name="uni1ECB" unicode="&#x1ecb;" horiz-adv-x="190" 
d="M85 0v497h20v-497h-20zM105 660h-20v91h20v-91zM105 -173h-20v84h20v-84z" />
    <glyph glyph-name="uni1ECC" unicode="&#x1ecc;" horiz-adv-x="722" 
d="M364 714q140 0 224 -102t84 -254q0 -159 -81.5 -263.5t-232.5 -104.5q-142 0 -225 103t-83 259q0 153 83.5 257.5t230.5 104.5zM363 696q-134 0 -213 -97.5t-79 -244.5q0 -93 31 -170t97.5 -126.5t158.5 -49.5q141 0 217 98t76 251q0 144 -78 241.5t-210 97.5zM371 -173
h-20v84h20v-84z" />
    <glyph glyph-name="uni1ECD" unicode="&#x1ecd;" horiz-adv-x="535" 
d="M270 511q94 0 154.5 -70.5t60.5 -191.5q0 -124 -60 -193.5t-160 -69.5q-98 0 -156.5 70.5t-58.5 190.5q0 125 62 194.5t158 69.5zM268 493q-93 0 -145 -70.5t-52 -174.5t51 -174t143 -70q94 0 146.5 68t52.5 176q0 105 -52 175t-144 70zM277 -173h-20v84h20v-84z" />
    <glyph glyph-name="uni1ECE" unicode="&#x1ece;" horiz-adv-x="722" 
d="M364 714q140 0 224 -102t84 -254q0 -159 -81.5 -263.5t-232.5 -104.5q-142 0 -225 103t-83 259q0 153 83.5 257.5t230.5 104.5zM363 696q-134 0 -213 -97.5t-79 -244.5q0 -93 31 -170t97.5 -126.5t158.5 -49.5q141 0 217 98t76 251q0 144 -78 241.5t-210 97.5zM377 788
h-26q73 49 73 97q0 24 -15.5 40t-43.5 16q-40 0 -71 -25l-8 15q32 29 80 29q37 0 57.5 -21.5t20.5 -53.5q0 -26 -19.5 -53t-47.5 -44z" />
    <glyph glyph-name="uni1ECF" unicode="&#x1ecf;" horiz-adv-x="535" 
d="M270 511q94 0 154.5 -70.5t60.5 -191.5q0 -124 -60 -193.5t-160 -69.5q-98 0 -156.5 70.5t-58.5 190.5q0 125 62 194.5t158 69.5zM268 493q-93 0 -145 -70.5t-52 -174.5t51 -174t143 -70q94 0 146.5 68t52.5 176q0 105 -52 175t-144 70zM278 584h-26q73 49 73 97
q0 24 -15.5 40t-43.5 16q-40 0 -71 -25l-8 15q32 29 80 29q37 0 57.5 -21.5t20.5 -53.5q0 -26 -19.5 -53t-47.5 -44z" />
    <glyph glyph-name="uni1ED0" unicode="&#x1ed0;" horiz-adv-x="722" 
d="M364 714q140 0 224 -102t84 -254q0 -159 -81.5 -263.5t-232.5 -104.5q-142 0 -225 103t-83 259q0 153 83.5 257.5t230.5 104.5zM363 696q-134 0 -213 -97.5t-79 -244.5q0 -93 31 -170t97.5 -126.5t158.5 -49.5q141 0 217 98t76 251q0 144 -78 241.5t-210 97.5zM352 893
h19l136 -114h-28l-117 98l-116 -98h-27zM599 995h28l-142 -116h-25z" />
    <glyph glyph-name="uni1ED1" unicode="&#x1ed1;" horiz-adv-x="535" 
d="M270 511q94 0 154.5 -70.5t60.5 -191.5q0 -124 -60 -193.5t-160 -69.5q-98 0 -156.5 70.5t-58.5 190.5q0 125 62 194.5t158 69.5zM268 493q-93 0 -145 -70.5t-52 -174.5t51 -174t143 -70q94 0 146.5 68t52.5 176q0 105 -52 175t-144 70zM258 745h19l113 -140h-24l-98 123
l-98 -123h-22zM476 849h26l-119 -126h-21z" />
    <glyph glyph-name="uni1ED2" unicode="&#x1ed2;" horiz-adv-x="722" 
d="M364 714q140 0 224 -102t84 -254q0 -159 -81.5 -263.5t-232.5 -104.5q-142 0 -225 103t-83 259q0 153 83.5 257.5t230.5 104.5zM363 696q-134 0 -213 -97.5t-79 -244.5q0 -93 31 -170t97.5 -126.5t158.5 -49.5q141 0 217 98t76 251q0 144 -78 241.5t-210 97.5zM352 894
h19l136 -114h-28l-117 98l-116 -98h-27zM441 973h29l121 -105h-26z" />
    <glyph glyph-name="uni1ED3" unicode="&#x1ed3;" horiz-adv-x="535" 
d="M270 511q94 0 154.5 -70.5t60.5 -191.5q0 -124 -60 -193.5t-160 -69.5q-98 0 -156.5 70.5t-58.5 190.5q0 125 62 194.5t158 69.5zM268 493q-93 0 -145 -70.5t-52 -174.5t51 -174t143 -70q94 0 146.5 68t52.5 176q0 105 -52 175t-144 70zM258 744h19l113 -140h-24l-99 123
l-97 -123h-22zM345 833h25l109 -126h-21z" />
    <glyph glyph-name="uni1ED4" unicode="&#x1ed4;" horiz-adv-x="722" 
d="M364 714q140 0 224 -102t84 -254q0 -159 -81.5 -263.5t-232.5 -104.5q-142 0 -225 103t-83 259q0 153 83.5 257.5t230.5 104.5zM363 696q-134 0 -213 -97.5t-79 -244.5q0 -93 31 -170t97.5 -126.5t158.5 -49.5q141 0 217 98t76 251q0 144 -78 241.5t-210 97.5zM492 874
h-27q70 42 70 85t-48 43q-33 0 -64 -23l-7 14q34 28 71 28q32 0 50 -17t18 -44q0 -24 -18.5 -48t-44.5 -38zM352 886h19l136 -114h-28l-117 97l-116 -97h-27z" />
    <glyph glyph-name="uni1ED5" unicode="&#x1ed5;" horiz-adv-x="535" 
d="M270 511q94 0 154.5 -70.5t60.5 -191.5q0 -124 -60 -193.5t-160 -69.5q-98 0 -156.5 70.5t-58.5 190.5q0 125 62 194.5t158 69.5zM268 493q-93 0 -145 -70.5t-52 -174.5t51 -174t143 -70q94 0 146.5 68t52.5 176q0 105 -52 175t-144 70zM400 707h-26q71 41 71 85
q0 43 -49 43q-33 0 -64 -23l-7 14q32 27 71 27q32 0 50 -16.5t18 -43.5q0 -24 -19 -48t-45 -38zM258 743h19l113 -140h-24l-99 123l-97 -123h-22z" />
    <glyph glyph-name="uni1ED6" unicode="&#x1ed6;" horiz-adv-x="722" 
d="M364 714q140 0 224 -102t84 -254q0 -159 -81.5 -263.5t-232.5 -104.5q-142 0 -225 103t-83 259q0 153 83.5 257.5t230.5 104.5zM363 696q-134 0 -213 -97.5t-79 -244.5q0 -93 31 -170t97.5 -126.5t158.5 -49.5q141 0 217 98t76 251q0 144 -78 241.5t-210 97.5zM245 902
h-16v9q0 56 50 56q27 0 86 -22.5t81 -22.5q31 0 31 37v9h16v-9q0 -56 -47 -56q-25 0 -85 23t-83 23q-33 0 -33 -38v-9zM349 853h21l132 -84h-30l-113 69l-110 -69h-29z" />
    <glyph glyph-name="uni1ED7" unicode="&#x1ed7;" horiz-adv-x="535" 
d="M270 511q94 0 154.5 -70.5t60.5 -191.5q0 -124 -60 -193.5t-160 -69.5q-98 0 -156.5 70.5t-58.5 190.5q0 125 62 194.5t158 69.5zM268 493q-93 0 -145 -70.5t-52 -174.5t51 -174t143 -70q94 0 146.5 68t52.5 176q0 105 -52 175t-144 70zM161 726h-17v9q0 56 51 56
q27 0 76 -23t71 -23q31 0 31 38v9h17v-9q0 -56 -48 -56q-25 0 -75 23.5t-73 23.5q-33 0 -33 -39v-9zM255 685h21l122 -94h-27l-106 79l-103 -79h-26z" />
    <glyph glyph-name="uni1ED8" unicode="&#x1ed8;" horiz-adv-x="722" 
d="M364 714q140 0 224 -102t84 -254q0 -159 -81.5 -263.5t-232.5 -104.5q-142 0 -225 103t-83 259q0 153 83.5 257.5t230.5 104.5zM363 696q-134 0 -213 -97.5t-79 -244.5q0 -93 31 -170t97.5 -126.5t158.5 -49.5q141 0 217 98t76 251q0 144 -78 241.5t-210 97.5zM371 -173
h-20v84h20v-84zM345 907h25l127 -128h-25l-115 114l-112 -114h-24z" />
    <glyph glyph-name="uni1ED9" unicode="&#x1ed9;" horiz-adv-x="535" 
d="M270 511q94 0 154.5 -70.5t60.5 -191.5q0 -124 -60 -193.5t-160 -69.5q-98 0 -156.5 70.5t-58.5 190.5q0 125 62 194.5t158 69.5zM268 493q-93 0 -145 -70.5t-52 -174.5t51 -174t143 -70q94 0 146.5 68t52.5 176q0 105 -52 175t-144 70zM277 -173h-20v84h20v-84zM256 759
h19l113 -150h-23l-100 134l-97 -134h-22z" />
    <glyph glyph-name="uni1EDA" unicode="&#x1eda;" horiz-adv-x="722" 
d="M364 714q140 0 224 -102t84 -254q0 -159 -81.5 -263.5t-232.5 -104.5q-142 0 -225 103t-83 259q0 153 83.5 257.5t230.5 104.5zM363 696q-134 0 -213 -97.5t-79 -244.5q0 -93 31 -170t97.5 -126.5t158.5 -49.5q141 0 217 98t76 251q0 144 -78 241.5t-210 97.5zM581 621
l-16 16q88 8 88 78q0 29 -11 54h22q9 -23 9 -49q0 -85 -92 -99zM494 929h29l-171 -150h-25z" />
    <glyph glyph-name="uni1EDB" unicode="&#x1edb;" horiz-adv-x="535" 
d="M270 511q88 0 146 -60q69 13 69 75q0 29 -11 54h22q9 -22 9 -49q0 -76 -76 -96q56 -70 56 -186q0 -124 -60 -193.5t-160 -69.5q-98 0 -156.5 70.5t-58.5 190.5q0 125 62 194.5t158 69.5zM268 493q-93 0 -145 -70.5t-52 -174.5t51 -174t143 -70q94 0 146.5 68t52.5 176
q0 105 -52 175t-144 70zM375 760h25l-154 -159h-23z" />
    <glyph glyph-name="uni1EDC" unicode="&#x1edc;" horiz-adv-x="722" 
d="M364 714q140 0 224 -102t84 -254q0 -159 -81.5 -263.5t-232.5 -104.5q-142 0 -225 103t-83 259q0 153 83.5 257.5t230.5 104.5zM363 696q-134 0 -213 -97.5t-79 -244.5q0 -93 31 -170t97.5 -126.5t158.5 -49.5q141 0 217 98t76 251q0 144 -78 241.5t-210 97.5zM581 621
l-16 16q88 8 88 78q0 29 -11 54h22q9 -23 9 -49q0 -85 -92 -99zM200 929h29l165 -150h-25z" />
    <glyph glyph-name="uni1EDD" unicode="&#x1edd;" horiz-adv-x="535" 
d="M270 511q88 0 146 -60q69 13 69 75q0 29 -11 54h22q9 -22 9 -49q0 -76 -76 -96q56 -70 56 -186q0 -124 -60 -193.5t-160 -69.5q-98 0 -156.5 70.5t-58.5 190.5q0 125 62 194.5t158 69.5zM268 493q-93 0 -145 -70.5t-52 -174.5t51 -174t143 -70q94 0 146.5 68t52.5 176
q0 105 -52 175t-144 70zM125 760h25l146 -159h-23z" />
    <glyph glyph-name="uni1EDE" unicode="&#x1ede;" horiz-adv-x="722" 
d="M364 714q140 0 224 -102t84 -254q0 -159 -81.5 -263.5t-232.5 -104.5q-142 0 -225 103t-83 259q0 153 83.5 257.5t230.5 104.5zM363 696q-134 0 -213 -97.5t-79 -244.5q0 -93 31 -170t97.5 -126.5t158.5 -49.5q141 0 217 98t76 251q0 144 -78 241.5t-210 97.5zM581 621
l-16 16q88 8 88 78q0 29 -11 54h22q9 -23 9 -49q0 -85 -92 -99zM383 788h-26q73 49 73 97q0 24 -15.5 40t-43.5 16q-40 0 -71 -25l-8 15q32 29 80 29q37 0 57.5 -21.5t20.5 -53.5q0 -26 -19.5 -53t-47.5 -44z" />
    <glyph glyph-name="uni1EDF" unicode="&#x1edf;" horiz-adv-x="535" 
d="M270 511q88 0 146 -60q69 13 69 75q0 29 -11 54h22q9 -22 9 -49q0 -76 -76 -96q56 -70 56 -186q0 -124 -60 -193.5t-160 -69.5q-98 0 -156.5 70.5t-58.5 190.5q0 125 62 194.5t158 69.5zM268 493q-93 0 -145 -70.5t-52 -174.5t51 -174t143 -70q94 0 146.5 68t52.5 176
q0 105 -52 175t-144 70zM280 584h-26q73 49 73 97q0 24 -15.5 40t-43.5 16q-40 0 -71 -25l-8 15q32 29 80 29q37 0 57.5 -21.5t20.5 -53.5q0 -26 -19.5 -53t-47.5 -44z" />
    <glyph glyph-name="uni1EE0" unicode="&#x1ee0;" horiz-adv-x="722" 
d="M364 714q140 0 224 -102t84 -254q0 -159 -81.5 -263.5t-232.5 -104.5q-142 0 -225 103t-83 259q0 153 83.5 257.5t230.5 104.5zM363 696q-134 0 -213 -97.5t-79 -244.5q0 -93 31 -170t97.5 -126.5t158.5 -49.5q141 0 217 98t76 251q0 144 -78 241.5t-210 97.5zM581 621
l-16 16q88 8 88 78q0 29 -11 54h22q9 -23 9 -49q0 -85 -92 -99zM238 800h-18v11q0 70 63 70q29 0 80 -30.5t73 -30.5q45 0 45 57v9h18v-11q0 -75 -61 -75q-28 0 -80.5 31t-74.5 31q-45 0 -45 -53v-9z" />
    <glyph glyph-name="uni1EE1" unicode="&#x1ee1;" horiz-adv-x="535" 
d="M270 511q88 0 146 -60q69 13 69 75q0 29 -11 54h22q9 -22 9 -49q0 -76 -76 -96q56 -70 56 -186q0 -124 -60 -193.5t-160 -69.5q-98 0 -156.5 70.5t-58.5 190.5q0 125 62 194.5t158 69.5zM268 493q-93 0 -145 -70.5t-52 -174.5t51 -174t143 -70q94 0 146.5 68t52.5 176
q0 105 -52 175t-144 70zM148 648h-17v10q0 68 59 68q31 0 81.5 -30t72.5 -30q38 0 38 49v12h17v-12q0 -66 -55 -66q-26 0 -78.5 30.5t-76.5 30.5q-41 0 -41 -52v-10z" />
    <glyph glyph-name="uni1EE2" unicode="&#x1ee2;" horiz-adv-x="722" 
d="M364 714q140 0 224 -102t84 -254q0 -159 -81.5 -263.5t-232.5 -104.5q-142 0 -225 103t-83 259q0 153 83.5 257.5t230.5 104.5zM363 696q-134 0 -213 -97.5t-79 -244.5q0 -93 31 -170t97.5 -126.5t158.5 -49.5q141 0 217 98t76 251q0 144 -78 241.5t-210 97.5zM581 621
l-16 16q88 8 88 78q0 29 -11 54h22q9 -23 9 -49q0 -85 -92 -99zM371 -173h-20v84h20v-84z" />
    <glyph glyph-name="uni1EE3" unicode="&#x1ee3;" horiz-adv-x="535" 
d="M270 511q88 0 146 -60q69 13 69 75q0 29 -11 54h22q9 -22 9 -49q0 -76 -76 -96q56 -70 56 -186q0 -124 -60 -193.5t-160 -69.5q-98 0 -156.5 70.5t-58.5 190.5q0 125 62 194.5t158 69.5zM268 493q-93 0 -145 -70.5t-52 -174.5t51 -174t143 -70q94 0 146.5 68t52.5 176
q0 105 -52 175t-144 70zM277 -173h-20v84h20v-84z" />
    <glyph glyph-name="uni1EE4" unicode="&#x1ee4;" horiz-adv-x="672" 
d="M84 704h20v-440q0 -133 66.5 -194.5t167.5 -61.5q113 0 171.5 65t58.5 191v440h20v-436q0 -278 -252 -278q-50 0 -92.5 13.5t-79.5 42.5t-58.5 82.5t-21.5 126.5v449zM346 -173h-20v84h20v-84z" />
    <glyph glyph-name="uni1EE5" unicode="&#x1ee5;" horiz-adv-x="541" 
d="M456 497v-361q0 -28 0.5 -78t0.5 -58h-20q-4 28 -2 123q-19 -60 -63.5 -96.5t-114.5 -36.5q-30 0 -57 8t-54.5 27t-44 58t-16.5 94v320h20v-328q0 -68 38 -114t115 -46q80 0 128.5 55t48.5 160v273h21zM280 -173h-20v84h20v-84z" />
    <glyph glyph-name="uni1EE6" unicode="&#x1ee6;" horiz-adv-x="672" 
d="M84 704h20v-440q0 -133 66.5 -194.5t167.5 -61.5q113 0 171.5 65t58.5 191v440h20v-436q0 -278 -252 -278q-50 0 -92.5 13.5t-79.5 42.5t-58.5 82.5t-21.5 126.5v449zM357 773h-26q73 49 73 97q0 24 -15.5 40t-43.5 16q-40 0 -71 -25l-8 15q32 29 80 29q37 0 57.5 -21.5
t20.5 -53.5q0 -26 -19.5 -53t-47.5 -44z" />
    <glyph glyph-name="uni1EE7" unicode="&#x1ee7;" horiz-adv-x="541" 
d="M456 497v-361q0 -28 0.5 -78t0.5 -58h-20q-4 28 -2 123q-19 -60 -63.5 -96.5t-114.5 -36.5q-30 0 -57 8t-54.5 27t-44 58t-16.5 94v320h20v-328q0 -68 38 -114t115 -46q80 0 128.5 55t48.5 160v273h21zM278 584h-26q73 49 73 97q0 24 -15.5 40t-43.5 16q-40 0 -71 -25
l-8 15q32 29 80 29q37 0 57.5 -21.5t20.5 -53.5q0 -26 -19.5 -53t-47.5 -44z" />
    <glyph glyph-name="uni1EE8" unicode="&#x1ee8;" horiz-adv-x="672" 
d="M84 704h20v-440q0 -133 66.5 -194.5t167.5 -61.5q113 0 171.5 65t58.5 191v440h2q88 8 88 78q0 29 -11 54h22q9 -22 9 -49q0 -84 -90 -99v-420q0 -278 -252 -278q-50 0 -92.5 13.5t-79.5 42.5t-58.5 82.5t-21.5 126.5v449zM469 929h29l-171 -150h-25z" />
    <glyph glyph-name="uni1EE9" unicode="&#x1ee9;" horiz-adv-x="541" 
d="M435 123q-19 -60 -63.5 -96.5t-114.5 -36.5q-30 0 -57 8t-54.5 27t-44 58t-16.5 94v320h20v-328q0 -68 38 -114t115 -46q80 0 128.5 55t48.5 160v273h11q79 10 79 77q0 29 -11 54h22q9 -22 9 -49q0 -85 -89 -98v-345q0 -28 0.5 -78t0.5 -58h-20q-4 28 -2 123zM396 760h25
l-154 -159h-23z" />
    <glyph glyph-name="uni1EEA" unicode="&#x1eea;" horiz-adv-x="672" 
d="M84 704h20v-440q0 -133 66.5 -194.5t167.5 -61.5q113 0 171.5 65t58.5 191v440h2q88 8 88 78q0 29 -11 54h22q9 -22 9 -49q0 -84 -90 -99v-420q0 -278 -252 -278q-50 0 -92.5 13.5t-79.5 42.5t-58.5 82.5t-21.5 126.5v449zM175 929h29l165 -150h-25z" />
    <glyph glyph-name="uni1EEB" unicode="&#x1eeb;" horiz-adv-x="541" 
d="M435 123q-19 -60 -63.5 -96.5t-114.5 -36.5q-30 0 -57 8t-54.5 27t-44 58t-16.5 94v320h20v-328q0 -68 38 -114t115 -46q80 0 128.5 55t48.5 160v273h11q79 10 79 77q0 29 -11 54h22q9 -22 9 -49q0 -85 -89 -98v-345q0 -28 0.5 -78t0.5 -58h-20q-4 28 -2 123zM128 760h25
l146 -159h-23z" />
    <glyph glyph-name="uni1EEC" unicode="&#x1eec;" horiz-adv-x="672" 
d="M84 704h20v-440q0 -133 66.5 -194.5t167.5 -61.5q113 0 171.5 65t58.5 191v440h2q88 8 88 78q0 29 -11 54h22q9 -22 9 -49q0 -84 -90 -99v-420q0 -278 -252 -278q-50 0 -92.5 13.5t-79.5 42.5t-58.5 82.5t-21.5 126.5v449zM355 788h-26q73 49 73 97q0 24 -15.5 40
t-43.5 16q-40 0 -71 -25l-8 15q32 29 80 29q37 0 57.5 -21.5t20.5 -53.5q0 -26 -19.5 -53t-47.5 -44z" />
    <glyph glyph-name="uni1EED" unicode="&#x1eed;" horiz-adv-x="541" 
d="M435 123q-19 -60 -63.5 -96.5t-114.5 -36.5q-30 0 -57 8t-54.5 27t-44 58t-16.5 94v320h20v-328q0 -68 38 -114t115 -46q80 0 128.5 55t48.5 160v273h11q79 10 79 77q0 29 -11 54h22q9 -22 9 -49q0 -85 -89 -98v-345q0 -28 0.5 -78t0.5 -58h-20q-4 28 -2 123zM280 584
h-26q73 49 73 97q0 24 -15.5 40t-43.5 16q-40 0 -71 -25l-8 15q32 29 80 29q37 0 57.5 -21.5t20.5 -53.5q0 -26 -19.5 -53t-47.5 -44z" />
    <glyph glyph-name="uni1EEE" unicode="&#x1eee;" horiz-adv-x="672" 
d="M84 704h20v-440q0 -133 66.5 -194.5t167.5 -61.5q113 0 171.5 65t58.5 191v440h2q88 8 88 78q0 29 -11 54h22q9 -22 9 -49q0 -84 -90 -99v-420q0 -278 -252 -278q-50 0 -92.5 13.5t-79.5 42.5t-58.5 82.5t-21.5 126.5v449zM213 800h-18v11q0 70 63 70q28 0 79 -30.5
t74 -30.5q45 0 45 57v9h18v-11q0 -75 -61 -75q-28 0 -80.5 31t-74.5 31q-45 0 -45 -53v-9z" />
    <glyph glyph-name="uni1EEF" unicode="&#x1eef;" horiz-adv-x="541" 
d="M435 123q-19 -60 -63.5 -96.5t-114.5 -36.5q-30 0 -57 8t-54.5 27t-44 58t-16.5 94v320h20v-328q0 -68 38 -114t115 -46q80 0 128.5 55t48.5 160v273h11q79 10 79 77q0 29 -11 54h22q9 -22 9 -49q0 -85 -89 -98v-345q0 -28 0.5 -78t0.5 -58h-20q-4 28 -2 123zM151 648
h-17v10q0 68 59 68q31 0 81.5 -30t72.5 -30q38 0 38 49v12h17v-12q0 -66 -55 -66q-26 0 -78.5 30.5t-76.5 30.5q-41 0 -41 -52v-10z" />
    <glyph glyph-name="uni1EF0" unicode="&#x1ef0;" horiz-adv-x="672" 
d="M84 704h20v-440q0 -133 66.5 -194.5t167.5 -61.5q113 0 171.5 65t58.5 191v440h2q88 8 88 78q0 29 -11 54h22q9 -22 9 -49q0 -84 -90 -99v-420q0 -278 -252 -278q-50 0 -92.5 13.5t-79.5 42.5t-58.5 82.5t-21.5 126.5v449zM346 -173h-20v84h20v-84z" />
    <glyph glyph-name="uni1EF1" unicode="&#x1ef1;" horiz-adv-x="541" 
d="M435 123q-19 -60 -63.5 -96.5t-114.5 -36.5q-30 0 -57 8t-54.5 27t-44 58t-16.5 94v320h20v-328q0 -68 38 -114t115 -46q80 0 128.5 55t48.5 160v273h11q79 10 79 77q0 29 -11 54h22q9 -22 9 -49q0 -85 -89 -98v-345q0 -28 0.5 -78t0.5 -58h-20q-4 28 -2 123zM280 -173
h-20v84h20v-84z" />
    <glyph glyph-name="Ygrave" unicode="&#x1ef2;" horiz-adv-x="540" 
d="M278 0h-20v288q0 6 -6 14l-247 402h24q199 -319 239 -392q12 22 53 87.5t100.5 160.5t90.5 144h23l-252 -401q-5 -7 -5 -14v-289zM109 929h29l165 -150h-25z" />
    <glyph glyph-name="ygrave" unicode="&#x1ef3;" horiz-adv-x="476" 
d="M26 497h22q187 -468 191 -481h1q7 18 25.5 65.5t67.5 171.5t96 244h22l-199 -503q-54 -134 -89 -178t-96 -44q-26 0 -38 3l2 20q13 -3 37 -3q48 0 80.5 38t80.5 159zM96 760h25l146 -159h-23z" />
    <glyph glyph-name="uni1EF4" unicode="&#x1ef4;" horiz-adv-x="540" 
d="M278 0h-20v288q0 6 -6 14l-247 402h24q199 -319 239 -392q12 22 53 87.5t100.5 160.5t90.5 144h23l-252 -401q-5 -7 -5 -14v-289zM280 -173h-20v84h20v-84z" />
    <glyph glyph-name="uni1EF5" unicode="&#x1ef5;" horiz-adv-x="476" 
d="M26 497h22q187 -468 191 -481h1q7 18 25.5 65.5t67.5 171.5t96 244h22l-199 -503q-54 -134 -89 -178t-96 -44q-26 0 -38 3l2 20q13 -3 37 -3q48 0 80.5 38t80.5 159zM348 -213h-20v84h20v-84z" />
    <glyph glyph-name="uni1EF6" unicode="&#x1ef6;" horiz-adv-x="540" 
d="M278 0h-20v288q0 6 -6 14l-247 402h24q199 -319 239 -392q12 22 53 87.5t100.5 160.5t90.5 144h23l-252 -401q-5 -7 -5 -14v-289zM274 762h-26q73 49 73 97q0 24 -15.5 40t-43.5 16q-40 0 -71 -25l-8 15q32 29 80 29q37 0 57.5 -21.5t20.5 -53.5q0 -26 -19.5 -53
t-47.5 -44z" />
    <glyph glyph-name="uni1EF7" unicode="&#x1ef7;" horiz-adv-x="476" 
d="M26 497h22q187 -468 191 -481h1q7 18 25.5 65.5t67.5 171.5t96 244h22l-199 -503q-54 -134 -89 -178t-96 -44q-26 0 -38 3l2 20q13 -3 37 -3q48 0 80.5 38t80.5 159zM241 584h-26q73 49 73 97q0 24 -15.5 40t-43.5 16q-40 0 -71 -25l-8 15q32 29 80 29q37 0 57.5 -21.5
t20.5 -53.5q0 -26 -19.5 -53t-47.5 -44z" />
    <glyph glyph-name="uni1EF8" unicode="&#x1ef8;" horiz-adv-x="540" 
d="M278 0h-20v288q0 6 -6 14l-247 402h24q199 -319 239 -392q12 22 53 87.5t100.5 160.5t90.5 144h23l-252 -401q-5 -7 -5 -14v-289zM147 790h-18v11q0 70 63 70q29 0 79.5 -30.5t73.5 -30.5q45 0 45 57v9h18v-11q0 -75 -61 -75q-28 0 -80.5 31t-74.5 31q-45 0 -45 -53v-9z
" />
    <glyph glyph-name="uni1EF9" unicode="&#x1ef9;" horiz-adv-x="476" 
d="M26 497h22q187 -468 191 -481h1q7 18 25.5 65.5t67.5 171.5t96 244h22l-199 -503q-54 -134 -89 -178t-96 -44q-26 0 -38 3l2 20q13 -3 37 -3q48 0 80.5 38t80.5 159zM119 648h-17v10q0 68 59 68q31 0 81.5 -30t72.5 -30q38 0 38 49v12h17v-12q0 -66 -55 -66
q-26 0 -78.5 30.5t-76.5 30.5q-41 0 -41 -52v-10z" />
    <glyph glyph-name="uni2007" unicode="&#x2007;" horiz-adv-x="520" 
 />
    <glyph glyph-name="uni2010" unicode="&#x2010;" horiz-adv-x="348" 
d="M50 261h248v-18h-248v18z" />
    <glyph glyph-name="figuredash" unicode="&#x2012;" horiz-adv-x="520" 
d="M88 350h343v-18h-343v18z" />
    <glyph glyph-name="endash" unicode="&#x2013;" horiz-adv-x="532" 
d="M50 268h432v-18h-432v18z" />
    <glyph glyph-name="emdash" unicode="&#x2014;" horiz-adv-x="851" 
d="M50 268h751v-18h-751v18z" />
    <glyph glyph-name="uni2015" unicode="&#x2015;" horiz-adv-x="851" 
d="M50 268h751v-18h-751v18z" />
    <glyph glyph-name="quoteleft" unicode="&#x2018;" horiz-adv-x="138" 
d="M75 751h19q-46 -104 -46 -218h-20q3 123 47 218z" />
    <glyph glyph-name="quoteright" unicode="&#x2019;" horiz-adv-x="138" 
d="M47 533h-19q46 104 46 218h20q-3 -123 -47 -218z" />
    <glyph glyph-name="quotesinglbase" unicode="&#x201a;" horiz-adv-x="138" 
d="M47 -87h-19q46 104 46 218h20q-3 -123 -47 -218z" />
    <glyph glyph-name="quotedblleft" unicode="&#x201c;" horiz-adv-x="208" 
d="M161 751h18q-38 -97 -38 -218h-20q0 121 40 218zM56 751h18q-38 -97 -38 -218h-20q0 121 40 218z" />
    <glyph glyph-name="quotedblright" unicode="&#x201d;" horiz-adv-x="208" 
d="M34 533h-18q38 97 38 218h20q0 -121 -40 -218zM139 533h-18q38 97 38 218h20q0 -121 -40 -218z" />
    <glyph glyph-name="quotedblbase" unicode="&#x201e;" horiz-adv-x="208" 
d="M34 -87h-18q38 97 38 218h20q0 -121 -40 -218zM139 -87h-18q38 97 38 218h20q0 -121 -40 -218z" />
    <glyph glyph-name="dagger" unicode="&#x2020;" horiz-adv-x="466" 
d="M208 700h22l-2 -235l178 3v-21l-178 2l2 -530h-22l2 530l-180 -2v21l180 -3z" />
    <glyph glyph-name="daggerdbl" unicode="&#x2021;" horiz-adv-x="466" 
d="M210 171v299l-180 -2v21l180 -3l-2 214h22l-2 -214l178 3v-21l-178 2v-299l178 2v-21l-178 3l2 -236h-22l2 236l-180 -3v21z" />
    <glyph glyph-name="bullet" unicode="&#x2022;" horiz-adv-x="200" 
d="M70 295h60v-62h-60v62z" />
    <glyph glyph-name="ellipsis" unicode="&#x2026;" horiz-adv-x="675" 
d="M99 0h-20v112h20v-112zM326 0h-20v112h20v-112zM553 0h-20v112h20v-112z" />
    <glyph glyph-name="perthousand" unicode="&#x2030;" horiz-adv-x="1060" 
d="M883 351q68 0 103 -48.5t35 -131.5q0 -85 -37 -133t-101 -48q-65 0 -101.5 48t-36.5 133q0 79 37 129.5t101 50.5zM883 334q-55 0 -86.5 -44.5t-31.5 -118.5t31.5 -118.5t86.5 -44.5t87 43.5t32 119.5q0 77 -32 120t-87 43zM176 674q68 0 103 -48.5t35 -131.5
q0 -85 -37 -133t-101 -48t-100.5 48.5t-36.5 132.5q0 79 36.5 129.5t100.5 50.5zM176 656q-56 0 -86.5 -43t-30.5 -119q0 -75 31 -119.5t86 -44.5t86.5 44t31.5 120q0 79 -31 120.5t-87 41.5zM161 0h-23l442 662h23zM558 351q68 0 103 -48.5t35 -131.5q0 -85 -37 -133
t-101 -48q-65 0 -101.5 48t-36.5 133q0 79 37 129.5t101 50.5zM558 334q-55 0 -86.5 -44.5t-31.5 -118.5q0 -76 31 -119.5t87 -43.5q55 0 87 43.5t32 119.5q0 77 -32 120t-87 43z" />
    <glyph glyph-name="uni2032" unicode="&#x2032;" horiz-adv-x="156" 
d="M67 532h-17l36 219h20z" />
    <glyph glyph-name="uni2033" unicode="&#x2033;" horiz-adv-x="258" 
d="M68 532h-18l37 219h20zM169 532h-18l37 219h20z" />
    <glyph glyph-name="guilsinglleft" unicode="&#x2039;" horiz-adv-x="264" 
d="M234 447l-180 -191l180 -191h-23l-181 191l181 191h23z" />
    <glyph glyph-name="guilsinglright" unicode="&#x203a;" horiz-adv-x="264" 
d="M30 65l180 191l-180 191h23l181 -191l-181 -191h-23z" />
    <glyph glyph-name="fraction" unicode="&#x2044;" horiz-adv-x="148" 
d="M-141 0h-23l454 662h22z" />
    <glyph glyph-name="zero.sups" unicode="&#x2070;" horiz-adv-x="334" 
d="M170 834q68 0 101 -59.5t33 -141.5q0 -54 -11 -97t-43 -75.5t-83 -32.5q-50 0 -82 33t-43.5 76t-11.5 93q0 83 33.5 143.5t106.5 60.5zM169 817q-34 0 -58.5 -17.5t-37 -47t-18 -60t-5.5 -63.5q0 -30 5.5 -59.5t18 -59t36.5 -47.5t57 -18q35 0 59 17t36 46.5t17 59.5
t5 65q0 30 -5.5 59.5t-17.5 59t-36 47.5t-56 18z" />
    <glyph glyph-name="four.sups" unicode="&#x2074;" horiz-adv-x="321" 
d="M247 434h-19v117h-207v18l206 260h20v-261h63l-4 -17h-59v-117zM43 568h185v128q0 92 2 112q-7 -11 -41.5 -55.5t-80.5 -102t-65 -82.5z" />
    <glyph glyph-name="five.sups" unicode="&#x2075;" horiz-adv-x="327" 
d="M281 829l-4 -17h-189q-14 -107 -23 -169q36 50 108 50q60 0 93 -36t33 -93q0 -61 -37 -98.5t-96 -37.5q-53 0 -88 27.5t-45 75.5h20q9 -37 37.5 -61.5t75.5 -24.5q53 0 82.5 32.5t29.5 84.5q0 49 -26 81.5t-82 32.5q-71 0 -107 -60l-19 7q23 131 28 206h209z" />
    <glyph glyph-name="six.sups" unicode="&#x2076;" horiz-adv-x="327" 
d="M289 747h-20q-21 70 -95 70q-66 0 -96 -56t-29 -143q36 76 122 76q61 0 95 -36.5t34 -91.5q0 -59 -35.5 -98.5t-94.5 -39.5q-74 0 -107 55t-33 141q0 90 35.5 150t109.5 60q48 0 77 -25t37 -62zM171 445q50 0 79.5 33t29.5 86q1 47 -27.5 80t-81.5 33q-52 0 -84 -30
t-32 -71q0 -28 9 -55.5t37 -51.5t70 -24z" />
    <glyph glyph-name="seven.sups" unicode="&#x2077;" horiz-adv-x="309" 
d="M28 829h255v-15q-56 -78 -103.5 -181.5t-63.5 -198.5h-21q17 98 66.5 203.5t100.5 174.5h-234v17z" />
    <glyph glyph-name="eight.sups" unicode="&#x2078;" horiz-adv-x="323" 
d="M161 428q-57 0 -94 32t-37 83q0 79 82 105q-63 21 -63 87q0 45 32 72t84 27q48 0 80 -27t32 -72q0 -67 -69 -87q40 -10 63 -38.5t23 -65.5q0 -51 -36.5 -83.5t-96.5 -32.5zM161 445q51 0 82 25t31 73q0 45 -31.5 70.5t-79.5 25.5q-55 0 -84 -26.5t-29 -68.5
q0 -44 30 -71.5t81 -27.5zM163 817q-44 0 -69.5 -21.5t-25.5 -59.5q0 -36 23.5 -58t73.5 -22q43 0 67.5 20t24.5 58q0 37 -25 60t-69 23z" />
    <glyph glyph-name="nine.sups" unicode="&#x2079;" horiz-adv-x="322" 
d="M35 515h21q21 -70 98 -70q115 0 120 209q-29 -70 -118 -70q-56 0 -91.5 33.5t-35.5 89.5q0 53 35 90t91 37q137 0 137 -182q0 -99 -32.5 -161.5t-106.5 -62.5q-94 0 -118 87zM156 817q-46 0 -76.5 -29.5t-30.5 -79.5q0 -51 31 -79t79 -28t78 25.5t30 70.5q0 26 -8 51
t-34.5 47t-68.5 22z" />
    <glyph glyph-name="parenleft.sups" unicode="&#x207d;" horiz-adv-x="203" 
d="M134 859h20q-99 -116 -99 -252q0 -142 99 -259h-21q-97 107 -97 259q0 143 98 252z" />
    <glyph glyph-name="parenright.sups" unicode="&#x207e;" horiz-adv-x="203" 
d="M59 376h-21q99 116 99 252q0 142 -99 259h22q96 -106 96 -259q0 -144 -97 -252z" />
    <glyph glyph-name="n.sups" unicode="&#x207f;" horiz-adv-x="363" 
d="M53 268v332h18q2 -45 1 -76q29 86 120 86q51 0 84.5 -31.5t33.5 -98.5v-212h-19v209q0 115 -101 115q-56 0 -87 -39t-31 -99v-186h-19z" />
    <glyph glyph-name="zero.subs" unicode="&#x2080;" horiz-adv-x="334" 
d="M170 233q68 0 101 -59.5t33 -141.5q0 -54 -11 -97t-43 -75.5t-83 -32.5q-50 0 -82 33t-43.5 76t-11.5 93q0 83 33.5 143.5t106.5 60.5zM169 216q-34 0 -58.5 -17.5t-37 -47t-18 -60t-5.5 -63.5q0 -30 5.5 -59.5t18 -59t36.5 -47.5t57 -18q35 0 59 17t36 46.5t17 59.5
t5 65q0 30 -5.5 59.5t-17.5 59t-36 47.5t-56 18z" />
    <glyph glyph-name="one.subs" unicode="&#x2081;" horiz-adv-x="212" 
d="M128 -167h-19v373q-34 -28 -85 -38v17q49 11 90 46h14v-398z" />
    <glyph glyph-name="two.subs" unicode="&#x2082;" horiz-adv-x="321" 
d="M293 -167h-262v3q0 81 126 164q65 43 84 63.5t19 60.5q0 42 -26 67t-71 25q-91 0 -107 -95h-19q6 50 39 81t88 31t85.5 -30.5t30.5 -77.5q0 -44 -22 -68.5t-88 -68.5q-107 -70 -120 -138h248z" />
    <glyph glyph-name="three.subs" unicode="&#x2083;" horiz-adv-x="321" 
d="M127 40v17h20q104 0 104 76q0 38 -24 60.5t-71 22.5q-82 0 -101 -80h-19q8 43 38.5 70t82.5 27q51 0 82 -25.5t31 -74.5q0 -37 -21 -57.5t-49 -26.5q91 -19 91 -104q0 -57 -38.5 -87.5t-94.5 -30.5q-38 0 -66 11.5t-42.5 30t-21 34t-9.5 31.5h19q9 -43 40 -66.5t80 -23.5
q52 0 82.5 26.5t30.5 71.5q0 98 -125 98h-19z" />
    <glyph glyph-name="four.subs" unicode="&#x2084;" horiz-adv-x="321" 
d="M247 -167h-19v117h-207v18l206 260h20v-261h63l-4 -17h-59v-117zM43 -33h185v128q0 92 2 112q-7 -11 -41.5 -55.5t-80.5 -102t-65 -82.5z" />
    <glyph glyph-name="five.subs" unicode="&#x2085;" horiz-adv-x="327" 
d="M281 228l-4 -17h-189q-14 -107 -23 -169q36 50 108 50q60 0 93 -36t33 -93q0 -61 -37 -98.5t-96 -37.5q-53 0 -88 27.5t-45 75.5h20q9 -37 37.5 -61.5t75.5 -24.5q53 0 82.5 32.5t29.5 84.5q0 49 -26 81.5t-82 32.5q-71 0 -107 -60l-19 7q23 131 28 206h209z" />
    <glyph glyph-name="six.subs" unicode="&#x2086;" horiz-adv-x="327" 
d="M289 146h-20q-21 70 -95 70q-66 0 -96 -56t-29 -143q36 76 122 76q61 0 95 -36.5t34 -91.5q0 -59 -35.5 -98.5t-94.5 -39.5q-74 0 -107 55t-33 141q0 90 35.5 150t109.5 60q48 0 77 -25t37 -62zM171 -156q50 0 79.5 33t29.5 86q1 47 -27.5 80t-81.5 33q-52 0 -84 -30
t-32 -71q0 -28 9 -55.5t37 -51.5t70 -24z" />
    <glyph glyph-name="seven.subs" unicode="&#x2087;" horiz-adv-x="309" 
d="M28 228h255v-15q-56 -78 -103.5 -181.5t-63.5 -198.5h-21q17 98 66.5 203.5t100.5 174.5h-234v17z" />
    <glyph glyph-name="eight.subs" unicode="&#x2088;" horiz-adv-x="323" 
d="M161 -173q-57 0 -94 32t-37 83q0 79 82 105q-63 21 -63 87q0 45 32 72t84 27q48 0 80 -27t32 -72q0 -67 -69 -87q40 -10 63 -38.5t23 -65.5q0 -51 -36.5 -83.5t-96.5 -32.5zM161 -156q51 0 82 25t31 73q0 45 -31.5 70.5t-79.5 25.5q-55 0 -84 -26.5t-29 -68.5
q0 -44 30 -71.5t81 -27.5zM163 216q-44 0 -69.5 -21.5t-25.5 -59.5q0 -36 23.5 -58t73.5 -22q43 0 67.5 20t24.5 58q0 37 -25 60t-69 23z" />
    <glyph glyph-name="nine.subs" unicode="&#x2089;" horiz-adv-x="322" 
d="M35 -86h21q21 -70 98 -70q115 0 120 209q-29 -70 -118 -70q-56 0 -91.5 33.5t-35.5 89.5q0 53 35 90t91 37q137 0 137 -182q0 -99 -32.5 -161.5t-106.5 -62.5q-94 0 -118 87zM156 216q-46 0 -76.5 -29.5t-30.5 -79.5q0 -51 31 -79t79 -28t78 25.5t30 70.5q0 26 -8 51
t-34.5 47t-68.5 22z" />
    <glyph glyph-name="parenleft.subs" unicode="&#x208d;" horiz-adv-x="203" 
d="M134 258h20q-99 -116 -99 -252q0 -142 99 -259h-21q-97 107 -97 259q0 143 98 252z" />
    <glyph glyph-name="parenright.subs" unicode="&#x208e;" horiz-adv-x="203" 
d="M59 -225h-21q99 116 99 252q0 142 -99 259h22q96 -106 96 -259q0 -144 -97 -252z" />
    <glyph glyph-name="colonmonetary" unicode="&#x20a1;" horiz-adv-x="514" 
d="M277 9q18 0 27 2v644q-18 2 -27 2q-24 0 -43 -4v-640q17 -4 43 -4zM68 327q0 -266 147 -309v630q-147 -48 -147 -321zM234 -95h-19v93q-167 43 -167 328q0 294 167 341v67h19v-63q19 4 43 4q18 0 27 -1v60h19v-63q111 -22 143 -154h-20q-33 111 -123 135v-638
q90 22 127 148h20q-36 -142 -147 -167v-90h-19v87q-18 -2 -27 -2q-22 0 -43 3v-88z" />
    <glyph glyph-name="franc" unicode="&#x20a3;" horiz-adv-x="478" 
d="M113 0v177h-99v18h99v467h335v-18h-316v-290h294v-18h-294v-141h160v-18h-160v-177h-19z" />
    <glyph glyph-name="lira" unicode="&#x20a4;" horiz-adv-x="463" 
d="M451 0h-438v17q104 63 104 242v12h-100v17h100q-2 56 -4 87h-96v17h95q-3 42 -3 99q0 92 42 138t114 46q131 0 155 -138h-19q-26 120 -136 120q-65 0 -100 -42.5t-35 -122.5q0 -14 0.5 -30.5t1.5 -37t1 -32.5h170v-17h-169q2 -41 3 -87h166v-17h-166v-10q0 -165 -91 -243
h410z" />
    <glyph glyph-name="uni20A6" unicode="&#x20a6;" horiz-adv-x="514" 
d="M98 642q3 -106 3 -234h103l-105 234h-1zM395 340v51h-162l43 -96h119v45zM101 344v-49h154l-43 96h-111v-47zM399 23h1q-5 37 -5 255h-111zM101 0h-20v278h-60v17h60v96h-60v17h60v254h29l115 -254h170v254h20v-254h59v-17h-59v-96h59v-17h-59v-278h-27l-125 278h-162
v-278z" />
    <glyph glyph-name="peseta" unicode="&#x20a7;" horiz-adv-x="514" 
d="M77 0v463h-64v18h64v181h157q90 0 145 -48t57 -133h55v-18h-55q-4 -90 -59 -137t-141 -47h-139v-279h-20zM97 644v-163h319q-4 76 -52 119.5t-126 43.5h-141zM97 297h139q78 0 127.5 42.5t52.5 123.5h-319v-166z" />
    <glyph glyph-name="dong" unicode="&#x20ab;" horiz-adv-x="514" 
d="M63 -112h374v-18h-374v18zM408 665h19v-93h73v-18h-73v-439q0 -87 2 -115h-19q-4 47 -2 124q-42 -132 -180 -132q-80 0 -134 62t-54 176q0 109 58 172t141 63q124 0 169 -103v192h-256v18h256v93zM61 232q0 -104 47 -163t120 -59q96 0 139 66t43 172q0 199 -173 199
q-79 0 -127.5 -61t-48.5 -154z" />
    <glyph glyph-name="Euro" unicode="&#x20ac;" horiz-adv-x="556" 
d="M491 144h19q-46 -154 -192 -154q-105 0 -161 79t-64 209h-68v17h67q-1 10 -1 31q0 34 3 64h-69v18h71q14 124 72.5 195t150.5 71q155 0 190 -149h-20q-34 131 -169 131q-86 0 -138.5 -66t-66.5 -182h240v-18h-241q-3 -30 -3 -63q0 -22 1 -32h243v-17h-242q8 -122 58 -196
t147 -74q127 0 173 136z" />
    <glyph glyph-name="uni20B1" unicode="&#x20b1;" horiz-adv-x="522" 
d="M95 0v414h-60v17h60v76h-60v17h60v138h140q183 0 211 -138h48v-17h-45q3 -18 3 -39q0 -13 -2 -37h44v-17h-47q-29 -142 -202 -142h-130v-272h-20zM115 644v-120h312q-30 120 -185 120h-127zM433 468q0 21 -3 39h-315v-76h316q2 22 2 37zM115 290h134q151 0 178 124h-312
v-124z" />
    <glyph glyph-name="uni20B2" unicode="&#x20b2;" horiz-adv-x="524" 
d="M65 333q0 -136 49 -224t143 -99v646q-92 -8 -142 -91.5t-50 -231.5zM466 521h-20q-15 66 -60.5 101t-108.5 35h-1v-648h6q87 0 152 37v262h19v-273l-9 -5q-8 -5 -14 -8t-18 -8t-24.5 -9t-29 -7.5t-35.5 -5.5t-40 -2h-7v-85h-19v86q-105 10 -159 100t-54 241
q0 160 56.5 247t156.5 95v71h19v-70q81 0 128.5 -42.5t61.5 -111.5z" />
    <glyph glyph-name="uni20B4" unicode="&#x20b4;" horiz-adv-x="494" 
d="M82 530h-19q12 65 58 104.5t122 39.5t123 -44.5t47 -110.5q0 -67 -50 -116h69v-17h-90q-32 -25 -94 -57q-28 -14 -53 -29h232v-17h-260q-53 -34 -72.5 -65t-19.5 -74q0 -55 44.5 -95.5t119.5 -40.5q85 0 126 36t57 98h20q-16 -70 -61.5 -111t-140.5 -41q-85 0 -135 45
t-50 109q0 41 18.5 74t61.5 65h-85v17h110q38 24 79 44t74 42h-257v17h280q56 46 56 115q0 58 -40 98t-108 40q-131 0 -162 -126z" />
    <glyph glyph-name="uni20B5" unicode="&#x20b5;" horiz-adv-x="514" 
d="M69 327q0 -301 188 -316v644q-92 -8 -140 -91t-48 -237zM276 -97h-19v88q-209 14 -209 335q0 162 54 251t155 97v79h19v-78h1q149 0 189 -158h-21q-41 139 -167 139h-2v-646h1q60 0 102 34t70 118h21q-49 -172 -193 -172h-1v-87z" />
    <glyph glyph-name="uni20B9" unicode="&#x20b9;" horiz-adv-x="501" 
d="M51 306v18h95q205 0 205 163q0 22 -5 45h-294v18h289q-34 94 -174 94h-115v18h420v-18h-199q67 -29 89 -94h110v-18h-106q5 -23 5 -45q0 -79 -45.5 -124.5t-129.5 -54.5l211 -308h-24l-210 306h-18h-104z" />
    <glyph glyph-name="uni20BA" unicode="&#x20ba;" horiz-adv-x="489" 
d="M148 0h-19v313l-99 -40v19l99 40v86l-99 -40v19l99 40v225h20v-216l136 55v-19l-136 -55v-86l136 55v-19l-136 -55v-304q123 0 193 58.5t85 183.5h19q-17 -135 -91.5 -197.5t-206.5 -62.5z" />
    <glyph glyph-name="uni20BD" unicode="&#x20bd;" horiz-adv-x="544" 
d="M130 0v215h-81v18h81v83h-81v18h81v328h156q101 0 152 -46.5t51 -125.5q0 -174 -207 -174h-132v-83h218v-18h-218v-215h-20zM150 644v-310h128q190 0 190 155q0 71 -43.5 113t-139.5 42h-135z" />
    <glyph glyph-name="uni2113" unicode="&#x2113;" horiz-adv-x="374" 
d="M321 119h20q-13 -63 -42.5 -95t-85.5 -32q-61 0 -90.5 38t-29.5 122v84q-21 -17 -66 -48l-9 15q51 35 75 55v290q0 102 32 147.5t82 45.5q103 0 103 -152q0 -176 -198 -340v-82q0 -90 26.5 -123.5t76.5 -33.5q42 0 68 25t38 84zM112 549v-276q178 154 178 316
q0 134 -83 134q-43 0 -69 -41.5t-26 -132.5z" />
    <glyph glyph-name="uni2116" unicode="&#x2116;" horiz-adv-x="964" 
d="M108 0h-19v662h29q46 -72 153 -237.5t176 -274t82 -130.5h1q-2 73 -2 319v323h20v-662h-29q-55 88 -152.5 239t-170.5 265t-90 142h-1q3 -79 3 -314v-332zM646 429q0 -80 34.5 -125t94.5 -45q61 0 94.5 44.5t33.5 125.5q0 79 -35 124t-93 45q-60 0 -94.5 -44.5
t-34.5 -124.5zM654 168h243v-19h-243v19zM775 616q70 0 109 -51t39 -136t-39 -136.5t-109 -51.5q-72 0 -110 51t-38 137q0 85 39.5 136t108.5 51z" />
    <glyph glyph-name="uni2117" unicode="&#x2117;" horiz-adv-x="805" 
d="M287 162v400h145q60 0 95 -30t35 -84q0 -57 -35.5 -86t-98.5 -29h-122v-171h-19zM306 544v-193h125q111 0 111 97q0 43 -28 69.5t-78 26.5h-130zM400 711q159 0 254.5 -102t95.5 -253q0 -155 -95 -255.5t-255 -100.5q-159 0 -254.5 102t-95.5 254q0 154 95.5 254.5
t254.5 100.5zM400 692q-153 0 -241.5 -96t-88.5 -240q0 -141 89 -239t241 -98q154 0 242 96t88 241q0 140 -89 238t-241 98z" />
    <glyph glyph-name="uni2120" unicode="&#x2120;" horiz-adv-x="421" 
d="M408 505h-16v85q0 63 2 99h-1l-84 -184h-19l-78 184h-1q3 -45 3 -105v-79h-16v199h25l77 -180h1l82 180h25v-199zM12 567h16q12 -52 64 -52q27 0 40.5 11.5t13.5 29.5q0 20 -12 28.5t-47 17.5q-22 6 -32 9.5t-21.5 15t-11.5 29.5q0 23 17.5 37.5t48.5 14.5
q35 0 51.5 -16.5t19.5 -39.5h-15q-12 42 -56 42q-49 0 -49 -36q0 -17 12 -26t40 -15q38 -9 55 -20.5t17 -39.5q0 -26 -20 -41t-51 -15q-36 0 -56 18t-24 48z" />
    <glyph glyph-name="trademark" unicode="&#x2122;" horiz-adv-x="418" 
d="M405 505h-16v86q0 63 2 99h-1l-84 -184h-19l-78 184h-1q3 -30 3 -105v-80h-16v199h25l77 -181h1l83 181h24v-199zM1 704h165v-14h-73v-185h-17v185h-75v14z" />
    <glyph glyph-name="uni2126" unicode="&#x2126;" horiz-adv-x="714" 
d="M356 714q148 0 228.5 -92t80.5 -244q0 -240 -213 -360h221v-18h-248v24q106 52 162.5 145t56.5 209q0 141 -75 229.5t-212 88.5q-131 0 -209 -88.5t-78 -229.5q0 -117 56 -210.5t163 -143.5v-24h-248v18h220q-212 117 -212 360q0 146 84.5 241t222.5 95z" />
    <glyph glyph-name="estimated" unicode="&#x212e;" horiz-adv-x="732" 
d="M697 324h-580q-5 0 -5 -5v-124q0 -13 8 -29q34 -71 99 -115.5t156 -44.5q141 0 208 116h46q-96 -134 -256 -134q-138 0 -231 101t-93 244q0 139 96.5 240.5t227.5 101.5q136 0 230 -99.5t94 -242.5v-9zM634 348v135q0 8 -8 22q-46 81 -114.5 116.5t-137.5 35.5
q-71 0 -140.5 -36.5t-113.5 -117.5q-8 -16 -8 -22v-133q0 -5 5 -5h512q5 0 5 5z" />
    <glyph glyph-name="onethird" unicode="&#x2153;" horiz-adv-x="754" 
d="M114 2h-23l454 662h22zM140 267h-19v373q-34 -28 -85 -38v17q49 11 90 46h14v-398zM546 207v17h20q104 0 104 76q0 38 -24 60.5t-71 22.5q-82 0 -101 -80h-19q8 43 38.5 70t82.5 27q51 0 82 -25.5t31 -74.5q0 -37 -21 -57.5t-49 -26.5q91 -19 91 -104q0 -57 -38.5 -87.5
t-94.5 -30.5q-38 0 -66 11.5t-42.5 30t-21 34t-9.5 31.5h19q9 -43 40 -66.5t80 -23.5q52 0 82.5 26.5t30.5 71.5q0 98 -125 98h-19z" />
    <glyph glyph-name="twothirds" unicode="&#x2154;" horiz-adv-x="854" 
d="M233 2h-23l454 662h22zM303 267h-262v3q0 81 126 164q65 43 84 63.5t19 60.5q0 42 -26 67t-71 25q-91 0 -107 -95h-19q6 50 39 81t88 31t85.5 -30.5t30.5 -77.5q0 -44 -22 -68.5t-88 -68.5q-107 -70 -120 -138h248zM641 207v17h20q104 0 104 76q0 38 -24 60.5t-71 22.5
q-82 0 -101 -80h-19q8 43 38.5 70t82.5 27q51 0 82 -25.5t31 -74.5q0 -37 -21 -57.5t-49 -26.5q91 -19 91 -104q0 -57 -38.5 -87.5t-94.5 -30.5q-38 0 -66 11.5t-42.5 30t-21 34t-9.5 31.5h19q9 -43 40 -66.5t80 -23.5q52 0 82.5 26.5t30.5 71.5q0 98 -125 98h-19z" />
    <glyph glyph-name="oneeighth" unicode="&#x215b;" horiz-adv-x="724" 
d="M103 2h-23l454 662h22zM138 267h-19v373q-34 -28 -85 -38v17q49 11 90 46h14v-398zM549 -6q-57 0 -94 32t-37 83q0 79 82 105q-63 21 -63 87q0 45 32 72t84 27q48 0 80 -27t32 -72q0 -67 -69 -87q40 -10 63 -38.5t23 -65.5q0 -51 -36.5 -83.5t-96.5 -32.5zM549 11
q51 0 82 25t31 73q0 45 -31.5 70.5t-79.5 25.5q-55 0 -84 -26.5t-29 -68.5q0 -44 30 -71.5t81 -27.5zM551 383q-44 0 -69.5 -21.5t-25.5 -59.5q0 -36 23.5 -58t73.5 -22q43 0 67.5 20t24.5 58q0 37 -25 60t-69 23z" />
    <glyph glyph-name="threeeighths" unicode="&#x215c;" horiz-adv-x="804" 
d="M197 2h-23l454 662h22zM632 -6q-57 0 -94 32t-37 83q0 79 82 105q-63 21 -63 87q0 45 32 72t84 27q48 0 80 -27t32 -72q0 -67 -69 -87q40 -10 63 -38.5t23 -65.5q0 -51 -36.5 -83.5t-96.5 -32.5zM632 11q51 0 82 25t31 73q0 45 -31.5 70.5t-79.5 25.5q-55 0 -84 -26.5
t-29 -68.5q0 -44 30 -71.5t81 -27.5zM634 383q-44 0 -69.5 -21.5t-25.5 -59.5q0 -36 23.5 -58t73.5 -22q43 0 67.5 20t24.5 58q0 37 -25 60t-69 23zM137 474v17h20q104 0 104 76q0 38 -24 60.5t-71 22.5q-82 0 -101 -80h-19q8 43 38.5 70t82.5 27q51 0 82 -25.5t31 -74.5
q0 -37 -21 -57.5t-49 -26.5q91 -19 91 -104q0 -57 -38.5 -87.5t-94.5 -30.5q-38 0 -66 11.5t-42.5 30t-21 34t-9.5 31.5h19q9 -43 40 -66.5t80 -23.5q52 0 82.5 26.5t30.5 71.5q0 98 -125 98h-19z" />
    <glyph glyph-name="fiveeighths" unicode="&#x215d;" horiz-adv-x="830" 
d="M207 2h-23l454 662h22zM294 662l-4 -17h-189q-14 -107 -23 -169q36 50 108 50q60 0 93 -36t33 -93q0 -61 -37 -98.5t-96 -37.5q-53 0 -88 27.5t-45 75.5h20q9 -37 37.5 -61.5t75.5 -24.5q53 0 82.5 32.5t29.5 84.5q0 49 -26 81.5t-82 32.5q-71 0 -107 -60l-19 7
q23 131 28 206h209zM651 -6q-57 0 -94 32t-37 83q0 79 82 105q-63 21 -63 87q0 45 32 72t84 27q48 0 80 -27t32 -72q0 -67 -69 -87q40 -10 63 -38.5t23 -65.5q0 -51 -36.5 -83.5t-96.5 -32.5zM651 11q51 0 82 25t31 73q0 45 -31.5 70.5t-79.5 25.5q-55 0 -84 -26.5
t-29 -68.5q0 -44 30 -71.5t81 -27.5zM653 383q-44 0 -69.5 -21.5t-25.5 -59.5q0 -36 23.5 -58t73.5 -22q43 0 67.5 20t24.5 58q0 37 -25 60t-69 23z" />
    <glyph glyph-name="seveneighths" unicode="&#x215e;" horiz-adv-x="767" 
d="M119 2h-23l454 662h22zM582 -6q-57 0 -94 32t-37 83q0 79 82 105q-63 21 -63 87q0 45 32 72t84 27q48 0 80 -27t32 -72q0 -67 -69 -87q40 -10 63 -38.5t23 -65.5q0 -51 -36.5 -83.5t-96.5 -32.5zM582 11q51 0 82 25t31 73q0 45 -31.5 70.5t-79.5 25.5q-55 0 -84 -26.5
t-29 -68.5q0 -44 30 -71.5t81 -27.5zM584 383q-44 0 -69.5 -21.5t-25.5 -59.5q0 -36 23.5 -58t73.5 -22q43 0 67.5 20t24.5 58q0 37 -25 60t-69 23zM48 662h255v-15q-56 -78 -103.5 -181.5t-63.5 -198.5h-21q17 98 66.5 203.5t100.5 174.5h-234v17z" />
    <glyph glyph-name="uni2190" unicode="&#x2190;" horiz-adv-x="716" 
d="M674 354h-598l346 -340l-13 -15l-367 363v2l367 363l13 -15l-346 -340h598v-18z" />
    <glyph glyph-name="arrowup" unicode="&#x2191;" horiz-adv-x="806" 
d="M393 -14v711l-339 -364l-14 13l362 387h2l362 -387l-14 -13l-339 364v-711h-20z" />
    <glyph glyph-name="uni2192" unicode="&#x2192;" horiz-adv-x="716" 
d="M42 372h598l-346 340l13 15l367 -363v-2l-367 -363l-13 15l346 340h-598v18z" />
    <glyph glyph-name="arrowdown" unicode="&#x2193;" horiz-adv-x="806" 
d="M413 733v-711l339 364l14 -13l-362 -387h-2l-362 387l14 13l339 -364v711h20z" />
    <glyph glyph-name="partialdiff" unicode="&#x2202;" horiz-adv-x="499" 
d="M91 693v19q13 2 45 2q142 0 230.5 -102.5t88.5 -302.5q0 -317 -213 -317q-89 0 -145.5 59.5t-56.5 151.5q0 102 59 159t149 57q64 0 116.5 -30t70.5 -91v13q0 184 -81 284t-220 100q-31 0 -43 -2zM242 11q40 0 72 12.5t51 34.5t32.5 46t19.5 51.5t8.5 47.5t2.5 38
q0 75 -54 117t-126 42q-80 0 -134 -50.5t-54 -145.5q0 -86 52.5 -139.5t129.5 -53.5z" />
    <glyph glyph-name="uni2206" unicode="&#x2206;" horiz-adv-x="623" 
d="M590 0h-557v18l263 686h21l273 -686v-18zM55 18h513l-197 498q-18 46 -34.5 86.5t-22 55.5t-8.5 22h-1q-5 -16 -63 -170z" />
    <glyph glyph-name="product" unicode="&#x220f;" horiz-adv-x="672" 
d="M94 704h484v-763h-20v745h-444v-745h-20v763z" />
    <glyph glyph-name="summation" unicode="&#x2211;" horiz-adv-x="579" 
d="M538 -78h-492v19l296 372l-282 371v20h448v-18h-425l284 -373l-297 -373h472z" />
    <glyph glyph-name="minus" unicode="&#x2212;" horiz-adv-x="661" 
d="M581 249h-501v18h501v-18z" />
    <glyph glyph-name="uni2215" unicode="&#x2215;" horiz-adv-x="148" 
d="M-141 0h-23l454 662h22z" />
    <glyph glyph-name="uni2219" unicode="&#x2219;" horiz-adv-x="120" 
d="M70 200h-20v112h20v-112z" />
    <glyph glyph-name="radical" unicode="&#x221a;" horiz-adv-x="558" 
d="M551 852l-227 -990h-17l-169 447l-97 -47l-8 18l117 56l164 -440q2 14 217 956h20z" />
    <glyph glyph-name="infinity" unicode="&#x221e;" horiz-adv-x="732" 
d="M174 146q-58 0 -96.5 39.5t-38.5 99.5q0 58 39 98t101 40q36 0 72 -20.5t56 -40.5t56 -61q53 59 96.5 90.5t93.5 31.5q65 0 102.5 -37t37.5 -99q0 -61 -36.5 -101t-99.5 -40q-29 0 -54 8.5t-53 32.5t-40 36.5t-45 48.5q-29 -33 -43 -48t-40.5 -37.5t-52 -31.5t-55.5 -9z
M174 165q50 0 86.5 28t91.5 92q-56 63 -94 91t-80 28q-59 0 -89 -34.5t-30 -84.5q0 -52 32.5 -86t82.5 -34zM561 165q50 0 81 34t31 88q0 49 -30.5 83t-88.5 34q-78 0 -178 -117q62 -68 100 -95t85 -27z" />
    <glyph glyph-name="integral" unicode="&#x222b;" horiz-adv-x="306" 
d="M278 811l-5 -18q-15 5 -33 5q-25 0 -43 -11t-27 -26.5t-13.5 -43.5t-5.5 -48.5t-1 -56.5q0 -74 7.5 -287.5t7.5 -286.5q0 -28 -0.5 -41.5t-3 -44t-9 -48.5t-17.5 -38.5t-30 -30.5t-45 -10q-28 0 -45 9l5 18q19 -8 39 -8q29 0 47.5 15t26 45.5t10 58.5t2.5 71
q0 74 -7.5 292.5t-7.5 290.5q0 27 1 45t4 44t10.5 43.5t19 34t31.5 25t46 8.5q24 0 36 -6z" />
    <glyph glyph-name="approxequal" unicode="&#x2248;" horiz-adv-x="661" 
d="M107 112h-18v6q0 86 86 86q50 0 157.5 -38t149.5 -38q74 0 74 64v10h18v-10q0 -82 -93 -82q-47 0 -153.5 38t-151.5 38q-37 0 -52 -15.5t-17 -51.5v-7zM107 335h-18v6q-2 86 86 86q50 0 160 -38t150 -38q71 0 71 65v9h18v-9q0 -83 -90 -83q-47 0 -155 38t-153 38
q-37 0 -52 -15.5t-17 -51.5v-7z" />
    <glyph glyph-name="notequal" unicode="&#x2260;" horiz-adv-x="631" 
d="M479 496l-72 -109h159v-18h-171l-134 -202h305v-18h-317l-84 -126h-22l84 126h-162v18h174l134 202h-308v18h320l72 109h22z" />
    <glyph glyph-name="lessequal" unicode="&#x2264;" horiz-adv-x="581" 
d="M65 335v22l451 224v-21l-432 -213l432 -222v-21zM516 0h-451v18h451v-18z" />
    <glyph glyph-name="greaterequal" unicode="&#x2265;" horiz-adv-x="581" 
d="M516 350v-22l-451 -224v21l434 213l-434 223v20zM516 0h-451v18h451v-18z" />
    <glyph glyph-name="uni25A0" unicode="&#x25a0;" horiz-adv-x="344" 
d="M75 159v188h194v-188h-194z" />
    <glyph glyph-name="triagup" unicode="&#x25b2;" horiz-adv-x="478" 
d="M433 50h-383l191 420h2z" />
    <glyph glyph-name="uni25B3" unicode="&#x25b3;" horiz-adv-x="478" 
d="M433 50h-383l191 420h2zM81 69h321l-160 353z" />
    <glyph glyph-name="uni25B6" unicode="&#x25b6;" horiz-adv-x="557" 
d="M87 52v383l420 -190v-2z" />
    <glyph glyph-name="uni25B7" unicode="&#x25b7;" horiz-adv-x="557" 
d="M87 52v383l420 -190v-2zM459 244l-352 160v-321z" />
    <glyph glyph-name="triagdn" unicode="&#x25bc;" horiz-adv-x="478" 
d="M50 455h383l-190 -420h-2z" />
    <glyph glyph-name="uni25BD" unicode="&#x25bd;" horiz-adv-x="478" 
d="M50 455h383l-190 -420h-2zM402 436h-321l161 -353z" />
    <glyph glyph-name="uni25C0" unicode="&#x25c0;" horiz-adv-x="557" 
d="M470 435v-383l-420 191v2z" />
    <glyph glyph-name="uni25C1" unicode="&#x25c1;" horiz-adv-x="557" 
d="M470 435v-383l-420 191v2zM450 404l-352 -160l352 -161v321z" />
    <glyph glyph-name="uni25C6" unicode="&#x25c6;" horiz-adv-x="350" 
d="M42 253l133 137l133 -137l-133 -137z" />
    <glyph glyph-name="uni25C9" unicode="&#x25c9;" horiz-adv-x="469" 
d="M236 316q26 0 43.5 -18.5t17.5 -44.5t-17.5 -44.5t-43.5 -18.5t-43.5 18.5t-17.5 44.5t17.5 44.5t43.5 18.5zM422 253q0 -83 -56.5 -135.5t-129.5 -52.5q-78 0 -132 55t-54 133t54 133t132 55t132 -55t54 -133zM236 422q-69 0 -117.5 -50t-48.5 -120t48 -119t118 -49
t118 49t48 119t-48.5 120t-117.5 50z" />
    <glyph glyph-name="lozenge" unicode="&#x25ca;" horiz-adv-x="525" 
d="M433 329l-136 286l-33 75h-2l-33 -75l-136 -286l155 -330l14 -35h2l14 35zM454 329l-177 -372h-28l-179 372l179 371h28z" />
    <glyph glyph-name="uni2610" unicode="&#x2610;" horiz-adv-x="956" 
d="M121 741h730v-743l-16 -20h-730v748zM124 717v-719h703v719h-703z" />
    <glyph glyph-name="uni2611" unicode="&#x2611;" horiz-adv-x="956" 
d="M121 741h730v-743l-16 -20h-730v748zM124 717v-719h703v719h-703zM710 650h24q-229 -266 -388 -589h-9q-88 149 -127 262l16 11q34 -105 115 -245q72 150 170 297.5t199 263.5z" />
    <glyph glyph-name="uni2713" unicode="&#x2713;" horiz-adv-x="702" 
d="M656 730h24q-251 -308 -493 -800h-7q-37 56 -82.5 154.5t-74.5 184.5l18 13q57 -183 142 -321q100 208 226.5 413t246.5 356z" />
    <glyph glyph-name="uni2752" unicode="&#x2752;" horiz-adv-x="433" 
d="M59 334l72 72h242v-254l-69 -70h-245v252zM78 335v-233h225v233h-225z" />
    <glyph glyph-name="fi" unicode="&#xfb01;" horiz-adv-x="440" 
d="M122 0h-20v479h-89v18h89v85q0 39 4 67t15.5 55.5t35.5 42t61 14.5q32 0 46 -8v-19q-20 9 -46 9q-51 0 -73.5 -34.5t-22.5 -116.5v-95h109v-18h-109v-479zM335 0v497h20v-497h-20zM355 660h-20v91h20v-91z" />
    <glyph glyph-name="fl" unicode="&#xfb02;" horiz-adv-x="440" 
d="M122 0h-20v479h-89v18h89v85q0 39 4 67t15.5 55.5t35.5 42t61 14.5q32 0 46 -8v-19q-20 9 -46 9q-51 0 -73.5 -34.5t-22.5 -116.5v-95h109v-18h-109v-479zM355 0h-20v751h20v-751z" />
    <glyph glyph-name="uni00470303" horiz-adv-x="694" 
d="M623 352v-352h-18q-1 14 -2 165q-58 -175 -253 -175q-100 0 -169.5 50t-100 128t-30.5 177q0 157 80 263t229 106q111 0 177.5 -52t85.5 -138h-20q-22 82 -83 127t-161 45q-138 0 -212.5 -99t-74.5 -249q0 -93 27.5 -167.5t93 -123.5t160.5 -49q124 0 187.5 74.5
t63.5 199.5v52h-252v18h272zM234 800h-18v11q0 70 63 70q29 0 80 -30.5t73 -30.5q45 0 45 57v9h18v-11q0 -75 -61 -75q-28 0 -80.5 31t-74.5 31q-45 0 -45 -53v-9z" />
    <glyph glyph-name="uni00670303" horiz-adv-x="545" 
d="M460 362v-345q0 -126 -47.5 -187.5t-164.5 -61.5q-84 0 -131.5 41t-56.5 102h20q12 -57 55 -91t114 -34q107 0 149 57t42 177v110q-40 -130 -182 -130q-90 0 -148.5 67t-58.5 181q0 123 64 192t152 69q75 0 117.5 -35t56.5 -86q0 24 0.5 49.5t0.5 41.5v18h19
q0 -4 -0.5 -24.5t-0.5 -51v-59.5zM72 249q0 -107 53.5 -168.5t133.5 -61.5q182 0 182 239q0 35 -2.5 62.5t-13.5 61t-29 56t-51 37.5t-79 15q-88 0 -141 -67.5t-53 -173.5zM153 648h-17v10q0 68 59 68q31 0 81.5 -30t72.5 -30q38 0 38 49v12h17v-12q0 -66 -55 -66
q-26 0 -78.5 30.5t-76.5 30.5q-41 0 -41 -52v-10z" />
    <glyph glyph-name="zero.slash" horiz-adv-x="555" 
d="M282 674q59 0 102.5 -32t66.5 -84.5t33.5 -108t10.5 -115.5q0 -48 -5 -92t-20 -91.5t-38 -82.5t-63 -57.5t-91 -22.5q-61 0 -105.5 31.5t-68 84t-34 108.5t-10.5 116q0 49 6 94t21.5 92t39.5 81.5t64 56.5t91 22zM281 656q-57 0 -98 -30.5t-62 -82t-30.5 -105
t-9.5 -111.5q0 -145 52 -234l274 498q-48 65 -126 65zM279 6q57 0 97.5 31t60.5 82.5t28.5 104t8.5 110.5q0 152 -56 241l-274 -498q51 -71 135 -71z" />
    <glyph glyph-name="zero.slashtab" horiz-adv-x="520" 
d="M264 674q59 0 102.5 -32t66.5 -84.5t33.5 -108t10.5 -115.5q0 -48 -5 -92t-20 -91.5t-38 -82.5t-63 -57.5t-91 -22.5q-61 0 -105.5 31.5t-68 84t-34 108.5t-10.5 116q0 49 6 94t21.5 92t39.5 81.5t64 56.5t91 22zM263 656q-57 0 -98 -30.5t-62 -82t-30.5 -105
t-9.5 -111.5q0 -145 52 -234l274 498q-48 65 -126 65zM261 6q57 0 97.5 31t60.5 82.5t28.5 104t8.5 110.5q0 152 -56 241l-274 -498q51 -71 135 -71z" />
    <glyph glyph-name="zero.tab" horiz-adv-x="520" 
d="M264 674q59 0 102.5 -30.5t66.5 -82.5t33.5 -108.5t10.5 -118.5q0 -64 -9.5 -119.5t-31.5 -109.5t-67 -85.5t-109 -31.5q-61 0 -105.5 31t-68 82.5t-34 108t-10.5 118.5q0 64 10.5 121t34 110t69 84t108.5 31zM263 656q-57 0 -98 -30t-62 -80.5t-30.5 -104.5t-9.5 -114
q0 -57 9.5 -109t30.5 -102t61.5 -80t96.5 -30q57 0 97.5 29.5t60.5 80.5t28.5 104t8.5 114q0 55 -9 106.5t-29 102.5t-60 82t-95 31z" />
    <glyph glyph-name="one.tab" horiz-adv-x="520" 
d="M451 0h-365v18h177v620q-59 -49 -163 -69v18q35 6 85.5 27.5t81.5 50.5h15v-647h169v-18z" />
    <glyph glyph-name="two.tab" horiz-adv-x="520" 
d="M481 0h-431v10q21 140 210 270q44 30 64.5 45t46 37t36 39.5t18 40.5t7.5 51q0 74 -44.5 118.5t-123.5 44.5q-159 0 -187 -173h-19q12 87 64 139t143 52q88 0 138 -51t50 -131q0 -66 -37 -110t-144 -116q-172 -117 -201 -248h417z" />
    <glyph glyph-name="three.tab" horiz-adv-x="520" 
d="M89 519h-19q2 13 7.5 29.5t19.5 39.5t33.5 41.5t53 31.5t75.5 13q83 0 132.5 -45t49.5 -121q0 -63 -34.5 -99t-87.5 -46v-1q66 -13 109.5 -60.5t43.5 -116.5q0 -82 -53.5 -139.5t-156.5 -57.5q-58 0 -101 18.5t-65.5 48t-33 51.5t-14.5 43h20q16 -61 64 -102t130 -41
q83 0 135.5 45t52.5 129q0 81 -52.5 127t-145.5 46h-58v18h63q78 0 121 36t43 100q0 61 -40.5 105t-121.5 44q-132 0 -170 -137z" />
    <glyph glyph-name="four.tab" horiz-adv-x="520" 
d="M398 0h-20v210h-337v21l337 437h20v-440h104l-4 -18h-100v-210zM378 228v214q0 173 4 205q-19 -27 -320 -419h316z" />
    <glyph glyph-name="five.tab" horiz-adv-x="520" 
d="M452 662v-18h-312q-23 -206 -45 -299q57 90 179 90q93 0 147.5 -61t54.5 -155q0 -106 -59 -168.5t-158 -62.5q-81 0 -136 44t-69 118h20q15 -65 64 -104.5t120 -39.5q92 0 144.5 58t52.5 153q0 84 -46.5 142t-136.5 58q-121 0 -179 -106l-22 7q13 57 30 176.5t21 167.5
h330z" />
    <glyph glyph-name="six.tab" horiz-adv-x="520" 
d="M456 539h-20q-37 117 -159 117q-210 0 -210 -361q19 61 72 99t132 38q94 0 150 -62.5t56 -155.5q0 -108 -59.5 -167t-147.5 -59q-222 0 -222 322q0 72 11 132.5t35.5 115t71 85.5t111.5 31q80 0 124 -41.5t55 -93.5zM271 6q79 0 132.5 55.5t53.5 151.5q0 85 -50 143
t-137 58q-95 0 -145.5 -54t-50.5 -115q0 -37 8.5 -74t28.5 -76.5t61.5 -64t98.5 -24.5z" />
    <glyph glyph-name="seven.tab" horiz-adv-x="520" 
d="M50 662h419v-17q-100 -129 -183.5 -304t-121.5 -341h-20q33 157 121 341.5t182 302.5h-397v18z" />
    <glyph glyph-name="eight.tab" horiz-adv-x="520" 
d="M258 -12q-88 0 -148 54t-60 137q0 75 42.5 121t104.5 60q-58 14 -89 54t-31 97q0 74 52 118.5t136 44.5q79 0 129 -44.5t50 -120.5q0 -56 -33.5 -97.5t-87.5 -52.5q70 -15 108.5 -64.5t38.5 -116.5q0 -81 -59 -135.5t-153 -54.5zM258 6q82 0 137 47.5t55 123.5
q0 77 -51.5 125t-135.5 48q-97 0 -144.5 -48.5t-47.5 -121.5q0 -75 53.5 -124.5t133.5 -49.5zM262 656q-75 0 -119.5 -39t-44.5 -105q0 -65 41.5 -104.5t124.5 -39.5q72 0 115.5 37t43.5 103t-41.5 107t-119.5 41z" />
    <glyph glyph-name="nine.tab" horiz-adv-x="520" 
d="M62 125h20q41 -119 162 -119q50 0 87.5 22.5t59 58t34.5 88t17 102.5t4 111q-42 -132 -195 -132q-93 0 -146.5 57t-53.5 148q0 93 54.5 153t146.5 60q109 0 161 -82t52 -214q0 -90 -11 -158t-36 -122t-69 -82t-107 -28q-73 0 -118 37.5t-62 99.5zM252 656
q-79 0 -129.5 -51t-50.5 -144q0 -83 49 -135t130 -52q91 0 138.5 49.5t47.5 130.5q0 12 -3 31t-14.5 50.5t-30 57t-54.5 44.5t-83 19z" />
    <glyph glyph-name="zero.slashcap" horiz-adv-x="582" 
d="M296 714q51 0 90.5 -22t64.5 -57.5t41.5 -84t23 -97t6.5 -100.5q0 -68 -10 -126.5t-33.5 -115t-71 -89t-115.5 -32.5q-65 0 -112.5 32t-72.5 86.5t-36 113.5t-11 125q0 68 11 128t36 116.5t73.5 89.5t115.5 33zM295 696q-60 0 -104 -31.5t-67 -85t-33.5 -111.5
t-10.5 -122q0 -152 55 -245l299 523q-54 72 -139 72zM293 8q61 0 104 30t65 82.5t31 109t9 123.5q0 161 -57 255l-298 -525q55 -75 146 -75z" />
    <glyph glyph-name="zero.cap" horiz-adv-x="582" 
d="M296 714q51 0 90.5 -22t64.5 -57.5t41.5 -84t23 -97t6.5 -100.5q0 -68 -10 -126.5t-33.5 -115t-71 -89t-115.5 -32.5q-65 0 -112.5 32t-72.5 86.5t-36 113.5t-11 125q0 68 11 128t36 116.5t73.5 89.5t115.5 33zM295 696q-60 0 -104 -31.5t-67 -84.5t-33.5 -111
t-10.5 -123q0 -60 10.5 -115.5t33 -107.5t66.5 -83.5t103 -31.5q61 0 104 30t65 82.5t31 109t9 123.5q0 58 -9.5 113t-31.5 109.5t-64.5 87.5t-101.5 33z" />
    <glyph glyph-name="one.cap" horiz-adv-x="306" 
d="M200 0h-20v677q-27 -28 -76 -57t-85 -41v19q97 39 164 106h17v-704z" />
    <glyph glyph-name="two.cap" horiz-adv-x="533" 
d="M500 0h-457v3q0 29 9 60.5t31 71.5t68 84.5t111 86.5q54 34 77.5 50t51 38t36.5 39t15.5 39.5t6.5 52.5q0 75 -48.5 123t-130.5 48q-84 0 -134.5 -47t-64.5 -137h-20q13 91 69 146.5t151 55.5q93 0 146 -53t53 -137q0 -73 -36 -113.5t-159 -118.5q-201 -127 -211 -274
h443z" />
    <glyph glyph-name="three.cap" horiz-adv-x="552" 
d="M89 549h-19q3 20 12 42t30 52.5t62.5 50.5t97.5 20q86 0 138 -45.5t52 -124.5q0 -70 -36.5 -105.5t-91.5 -45.5v-1q70 -14 117.5 -61.5t47.5 -128.5q0 -94 -58 -153t-163 -59q-59 0 -104.5 18t-70.5 47t-38 57t-17 57h20q17 -76 71.5 -118.5t138.5 -42.5q90 0 145 52
t55 137q0 91 -58 138.5t-161 47.5h-57v18h56q183 0 183 142q0 66 -42.5 109.5t-126.5 43.5q-148 0 -183 -147z" />
    <glyph glyph-name="four.cap" horiz-adv-x="544" 
d="M420 0h-20v224h-360v21l360 465h20v-468h110l-4 -18h-106v-224zM400 242v228q0 186 5 220q-14 -22 -343 -448h338z" />
    <glyph glyph-name="five.cap" horiz-adv-x="561" 
d="M486 704l-3 -18h-335q-19 -190 -47 -313q60 94 193 94q98 0 155 -65.5t57 -165.5q0 -113 -61 -179.5t-167 -66.5q-86 0 -145.5 48t-74.5 127h20q18 -73 70 -114.5t130 -41.5q95 0 151 61t56 164q0 88 -49 151t-144 63q-138 0 -195 -110l-20 6q32 147 54 360h355z" />
    <glyph glyph-name="six.cap" horiz-adv-x="564" 
d="M487 577h-20q-35 119 -164 119q-119 0 -173 -105.5t-50 -286.5q20 66 77 108.5t146 42.5q97 0 155 -63t58 -163q0 -105 -60.5 -172t-159.5 -67q-120 0 -177.5 93.5t-58.5 254.5q0 75 12 139t39 119t76 86.5t116 31.5q84 0 128 -41t56 -96zM297 8q86 0 142.5 60.5
t56.5 158.5q0 88 -51 148.5t-143 60.5q-54 0 -96.5 -17t-66.5 -44.5t-36.5 -58t-12.5 -60.5q0 -37 10 -76.5t32 -79.5t65 -66t100 -26z" />
    <glyph glyph-name="seven.cap" horiz-adv-x="475" 
d="M19 704h444v-17q-107 -140 -193.5 -327.5t-125.5 -359.5h-21q38 174 125.5 361t191.5 325h-421v18z" />
    <glyph glyph-name="eight.cap" horiz-adv-x="554" 
d="M275 -10q-95 0 -158 55.5t-63 149.5q0 80 47.5 128t107.5 62q-59 14 -92 55.5t-33 102.5q0 79 56 125t142 46q81 0 134.5 -45.5t53.5 -126.5q0 -60 -33.5 -102t-93.5 -55q75 -17 116 -68t41 -125q0 -91 -62 -146.5t-163 -55.5zM275 8q89 0 147 48.5t58 134.5
q0 85 -56 135t-144 50q-100 0 -153 -51.5t-53 -128.5q0 -83 57 -135.5t144 -52.5zM279 696q-78 0 -126.5 -41t-48.5 -111q0 -72 45.5 -111t131.5 -39q76 0 122.5 37.5t46.5 109.5q0 71 -45.5 113t-125.5 42z" />
    <glyph glyph-name="nine.cap" horiz-adv-x="554" 
d="M64 140h20q44 -132 183 -132q52 0 90.5 24.5t60 62.5t34.5 95t17.5 109t4.5 117q-43 -149 -207 -149q-96 0 -154.5 62.5t-58.5 158.5q0 99 58 162.5t155 63.5q118 0 172.5 -83t54.5 -224q0 -92 -10.5 -163t-35 -130.5t-71 -91.5t-113.5 -32q-77 0 -129 39.5t-71 110.5z
M266 696q-81 0 -136 -54.5t-55 -150.5q0 -94 53.5 -149.5t139.5 -55.5q98 0 148 55.5t50 140.5q0 17 -3.5 39.5t-16.5 54.5t-33 57.5t-58.5 44t-88.5 18.5z" />
    <glyph glyph-name="period.sups" horiz-adv-x="104" 
d="M62 434h-20v65h20v-65z" />
    <glyph glyph-name="comma.sups" horiz-adv-x="116" 
d="M44 368h-18q28 62 30 128h20q-5 -80 -32 -128z" />
    <glyph glyph-name="dollar.sups" horiz-adv-x="322" 
d="M172 377h-19v56q-53 2 -85 29t-40 73h19q9 -41 38.5 -63.5t76.5 -22.5t76 22t29 62q0 41 -24.5 60.5t-80.5 34.5q-63 17 -90.5 37.5t-27.5 62.5t29.5 68t79.5 27v48h19v-48q48 -3 75 -29.5t31 -60.5h-18q-20 74 -100 74q-49 0 -72.5 -21.5t-23.5 -55.5t23 -52t81 -33
q60 -15 89.5 -39t29.5 -71q0 -44 -31 -71.5t-84 -30.5v-56z" />
    <glyph glyph-name="cent.sups" horiz-adv-x="322" 
d="M271 571h18q-26 -82 -111 -85v-60h-18v60q-57 4 -90.5 43t-33.5 100q0 60 34 99.5t90 43.5v48h18v-48q89 -5 110 -88h-19q-8 32 -34 52t-64 20q-53 0 -84.5 -33t-31.5 -93q0 -59 32.5 -93.5t82.5 -34.5q74 0 101 69z" />
    <glyph glyph-name="hyphen.sups" horiz-adv-x="190" 
d="M26 651h139v-17h-139v17z" />
    <glyph glyph-name="period.subs" horiz-adv-x="104" 
d="M62 -167h-20v65h20v-65z" />
    <glyph glyph-name="comma.subs" horiz-adv-x="116" 
d="M44 -233h-18q28 62 30 128h20q-5 -80 -32 -128z" />
    <glyph glyph-name="dollar.subs" horiz-adv-x="322" 
d="M172 -224h-19v56q-53 2 -85 29t-40 73h19q9 -41 38.5 -63.5t76.5 -22.5t76 22t29 62q0 41 -24.5 60.5t-80.5 34.5q-63 17 -90.5 37.5t-27.5 62.5t29.5 68t79.5 27v48h19v-48q48 -3 75 -29.5t31 -60.5h-18q-20 74 -100 74q-49 0 -72.5 -21.5t-23.5 -55.5t23 -52t81 -33
q60 -15 89.5 -39t29.5 -71q0 -44 -31 -71.5t-84 -30.5v-56z" />
    <glyph glyph-name="cent.subs" horiz-adv-x="322" 
d="M271 -30h18q-26 -82 -111 -85v-60h-18v60q-57 4 -90.5 43t-33.5 100q0 60 34 99.5t90 43.5v48h18v-48q89 -5 110 -88h-19q-8 32 -34 52t-64 20q-53 0 -84.5 -33t-31.5 -93q0 -59 32.5 -93.5t82.5 -34.5q74 0 101 69z" />
    <glyph glyph-name="hyphen.subs" horiz-adv-x="190" 
d="M26 50h139v-17h-139v17z" />
    <glyph glyph-name="zero.numr" horiz-adv-x="334" 
d="M170 667q68 0 101 -59.5t33 -141.5q0 -54 -11 -97t-43 -75.5t-83 -32.5q-50 0 -82 33t-43.5 76t-11.5 93q0 83 33.5 143.5t106.5 60.5zM169 650q-34 0 -58.5 -17.5t-37 -47t-18 -60t-5.5 -63.5q0 -30 5.5 -59.5t18 -59t36.5 -47.5t57 -18q35 0 59 17t36 46.5t17 59.5
t5 65q0 30 -5.5 59.5t-17.5 59t-36 47.5t-56 18z" />
    <glyph glyph-name="one.numr" horiz-adv-x="212" 
d="M128 267h-19v373q-34 -28 -85 -38v17q49 11 90 46h14v-398z" />
    <glyph glyph-name="two.numr" horiz-adv-x="321" 
d="M293 267h-262v3q0 81 126 164q65 43 84 63.5t19 60.5q0 42 -26 67t-71 25q-91 0 -107 -95h-19q6 50 39 81t88 31t85.5 -30.5t30.5 -77.5q0 -44 -22 -68.5t-88 -68.5q-107 -70 -120 -138h248z" />
    <glyph glyph-name="three.numr" horiz-adv-x="321" 
d="M127 474v17h20q104 0 104 76q0 38 -24 60.5t-71 22.5q-82 0 -101 -80h-19q8 43 38.5 70t82.5 27q51 0 82 -25.5t31 -74.5q0 -37 -21 -57.5t-49 -26.5q91 -19 91 -104q0 -57 -38.5 -87.5t-94.5 -30.5q-38 0 -66 11.5t-42.5 30t-21 34t-9.5 31.5h19q9 -43 40 -66.5
t80 -23.5q52 0 82.5 26.5t30.5 71.5q0 98 -125 98h-19z" />
    <glyph glyph-name="four.numr" horiz-adv-x="321" 
d="M247 267h-19v117h-207v18l206 260h20v-261h63l-4 -17h-59v-117zM43 401h185v128q0 92 2 112q-7 -11 -41.5 -55.5t-80.5 -102t-65 -82.5z" />
    <glyph glyph-name="five.numr" horiz-adv-x="327" 
d="M281 662l-4 -17h-189q-14 -107 -23 -169q36 50 108 50q60 0 93 -36t33 -93q0 -61 -37 -98.5t-96 -37.5q-53 0 -88 27.5t-45 75.5h20q9 -37 37.5 -61.5t75.5 -24.5q53 0 82.5 32.5t29.5 84.5q0 49 -26 81.5t-82 32.5q-71 0 -107 -60l-19 7q23 131 28 206h209z" />
    <glyph glyph-name="six.numr" horiz-adv-x="327" 
d="M289 580h-20q-21 70 -95 70q-66 0 -96 -56t-29 -143q36 76 122 76q61 0 95 -36.5t34 -91.5q0 -59 -35.5 -98.5t-94.5 -39.5q-74 0 -107 55t-33 141q0 90 35.5 150t109.5 60q48 0 77 -25t37 -62zM171 278q50 0 79.5 33t29.5 86q1 47 -27.5 80t-81.5 33q-52 0 -84 -30
t-32 -71q0 -28 9 -55.5t37 -51.5t70 -24z" />
    <glyph glyph-name="seven.numr" horiz-adv-x="309" 
d="M28 662h255v-15q-56 -78 -103.5 -181.5t-63.5 -198.5h-21q17 98 66.5 203.5t100.5 174.5h-234v17z" />
    <glyph glyph-name="eight.numr" horiz-adv-x="323" 
d="M161 261q-57 0 -94 32t-37 83q0 79 82 105q-63 21 -63 87q0 45 32 72t84 27q48 0 80 -27t32 -72q0 -67 -69 -87q40 -10 63 -38.5t23 -65.5q0 -51 -36.5 -83.5t-96.5 -32.5zM161 278q51 0 82 25t31 73q0 45 -31.5 70.5t-79.5 25.5q-55 0 -84 -26.5t-29 -68.5
q0 -44 30 -71.5t81 -27.5zM163 650q-44 0 -69.5 -21.5t-25.5 -59.5q0 -36 23.5 -58t73.5 -22q43 0 67.5 20t24.5 58q0 37 -25 60t-69 23z" />
    <glyph glyph-name="nine.numr" horiz-adv-x="322" 
d="M35 348h21q21 -70 98 -70q115 0 120 209q-29 -70 -118 -70q-56 0 -91.5 33.5t-35.5 89.5q0 53 35 90t91 37q137 0 137 -182q0 -99 -32.5 -161.5t-106.5 -62.5q-94 0 -118 87zM156 650q-46 0 -76.5 -29.5t-30.5 -79.5q0 -51 31 -79t79 -28t78 25.5t30 70.5q0 26 -8 51
t-34.5 47t-68.5 22z" />
    <glyph glyph-name="parenleft.numr" horiz-adv-x="203" 
d="M134 692h20q-99 -116 -99 -252q0 -142 99 -259h-21q-97 107 -97 259q0 143 98 252z" />
    <glyph glyph-name="parenright.numr" horiz-adv-x="203" 
d="M59 209h-21q99 116 99 252q0 142 -99 259h22q96 -106 96 -259q0 -144 -97 -252z" />
    <glyph glyph-name="period.numr" horiz-adv-x="104" 
d="M62 267h-20v65h20v-65z" />
    <glyph glyph-name="comma.numr" horiz-adv-x="116" 
d="M44 201h-18q28 62 30 128h20q-5 -80 -32 -128z" />
    <glyph glyph-name="dollar.numr" horiz-adv-x="322" 
d="M172 210h-19v56q-53 2 -85 29t-40 73h19q9 -41 38.5 -63.5t76.5 -22.5t76 22t29 62q0 41 -24.5 60.5t-80.5 34.5q-63 17 -90.5 37.5t-27.5 62.5t29.5 68t79.5 27v48h19v-48q48 -3 75 -29.5t31 -60.5h-18q-20 74 -100 74q-49 0 -72.5 -21.5t-23.5 -55.5t23 -52t81 -33
q60 -15 89.5 -39t29.5 -71q0 -44 -31 -71.5t-84 -30.5v-56z" />
    <glyph glyph-name="cent.numr" horiz-adv-x="322" 
d="M271 404h18q-26 -82 -111 -85v-60h-18v60q-57 4 -90.5 43t-33.5 100q0 60 34 99.5t90 43.5v48h18v-48q89 -5 110 -88h-19q-8 32 -34 52t-64 20q-53 0 -84.5 -33t-31.5 -93q0 -59 32.5 -93.5t82.5 -34.5q74 0 101 69z" />
    <glyph glyph-name="hyphen.numr" horiz-adv-x="190" 
d="M26 484h139v-17h-139v17z" />
    <glyph glyph-name="zero.dnom" horiz-adv-x="334" 
d="M170 400q68 0 101 -59.5t33 -141.5q0 -54 -11 -97t-43 -75.5t-83 -32.5q-50 0 -82 33t-43.5 76t-11.5 93q0 83 33.5 143.5t106.5 60.5zM169 383q-34 0 -58.5 -17.5t-37 -47t-18 -60t-5.5 -63.5q0 -30 5.5 -59.5t18 -59t36.5 -47.5t57 -18q35 0 59 17t36 46.5t17 59.5
t5 65q0 30 -5.5 59.5t-17.5 59t-36 47.5t-56 18z" />
    <glyph glyph-name="one.dnom" horiz-adv-x="212" 
d="M128 0h-19v373q-34 -28 -85 -38v17q49 11 90 46h14v-398z" />
    <glyph glyph-name="two.dnom" horiz-adv-x="321" 
d="M293 0h-262v3q0 81 126 164q65 43 84 63.5t19 60.5q0 42 -26 67t-71 25q-91 0 -107 -95h-19q6 50 39 81t88 31t85.5 -30.5t30.5 -77.5q0 -44 -22 -68.5t-88 -68.5q-107 -70 -120 -138h248z" />
    <glyph glyph-name="three.dnom" horiz-adv-x="321" 
d="M127 207v17h20q104 0 104 76q0 38 -24 60.5t-71 22.5q-82 0 -101 -80h-19q8 43 38.5 70t82.5 27q51 0 82 -25.5t31 -74.5q0 -37 -21 -57.5t-49 -26.5q91 -19 91 -104q0 -57 -38.5 -87.5t-94.5 -30.5q-38 0 -66 11.5t-42.5 30t-21 34t-9.5 31.5h19q9 -43 40 -66.5
t80 -23.5q52 0 82.5 26.5t30.5 71.5q0 98 -125 98h-19z" />
    <glyph glyph-name="four.dnom" horiz-adv-x="321" 
d="M247 0h-19v117h-207v18l206 260h20v-261h63l-4 -17h-59v-117zM43 134h185v128q0 92 2 112q-7 -11 -41.5 -55.5t-80.5 -102t-65 -82.5z" />
    <glyph glyph-name="five.dnom" horiz-adv-x="327" 
d="M281 395l-4 -17h-189q-14 -107 -23 -169q36 50 108 50q60 0 93 -36t33 -93q0 -61 -37 -98.5t-96 -37.5q-53 0 -88 27.5t-45 75.5h20q9 -37 37.5 -61.5t75.5 -24.5q53 0 82.5 32.5t29.5 84.5q0 49 -26 81.5t-82 32.5q-71 0 -107 -60l-19 7q23 131 28 206h209z" />
    <glyph glyph-name="six.dnom" horiz-adv-x="327" 
d="M289 313h-20q-21 70 -95 70q-66 0 -96 -56t-29 -143q36 76 122 76q61 0 95 -36.5t34 -91.5q0 -59 -35.5 -98.5t-94.5 -39.5q-74 0 -107 55t-33 141q0 90 35.5 150t109.5 60q48 0 77 -25t37 -62zM171 11q50 0 79.5 33t29.5 86q1 47 -27.5 80t-81.5 33q-52 0 -84 -30
t-32 -71q0 -28 9 -55.5t37 -51.5t70 -24z" />
    <glyph glyph-name="seven.dnom" horiz-adv-x="309" 
d="M28 395h255v-15q-56 -78 -103.5 -181.5t-63.5 -198.5h-21q17 98 66.5 203.5t100.5 174.5h-234v17z" />
    <glyph glyph-name="eight.dnom" horiz-adv-x="323" 
d="M161 -6q-57 0 -94 32t-37 83q0 79 82 105q-63 21 -63 87q0 45 32 72t84 27q48 0 80 -27t32 -72q0 -67 -69 -87q40 -10 63 -38.5t23 -65.5q0 -51 -36.5 -83.5t-96.5 -32.5zM161 11q51 0 82 25t31 73q0 45 -31.5 70.5t-79.5 25.5q-55 0 -84 -26.5t-29 -68.5q0 -44 30 -71.5
t81 -27.5zM163 383q-44 0 -69.5 -21.5t-25.5 -59.5q0 -36 23.5 -58t73.5 -22q43 0 67.5 20t24.5 58q0 37 -25 60t-69 23z" />
    <glyph glyph-name="nine.dnom" horiz-adv-x="322" 
d="M35 81h21q21 -70 98 -70q115 0 120 209q-29 -70 -118 -70q-56 0 -91.5 33.5t-35.5 89.5q0 53 35 90t91 37q137 0 137 -182q0 -99 -32.5 -161.5t-106.5 -62.5q-94 0 -118 87zM156 383q-46 0 -76.5 -29.5t-30.5 -79.5q0 -51 31 -79t79 -28t78 25.5t30 70.5q0 26 -8 51
t-34.5 47t-68.5 22z" />
    <glyph glyph-name="parenleft.dnom" horiz-adv-x="203" 
d="M134 425h20q-99 -116 -99 -252q0 -142 99 -259h-21q-97 107 -97 259q0 143 98 252z" />
    <glyph glyph-name="parenright.dnom" horiz-adv-x="203" 
d="M59 -58h-21q99 116 99 252q0 142 -99 259h22q96 -106 96 -259q0 -144 -97 -252z" />
    <glyph glyph-name="period.dnom" horiz-adv-x="104" 
d="M62 0h-20v65h20v-65z" />
    <glyph glyph-name="comma.dnom" horiz-adv-x="116" 
d="M44 -66h-18q28 62 30 128h20q-5 -80 -32 -128z" />
    <glyph glyph-name="dollar.dnom" horiz-adv-x="322" 
d="M172 -57h-19v56q-53 2 -85 29t-40 73h19q9 -41 38.5 -63.5t76.5 -22.5t76 22t29 62q0 41 -24.5 60.5t-80.5 34.5q-63 17 -90.5 37.5t-27.5 62.5t29.5 68t79.5 27v48h19v-48q48 -3 75 -29.5t31 -60.5h-18q-20 74 -100 74q-49 0 -72.5 -21.5t-23.5 -55.5t23 -52t81 -33
q60 -15 89.5 -39t29.5 -71q0 -44 -31 -71.5t-84 -30.5v-56z" />
    <glyph glyph-name="cent.dnom" horiz-adv-x="322" 
d="M271 137h18q-26 -82 -111 -85v-60h-18v60q-57 4 -90.5 43t-33.5 100q0 60 34 99.5t90 43.5v48h18v-48q89 -5 110 -88h-19q-8 32 -34 52t-64 20q-53 0 -84.5 -33t-31.5 -93q0 -59 32.5 -93.5t82.5 -34.5q74 0 101 69z" />
    <glyph glyph-name="hyphen.dnom" horiz-adv-x="190" 
d="M26 217h139v-17h-139v17z" />
    <glyph glyph-name="a.sups" horiz-adv-x="332" 
d="M280 498v-155q0 -54 2 -74h-19q-3 30 -2 65q-30 -73 -122 -73q-56 0 -83.5 29.5t-27.5 66.5q0 106 151 106h82v33q0 97 -95 97q-94 0 -99 -86h-19q2 46 31 74.5t89 28.5q112 0 112 -112zM261 404v42h-81q-72 0 -102 -22.5t-30 -66.5q0 -35 26.5 -57t65.5 -22
q60 0 90.5 32.5t30.5 93.5z" />
    <glyph glyph-name="b.sups" horiz-adv-x="365" 
d="M53 360v404h19v-239q36 85 126 85q60 0 98 -45t38 -121q0 -92 -41.5 -137.5t-101.5 -45.5q-49 0 -75.5 21t-44.5 59q1 -32 -2 -73h-17q0 2 0.5 33t0.5 59zM314 443q0 70 -33.5 109.5t-85.5 39.5q-61 0 -92.5 -43t-31.5 -116q0 -68 29 -111t90 -43q56 0 90 42.5t34 121.5z
" />
    <glyph glyph-name="c.sups" horiz-adv-x="323" 
d="M283 361h19q-29 -100 -128 -100q-66 0 -104.5 48t-38.5 125q0 78 40.5 127t104.5 49q51 0 84 -28t42 -74h-20q-21 85 -105 85q-56 0 -91.5 -43t-35.5 -115q0 -66 33 -111.5t92 -45.5q80 0 108 83z" />
    <glyph glyph-name="d.sups" horiz-adv-x="365" 
d="M293 764h19v-415q0 -58 2 -81h-18q-2 20 -2 81q-31 -88 -124 -88q-58 0 -98.5 44.5t-40.5 125.5q0 84 43 131.5t104 47.5q29 0 50.5 -7t34.5 -21t18.5 -23t11.5 -23v228zM50 432q0 -72 35 -112.5t87 -40.5q123 0 123 162q0 151 -117 151q-59 0 -93.5 -44.5t-34.5 -115.5z
" />
    <glyph glyph-name="e.sups" horiz-adv-x="339" 
d="M309 438h-259q-1 -75 34 -117.5t91 -42.5q45 0 70.5 20.5t42.5 60.5h18q-31 -98 -131 -98q-71 0 -107.5 50.5t-36.5 124.5q0 78 40 126t103 48q71 0 103.5 -47t32.5 -105q0 -13 -1 -20zM51 455h240q0 60 -30 99t-87 39q-55 0 -86.5 -38t-36.5 -100z" />
    <glyph glyph-name="f.sups" horiz-adv-x="144" 
d="M79 268h-19v317h-55v17h55v53q0 115 78 115q21 0 32 -5v-18q-14 5 -33 5q-31 0 -44.5 -22.5t-13.5 -75.5v-52h72v-17h-72v-317z" />
    <glyph glyph-name="g.sups" horiz-adv-x="362" 
d="M309 510v-227q0 -79 -32 -121t-111 -42q-62 0 -94 27.5t-41 68.5h20q9 -33 37.5 -56t78.5 -23q68 0 95.5 36.5t27.5 106.5v68q-31 -80 -121 -80q-61 0 -100 44t-39 122q0 84 43 129t101 45q48 0 77 -22t40 -53q0 48 2 68h18q-2 -28 -2 -91zM50 435q0 -72 33.5 -110.5
t88.5 -38.5q120 0 120 155q0 149 -117 149q-56 0 -90.5 -43.5t-34.5 -111.5z" />
    <glyph glyph-name="h.sups" horiz-adv-x="363" 
d="M53 268v496h19v-239q31 85 124 85q47 0 80.5 -29t33.5 -97v-216h-19v213q0 53 -25 82t-74 29q-57 0 -88.5 -38.5t-31.5 -98.5v-187h-19z" />
    <glyph glyph-name="i.sups" horiz-adv-x="125" 
d="M72 268h-19v334h19v-334zM72 686h-19v60h19v-60z" />
    <glyph glyph-name="j.sups" horiz-adv-x="127" 
d="M0 120v19h2q25 0 39 17t14 68v378h19v-381q0 -101 -71 -101h-3zM74 686h-19v60h19v-60z" />
    <glyph glyph-name="k.sups" horiz-adv-x="301" 
d="M72 764v-338q28 26 191 176h25q-80 -73 -143 -132l161 -202h-25l-150 190q-7 -7 -29.5 -26.5t-29.5 -25.5v-138h-19v496h19z" />
    <glyph glyph-name="l.sups" horiz-adv-x="125" 
d="M72 268h-19v496h19v-496z" />
    <glyph glyph-name="m.sups" horiz-adv-x="544" 
d="M491 268h-19v217q0 46 -20 76.5t-66 30.5q-51 0 -77.5 -35t-26.5 -95v-194h-20v219q0 48 -21 76.5t-63 28.5q-51 0 -78.5 -38t-27.5 -98v-188h-19v247q0 20 -0.5 51.5t-0.5 35.5h19v-73q29 81 107 81q38 0 64 -19.5t35 -57.5q10 32 37 54.5t71 22.5q46 0 76 -28.5
t30 -95.5v-218z" />
    <glyph glyph-name="o.sups" horiz-adv-x="357" 
d="M180 610q64 0 105 -48t41 -127q0 -82 -41 -128t-108 -46q-68 0 -107 49.5t-39 123.5q0 85 43.5 130.5t105.5 45.5zM179 593q-62 0 -95 -45.5t-33 -113.5q0 -67 34 -111.5t92 -44.5q63 0 96 43.5t33 112.5q0 67 -34 113t-93 46z" />
    <glyph glyph-name="p.sups" horiz-adv-x="365" 
d="M72 122h-19v383q0 75 -1 96h18q2 -12 2 -81q33 90 126 90q59 0 97.5 -46t38.5 -122q0 -88 -42 -134.5t-101 -46.5q-86 0 -119 79v-218zM314 441q0 68 -33.5 109.5t-85.5 41.5q-59 0 -91.5 -44.5t-32.5 -114.5q0 -69 28.5 -111.5t91.5 -42.5q55 0 89 43.5t34 118.5z" />
    <glyph glyph-name="q.sups" horiz-adv-x="365" 
d="M293 122v230q-29 -91 -123 -91q-58 0 -98.5 45t-40.5 125q0 86 42.5 132.5t103.5 46.5q83 0 117 -76q0 52 2 68h17q-1 -22 -1 -91v-389h-19zM51 432q0 -70 34 -111.5t87 -41.5q62 0 92.5 44.5t30.5 116.5q0 152 -119 152q-58 0 -91.5 -43t-33.5 -117z" />
    <glyph glyph-name="r.sups" horiz-adv-x="207" 
d="M53 268v334h18q3 -25 1 -84q15 38 50 64t75 26v-20q-53 -1 -89 -40t-36 -93v-187h-19z" />
    <glyph glyph-name="s.sups" horiz-adv-x="296" 
d="M23 361h19q17 -83 107 -83q46 0 70 20.5t24 52.5q0 33 -20.5 51.5t-78.5 32.5q-59 14 -82 34.5t-23 53.5q0 36 26.5 61.5t78.5 25.5q48 0 77 -23.5t35 -59.5h-19q-18 66 -94 66q-43 0 -64 -20t-21 -48q0 -26 18 -43.5t73 -29.5q65 -14 89.5 -37.5t24.5 -61.5
q0 -41 -30.5 -66.5t-83.5 -25.5q-51 0 -85 26t-41 74z" />
    <glyph glyph-name="t.sups" horiz-adv-x="167" 
d="M2 602h57v109h20v-109h74v-17h-74v-243q0 -30 10 -45.5t39 -15.5q13 0 25 3v-16q-12 -5 -28 -5q-36 0 -51 18.5t-15 63.5v240h-57v17z" />
    <glyph glyph-name="u.sups" horiz-adv-x="360" 
d="M307 601v-241q0 -19 0.5 -53t0.5 -39h-18q-4 19 -2 78q-11 -38 -42.5 -61.5t-78.5 -23.5q-114 0 -114 126v214h19v-215q0 -107 98 -107q51 0 84 36t33 103v183h20z" />
    <glyph glyph-name="v.sups" horiz-adv-x="309" 
d="M10 602h21q115 -296 122 -316h1q2 5 126 316h20l-136 -334h-23z" />
    <glyph glyph-name="w.sups" horiz-adv-x="500" 
d="M13 602h21q91 -289 96 -314h1q3 11 108 314h23q24 -73 49.5 -150.5t37.5 -114.5t15 -47h1q4 13 102 312h20l-112 -334h-22q-93 278 -103 314h-1q-1 -3 -108 -314h-22z" />
    <glyph glyph-name="x.sups" horiz-adv-x="275" 
d="M2 602h24q27 -38 52.5 -72.5t39 -52.5t18.5 -25h1l39 52q39 51 74 98h23l-124 -162l126 -172h-24q-6 9 -114 157h-1q-5 -9 -20 -29l-42 -56t-52 -72h-23l125 169z" />
    <glyph glyph-name="y.sups" horiz-adv-x="312" 
d="M9 602h21q39 -88 68 -156t44.5 -104.5t16.5 -38.5h1q6 15 123 299h21l-138 -329q-39 -94 -65 -124.5t-71 -30.5q-13 0 -23 2v18q5 -1 23 -1q36 0 58.5 25.5t60.5 116.5z" />
    <glyph glyph-name="z.sups" horiz-adv-x="289" 
d="M14 268v14l228 303h-218v17h243v-14l-228 -303h232l-4 -17h-253z" />
    <glyph glyph-name="egrave.sups" horiz-adv-x="339" 
d="M72 759h23l92 -106h-20zM309 438h-259q-1 -75 34 -117.5t91 -42.5q45 0 70.5 20.5t42.5 60.5h18q-31 -98 -131 -98q-71 0 -107.5 50.5t-36.5 124.5q0 78 40 126t103 48q71 0 103.5 -47t32.5 -105q0 -13 -1 -20zM51 455h240q0 60 -30 99t-87 39q-55 0 -86.5 -38
t-36.5 -100z" />
    <glyph glyph-name="eacute.sups" horiz-adv-x="339" 
d="M250 766h23l-100 -106h-21zM309 438h-259q-1 -75 34 -117.5t91 -42.5q45 0 70.5 20.5t42.5 60.5h18q-31 -98 -131 -98q-71 0 -107.5 50.5t-36.5 124.5q0 78 40 126t103 48q71 0 103.5 -47t32.5 -105q0 -13 -1 -20zM51 455h240q0 60 -30 99t-87 39q-55 0 -86.5 -38
t-36.5 -100z" />
    <glyph glyph-name="dong.alt" horiz-adv-x="514" 
d="M408 665h19v-93h73v-18h-73v-439q0 -87 2 -115h-19q-4 47 -2 124q-42 -132 -180 -132q-80 0 -134 62t-54 176q0 109 58 172t141 63q124 0 169 -103v192h-256v18h256v93zM61 232q0 -104 47 -163t120 -59q96 0 139 66t43 172q0 199 -173 199q-79 0 -127.5 -61t-48.5 -154z
" />
    </font>
</defs>
</svg>
