<svg id="Layer_1" data-name="Layer 1" xmlns="http://www.w3.org/2000/svg" viewBox="0 0 105.5 82"><title>hotmart</title><path d="M35.15,70a2.34,2.34,0,0,0-1.8.8h0v-3.1a.1.1,0,0,0-.1-.1h-1.7a.1.1,0,0,0-.1.1v8.6a.1.1,0,0,0,.1.1h1.7c.1,0,.1,0,.1-.1v-4a.86.86,0,0,1,.9-.8c.3,0,.8.1.8.6v4.2a.1.1,0,0,0,.1.1h1.7a.1.1,0,0,0,.1-.1V72C37,70.82,36.45,70,35.15,70Z"/><path d="M48,70.12h-1.3v-1.7a.1.1,0,0,0-.1-.1h-.9a.1.1,0,0,0-.1.1l-.5,1.7-1,.3a.1.1,0,0,0-.1.1v1.1a.1.1,0,0,0,.1.1h.7v3a1.69,1.69,0,0,0,1.9,1.9,3.08,3.08,0,0,0,1.3-.3.1.1,0,0,0,.1-.1V75a.1.1,0,0,0-.1-.1h-.8c-.4,0-.6-.2-.6-.5v-2.8h1.3a.1.1,0,0,0,.1-.1v-1.4Z"/><path d="M74,71.62h0l.1-1.4c0-.1,0-.1-.1-.1h-1.3v-1.7a.1.1,0,0,0-.1-.1h-.9a.1.1,0,0,0-.1.1l-.5,1.7-1,.3a.1.1,0,0,0-.1.1v1.1a.1.1,0,0,0,.1.1h.7v3a1.69,1.69,0,0,0,1.9,1.9,3.08,3.08,0,0,0,1.3-.3.1.1,0,0,0,.1-.1V75a.1.1,0,0,0-.1-.1h-.8c-.4,0-.6-.2-.6-.5v-2.8Z"/><path d="M56.35,70a2.46,2.46,0,0,0-2,1h0a1.5,1.5,0,0,0-1.6-1,2.34,2.34,0,0,0-1.8.8h0l-.2-.6a.1.1,0,0,0-.1-.1h-1.5a.1.1,0,0,0-.1.1v6.1a.1.1,0,0,0,.1.1h1.7c.1,0,.1,0,.1-.1v-4a1,1,0,0,1,.9-.9.71.71,0,0,1,.8.7v4.1a.1.1,0,0,0,.1.1h1.7a.1.1,0,0,0,.1-.1v-4c0-.6.6-.8,1-.8a.76.76,0,0,1,.8.7v4.1a.1.1,0,0,0,.1.1h1.7a.1.1,0,0,0,.1-.1V72C58.05,70.82,57.65,70,56.35,70Z"/><path d="M61.65,70a9.86,9.86,0,0,0-2.4.3.1.1,0,0,0-.1.1v1.1a.1.1,0,0,0,.1.1h1.3c1.5,0,1.8.1,1.8.6v.4h-1.5a1.84,1.84,0,0,0-2.1,2,1.79,1.79,0,0,0,1.8,2,2.06,2.06,0,0,0,1.7-.7c0,.1.2.5.2.6a.1.1,0,0,0,.1.1h1.6a.1.1,0,0,0,.1-.1v-4.2C64.25,70.42,63.25,70,61.65,70Zm.8,4.2a.93.93,0,0,1-1,1c-.4,0-.9-.1-.9-.7s.3-.8.9-.8h1Z"/><path d="M69.05,70a2.06,2.06,0,0,0-1.9,1.1h0s-.2-.9-.2-1a.1.1,0,0,0-.1-.1h-1.5a.1.1,0,0,0-.1.1v6.1a.1.1,0,0,0,.1.1h1.7a.1.1,0,0,0,.1-.1v-3.4c0-.6.4-1,1.5-1h.4a.1.1,0,0,0,.1-.1l-.1-1.7Z"/><path d="M40.65,70c-2.2,0-3,1.3-3,3.3s.8,3.3,3,3.3,3-1.3,3-3.3S43,70,40.65,70Zm0,5c-.9,0-1-.7-1-1.7s.2-1.7,1-1.7,1,.7,1,1.7S41.55,75,40.65,75Z"/><path d="M52.55,63.42a21,21,0,0,0,21.2-20.8v-.2c.3-5.2-1.5-13.6-5.9-20.5-.1-.2-.3-.1-.3.1.3,1.1.4,3-1.3,2.8-3-.2.1-6.5-6.4-11-.1-.1-.3,0-.2.2.4.8.7,3.5-.3,4.4-.8.7-2.4.5-3.8-1.9a10.56,10.56,0,0,1,.1-10.9c.1-.2,0-.3-.2-.2-9,3-10.8,13.5-12.7,17.4-.3.6-.6,1-1.1.9-1.6-.1-.5-3.6.1-4.8.1-.2-.1-.3-.2-.2a38,38,0,0,0-9.6,20.7,5.5,5.5,0,0,0-.1,1.2h0v1.5A20.81,20.81,0,0,0,52.55,63.42Zm.3-30.7a9.73,9.73,0,0,1,9.7,9.8,9.58,9.58,0,0,1-9.8,9.6,9.7,9.7,0,1,1,.1-19.4Z"/></svg>