<?xml version="1.0" encoding="utf-8"?>
<!-- Generator: Adobe Illustrator 20.1.0, SVG Export Plug-In . SVG Version: 6.00 Build 0)  -->
<svg version="1.1" id="Layer_1" xmlns="http://www.w3.org/2000/svg" xmlns:xlink="http://www.w3.org/1999/xlink" x="0px" y="0px"
	 viewBox="0 0 82 82" style="enable-background:new 0 0 82 82;" xml:space="preserve">
<g id="hotmart_1_">
	<path d="M23.4,70c-0.7,0-1.4,0.3-1.8,0.8h0v-3.1c0,0,0-0.1-0.1-0.1h-1.7c0,0-0.1,0-0.1,0.1v8.6c0,0,0,0.1,0.1,0.1h1.7
		c0.1,0,0.1,0,0.1-0.1v-4c0-0.6,0.6-0.8,0.9-0.8c0.3,0,0.8,0.1,0.8,0.6v4.2c0,0,0,0.1,0.1,0.1h1.7c0,0,0.1,0,0.1-0.1V72
		C25.2,70.8,24.7,70,23.4,70z"/>
	<path d="M36.2,70.1h-1.3v-1.7c0,0,0-0.1-0.1-0.1h-0.9c0,0-0.1,0-0.1,0.1c0,0-0.5,1.7-0.5,1.7s-1,0.3-1,0.3c0,0-0.1,0-0.1,0.1v1.1
		c0,0,0,0.1,0.1,0.1H33v3c0,1.1,0.5,1.9,1.9,1.9c0.5,0,0.8-0.1,1.3-0.3c0,0,0.1,0,0.1-0.1V75c0,0,0-0.1-0.1-0.1h-0.8
		c-0.4,0-0.6-0.2-0.6-0.5v-2.8h1.3c0,0,0.1,0,0.1-0.1L36.2,70.1C36.3,70.1,36.2,70.1,36.2,70.1z"/>
	<path d="M62.2,71.6C62.2,71.6,62.2,71.6,62.2,71.6l0.1-1.4c0-0.1,0-0.1-0.1-0.1h-1.3v-1.7c0,0,0-0.1-0.1-0.1h-0.9
		c0,0-0.1,0-0.1,0.1c0,0-0.5,1.7-0.5,1.7s-1,0.3-1,0.3c0,0-0.1,0-0.1,0.1v1.1c0,0,0,0.1,0.1,0.1H59v3c0,1.1,0.5,1.9,1.9,1.9
		c0.5,0,0.8-0.1,1.3-0.3c0,0,0.1,0,0.1-0.1V75c0,0,0-0.1-0.1-0.1h-0.8c-0.4,0-0.6-0.2-0.6-0.5v-2.8H62.2z"/>
	<path d="M44.6,70c-0.7,0-1.5,0.3-2,1h0c-0.2-0.6-0.7-1-1.6-1c-0.7,0-1.4,0.3-1.8,0.8h0c0,0-0.2-0.6-0.2-0.6c0,0,0-0.1-0.1-0.1h-1.5
		c0,0-0.1,0-0.1,0.1v6.1c0,0,0,0.1,0.1,0.1h1.7c0.1,0,0.1,0,0.1-0.1v-4c0-0.6,0.6-0.9,0.9-0.9c0.4,0,0.8,0.2,0.8,0.7v4.1
		c0,0,0,0.1,0.1,0.1h1.7c0,0,0.1,0,0.1-0.1v-4c0-0.6,0.6-0.8,1-0.8c0.3,0,0.8,0.2,0.8,0.7v4.1c0,0,0,0.1,0.1,0.1h1.7
		c0,0,0.1,0,0.1-0.1V72C46.3,70.8,45.9,70,44.6,70z"/>
	<path d="M49.9,70c-0.8,0-1.6,0.1-2.4,0.3c0,0-0.1,0-0.1,0.1v1.1c0,0,0,0.1,0.1,0.1c0,0,0.7,0,1.3,0c1.5,0,1.8,0.1,1.8,0.6v0.4h-1.5
		c-0.9,0-2.1,0.3-2.1,2c0,1.1,0.6,2,1.8,2c0.7,0,1.3-0.2,1.7-0.7c0,0.1,0.2,0.5,0.2,0.6c0,0,0,0.1,0.1,0.1h1.6c0,0,0.1,0,0.1-0.1
		v-4.2C52.5,70.4,51.5,70,49.9,70z M50.7,74.2c0,0.8-0.6,1-1,1c-0.4,0-0.9-0.1-0.9-0.7c0-0.6,0.3-0.8,0.9-0.8h1V74.2z"/>
	<path d="M57.3,70c-0.7,0-1.5,0.3-1.9,1.1h0c0,0-0.2-0.9-0.2-1c0,0,0-0.1-0.1-0.1h-1.5c0,0-0.1,0-0.1,0.1v6.1c0,0,0,0.1,0.1,0.1h1.7
		c0,0,0.1,0,0.1-0.1v-3.4c0-0.6,0.4-1,1.5-1h0.4c0,0,0.1,0,0.1-0.1L57.3,70C57.4,70,57.3,70,57.3,70z"/>
	<path d="M28.9,70c-2.2,0-3,1.3-3,3.3c0,2,0.8,3.3,3,3.3c2.2,0,3-1.3,3-3.3C31.9,71.3,31.2,70,28.9,70z M28.9,75c-0.9,0-1-0.7-1-1.7
		c0-1.1,0.2-1.7,1-1.7c0.9,0,1,0.7,1,1.7C30,74.3,29.8,75,28.9,75z"/>
	<path d="M40.8,63.4c11.6,0.1,21.1-9.2,21.2-20.8c0-0.1,0-0.1,0-0.2c0.3-5.2-1.5-13.6-5.9-20.5c-0.1-0.2-0.3-0.1-0.3,0.1
		c0.3,1.1,0.4,3-1.3,2.8c-3-0.2,0.1-6.5-6.4-11c-0.1-0.1-0.3,0-0.2,0.2c0.4,0.8,0.7,3.5-0.3,4.4c-0.8,0.7-2.4,0.5-3.8-1.9
		c-2.4-4-1.5-8.2,0.1-10.9c0.1-0.2,0-0.3-0.2-0.2c-9,3-10.8,13.5-12.7,17.4c-0.3,0.6-0.6,1-1.1,0.9c-1.6-0.1-0.5-3.6,0.1-4.8
		c0.1-0.2-0.1-0.3-0.2-0.2c-4.6,4.8-8.8,13-9.6,20.7c0-0.2-0.1,0.6-0.1,1.2c0,0,0,0,0,0c0,0.2,0,0.5,0,0.7c0,0.3,0,0.6,0,0.8
		C19.9,53.9,29.2,63.3,40.8,63.4z M41.1,32.7c5.4,0,9.7,4.4,9.7,9.8c0,5.4-4.4,9.7-9.8,9.6c-5.4,0-9.7-4.4-9.7-9.8
		C31.3,37,35.7,32.7,41.1,32.7z"/>
</g>
</svg>
