<?xml version="1.0" encoding="utf-8"?>
<!-- Generator: Adobe Illustrator 20.1.0, SVG Export Plug-In . SVG Version: 6.00 Build 0)  -->
<svg version="1.1" id="Layer_1" xmlns="http://www.w3.org/2000/svg" xmlns:xlink="http://www.w3.org/1999/xlink" x="0px" y="0px"
	 viewBox="0 0 82 82" style="enable-background:new 0 0 82 82;" xml:space="preserve">
<title>Group 2</title>
<desc>Created with Sketch.</desc>
<g id="Clip-5">
</g>
<g>
	<path d="M45.6,61.9C41.2,62,38,64.8,37,69.2c-0.9,4.4,1.1,7.2,5.5,7.3c3.4,0.1,4.1-0.3,7.3-0.8l1.6-7.5h-6.8L44.1,71h2.9l-0.5,2.6
		c-0.6,0.1-1.3,0.2-2.1,0.2c-2.8,0-3.8-1.8-3.2-4.6c0.5-2.3,1.9-4.6,4.5-4.6c1.3,0,2.3,0.4,2.2,1.8h3.9
		C52.5,62.3,49.1,61.8,45.6,61.9z"/>
	<polygon points="30.9,62.2 26.7,71.7 26.6,71.7 26.4,62.2 20.2,62.2 17.2,76.2 20.6,76.2 23.1,64.4 23.2,64.3 23.7,76.2 27.3,76.2 
		33.1,64.4 33.1,64.5 30.6,76.2 34,76.2 37,62.2 	"/>
	<path d="M32.2,44.3c0.1,0,5.3,0.3,6.2-3.8c0.4-2-0.8-3.2-2.7-3.4l0,0c1.6-0.3,3.3-1.3,3.7-3.1c0.5-2.5-1.4-3.7-4.1-3.7h-6.7l-3,14
		H32.2z M31.9,32.9h2.1c0.9,0,1.5,0.6,1.3,1.4c-0.2,1.1-1,1.5-2,1.5l-2,0L31.9,32.9z M30.8,38.5h2.6c0.9,0,1.2,0.8,1.1,1.6
		c-0.2,0.9-1,1.5-2,1.5h-2.3L30.8,38.5z"/>
	<path d="M53.3,33.8c0.6-3-2.3-3.6-4.7-3.6h-6.5l-3,14H43l1.2-5.4h1.5c2,0,1.9,0.7,1.7,2.4c-0.1,1-0.2,2-0.2,3h4.2
		c-0.1-1.1,0-2.2,0.1-3.4c0.2-2.2,0-3.4-2.5-3.5l0-0.1C51,37,52.9,35.9,53.3,33.8z M46.3,36.2h-1.5l0.7-3.2H47
		c1.2,0,2.4,0.2,2.1,1.6C48.8,36,47.5,36.2,46.3,36.2z"/>
	<path d="M60,30.2l-8.5,14h3.9l1.5-2.7h5.7l0.4,2.7h4.4l-2.6-14H60z M58.4,38.8l3.1-5.8h0.1l0.6,5.8H58.4z"/>
	<polygon points="81.3,32.9 81.9,30.2 71.1,30.2 68.2,44.3 78.9,44.3 79.5,41.5 72.6,41.5 73.3,38.6 79.6,38.6 80.1,35.8 73.9,35.8 
		74.5,32.9 	"/>
	<path d="M7.8,35.6c-1-0.3-2.1-0.6-1.9-1.6c0.2-0.7,1.1-1.3,1.9-1.3c0.7,0,1.1,0.2,1.4,0.4c0.3,0.3,0.4,0.7,0.2,1.2h3.9
		c1-3.4-1.8-4.4-4.7-4.4c-2.9,0-6.1,0.9-6.9,4.2c-0.4,1.5,0.1,2.8,1.4,3.4c2.8,1.3,5.8,0.9,5.3,2.8c-0.2,0.9-1.4,1.4-2.3,1.4
		c-1.4,0-2.2-0.7-1.9-2H0.3c-0.8,3.8,1.9,4.8,5.2,4.8c3.3,0,6.5-1.4,7.1-4.4C13.4,36.4,10,36.2,7.8,35.6z"/>
	<polygon points="24.4,41.5 17.6,41.5 18.2,38.6 24.5,38.6 25.1,35.8 18.8,35.8 19.4,32.9 26.2,32.9 26.8,30.2 16.1,30.2 13.1,44.3 
		23.8,44.3 	"/>
	<polygon points="57.1,14.9 31.5,14.9 30.5,19.8 56.1,19.8 	"/>
	<polygon points="50.5,46.3 25,46.3 24,51.2 49.5,51.2 	"/>
	<polygon points="55.7,22.5 30.1,22.5 29.1,27.5 54.8,27.5 	"/>
	<polygon points="22.6,58.9 48.2,58.9 49.1,53.9 23.6,53.9 	"/>
</g>
</svg>
