<svg id="Layer_1" data-name="Layer 1" xmlns="http://www.w3.org/2000/svg" viewBox="0 0 105.5 82"><title>sebrae</title><path d="M42,56.12c.12,0,6.42.36,7.52-4.61.48-2.42-1-3.88-3.27-4.12h0c1.94-.36,4-1.58,4.49-3.76.61-3-1.7-4.49-5-4.49H37.68L34,56.12ZM41.68,42.3h2.55c1.09,0,1.82.73,1.58,1.7a2.17,2.17,0,0,1-2.42,1.82H41Zm-1.33,6.79H43.5c1.09,0,1.45,1,1.33,1.94a2.38,2.38,0,0,1-2.42,1.82H39.62Z"/><path d="M67.63,43.39c.73-3.64-2.79-4.36-5.7-4.36H54L50.41,56h4.73l1.45-6.55h1.82c2.42,0,2.3.85,2.06,2.91-.12,1.21-.24,2.42-.24,3.64h5.09a23.77,23.77,0,0,1,.12-4.12c.24-2.67,0-4.12-3-4.24v-.12C64.84,47.27,67.14,45.94,67.63,43.39ZM59.14,46.3H57.32l.85-3.88H60c1.45,0,2.91.24,2.55,1.94S60.59,46.3,59.14,46.3Z"/><path d="M75.75,39,65.44,56h4.73L72,52.73H78.9L79.38,56h5.33L81.57,39ZM73.81,49.46l3.76-7h.12l.73,7Z"/><polygon points="101.57 42.3 102.3 39.03 89.2 39.03 85.69 56.12 98.66 56.12 99.39 52.73 91.02 52.73 91.87 49.21 99.51 49.21 100.11 45.82 92.6 45.82 93.33 42.3 101.57 42.3"/><path d="M12.47,45.58c-1.21-.36-2.55-.73-2.3-1.94a2.54,2.54,0,0,1,2.3-1.58,2.83,2.83,0,0,1,1.7.48A1.25,1.25,0,0,1,14.41,44h4.73c1.21-4.12-2.18-5.33-5.7-5.33S6,39.76,5.07,43.76a3.29,3.29,0,0,0,1.7,4.12c3.39,1.58,7,1.09,6.42,3.39C13,52.37,11.5,53,10.41,53c-1.7,0-2.67-.85-2.3-2.42H3.38c-1,4.61,2.3,5.82,6.3,5.82s7.88-1.7,8.61-5.33C19.26,46.55,15.13,46.3,12.47,45.58Z"/><polygon points="32.59 52.73 24.35 52.73 25.07 49.21 32.71 49.21 33.44 45.82 25.8 45.82 26.53 42.3 34.77 42.3 35.5 39.03 22.53 39.03 18.89 56.12 31.86 56.12 32.59 52.73"/><polygon points="72.23 20.48 41.2 20.48 39.99 26.42 71.02 26.42 72.23 20.48"/><polygon points="64.23 58.55 33.32 58.55 32.11 64.49 63.02 64.49 64.23 58.55"/><polygon points="70.53 29.7 39.5 29.7 38.29 35.76 69.44 35.76 70.53 29.7"/><polygon points="30.41 73.82 61.44 73.82 62.53 67.76 31.62 67.76 30.41 73.82"/></svg>